G75*
%MOIN*%
%OFA0B0*%
%FSLAX25Y25*%
%IPPOS*%
%LPD*%
%AMOC8*
5,1,8,0,0,1.08239X$1,22.5*
%
%ADD10C,0.00000*%
%ADD11C,0.10000*%
%ADD12OC8,0.10000*%
%ADD13R,0.07087X0.05512*%
%ADD14R,0.05512X0.07087*%
%ADD15R,0.07874X0.04724*%
%ADD16R,0.04799X0.08799*%
%ADD17R,0.14173X0.08661*%
%ADD18C,0.07800*%
%ADD19C,0.06000*%
%ADD20OC8,0.06000*%
%ADD21C,0.04800*%
%ADD22R,0.05906X0.05118*%
%ADD23C,0.07000*%
%ADD24OC8,0.04800*%
%ADD25C,0.07600*%
%ADD26C,0.02000*%
%ADD27C,0.01500*%
%ADD28R,0.02900X0.02900*%
%ADD29C,0.02900*%
%ADD30C,0.09000*%
D10*
X0003496Y0002000D02*
X0003496Y0332000D01*
X0198496Y0332000D01*
X0198496Y0002000D01*
X0003496Y0002000D01*
D11*
X0018496Y0182000D03*
X0018496Y0222000D03*
D12*
X0038496Y0222000D03*
X0038496Y0182000D03*
D13*
X0153496Y0023693D03*
X0153496Y0010307D03*
X0163496Y0010307D03*
X0163496Y0023693D03*
X0163496Y0035307D03*
X0163496Y0048693D03*
D14*
X0125189Y0162000D03*
X0111803Y0162000D03*
X0100189Y0162000D03*
X0086803Y0162000D03*
X0075189Y0162000D03*
X0061803Y0162000D03*
D15*
X0053496Y0089992D03*
X0053496Y0082118D03*
X0053496Y0074244D03*
X0053496Y0066370D03*
X0053496Y0058496D03*
X0053496Y0050622D03*
X0053496Y0042748D03*
X0053496Y0034874D03*
X0117275Y0034874D03*
X0117275Y0042748D03*
X0117275Y0050622D03*
X0117275Y0058496D03*
X0117275Y0066370D03*
X0117275Y0074244D03*
X0117275Y0082118D03*
X0117275Y0089992D03*
D16*
X0037594Y0124799D03*
X0028496Y0124799D03*
X0019397Y0124799D03*
D17*
X0028496Y0149201D03*
D18*
X0179596Y0162100D02*
X0187396Y0162100D01*
X0187396Y0181900D02*
X0179596Y0181900D01*
X0179596Y0207100D02*
X0187396Y0207100D01*
X0187396Y0226900D02*
X0179596Y0226900D01*
X0179596Y0252100D02*
X0187396Y0252100D01*
X0187396Y0271900D02*
X0179596Y0271900D01*
X0179596Y0297100D02*
X0187396Y0297100D01*
X0187396Y0316900D02*
X0179596Y0316900D01*
D19*
X0123496Y0015000D02*
X0123496Y0009000D01*
X0113496Y0009000D02*
X0113496Y0015000D01*
X0103496Y0015000D02*
X0103496Y0009000D01*
X0093496Y0009000D02*
X0093496Y0015000D01*
X0083496Y0015000D02*
X0083496Y0009000D01*
X0073496Y0009000D02*
X0073496Y0015000D01*
X0063496Y0015000D02*
X0063496Y0009000D01*
X0053496Y0009000D02*
X0053496Y0015000D01*
X0043496Y0015000D02*
X0043496Y0009000D01*
D20*
X0023496Y0047000D03*
X0023496Y0057000D03*
X0023496Y0067000D03*
X0023496Y0077000D03*
X0023496Y0087000D03*
X0013496Y0087000D03*
X0013496Y0077000D03*
X0013496Y0067000D03*
X0013496Y0057000D03*
X0013496Y0047000D03*
D21*
X0143696Y0072000D02*
X0148496Y0072000D01*
X0148496Y0082000D02*
X0143696Y0082000D01*
X0143696Y0097000D02*
X0148496Y0097000D01*
X0148496Y0107000D02*
X0143696Y0107000D01*
X0143696Y0127000D02*
X0148496Y0127000D01*
X0148496Y0137000D02*
X0143696Y0137000D01*
X0178496Y0137000D02*
X0183296Y0137000D01*
X0183296Y0127000D02*
X0178496Y0127000D01*
X0178496Y0107000D02*
X0183296Y0107000D01*
X0183296Y0097000D02*
X0178496Y0097000D01*
X0178496Y0082000D02*
X0183296Y0082000D01*
X0183296Y0072000D02*
X0178496Y0072000D01*
D22*
X0183496Y0045740D03*
X0183496Y0038260D03*
X0173496Y0038260D03*
X0173496Y0045740D03*
X0173496Y0020740D03*
X0173496Y0013260D03*
X0183496Y0013260D03*
X0183496Y0020740D03*
X0153496Y0038260D03*
X0153496Y0045740D03*
X0143496Y0045740D03*
X0143496Y0038260D03*
X0128496Y0040740D03*
X0128496Y0033260D03*
X0128496Y0053260D03*
X0128496Y0060740D03*
X0128496Y0073260D03*
X0128496Y0080740D03*
X0128496Y0093260D03*
X0128496Y0100740D03*
X0038496Y0103260D03*
X0038496Y0110740D03*
X0038496Y0088740D03*
X0038496Y0081260D03*
X0038496Y0070740D03*
X0038496Y0063260D03*
X0038496Y0050740D03*
X0038496Y0043260D03*
X0038496Y0030740D03*
X0038496Y0023260D03*
D23*
X0113496Y0177000D03*
X0113496Y0202000D03*
X0113496Y0227000D03*
X0143496Y0227000D03*
X0143496Y0202000D03*
X0143496Y0177000D03*
X0073651Y0177099D03*
X0063651Y0177099D03*
X0063651Y0202099D03*
X0073651Y0202099D03*
X0073651Y0227099D03*
X0063651Y0227099D03*
D24*
X0063496Y0142000D03*
X0068496Y0134500D03*
X0073496Y0142000D03*
X0088496Y0142000D03*
X0093496Y0134500D03*
X0098496Y0142000D03*
X0113496Y0142000D03*
X0118496Y0134500D03*
X0123496Y0142000D03*
D25*
X0136370Y0277157D03*
X0136370Y0296843D03*
X0020622Y0317315D03*
X0020622Y0256685D03*
D26*
X0020622Y0256685D01*
X0026422Y0256685D01*
X0026422Y0257142D01*
X0026279Y0258043D01*
X0025997Y0258911D01*
X0025582Y0259725D01*
X0025046Y0260463D01*
X0024400Y0261109D01*
X0023662Y0261646D01*
X0022848Y0262060D01*
X0021980Y0262342D01*
X0021078Y0262485D01*
X0020622Y0262485D01*
X0020622Y0256685D01*
X0026422Y0256685D01*
X0026422Y0256229D01*
X0026279Y0255327D01*
X0025997Y0254459D01*
X0025582Y0253645D01*
X0025046Y0252907D01*
X0024400Y0252261D01*
X0023662Y0251724D01*
X0022848Y0251310D01*
X0021980Y0251028D01*
X0021078Y0250885D01*
X0020622Y0250885D01*
X0020622Y0256685D01*
X0020622Y0256685D01*
X0020622Y0256685D01*
X0020622Y0250885D01*
X0020165Y0250885D01*
X0019263Y0251028D01*
X0018395Y0251310D01*
X0017582Y0251724D01*
X0016843Y0252261D01*
X0016198Y0252907D01*
X0015661Y0253645D01*
X0015247Y0254459D01*
X0014964Y0255327D01*
X0014822Y0256229D01*
X0014822Y0256685D01*
X0020622Y0256685D01*
X0020622Y0262485D01*
X0020165Y0262485D01*
X0019263Y0262342D01*
X0018395Y0262060D01*
X0017582Y0261646D01*
X0016843Y0261109D01*
X0016198Y0260463D01*
X0015661Y0259725D01*
X0015247Y0258911D01*
X0014964Y0258043D01*
X0014822Y0257142D01*
X0014822Y0256685D01*
X0020622Y0256685D01*
X0020622Y0256685D01*
X0020622Y0255811D02*
X0020622Y0255811D01*
X0020622Y0257809D02*
X0020622Y0257809D01*
X0020622Y0259808D02*
X0020622Y0259808D01*
X0020622Y0261806D02*
X0020622Y0261806D01*
X0017897Y0261806D02*
X0014246Y0261806D01*
X0014246Y0259808D02*
X0015721Y0259808D01*
X0014927Y0257809D02*
X0014246Y0257809D01*
X0014246Y0255811D02*
X0014888Y0255811D01*
X0014246Y0253812D02*
X0015576Y0253812D01*
X0014246Y0251814D02*
X0017459Y0251814D01*
X0020622Y0251814D02*
X0020622Y0251814D01*
X0020622Y0253812D02*
X0020622Y0253812D01*
X0023785Y0251814D02*
X0104996Y0251814D01*
X0104996Y0253812D02*
X0025667Y0253812D01*
X0026355Y0255811D02*
X0104996Y0255811D01*
X0104996Y0257809D02*
X0026316Y0257809D01*
X0025522Y0259808D02*
X0104996Y0259808D01*
X0104996Y0261806D02*
X0023346Y0261806D01*
X0014246Y0263805D02*
X0104996Y0263805D01*
X0104996Y0265803D02*
X0014246Y0265803D01*
X0014246Y0267802D02*
X0104996Y0267802D01*
X0104996Y0269801D02*
X0014246Y0269801D01*
X0014246Y0271799D02*
X0104996Y0271799D01*
X0104996Y0273691D02*
X0104996Y0175309D01*
X0106290Y0172185D01*
X0108681Y0169794D01*
X0109286Y0169543D01*
X0108251Y0169543D01*
X0106781Y0168934D01*
X0105996Y0168149D01*
X0105210Y0168934D01*
X0103740Y0169543D01*
X0096637Y0169543D01*
X0095167Y0168934D01*
X0094042Y0167809D01*
X0093496Y0166491D01*
X0092950Y0167809D01*
X0091824Y0168934D01*
X0090354Y0169543D01*
X0083251Y0169543D01*
X0081781Y0168934D01*
X0080996Y0168149D01*
X0080210Y0168934D01*
X0079939Y0169047D01*
X0079939Y0172780D01*
X0080009Y0172851D01*
X0081151Y0175607D01*
X0081151Y0178591D01*
X0080009Y0181348D01*
X0078401Y0182956D01*
X0078401Y0196243D01*
X0080009Y0197851D01*
X0081151Y0200607D01*
X0081151Y0203591D01*
X0080009Y0206348D01*
X0078401Y0207956D01*
X0078401Y0221243D01*
X0080009Y0222851D01*
X0081151Y0225607D01*
X0081151Y0228591D01*
X0080009Y0231348D01*
X0078246Y0233111D01*
X0078246Y0233945D01*
X0077523Y0235691D01*
X0076186Y0237027D01*
X0074441Y0237750D01*
X0020551Y0237750D01*
X0018805Y0237027D01*
X0017496Y0235717D01*
X0014246Y0238968D01*
X0014246Y0304221D01*
X0019539Y0309515D01*
X0022173Y0309515D01*
X0025040Y0310702D01*
X0027234Y0312897D01*
X0028422Y0315763D01*
X0028422Y0318866D01*
X0027234Y0321733D01*
X0025040Y0323927D01*
X0022173Y0325115D01*
X0019070Y0325115D01*
X0016203Y0323927D01*
X0014009Y0321733D01*
X0012822Y0318866D01*
X0012822Y0316232D01*
X0007496Y0310906D01*
X0007496Y0328000D01*
X0194496Y0328000D01*
X0194496Y0320403D01*
X0194093Y0321375D01*
X0191871Y0323597D01*
X0188967Y0324800D01*
X0186635Y0324800D01*
X0185186Y0325400D01*
X0161705Y0325400D01*
X0158581Y0324106D01*
X0148681Y0314206D01*
X0146290Y0311815D01*
X0144996Y0308691D01*
X0144996Y0285657D01*
X0134679Y0285657D01*
X0134299Y0285500D01*
X0116805Y0285500D01*
X0113681Y0284206D01*
X0108681Y0279206D01*
X0106290Y0276815D01*
X0104996Y0273691D01*
X0105040Y0273798D02*
X0014246Y0273798D01*
X0014246Y0275796D02*
X0105868Y0275796D01*
X0107269Y0277795D02*
X0014246Y0277795D01*
X0014246Y0279793D02*
X0109268Y0279793D01*
X0111266Y0281792D02*
X0014246Y0281792D01*
X0014246Y0283790D02*
X0113265Y0283790D01*
X0129757Y0292424D02*
X0128570Y0295291D01*
X0128570Y0298394D01*
X0129757Y0301261D01*
X0131951Y0303455D01*
X0134818Y0304643D01*
X0137921Y0304643D01*
X0140788Y0303455D01*
X0142982Y0301261D01*
X0144170Y0298394D01*
X0144170Y0295291D01*
X0142982Y0292424D01*
X0140788Y0290230D01*
X0137921Y0289043D01*
X0134818Y0289043D01*
X0131951Y0290230D01*
X0129757Y0292424D01*
X0130397Y0291784D02*
X0014246Y0291784D01*
X0014246Y0289786D02*
X0133024Y0289786D01*
X0129194Y0293783D02*
X0014246Y0293783D01*
X0014246Y0295781D02*
X0128570Y0295781D01*
X0128570Y0297780D02*
X0014246Y0297780D01*
X0014246Y0299778D02*
X0129143Y0299778D01*
X0130273Y0301777D02*
X0014246Y0301777D01*
X0014246Y0303775D02*
X0132724Y0303775D01*
X0140015Y0303775D02*
X0144996Y0303775D01*
X0144996Y0301777D02*
X0142466Y0301777D01*
X0143596Y0299778D02*
X0144996Y0299778D01*
X0144996Y0297780D02*
X0144170Y0297780D01*
X0144170Y0295781D02*
X0144996Y0295781D01*
X0144996Y0293783D02*
X0143545Y0293783D01*
X0142342Y0291784D02*
X0144996Y0291784D01*
X0144996Y0289786D02*
X0139715Y0289786D01*
X0144996Y0287787D02*
X0014246Y0287787D01*
X0014246Y0285789D02*
X0144996Y0285789D01*
X0144996Y0305774D02*
X0015798Y0305774D01*
X0017796Y0307772D02*
X0144996Y0307772D01*
X0145443Y0309771D02*
X0022791Y0309771D01*
X0026107Y0311769D02*
X0146271Y0311769D01*
X0148243Y0313768D02*
X0027595Y0313768D01*
X0028422Y0315766D02*
X0150241Y0315766D01*
X0152240Y0317765D02*
X0028422Y0317765D01*
X0028050Y0319763D02*
X0154238Y0319763D01*
X0156237Y0321762D02*
X0027206Y0321762D01*
X0025207Y0323760D02*
X0158235Y0323760D01*
X0191477Y0323760D02*
X0194496Y0323760D01*
X0194496Y0321762D02*
X0193706Y0321762D01*
X0194496Y0325759D02*
X0007496Y0325759D01*
X0007496Y0327757D02*
X0194496Y0327757D01*
X0104996Y0249815D02*
X0014246Y0249815D01*
X0014246Y0247817D02*
X0104996Y0247817D01*
X0104996Y0245818D02*
X0014246Y0245818D01*
X0014246Y0243820D02*
X0104996Y0243820D01*
X0104996Y0241821D02*
X0014246Y0241821D01*
X0014246Y0239823D02*
X0104996Y0239823D01*
X0104996Y0237824D02*
X0015389Y0237824D01*
X0017387Y0235826D02*
X0017604Y0235826D01*
X0011773Y0228005D02*
X0010866Y0227098D01*
X0009496Y0223790D01*
X0009496Y0220210D01*
X0010866Y0216902D01*
X0013398Y0214370D01*
X0016705Y0213000D01*
X0020286Y0213000D01*
X0023594Y0214370D01*
X0026125Y0216902D01*
X0027496Y0220210D01*
X0027496Y0223790D01*
X0026125Y0227098D01*
X0024974Y0228250D01*
X0034846Y0228250D01*
X0031496Y0224899D01*
X0031496Y0222000D01*
X0031496Y0219101D01*
X0035596Y0215000D01*
X0038496Y0215000D01*
X0041395Y0215000D01*
X0045496Y0219101D01*
X0045496Y0222000D01*
X0045496Y0224899D01*
X0042145Y0228250D01*
X0056151Y0228250D01*
X0056151Y0225607D01*
X0057293Y0222851D01*
X0059402Y0220741D01*
X0062159Y0219599D01*
X0065143Y0219599D01*
X0067899Y0220741D01*
X0068651Y0221493D01*
X0068901Y0221243D01*
X0068901Y0207956D01*
X0068651Y0207706D01*
X0067899Y0208457D01*
X0065143Y0209599D01*
X0062159Y0209599D01*
X0059402Y0208457D01*
X0057293Y0206348D01*
X0056151Y0203591D01*
X0056151Y0200607D01*
X0057293Y0197851D01*
X0059402Y0195741D01*
X0062159Y0194599D01*
X0065143Y0194599D01*
X0067899Y0195741D01*
X0068651Y0196493D01*
X0068901Y0196243D01*
X0068901Y0182956D01*
X0068651Y0182706D01*
X0067899Y0183457D01*
X0065143Y0184599D01*
X0062159Y0184599D01*
X0059402Y0183457D01*
X0057293Y0181348D01*
X0056151Y0178591D01*
X0056151Y0175607D01*
X0057293Y0172851D01*
X0059402Y0170741D01*
X0062159Y0169599D01*
X0065143Y0169599D01*
X0067899Y0170741D01*
X0068651Y0171493D01*
X0069402Y0170741D01*
X0070439Y0170312D01*
X0070439Y0169047D01*
X0070167Y0168934D01*
X0069042Y0167809D01*
X0068496Y0166491D01*
X0067950Y0167809D01*
X0066824Y0168934D01*
X0065354Y0169543D01*
X0058251Y0169543D01*
X0056781Y0168934D01*
X0055656Y0167809D01*
X0055047Y0166339D01*
X0055047Y0158750D01*
X0045551Y0158750D01*
X0043805Y0158027D01*
X0042469Y0156691D01*
X0039582Y0153804D01*
X0039582Y0154327D01*
X0038973Y0155797D01*
X0037848Y0156923D01*
X0036378Y0157531D01*
X0026882Y0157531D01*
X0023246Y0161168D01*
X0023246Y0174226D01*
X0023594Y0174370D01*
X0026125Y0176902D01*
X0027496Y0180210D01*
X0027496Y0183790D01*
X0026125Y0187098D01*
X0023594Y0189630D01*
X0020286Y0191000D01*
X0016705Y0191000D01*
X0013398Y0189630D01*
X0010866Y0187098D01*
X0009496Y0183790D01*
X0009496Y0180210D01*
X0010866Y0176902D01*
X0013398Y0174370D01*
X0013746Y0174226D01*
X0013746Y0158256D01*
X0014469Y0156510D01*
X0017409Y0153570D01*
X0017409Y0144074D01*
X0018018Y0142604D01*
X0019143Y0141479D01*
X0020613Y0140870D01*
X0023746Y0140870D01*
X0023746Y0132505D01*
X0022705Y0131465D01*
X0022541Y0131070D01*
X0022060Y0131199D01*
X0019597Y0131199D01*
X0019597Y0124999D01*
X0019197Y0124999D01*
X0019197Y0124599D01*
X0019597Y0124599D01*
X0019597Y0118400D01*
X0022060Y0118400D01*
X0022541Y0118529D01*
X0022705Y0118134D01*
X0023746Y0117093D01*
X0023746Y0113750D01*
X0013551Y0113750D01*
X0011805Y0113027D01*
X0010469Y0111691D01*
X0007496Y0108717D01*
X0007496Y0232283D01*
X0011773Y0228005D01*
X0011600Y0227832D02*
X0007496Y0227832D01*
X0007496Y0229830D02*
X0009948Y0229830D01*
X0007949Y0231829D02*
X0007496Y0231829D01*
X0007496Y0225833D02*
X0010342Y0225833D01*
X0009514Y0223835D02*
X0007496Y0223835D01*
X0007496Y0221836D02*
X0009496Y0221836D01*
X0009650Y0219838D02*
X0007496Y0219838D01*
X0007496Y0217839D02*
X0010478Y0217839D01*
X0011927Y0215841D02*
X0007496Y0215841D01*
X0007496Y0213842D02*
X0014672Y0213842D01*
X0022319Y0213842D02*
X0068901Y0213842D01*
X0068901Y0211844D02*
X0007496Y0211844D01*
X0007496Y0209845D02*
X0068901Y0209845D01*
X0068792Y0207847D02*
X0068510Y0207847D01*
X0068901Y0215841D02*
X0042236Y0215841D01*
X0044234Y0217839D02*
X0068901Y0217839D01*
X0068901Y0219838D02*
X0065718Y0219838D01*
X0061583Y0219838D02*
X0045496Y0219838D01*
X0045496Y0221836D02*
X0058307Y0221836D01*
X0056885Y0223835D02*
X0045496Y0223835D01*
X0045496Y0222000D02*
X0038496Y0222000D01*
X0038496Y0222000D01*
X0045496Y0222000D01*
X0044562Y0225833D02*
X0056151Y0225833D01*
X0056151Y0227832D02*
X0042563Y0227832D01*
X0038496Y0222000D02*
X0038496Y0222000D01*
X0038496Y0215000D01*
X0038496Y0222000D01*
X0038496Y0222000D01*
X0031496Y0222000D01*
X0038496Y0222000D01*
X0038496Y0221836D02*
X0038496Y0221836D01*
X0038496Y0219838D02*
X0038496Y0219838D01*
X0038496Y0217839D02*
X0038496Y0217839D01*
X0038496Y0215841D02*
X0038496Y0215841D01*
X0034755Y0215841D02*
X0025064Y0215841D01*
X0026514Y0217839D02*
X0032757Y0217839D01*
X0031496Y0219838D02*
X0027342Y0219838D01*
X0027496Y0221836D02*
X0031496Y0221836D01*
X0031496Y0223835D02*
X0027477Y0223835D01*
X0026649Y0225833D02*
X0032429Y0225833D01*
X0034428Y0227832D02*
X0025392Y0227832D01*
X0007496Y0207847D02*
X0058792Y0207847D01*
X0057086Y0205848D02*
X0007496Y0205848D01*
X0007496Y0203850D02*
X0056258Y0203850D01*
X0056151Y0201851D02*
X0007496Y0201851D01*
X0007496Y0199853D02*
X0056463Y0199853D01*
X0057291Y0197854D02*
X0007496Y0197854D01*
X0007496Y0195856D02*
X0059288Y0195856D01*
X0060385Y0183865D02*
X0045496Y0183865D01*
X0045496Y0184899D02*
X0041395Y0189000D01*
X0038496Y0189000D01*
X0038496Y0182000D01*
X0045496Y0182000D01*
X0045496Y0184899D01*
X0044532Y0185863D02*
X0068901Y0185863D01*
X0068901Y0183865D02*
X0066916Y0183865D01*
X0068901Y0187862D02*
X0042534Y0187862D01*
X0038496Y0187862D02*
X0038496Y0187862D01*
X0038496Y0189000D02*
X0035596Y0189000D01*
X0031496Y0184899D01*
X0031496Y0182000D01*
X0031496Y0179101D01*
X0035596Y0175000D01*
X0038496Y0175000D01*
X0041395Y0175000D01*
X0045496Y0179101D01*
X0045496Y0182000D01*
X0038496Y0182000D01*
X0038496Y0182000D01*
X0038496Y0175000D01*
X0038496Y0182000D01*
X0038496Y0182000D01*
X0038496Y0182000D01*
X0038496Y0189000D01*
X0038496Y0185863D02*
X0038496Y0185863D01*
X0038496Y0183865D02*
X0038496Y0183865D01*
X0038496Y0182000D02*
X0038496Y0182000D01*
X0031496Y0182000D01*
X0038496Y0182000D01*
X0038496Y0181866D02*
X0038496Y0181866D01*
X0038496Y0179868D02*
X0038496Y0179868D01*
X0038496Y0177869D02*
X0038496Y0177869D01*
X0038496Y0175870D02*
X0038496Y0175870D01*
X0042266Y0175870D02*
X0056151Y0175870D01*
X0056151Y0177869D02*
X0044264Y0177869D01*
X0045496Y0179868D02*
X0056680Y0179868D01*
X0057811Y0181866D02*
X0045496Y0181866D01*
X0034726Y0175870D02*
X0025094Y0175870D01*
X0026526Y0177869D02*
X0032727Y0177869D01*
X0031496Y0179868D02*
X0027354Y0179868D01*
X0027496Y0181866D02*
X0031496Y0181866D01*
X0031496Y0183865D02*
X0027465Y0183865D01*
X0026637Y0185863D02*
X0032459Y0185863D01*
X0034458Y0187862D02*
X0025362Y0187862D01*
X0023038Y0189860D02*
X0068901Y0189860D01*
X0068901Y0191859D02*
X0007496Y0191859D01*
X0007496Y0193857D02*
X0068901Y0193857D01*
X0068901Y0195856D02*
X0068014Y0195856D01*
X0078401Y0195856D02*
X0104996Y0195856D01*
X0104996Y0197854D02*
X0080010Y0197854D01*
X0080838Y0199853D02*
X0104996Y0199853D01*
X0104996Y0201851D02*
X0081151Y0201851D01*
X0081044Y0203850D02*
X0104996Y0203850D01*
X0104996Y0205848D02*
X0080216Y0205848D01*
X0078510Y0207847D02*
X0104996Y0207847D01*
X0104996Y0209845D02*
X0078401Y0209845D01*
X0078401Y0211844D02*
X0104996Y0211844D01*
X0104996Y0213842D02*
X0078401Y0213842D01*
X0078401Y0215841D02*
X0104996Y0215841D01*
X0104996Y0217839D02*
X0078401Y0217839D01*
X0078401Y0219838D02*
X0104996Y0219838D01*
X0104996Y0221836D02*
X0078994Y0221836D01*
X0080417Y0223835D02*
X0104996Y0223835D01*
X0104996Y0225833D02*
X0081151Y0225833D01*
X0081151Y0227832D02*
X0104996Y0227832D01*
X0104996Y0229830D02*
X0080637Y0229830D01*
X0079528Y0231829D02*
X0104996Y0231829D01*
X0104996Y0233827D02*
X0078246Y0233827D01*
X0077387Y0235826D02*
X0104996Y0235826D01*
X0104996Y0193857D02*
X0078401Y0193857D01*
X0078401Y0191859D02*
X0104996Y0191859D01*
X0104996Y0189860D02*
X0078401Y0189860D01*
X0078401Y0187862D02*
X0104996Y0187862D01*
X0104996Y0185863D02*
X0078401Y0185863D01*
X0078401Y0183865D02*
X0104996Y0183865D01*
X0104996Y0181866D02*
X0079491Y0181866D01*
X0080622Y0179868D02*
X0104996Y0179868D01*
X0104996Y0177869D02*
X0081151Y0177869D01*
X0081151Y0175870D02*
X0104996Y0175870D01*
X0105591Y0173872D02*
X0080432Y0173872D01*
X0079939Y0171873D02*
X0106601Y0171873D01*
X0108600Y0169875D02*
X0079939Y0169875D01*
X0070439Y0169875D02*
X0065808Y0169875D01*
X0067882Y0167876D02*
X0069109Y0167876D01*
X0061493Y0169875D02*
X0023246Y0169875D01*
X0023246Y0171873D02*
X0058270Y0171873D01*
X0056870Y0173872D02*
X0023246Y0173872D01*
X0023246Y0167876D02*
X0055723Y0167876D01*
X0055047Y0165878D02*
X0023246Y0165878D01*
X0023246Y0163879D02*
X0055047Y0163879D01*
X0055047Y0161881D02*
X0023246Y0161881D01*
X0024532Y0159882D02*
X0055047Y0159882D01*
X0048463Y0149250D02*
X0097441Y0149250D01*
X0099186Y0149973D01*
X0100496Y0151282D01*
X0101805Y0149973D01*
X0103551Y0149250D01*
X0123441Y0149250D01*
X0125186Y0149973D01*
X0126523Y0151309D01*
X0126523Y0151309D01*
X0129215Y0154002D01*
X0129541Y0154788D01*
X0130210Y0155066D01*
X0131336Y0156191D01*
X0131774Y0157250D01*
X0132528Y0157250D01*
X0146378Y0143400D01*
X0142423Y0143400D01*
X0140070Y0142426D01*
X0138270Y0140625D01*
X0137296Y0138273D01*
X0137296Y0135727D01*
X0138270Y0133375D01*
X0139645Y0132000D01*
X0138270Y0130625D01*
X0137296Y0128273D01*
X0137296Y0125750D01*
X0133963Y0125750D01*
X0124896Y0134817D01*
X0124896Y0137151D01*
X0124447Y0137600D01*
X0125318Y0137600D01*
X0127896Y0140177D01*
X0127896Y0142000D01*
X0127896Y0143823D01*
X0125318Y0146400D01*
X0123496Y0146400D01*
X0123496Y0142000D01*
X0127896Y0142000D01*
X0123496Y0142000D01*
X0123496Y0142000D01*
X0123496Y0142000D01*
X0123496Y0146400D01*
X0121673Y0146400D01*
X0119896Y0144623D01*
X0119896Y0144651D01*
X0116147Y0148400D01*
X0110845Y0148400D01*
X0107096Y0144651D01*
X0107096Y0139349D01*
X0110845Y0135600D01*
X0112096Y0135600D01*
X0112096Y0131849D01*
X0115845Y0128100D01*
X0118178Y0128100D01*
X0124528Y0121750D01*
X0104463Y0121750D01*
X0098246Y0127968D01*
X0098246Y0130199D01*
X0099896Y0131849D01*
X0099896Y0137151D01*
X0099447Y0137600D01*
X0100318Y0137600D01*
X0102896Y0140177D01*
X0102896Y0142000D01*
X0102896Y0143823D01*
X0100318Y0146400D01*
X0098496Y0146400D01*
X0098496Y0142000D01*
X0102896Y0142000D01*
X0098496Y0142000D01*
X0098496Y0142000D01*
X0098496Y0142000D01*
X0098496Y0146400D01*
X0096673Y0146400D01*
X0094896Y0144623D01*
X0094896Y0144651D01*
X0091147Y0148400D01*
X0085845Y0148400D01*
X0082096Y0144651D01*
X0082096Y0139349D01*
X0085845Y0135600D01*
X0087096Y0135600D01*
X0087096Y0131849D01*
X0088746Y0130199D01*
X0088746Y0125055D01*
X0089469Y0123309D01*
X0090805Y0121973D01*
X0095028Y0117750D01*
X0076463Y0117750D01*
X0073246Y0120968D01*
X0073246Y0130199D01*
X0074896Y0131849D01*
X0074896Y0137151D01*
X0074447Y0137600D01*
X0075318Y0137600D01*
X0077896Y0140177D01*
X0077896Y0142000D01*
X0077896Y0143823D01*
X0075318Y0146400D01*
X0073496Y0146400D01*
X0073496Y0142000D01*
X0077896Y0142000D01*
X0073496Y0142000D01*
X0073496Y0142000D01*
X0073496Y0142000D01*
X0073496Y0146400D01*
X0071673Y0146400D01*
X0069896Y0144623D01*
X0069896Y0144651D01*
X0066147Y0148400D01*
X0060845Y0148400D01*
X0057096Y0144651D01*
X0057096Y0139349D01*
X0060845Y0135600D01*
X0062096Y0135600D01*
X0062096Y0131849D01*
X0063746Y0130199D01*
X0063746Y0118055D01*
X0064469Y0116309D01*
X0065805Y0114973D01*
X0071805Y0108973D01*
X0073551Y0108250D01*
X0126722Y0108250D01*
X0128412Y0107550D01*
X0130580Y0107550D01*
X0132583Y0108380D01*
X0134116Y0109913D01*
X0134946Y0111916D01*
X0134946Y0112250D01*
X0139895Y0112250D01*
X0138270Y0110625D01*
X0137296Y0108273D01*
X0137296Y0105727D01*
X0138270Y0103375D01*
X0139645Y0102000D01*
X0138929Y0101284D01*
X0135446Y0104767D01*
X0135113Y0104905D01*
X0134839Y0105565D01*
X0133714Y0106690D01*
X0132244Y0107299D01*
X0124747Y0107299D01*
X0123277Y0106690D01*
X0122152Y0105565D01*
X0121543Y0104095D01*
X0121543Y0097385D01*
X0121703Y0097000D01*
X0121543Y0096615D01*
X0121543Y0096354D01*
X0112543Y0096354D01*
X0111072Y0095745D01*
X0109947Y0094620D01*
X0109587Y0093750D01*
X0105551Y0093750D01*
X0103805Y0093027D01*
X0100805Y0090027D01*
X0099469Y0088691D01*
X0099462Y0088673D01*
X0098875Y0088087D01*
X0098322Y0086750D01*
X0062270Y0086750D01*
X0061433Y0087097D01*
X0061433Y0093150D01*
X0060824Y0094620D01*
X0059698Y0095745D01*
X0058228Y0096354D01*
X0053851Y0096354D01*
X0045448Y0104757D01*
X0045448Y0106615D01*
X0045289Y0107000D01*
X0045448Y0107385D01*
X0045448Y0114095D01*
X0044839Y0115565D01*
X0043714Y0116690D01*
X0042460Y0117210D01*
X0043385Y0118134D01*
X0043994Y0119604D01*
X0043994Y0125148D01*
X0044246Y0125756D01*
X0044246Y0145032D01*
X0048463Y0149250D01*
X0047105Y0147891D02*
X0060336Y0147891D01*
X0058338Y0145893D02*
X0045106Y0145893D01*
X0044246Y0143894D02*
X0057096Y0143894D01*
X0057096Y0141896D02*
X0044246Y0141896D01*
X0044246Y0139897D02*
X0057096Y0139897D01*
X0058546Y0137899D02*
X0044246Y0137899D01*
X0044246Y0135900D02*
X0060544Y0135900D01*
X0062096Y0133902D02*
X0044246Y0133902D01*
X0044246Y0131903D02*
X0062096Y0131903D01*
X0063746Y0129905D02*
X0044246Y0129905D01*
X0044246Y0127906D02*
X0063746Y0127906D01*
X0063746Y0125908D02*
X0044246Y0125908D01*
X0043994Y0123909D02*
X0063746Y0123909D01*
X0063746Y0121911D02*
X0043994Y0121911D01*
X0043994Y0119912D02*
X0063746Y0119912D01*
X0063804Y0117914D02*
X0043165Y0117914D01*
X0044489Y0115915D02*
X0064863Y0115915D01*
X0066862Y0113917D02*
X0045448Y0113917D01*
X0045448Y0111918D02*
X0068860Y0111918D01*
X0070859Y0109920D02*
X0045448Y0109920D01*
X0045448Y0107921D02*
X0127516Y0107921D01*
X0131476Y0107921D02*
X0137296Y0107921D01*
X0137296Y0105923D02*
X0134482Y0105923D01*
X0136289Y0103924D02*
X0138042Y0103924D01*
X0138288Y0101926D02*
X0139570Y0101926D01*
X0137978Y0109920D02*
X0134119Y0109920D01*
X0134946Y0111918D02*
X0139563Y0111918D01*
X0137296Y0125908D02*
X0133805Y0125908D01*
X0131807Y0127906D02*
X0137296Y0127906D01*
X0137972Y0129905D02*
X0129808Y0129905D01*
X0127810Y0131903D02*
X0139548Y0131903D01*
X0138052Y0133902D02*
X0125811Y0133902D01*
X0124896Y0135900D02*
X0137296Y0135900D01*
X0137296Y0137899D02*
X0125617Y0137899D01*
X0127615Y0139897D02*
X0137968Y0139897D01*
X0139540Y0141896D02*
X0127896Y0141896D01*
X0127824Y0143894D02*
X0145884Y0143894D01*
X0143885Y0145893D02*
X0125825Y0145893D01*
X0123496Y0145893D02*
X0123496Y0145893D01*
X0123496Y0143894D02*
X0123496Y0143894D01*
X0121166Y0145893D02*
X0118654Y0145893D01*
X0116655Y0147891D02*
X0141887Y0147891D01*
X0139888Y0149890D02*
X0124985Y0149890D01*
X0127102Y0151888D02*
X0137890Y0151888D01*
X0135891Y0153887D02*
X0129100Y0153887D01*
X0131030Y0155885D02*
X0133893Y0155885D01*
X0118372Y0127906D02*
X0098307Y0127906D01*
X0098246Y0129905D02*
X0114040Y0129905D01*
X0112096Y0131903D02*
X0099896Y0131903D01*
X0099896Y0133902D02*
X0112096Y0133902D01*
X0110544Y0135900D02*
X0099896Y0135900D01*
X0100617Y0137899D02*
X0108546Y0137899D01*
X0107096Y0139897D02*
X0102615Y0139897D01*
X0102896Y0141896D02*
X0107096Y0141896D01*
X0107096Y0143894D02*
X0102824Y0143894D01*
X0100825Y0145893D02*
X0108338Y0145893D01*
X0110336Y0147891D02*
X0091655Y0147891D01*
X0093654Y0145893D02*
X0096166Y0145893D01*
X0098496Y0145893D02*
X0098496Y0145893D01*
X0098496Y0143894D02*
X0098496Y0143894D01*
X0098985Y0149890D02*
X0102006Y0149890D01*
X0094109Y0167876D02*
X0092882Y0167876D01*
X0085336Y0147891D02*
X0066655Y0147891D01*
X0068654Y0145893D02*
X0071166Y0145893D01*
X0073496Y0145893D02*
X0073496Y0145893D01*
X0073496Y0143894D02*
X0073496Y0143894D01*
X0075825Y0145893D02*
X0083338Y0145893D01*
X0082096Y0143894D02*
X0077824Y0143894D01*
X0077896Y0141896D02*
X0082096Y0141896D01*
X0082096Y0139897D02*
X0077615Y0139897D01*
X0075617Y0137899D02*
X0083546Y0137899D01*
X0085544Y0135900D02*
X0074896Y0135900D01*
X0074896Y0133902D02*
X0087096Y0133902D01*
X0087096Y0131903D02*
X0074896Y0131903D01*
X0073246Y0129905D02*
X0088746Y0129905D01*
X0088746Y0127906D02*
X0073246Y0127906D01*
X0073246Y0125908D02*
X0088746Y0125908D01*
X0089220Y0123909D02*
X0073246Y0123909D01*
X0073246Y0121911D02*
X0090867Y0121911D01*
X0092866Y0119912D02*
X0074301Y0119912D01*
X0076300Y0117914D02*
X0094864Y0117914D01*
X0100305Y0125908D02*
X0120370Y0125908D01*
X0122369Y0123909D02*
X0102304Y0123909D01*
X0104302Y0121911D02*
X0124367Y0121911D01*
X0122509Y0105923D02*
X0045448Y0105923D01*
X0046281Y0103924D02*
X0121543Y0103924D01*
X0121543Y0101926D02*
X0048280Y0101926D01*
X0050278Y0099927D02*
X0121543Y0099927D01*
X0121543Y0097929D02*
X0052277Y0097929D01*
X0059253Y0095930D02*
X0111518Y0095930D01*
X0109662Y0093932D02*
X0061109Y0093932D01*
X0061433Y0091933D02*
X0102711Y0091933D01*
X0100713Y0089934D02*
X0061433Y0089934D01*
X0061433Y0087936D02*
X0098813Y0087936D01*
X0072811Y0045967D02*
X0066246Y0045967D01*
X0066246Y0043969D02*
X0074809Y0043969D01*
X0076808Y0041970D02*
X0068243Y0041970D01*
X0069463Y0040750D02*
X0066246Y0043968D01*
X0066246Y0050945D01*
X0065523Y0052691D01*
X0064963Y0053250D01*
X0065528Y0053250D01*
X0078028Y0040750D01*
X0069463Y0040750D01*
X0070812Y0047966D02*
X0066246Y0047966D01*
X0066246Y0049964D02*
X0068814Y0049964D01*
X0066815Y0051963D02*
X0065824Y0051963D01*
X0068246Y0027250D02*
X0077046Y0027250D01*
X0077046Y0026916D01*
X0077746Y0025226D01*
X0077746Y0019149D01*
X0077561Y0018965D01*
X0077280Y0018286D01*
X0076753Y0018814D01*
X0076116Y0019276D01*
X0075415Y0019634D01*
X0074666Y0019877D01*
X0073889Y0020000D01*
X0073496Y0020000D01*
X0073496Y0012000D01*
X0073496Y0012000D01*
X0073496Y0020000D01*
X0073102Y0020000D01*
X0072325Y0019877D01*
X0071576Y0019634D01*
X0070875Y0019276D01*
X0070238Y0018814D01*
X0069711Y0018286D01*
X0069430Y0018965D01*
X0068246Y0020149D01*
X0068246Y0027250D01*
X0068246Y0025982D02*
X0077432Y0025982D01*
X0077746Y0023984D02*
X0068246Y0023984D01*
X0068246Y0021985D02*
X0077746Y0021985D01*
X0077746Y0019987D02*
X0073974Y0019987D01*
X0073496Y0019987D02*
X0073496Y0019987D01*
X0073018Y0019987D02*
X0068409Y0019987D01*
X0073496Y0017988D02*
X0073496Y0017988D01*
X0073496Y0015990D02*
X0073496Y0015990D01*
X0073496Y0013991D02*
X0073496Y0013991D01*
X0096463Y0035750D02*
X0094215Y0037998D01*
X0110069Y0037998D01*
X0111072Y0036995D01*
X0111338Y0036885D01*
X0111338Y0035055D01*
X0117094Y0035055D01*
X0117094Y0034693D01*
X0111338Y0034693D01*
X0111338Y0032248D01*
X0111472Y0031750D01*
X0108946Y0031750D01*
X0108946Y0032084D01*
X0108116Y0034087D01*
X0106583Y0035620D01*
X0104580Y0036450D01*
X0102412Y0036450D01*
X0100722Y0035750D01*
X0096463Y0035750D01*
X0096238Y0035975D02*
X0101264Y0035975D01*
X0105727Y0035975D02*
X0111338Y0035975D01*
X0111338Y0033976D02*
X0108162Y0033976D01*
X0108946Y0031978D02*
X0111411Y0031978D01*
X0110094Y0037973D02*
X0094240Y0037973D01*
X0098246Y0022250D02*
X0105322Y0022250D01*
X0105875Y0020913D01*
X0107408Y0019380D01*
X0107810Y0019214D01*
X0107561Y0018965D01*
X0107280Y0018286D01*
X0106753Y0018814D01*
X0106116Y0019276D01*
X0105415Y0019634D01*
X0104666Y0019877D01*
X0103889Y0020000D01*
X0103496Y0020000D01*
X0103496Y0012000D01*
X0103496Y0012000D01*
X0103496Y0020000D01*
X0103102Y0020000D01*
X0102325Y0019877D01*
X0101576Y0019634D01*
X0100875Y0019276D01*
X0100238Y0018814D01*
X0099711Y0018286D01*
X0099430Y0018965D01*
X0098246Y0020149D01*
X0098246Y0022250D01*
X0098246Y0021985D02*
X0105431Y0021985D01*
X0106802Y0019987D02*
X0103974Y0019987D01*
X0103496Y0019987D02*
X0103496Y0019987D01*
X0103018Y0019987D02*
X0098409Y0019987D01*
X0103496Y0017988D02*
X0103496Y0017988D01*
X0103496Y0015990D02*
X0103496Y0015990D01*
X0103496Y0013991D02*
X0103496Y0013991D01*
X0117456Y0034693D02*
X0117456Y0035055D01*
X0123012Y0035055D01*
X0123277Y0034790D01*
X0123543Y0034680D01*
X0123543Y0033539D01*
X0128216Y0033539D01*
X0128216Y0032980D01*
X0128775Y0032980D01*
X0128775Y0028701D01*
X0131046Y0028701D01*
X0131046Y0026916D01*
X0131875Y0024913D01*
X0132462Y0024327D01*
X0132469Y0024309D01*
X0133805Y0022973D01*
X0134329Y0022756D01*
X0134635Y0022450D01*
X0134412Y0022450D01*
X0132722Y0021750D01*
X0128246Y0021750D01*
X0128246Y0022945D01*
X0127523Y0024691D01*
X0126186Y0026027D01*
X0121654Y0030560D01*
X0121984Y0030648D01*
X0122440Y0030911D01*
X0122813Y0031284D01*
X0123076Y0031740D01*
X0123212Y0032248D01*
X0123212Y0034693D01*
X0117456Y0034693D01*
X0122234Y0029979D02*
X0123666Y0029979D01*
X0123679Y0029929D02*
X0123943Y0029473D01*
X0124315Y0029100D01*
X0124771Y0028837D01*
X0125280Y0028701D01*
X0128216Y0028701D01*
X0128216Y0032980D01*
X0123543Y0032980D01*
X0123543Y0030437D01*
X0123679Y0029929D01*
X0124233Y0027981D02*
X0131046Y0027981D01*
X0131432Y0025982D02*
X0126231Y0025982D01*
X0127815Y0023984D02*
X0132795Y0023984D01*
X0133289Y0021985D02*
X0128246Y0021985D01*
X0128216Y0029979D02*
X0128775Y0029979D01*
X0128775Y0031978D02*
X0128216Y0031978D01*
X0123543Y0031978D02*
X0123140Y0031978D01*
X0123212Y0033976D02*
X0123543Y0033976D01*
X0048746Y0022032D02*
X0048746Y0020149D01*
X0047561Y0018965D01*
X0047280Y0018286D01*
X0046753Y0018814D01*
X0046116Y0019276D01*
X0045415Y0019634D01*
X0044666Y0019877D01*
X0043889Y0020000D01*
X0043496Y0020000D01*
X0043496Y0012000D01*
X0043496Y0012000D01*
X0043496Y0020000D01*
X0043331Y0020000D01*
X0043448Y0020437D01*
X0043448Y0022980D01*
X0038775Y0022980D01*
X0038775Y0018701D01*
X0040125Y0018701D01*
X0039682Y0018257D01*
X0039219Y0017621D01*
X0038862Y0016919D01*
X0038619Y0016171D01*
X0038496Y0015394D01*
X0038496Y0012000D01*
X0043496Y0012000D01*
X0038496Y0012000D01*
X0038496Y0008606D01*
X0038619Y0007829D01*
X0038862Y0007081D01*
X0039219Y0006379D01*
X0039495Y0006000D01*
X0007496Y0006000D01*
X0007496Y0042687D01*
X0008201Y0042395D01*
X0008746Y0041851D01*
X0008746Y0041055D01*
X0009469Y0039309D01*
X0010805Y0037973D01*
X0015805Y0032973D01*
X0017551Y0032250D01*
X0031543Y0032250D01*
X0031543Y0027385D01*
X0032152Y0025915D01*
X0033277Y0024790D01*
X0033543Y0024680D01*
X0033543Y0023539D01*
X0038216Y0023539D01*
X0038216Y0022980D01*
X0038775Y0022980D01*
X0038775Y0023539D01*
X0043448Y0023539D01*
X0043448Y0024680D01*
X0043714Y0024790D01*
X0044749Y0025825D01*
X0045098Y0025680D01*
X0048746Y0022032D01*
X0048746Y0021985D02*
X0043448Y0021985D01*
X0043448Y0023984D02*
X0046795Y0023984D01*
X0048583Y0019987D02*
X0043974Y0019987D01*
X0043496Y0019987D02*
X0043496Y0019987D01*
X0043496Y0017988D02*
X0043496Y0017988D01*
X0043496Y0015990D02*
X0043496Y0015990D01*
X0043496Y0013991D02*
X0043496Y0013991D01*
X0043496Y0012000D02*
X0043496Y0012000D01*
X0038496Y0011993D02*
X0007496Y0011993D01*
X0007496Y0013991D02*
X0038496Y0013991D01*
X0038590Y0015990D02*
X0007496Y0015990D01*
X0007496Y0017988D02*
X0039486Y0017988D01*
X0038216Y0018701D02*
X0038216Y0022980D01*
X0033543Y0022980D01*
X0033543Y0020437D01*
X0033679Y0019929D01*
X0033943Y0019473D01*
X0034315Y0019100D01*
X0034771Y0018837D01*
X0035280Y0018701D01*
X0038216Y0018701D01*
X0038216Y0019987D02*
X0038775Y0019987D01*
X0038775Y0021985D02*
X0038216Y0021985D01*
X0033543Y0021985D02*
X0007496Y0021985D01*
X0007496Y0019987D02*
X0033664Y0019987D01*
X0033543Y0023984D02*
X0007496Y0023984D01*
X0007496Y0025982D02*
X0032124Y0025982D01*
X0031543Y0027981D02*
X0007496Y0027981D01*
X0007496Y0029979D02*
X0031543Y0029979D01*
X0031543Y0031978D02*
X0007496Y0031978D01*
X0007496Y0033976D02*
X0014802Y0033976D01*
X0012803Y0035975D02*
X0007496Y0035975D01*
X0007496Y0037973D02*
X0010805Y0037973D01*
X0009194Y0039972D02*
X0007496Y0039972D01*
X0007496Y0041970D02*
X0008626Y0041970D01*
X0019304Y0042909D02*
X0019910Y0043515D01*
X0021425Y0042000D01*
X0023496Y0042000D01*
X0025567Y0042000D01*
X0028496Y0044929D01*
X0028496Y0047000D01*
X0028496Y0049071D01*
X0026981Y0050586D01*
X0030496Y0054101D01*
X0030496Y0059899D01*
X0028395Y0062000D01*
X0030496Y0064101D01*
X0030496Y0065282D01*
X0031852Y0066639D01*
X0032152Y0065915D01*
X0033277Y0064790D01*
X0033543Y0064680D01*
X0033543Y0063539D01*
X0038216Y0063539D01*
X0038216Y0062980D01*
X0038775Y0062980D01*
X0038775Y0058701D01*
X0041712Y0058701D01*
X0042220Y0058837D01*
X0042676Y0059100D01*
X0043049Y0059473D01*
X0043143Y0059635D01*
X0045559Y0057219D01*
X0045559Y0055490D01*
X0044870Y0055490D01*
X0044839Y0055565D01*
X0043714Y0056690D01*
X0042244Y0057299D01*
X0034747Y0057299D01*
X0033277Y0056690D01*
X0032152Y0055565D01*
X0031543Y0054095D01*
X0031543Y0047385D01*
X0032152Y0045915D01*
X0033277Y0044790D01*
X0033543Y0044680D01*
X0033543Y0043539D01*
X0038216Y0043539D01*
X0038216Y0042980D01*
X0033543Y0042980D01*
X0033543Y0041750D01*
X0020463Y0041750D01*
X0019304Y0042909D01*
X0020243Y0041970D02*
X0033543Y0041970D01*
X0033543Y0043969D02*
X0027535Y0043969D01*
X0028496Y0045967D02*
X0032130Y0045967D01*
X0031543Y0047966D02*
X0028496Y0047966D01*
X0028496Y0047000D02*
X0023496Y0047000D01*
X0023496Y0047000D01*
X0028496Y0047000D01*
X0027602Y0049964D02*
X0031543Y0049964D01*
X0031543Y0051963D02*
X0028358Y0051963D01*
X0030356Y0053961D02*
X0031543Y0053961D01*
X0032547Y0055960D02*
X0030496Y0055960D01*
X0030496Y0057958D02*
X0044820Y0057958D01*
X0044445Y0055960D02*
X0045559Y0055960D01*
X0038216Y0058701D02*
X0038216Y0062980D01*
X0033543Y0062980D01*
X0033543Y0060437D01*
X0033679Y0059929D01*
X0033943Y0059473D01*
X0034315Y0059100D01*
X0034771Y0058837D01*
X0035280Y0058701D01*
X0038216Y0058701D01*
X0038216Y0059957D02*
X0038775Y0059957D01*
X0038775Y0061955D02*
X0038216Y0061955D01*
X0033543Y0061955D02*
X0028440Y0061955D01*
X0030349Y0063954D02*
X0033543Y0063954D01*
X0032137Y0065952D02*
X0031166Y0065952D01*
X0030438Y0059957D02*
X0033672Y0059957D01*
X0023496Y0047000D02*
X0023496Y0042000D01*
X0023496Y0047000D01*
X0023496Y0047000D01*
X0023496Y0045967D02*
X0023496Y0045967D01*
X0023496Y0043969D02*
X0023496Y0043969D01*
X0038496Y0009994D02*
X0007496Y0009994D01*
X0007496Y0007996D02*
X0038592Y0007996D01*
X0008698Y0109920D02*
X0007496Y0109920D01*
X0007496Y0111918D02*
X0010696Y0111918D01*
X0007496Y0113917D02*
X0023746Y0113917D01*
X0023746Y0115915D02*
X0007496Y0115915D01*
X0007496Y0117914D02*
X0022925Y0117914D01*
X0019197Y0118400D02*
X0019197Y0124599D01*
X0014998Y0124599D01*
X0014998Y0120136D01*
X0015134Y0119628D01*
X0015397Y0119172D01*
X0015770Y0118799D01*
X0016226Y0118536D01*
X0016734Y0118400D01*
X0019197Y0118400D01*
X0019197Y0119912D02*
X0019597Y0119912D01*
X0019597Y0121911D02*
X0019197Y0121911D01*
X0019197Y0123909D02*
X0019597Y0123909D01*
X0019197Y0124999D02*
X0014998Y0124999D01*
X0014998Y0129462D01*
X0015134Y0129971D01*
X0015397Y0130427D01*
X0015770Y0130799D01*
X0016226Y0131063D01*
X0016734Y0131199D01*
X0019197Y0131199D01*
X0019197Y0124999D01*
X0019197Y0125908D02*
X0019597Y0125908D01*
X0019597Y0127906D02*
X0019197Y0127906D01*
X0019197Y0129905D02*
X0019597Y0129905D01*
X0023144Y0131903D02*
X0007496Y0131903D01*
X0007496Y0129905D02*
X0015116Y0129905D01*
X0014998Y0127906D02*
X0007496Y0127906D01*
X0007496Y0125908D02*
X0014998Y0125908D01*
X0014998Y0123909D02*
X0007496Y0123909D01*
X0007496Y0121911D02*
X0014998Y0121911D01*
X0015058Y0119912D02*
X0007496Y0119912D01*
X0007496Y0133902D02*
X0023746Y0133902D01*
X0023746Y0135900D02*
X0007496Y0135900D01*
X0007496Y0137899D02*
X0023746Y0137899D01*
X0023746Y0139897D02*
X0007496Y0139897D01*
X0007496Y0141896D02*
X0018726Y0141896D01*
X0017484Y0143894D02*
X0007496Y0143894D01*
X0007496Y0145893D02*
X0017409Y0145893D01*
X0017409Y0147891D02*
X0007496Y0147891D01*
X0007496Y0149890D02*
X0017409Y0149890D01*
X0017409Y0151888D02*
X0007496Y0151888D01*
X0007496Y0153887D02*
X0017092Y0153887D01*
X0015094Y0155885D02*
X0007496Y0155885D01*
X0007496Y0157884D02*
X0013900Y0157884D01*
X0013746Y0159882D02*
X0007496Y0159882D01*
X0007496Y0161881D02*
X0013746Y0161881D01*
X0013746Y0163879D02*
X0007496Y0163879D01*
X0007496Y0165878D02*
X0013746Y0165878D01*
X0013746Y0167876D02*
X0007496Y0167876D01*
X0007496Y0169875D02*
X0013746Y0169875D01*
X0013746Y0171873D02*
X0007496Y0171873D01*
X0007496Y0173872D02*
X0013746Y0173872D01*
X0011897Y0175870D02*
X0007496Y0175870D01*
X0007496Y0177869D02*
X0010465Y0177869D01*
X0009637Y0179868D02*
X0007496Y0179868D01*
X0007496Y0181866D02*
X0009496Y0181866D01*
X0009526Y0183865D02*
X0007496Y0183865D01*
X0007496Y0185863D02*
X0010354Y0185863D01*
X0011629Y0187862D02*
X0007496Y0187862D01*
X0007496Y0189860D02*
X0013953Y0189860D01*
X0026530Y0157884D02*
X0043662Y0157884D01*
X0041664Y0155885D02*
X0038885Y0155885D01*
X0039582Y0153887D02*
X0039665Y0153887D01*
X0008358Y0311769D02*
X0007496Y0311769D01*
X0007496Y0313768D02*
X0010357Y0313768D01*
X0012355Y0315766D02*
X0007496Y0315766D01*
X0007496Y0317765D02*
X0012822Y0317765D01*
X0013193Y0319763D02*
X0007496Y0319763D01*
X0007496Y0321762D02*
X0014038Y0321762D01*
X0016036Y0323760D02*
X0007496Y0323760D01*
D27*
X0020622Y0317315D02*
X0009496Y0306189D01*
X0009496Y0237000D01*
X0017496Y0229000D01*
X0018496Y0229000D01*
X0018496Y0222000D01*
X0018496Y0229000D02*
X0018496Y0230000D01*
X0021496Y0233000D01*
X0073496Y0233000D01*
X0073496Y0227254D01*
X0073651Y0227099D01*
X0073651Y0201000D01*
X0073651Y0202099D01*
X0073651Y0201000D02*
X0073651Y0177099D01*
X0075189Y0175561D01*
X0075189Y0162000D01*
X0075189Y0156307D01*
X0077496Y0154000D01*
X0078496Y0154000D01*
X0046496Y0154000D01*
X0039496Y0147000D01*
X0039496Y0126701D01*
X0037594Y0124799D01*
X0038496Y0110740D02*
X0036756Y0109000D01*
X0030496Y0109000D01*
X0028496Y0111000D01*
X0028496Y0124799D01*
X0028496Y0149201D01*
X0018496Y0159201D01*
X0018496Y0182000D01*
X0014496Y0109000D02*
X0030496Y0109000D01*
X0030496Y0100000D02*
X0033496Y0097000D01*
X0038496Y0097000D01*
X0038496Y0088740D01*
X0038496Y0081260D02*
X0045511Y0074244D01*
X0053496Y0074244D01*
X0059496Y0082000D02*
X0117157Y0082000D01*
X0117275Y0082118D01*
X0116283Y0089000D02*
X0106496Y0089000D01*
X0103496Y0086000D01*
X0103496Y0085000D01*
X0103496Y0079000D02*
X0095596Y0071100D01*
X0065496Y0071100D01*
X0065496Y0071800D01*
X0060496Y0069000D02*
X0073496Y0069000D01*
X0084000Y0058496D01*
X0117275Y0058496D01*
X0121000Y0058496D01*
X0121496Y0058000D01*
X0119126Y0051370D02*
X0118378Y0050622D01*
X0117275Y0050622D01*
X0116897Y0051000D01*
X0085496Y0051000D01*
X0073496Y0063000D01*
X0060496Y0063000D01*
X0055496Y0058000D02*
X0055000Y0058496D01*
X0053496Y0058496D01*
X0051000Y0058496D01*
X0044496Y0065000D01*
X0044496Y0070000D01*
X0043756Y0070740D01*
X0038496Y0070740D01*
X0034236Y0077000D02*
X0023496Y0077000D01*
X0031496Y0073000D02*
X0025496Y0067000D01*
X0023496Y0067000D01*
X0034236Y0077000D02*
X0038496Y0081260D01*
X0053496Y0089992D02*
X0040228Y0103260D01*
X0038496Y0103260D01*
X0020756Y0103260D01*
X0012496Y0095000D01*
X0012496Y0088000D01*
X0013496Y0087000D01*
X0006496Y0101000D02*
X0014496Y0109000D01*
X0006496Y0101000D02*
X0006496Y0050000D01*
X0009496Y0047000D01*
X0013496Y0047000D01*
X0013496Y0042000D01*
X0018496Y0037000D01*
X0051370Y0037000D01*
X0053496Y0034874D01*
X0060622Y0034874D01*
X0063496Y0032000D01*
X0088496Y0032000D01*
X0093496Y0027000D01*
X0118496Y0027000D01*
X0123496Y0022000D01*
X0123496Y0017000D01*
X0135496Y0017000D01*
X0136496Y0027000D02*
X0136496Y0028000D01*
X0136496Y0027000D02*
X0136803Y0027000D01*
X0153496Y0010307D01*
X0153496Y0023693D02*
X0146189Y0031000D01*
X0138496Y0031000D01*
X0136496Y0033000D01*
X0136496Y0068000D01*
X0140496Y0072000D01*
X0148496Y0072000D01*
X0153496Y0065000D02*
X0153496Y0081000D01*
X0152496Y0082000D01*
X0148496Y0082000D01*
X0140496Y0086000D02*
X0139496Y0085000D01*
X0140496Y0086000D02*
X0161496Y0086000D01*
X0164496Y0097000D02*
X0148496Y0097000D01*
X0148496Y0107000D02*
X0171889Y0107000D01*
X0172496Y0101000D02*
X0178496Y0107000D01*
X0168496Y0117000D01*
X0168496Y0128000D01*
X0134496Y0162000D01*
X0125189Y0162000D01*
X0125189Y0156693D01*
X0122496Y0154000D01*
X0104496Y0154000D01*
X0100496Y0158000D01*
X0096496Y0154000D01*
X0078496Y0154000D01*
X0086496Y0162000D02*
X0086803Y0162000D01*
X0086496Y0162307D01*
X0086496Y0164000D01*
X0086803Y0163693D01*
X0086803Y0162000D01*
X0100189Y0162000D02*
X0100496Y0161693D01*
X0100496Y0158000D01*
X0111496Y0162000D02*
X0111803Y0162000D01*
X0118496Y0134500D02*
X0131996Y0121000D01*
X0165696Y0121000D01*
X0165696Y0117000D02*
X0102496Y0117000D01*
X0093496Y0126000D01*
X0093496Y0134500D01*
X0074496Y0113000D02*
X0068496Y0119000D01*
X0068496Y0134500D01*
X0074496Y0113000D02*
X0129496Y0113000D01*
X0128496Y0100740D02*
X0132756Y0100740D01*
X0136496Y0097000D01*
X0136496Y0072000D01*
X0133496Y0069000D01*
X0133496Y0067000D01*
X0117905Y0067000D01*
X0117275Y0066370D01*
X0128496Y0060740D02*
X0119126Y0051370D01*
X0120496Y0050000D01*
X0117275Y0042748D02*
X0087748Y0042748D01*
X0087496Y0043000D01*
X0086496Y0043000D01*
X0082496Y0036000D02*
X0067496Y0036000D01*
X0061496Y0042000D01*
X0061496Y0050000D01*
X0060874Y0050622D01*
X0053496Y0050622D01*
X0053378Y0050740D01*
X0038496Y0050740D01*
X0038496Y0059000D02*
X0038496Y0063260D01*
X0038496Y0043260D02*
X0037236Y0042000D01*
X0023496Y0042000D01*
X0023496Y0047000D01*
X0038756Y0031000D02*
X0038496Y0030740D01*
X0038756Y0031000D02*
X0046496Y0031000D01*
X0053496Y0024000D01*
X0053496Y0012000D01*
X0063496Y0012000D02*
X0063496Y0032000D01*
X0053496Y0042748D02*
X0046748Y0042748D01*
X0046496Y0043000D01*
X0055496Y0058000D02*
X0067496Y0058000D01*
X0094496Y0031000D01*
X0103496Y0031000D01*
X0110496Y0024000D02*
X0113496Y0021000D01*
X0113496Y0012000D01*
X0123496Y0012000D02*
X0123496Y0017000D01*
X0118889Y0033260D02*
X0128496Y0033260D01*
X0128496Y0040740D02*
X0126488Y0042748D01*
X0117275Y0042748D01*
X0117275Y0034874D02*
X0118889Y0033260D01*
X0143496Y0045740D02*
X0143496Y0051000D01*
X0164496Y0072000D01*
X0178496Y0072000D01*
X0173496Y0066000D02*
X0172496Y0067000D01*
X0173496Y0066000D02*
X0173496Y0045740D01*
X0173496Y0038260D02*
X0173496Y0034000D01*
X0169496Y0032000D02*
X0173496Y0028000D01*
X0173496Y0020740D01*
X0173496Y0013260D02*
X0173496Y0008000D01*
X0183496Y0013260D02*
X0189756Y0013260D01*
X0191496Y0015000D01*
X0191496Y0124000D01*
X0188496Y0127000D01*
X0178496Y0127000D01*
X0178496Y0137000D02*
X0177496Y0137000D01*
X0168496Y0128000D01*
X0172496Y0101000D02*
X0172496Y0085000D01*
X0175496Y0082000D01*
X0178496Y0082000D01*
X0178496Y0097000D02*
X0187496Y0097000D01*
X0188496Y0096000D01*
X0188496Y0040000D01*
X0186756Y0038260D01*
X0183496Y0038260D01*
X0183496Y0045740D02*
X0183496Y0062000D01*
X0165496Y0069000D02*
X0163496Y0067000D01*
X0163496Y0048693D01*
X0163496Y0035307D02*
X0162803Y0035307D01*
X0161496Y0034000D01*
X0157496Y0032000D02*
X0157496Y0031800D01*
X0157496Y0032000D02*
X0163496Y0026000D01*
X0163496Y0023693D01*
X0169089Y0031800D02*
X0169296Y0031800D01*
X0169496Y0032000D01*
X0183496Y0023000D02*
X0186496Y0026000D01*
X0183496Y0023000D02*
X0183496Y0020740D01*
X0153496Y0031000D02*
X0153496Y0038260D01*
X0153496Y0035000D01*
X0153496Y0045740D02*
X0153496Y0057000D01*
X0129036Y0080740D02*
X0133296Y0085000D01*
X0129036Y0080740D02*
X0128496Y0080740D01*
X0126756Y0080740D01*
X0126496Y0081000D01*
X0128496Y0073260D02*
X0129236Y0073260D01*
X0130496Y0072000D01*
X0130496Y0091000D02*
X0128496Y0093000D01*
X0128496Y0093260D01*
X0117275Y0089992D02*
X0116283Y0089000D01*
X0093496Y0027000D02*
X0093496Y0012000D01*
X0083496Y0012000D02*
X0082496Y0013000D01*
X0082496Y0028000D01*
D28*
X0071496Y0040000D03*
X0066496Y0051000D03*
X0038496Y0059000D03*
X0101496Y0022000D03*
X0109496Y0037000D03*
D29*
X0103496Y0031000D03*
X0110496Y0024000D03*
X0120496Y0050000D03*
X0121496Y0058000D03*
X0128496Y0053260D03*
X0133496Y0067000D03*
X0130496Y0072000D03*
X0126496Y0081000D03*
X0133296Y0085000D03*
X0130496Y0091000D03*
X0139496Y0085000D03*
X0153496Y0065000D03*
X0153496Y0057000D03*
X0165496Y0069000D03*
X0172496Y0067000D03*
X0183496Y0062000D03*
X0173496Y0034000D03*
X0169089Y0031800D03*
X0161496Y0034000D03*
X0157496Y0031800D03*
X0153496Y0031000D03*
X0143496Y0038260D03*
X0136496Y0028000D03*
X0135496Y0017000D03*
X0163496Y0010307D03*
X0173496Y0008000D03*
X0186496Y0026000D03*
X0161496Y0086000D03*
X0164496Y0097000D03*
X0171889Y0107000D03*
X0165696Y0117000D03*
X0165696Y0121000D03*
X0129496Y0113000D03*
X0103496Y0085000D03*
X0103496Y0079000D03*
X0086496Y0043000D03*
X0082496Y0036000D03*
X0082496Y0028000D03*
X0060496Y0063000D03*
X0060496Y0069000D03*
X0065496Y0071800D03*
X0059496Y0082000D03*
X0046496Y0043000D03*
X0046496Y0031000D03*
X0031496Y0073000D03*
X0030496Y0100000D03*
X0030496Y0109000D03*
X0061803Y0162000D03*
X0086496Y0162000D03*
X0111496Y0162000D03*
D30*
X0113496Y0177000D02*
X0113496Y0202000D01*
X0113496Y0227000D01*
X0113496Y0272000D01*
X0118496Y0277000D01*
X0136212Y0277000D01*
X0136370Y0277157D01*
X0148653Y0277157D01*
X0153496Y0282000D01*
X0153496Y0307000D01*
X0163396Y0316900D01*
X0183496Y0316900D01*
X0183496Y0271900D02*
X0168396Y0271900D01*
X0143496Y0247000D01*
X0143496Y0227000D01*
X0168396Y0226900D02*
X0143496Y0202000D01*
X0148396Y0181900D02*
X0143496Y0177000D01*
X0148396Y0181900D02*
X0183496Y0181900D01*
X0183496Y0226900D02*
X0168396Y0226900D01*
M02*
