G75*
%MOIN*%
%OFA0B0*%
%FSLAX25Y25*%
%IPPOS*%
%LPD*%
%AMOC8*
5,1,8,0,0,1.08239X$1,22.5*
%
%ADD10C,0.10500*%
%ADD11OC8,0.10500*%
%ADD12C,0.08300*%
%ADD13C,0.06500*%
%ADD14OC8,0.06500*%
%ADD15C,0.05300*%
%ADD16C,0.07500*%
%ADD17OC8,0.05300*%
%ADD18C,0.08100*%
%ADD19R,0.03400X0.03400*%
%ADD20C,0.03400*%
D10*
X0018496Y0182000D03*
X0018496Y0222000D03*
D11*
X0038496Y0222000D03*
X0038496Y0182000D03*
D12*
X0179596Y0181900D02*
X0187396Y0181900D01*
X0187396Y0162100D02*
X0179596Y0162100D01*
X0179596Y0207100D02*
X0187396Y0207100D01*
X0187396Y0226900D02*
X0179596Y0226900D01*
X0179596Y0252100D02*
X0187396Y0252100D01*
X0187396Y0271900D02*
X0179596Y0271900D01*
X0179596Y0297100D02*
X0187396Y0297100D01*
X0187396Y0316900D02*
X0179596Y0316900D01*
D13*
X0123496Y0015000D02*
X0123496Y0009000D01*
X0113496Y0009000D02*
X0113496Y0015000D01*
X0103496Y0015000D02*
X0103496Y0009000D01*
X0093496Y0009000D02*
X0093496Y0015000D01*
X0083496Y0015000D02*
X0083496Y0009000D01*
X0073496Y0009000D02*
X0073496Y0015000D01*
X0063496Y0015000D02*
X0063496Y0009000D01*
X0053496Y0009000D02*
X0053496Y0015000D01*
X0043496Y0015000D02*
X0043496Y0009000D01*
D14*
X0013496Y0047000D03*
X0013496Y0057000D03*
X0013496Y0067000D03*
X0013496Y0077000D03*
X0013496Y0087000D03*
X0023496Y0087000D03*
X0023496Y0077000D03*
X0023496Y0067000D03*
X0023496Y0057000D03*
X0023496Y0047000D03*
D15*
X0143696Y0072000D02*
X0148496Y0072000D01*
X0148496Y0082000D02*
X0143696Y0082000D01*
X0143696Y0097000D02*
X0148496Y0097000D01*
X0148496Y0107000D02*
X0143696Y0107000D01*
X0143696Y0127000D02*
X0148496Y0127000D01*
X0148496Y0137000D02*
X0143696Y0137000D01*
X0178496Y0137000D02*
X0183296Y0137000D01*
X0183296Y0127000D02*
X0178496Y0127000D01*
X0178496Y0107000D02*
X0183296Y0107000D01*
X0183296Y0097000D02*
X0178496Y0097000D01*
X0178496Y0082000D02*
X0183296Y0082000D01*
X0183296Y0072000D02*
X0178496Y0072000D01*
D16*
X0143496Y0177000D03*
X0143496Y0202000D03*
X0143496Y0227000D03*
X0113496Y0227000D03*
X0113496Y0202000D03*
X0113496Y0177000D03*
X0073651Y0177099D03*
X0063651Y0177099D03*
X0063651Y0202099D03*
X0073651Y0202099D03*
X0073651Y0227099D03*
X0063651Y0227099D03*
D17*
X0063496Y0142000D03*
X0068496Y0134500D03*
X0073496Y0142000D03*
X0088496Y0142000D03*
X0093496Y0134500D03*
X0098496Y0142000D03*
X0113496Y0142000D03*
X0118496Y0134500D03*
X0123496Y0142000D03*
D18*
X0136370Y0277157D03*
X0136370Y0296843D03*
X0020622Y0317315D03*
X0020622Y0256685D03*
D19*
X0038496Y0059000D03*
X0066496Y0051000D03*
X0071496Y0040000D03*
X0101496Y0022000D03*
X0109496Y0037000D03*
D20*
X0103496Y0031000D03*
X0110496Y0024000D03*
X0120496Y0050000D03*
X0121496Y0058000D03*
X0128496Y0053260D03*
X0133496Y0067000D03*
X0130496Y0072000D03*
X0126496Y0081000D03*
X0133296Y0085000D03*
X0130496Y0091000D03*
X0139496Y0085000D03*
X0153496Y0065000D03*
X0153496Y0057000D03*
X0165496Y0069000D03*
X0172496Y0067000D03*
X0183496Y0062000D03*
X0173496Y0034000D03*
X0169089Y0031800D03*
X0161496Y0034000D03*
X0157496Y0031800D03*
X0153496Y0031000D03*
X0143496Y0038260D03*
X0136496Y0028000D03*
X0135496Y0017000D03*
X0163496Y0010307D03*
X0173496Y0008000D03*
X0186496Y0026000D03*
X0161496Y0086000D03*
X0164496Y0097000D03*
X0171889Y0107000D03*
X0165696Y0117000D03*
X0165696Y0121000D03*
X0129496Y0113000D03*
X0103496Y0085000D03*
X0103496Y0079000D03*
X0086496Y0043000D03*
X0082496Y0036000D03*
X0082496Y0028000D03*
X0060496Y0063000D03*
X0060496Y0069000D03*
X0065496Y0071800D03*
X0059496Y0082000D03*
X0046496Y0043000D03*
X0046496Y0031000D03*
X0031496Y0073000D03*
X0030496Y0100000D03*
X0030496Y0109000D03*
X0061803Y0162000D03*
X0086496Y0162000D03*
X0111496Y0162000D03*
M02*
