G75*
%MOIN*%
%OFA0B0*%
%FSLAX25Y25*%
%IPPOS*%
%LPD*%
%AMOC8*
5,1,8,0,0,1.08239X$1,22.5*
%
%ADD10R,0.07087X0.05512*%
%ADD11R,0.05512X0.07087*%
%ADD12R,0.07874X0.04724*%
%ADD13R,0.04799X0.08799*%
%ADD14R,0.14173X0.08661*%
%ADD15R,0.05906X0.05118*%
D10*
X0153496Y0010307D03*
X0153496Y0023693D03*
X0163496Y0023693D03*
X0163496Y0035307D03*
X0163496Y0048693D03*
X0163496Y0010307D03*
D11*
X0125189Y0162000D03*
X0111803Y0162000D03*
X0100189Y0162000D03*
X0086803Y0162000D03*
X0075189Y0162000D03*
X0061803Y0162000D03*
D12*
X0053496Y0089992D03*
X0053496Y0082118D03*
X0053496Y0074244D03*
X0053496Y0066370D03*
X0053496Y0058496D03*
X0053496Y0050622D03*
X0053496Y0042748D03*
X0053496Y0034874D03*
X0117275Y0034874D03*
X0117275Y0042748D03*
X0117275Y0050622D03*
X0117275Y0058496D03*
X0117275Y0066370D03*
X0117275Y0074244D03*
X0117275Y0082118D03*
X0117275Y0089992D03*
D13*
X0037594Y0124799D03*
X0028496Y0124799D03*
X0019397Y0124799D03*
D14*
X0028496Y0149201D03*
D15*
X0038496Y0023260D03*
X0038496Y0030740D03*
X0038496Y0043260D03*
X0038496Y0050740D03*
X0038496Y0063260D03*
X0038496Y0070740D03*
X0038496Y0081260D03*
X0038496Y0088740D03*
X0038496Y0103260D03*
X0038496Y0110740D03*
X0128496Y0100740D03*
X0128496Y0093260D03*
X0128496Y0080740D03*
X0128496Y0073260D03*
X0128496Y0060740D03*
X0128496Y0053260D03*
X0128496Y0040740D03*
X0128496Y0033260D03*
X0143496Y0038260D03*
X0143496Y0045740D03*
X0153496Y0045740D03*
X0153496Y0038260D03*
X0173496Y0038260D03*
X0173496Y0045740D03*
X0183496Y0045740D03*
X0183496Y0038260D03*
X0183496Y0020740D03*
X0183496Y0013260D03*
X0173496Y0013260D03*
X0173496Y0020740D03*
M02*
