G75*
%MOIN*%
%OFA0B0*%
%FSLAX25Y25*%
%IPPOS*%
%LPD*%
%AMOC8*
5,1,8,0,0,1.08239X$1,22.5*
%
%ADD10C,0.00600*%
D10*
X0057926Y0087300D02*
X0056148Y0093700D01*
X0059703Y0093700D01*
X0059703Y0092989D01*
X0062302Y0087300D02*
X0065857Y0087300D01*
X0064080Y0087300D02*
X0064080Y0093700D01*
X0065857Y0092278D01*
X0072011Y0090500D02*
X0072009Y0090359D01*
X0072003Y0090219D01*
X0071994Y0090078D01*
X0071981Y0089938D01*
X0071964Y0089798D01*
X0071944Y0089659D01*
X0071919Y0089521D01*
X0071891Y0089383D01*
X0071860Y0089246D01*
X0071824Y0089109D01*
X0071785Y0088974D01*
X0071743Y0088840D01*
X0071697Y0088707D01*
X0071647Y0088575D01*
X0071594Y0088445D01*
X0071538Y0088316D01*
X0071478Y0088189D01*
X0071656Y0088722D02*
X0068811Y0092278D01*
X0068989Y0092811D02*
X0069014Y0092877D01*
X0069042Y0092942D01*
X0069074Y0093006D01*
X0069109Y0093067D01*
X0069148Y0093127D01*
X0069189Y0093185D01*
X0069234Y0093240D01*
X0069282Y0093292D01*
X0069332Y0093342D01*
X0069385Y0093390D01*
X0069441Y0093434D01*
X0069498Y0093475D01*
X0069558Y0093513D01*
X0069620Y0093548D01*
X0069684Y0093579D01*
X0069749Y0093607D01*
X0069816Y0093632D01*
X0069883Y0093652D01*
X0069952Y0093669D01*
X0070022Y0093683D01*
X0070092Y0093692D01*
X0070163Y0093698D01*
X0070234Y0093700D01*
X0070305Y0093698D01*
X0070376Y0093692D01*
X0070446Y0093683D01*
X0070516Y0093669D01*
X0070585Y0093652D01*
X0070652Y0093632D01*
X0070719Y0093607D01*
X0070784Y0093579D01*
X0070848Y0093548D01*
X0070910Y0093513D01*
X0070970Y0093475D01*
X0071028Y0093434D01*
X0071083Y0093390D01*
X0071136Y0093342D01*
X0071186Y0093292D01*
X0071234Y0093240D01*
X0071279Y0093185D01*
X0071320Y0093127D01*
X0071359Y0093067D01*
X0071394Y0093006D01*
X0071426Y0092942D01*
X0071454Y0092877D01*
X0071479Y0092811D01*
X0068989Y0092811D02*
X0068929Y0092684D01*
X0068873Y0092555D01*
X0068820Y0092425D01*
X0068770Y0092293D01*
X0068724Y0092160D01*
X0068682Y0092026D01*
X0068643Y0091891D01*
X0068607Y0091754D01*
X0068576Y0091617D01*
X0068548Y0091479D01*
X0068523Y0091341D01*
X0068503Y0091202D01*
X0068486Y0091062D01*
X0068473Y0090922D01*
X0068464Y0090781D01*
X0068458Y0090641D01*
X0068456Y0090500D01*
X0072011Y0090500D02*
X0072009Y0090641D01*
X0072003Y0090781D01*
X0071994Y0090922D01*
X0071981Y0091062D01*
X0071964Y0091202D01*
X0071944Y0091341D01*
X0071919Y0091479D01*
X0071891Y0091617D01*
X0071860Y0091754D01*
X0071824Y0091891D01*
X0071785Y0092026D01*
X0071743Y0092160D01*
X0071697Y0092293D01*
X0071647Y0092425D01*
X0071594Y0092555D01*
X0071538Y0092684D01*
X0071478Y0092811D01*
X0068456Y0090500D02*
X0068458Y0090359D01*
X0068464Y0090219D01*
X0068473Y0090078D01*
X0068486Y0089938D01*
X0068503Y0089798D01*
X0068523Y0089659D01*
X0068548Y0089521D01*
X0068576Y0089383D01*
X0068607Y0089246D01*
X0068643Y0089109D01*
X0068682Y0088974D01*
X0068724Y0088840D01*
X0068770Y0088707D01*
X0068820Y0088575D01*
X0068873Y0088445D01*
X0068929Y0088316D01*
X0068989Y0088189D01*
X0069014Y0088123D01*
X0069042Y0088058D01*
X0069074Y0087994D01*
X0069109Y0087933D01*
X0069148Y0087873D01*
X0069189Y0087815D01*
X0069234Y0087760D01*
X0069282Y0087708D01*
X0069332Y0087658D01*
X0069385Y0087610D01*
X0069441Y0087566D01*
X0069498Y0087525D01*
X0069558Y0087487D01*
X0069620Y0087452D01*
X0069684Y0087421D01*
X0069749Y0087393D01*
X0069816Y0087368D01*
X0069883Y0087348D01*
X0069952Y0087331D01*
X0070022Y0087317D01*
X0070092Y0087308D01*
X0070163Y0087302D01*
X0070234Y0087300D01*
X0070305Y0087302D01*
X0070376Y0087308D01*
X0070446Y0087317D01*
X0070516Y0087331D01*
X0070585Y0087348D01*
X0070652Y0087368D01*
X0070719Y0087393D01*
X0070784Y0087421D01*
X0070848Y0087452D01*
X0070910Y0087487D01*
X0070970Y0087525D01*
X0071028Y0087566D01*
X0071083Y0087610D01*
X0071136Y0087658D01*
X0071186Y0087708D01*
X0071234Y0087760D01*
X0071279Y0087815D01*
X0071320Y0087873D01*
X0071359Y0087933D01*
X0071394Y0087994D01*
X0071426Y0088058D01*
X0071454Y0088123D01*
X0071479Y0088189D01*
X0074610Y0087300D02*
X0078165Y0087300D01*
X0075143Y0090856D01*
X0076210Y0093700D02*
X0076299Y0093698D01*
X0076388Y0093692D01*
X0076477Y0093683D01*
X0076565Y0093669D01*
X0076652Y0093652D01*
X0076739Y0093631D01*
X0076825Y0093606D01*
X0076909Y0093578D01*
X0076992Y0093545D01*
X0077074Y0093510D01*
X0077154Y0093470D01*
X0077232Y0093428D01*
X0077309Y0093382D01*
X0077383Y0093333D01*
X0077455Y0093280D01*
X0077525Y0093225D01*
X0077592Y0093166D01*
X0077657Y0093105D01*
X0077719Y0093041D01*
X0077778Y0092974D01*
X0077834Y0092905D01*
X0077887Y0092833D01*
X0077937Y0092759D01*
X0077984Y0092683D01*
X0078027Y0092606D01*
X0078067Y0092526D01*
X0078104Y0092444D01*
X0078137Y0092362D01*
X0078166Y0092277D01*
X0075142Y0090855D02*
X0075085Y0090913D01*
X0075029Y0090974D01*
X0074977Y0091037D01*
X0074928Y0091102D01*
X0074882Y0091170D01*
X0074840Y0091240D01*
X0074800Y0091312D01*
X0074765Y0091385D01*
X0074732Y0091461D01*
X0074704Y0091537D01*
X0074679Y0091615D01*
X0074658Y0091694D01*
X0074640Y0091774D01*
X0074627Y0091855D01*
X0074617Y0091936D01*
X0074611Y0092018D01*
X0074609Y0092100D01*
X0074610Y0092100D02*
X0074612Y0092179D01*
X0074618Y0092257D01*
X0074627Y0092335D01*
X0074641Y0092412D01*
X0074658Y0092489D01*
X0074679Y0092564D01*
X0074704Y0092639D01*
X0074732Y0092712D01*
X0074764Y0092784D01*
X0074799Y0092854D01*
X0074838Y0092923D01*
X0074880Y0092989D01*
X0074925Y0093053D01*
X0074973Y0093115D01*
X0075024Y0093174D01*
X0075079Y0093231D01*
X0075136Y0093286D01*
X0075195Y0093337D01*
X0075257Y0093385D01*
X0075321Y0093430D01*
X0075387Y0093472D01*
X0075456Y0093511D01*
X0075526Y0093546D01*
X0075598Y0093578D01*
X0075671Y0093606D01*
X0075746Y0093631D01*
X0075821Y0093652D01*
X0075898Y0093669D01*
X0075975Y0093683D01*
X0076053Y0093692D01*
X0076131Y0093698D01*
X0076210Y0093700D01*
X0074993Y0095667D02*
X0074281Y0095667D01*
X0072148Y0102067D01*
X0074993Y0102067D02*
X0073570Y0097800D01*
X0077248Y0098867D02*
X0077248Y0101000D01*
X0077247Y0101000D02*
X0077249Y0101064D01*
X0077255Y0101129D01*
X0077264Y0101192D01*
X0077278Y0101255D01*
X0077295Y0101317D01*
X0077316Y0101378D01*
X0077341Y0101438D01*
X0077369Y0101496D01*
X0077401Y0101552D01*
X0077436Y0101606D01*
X0077474Y0101658D01*
X0077515Y0101708D01*
X0077560Y0101754D01*
X0077606Y0101799D01*
X0077656Y0101840D01*
X0077708Y0101878D01*
X0077762Y0101913D01*
X0077818Y0101945D01*
X0077876Y0101973D01*
X0077936Y0101998D01*
X0077997Y0102019D01*
X0078059Y0102036D01*
X0078122Y0102050D01*
X0078185Y0102059D01*
X0078250Y0102065D01*
X0078314Y0102067D01*
X0080092Y0102067D01*
X0080092Y0104200D02*
X0080092Y0097800D01*
X0078314Y0097800D01*
X0078250Y0097802D01*
X0078185Y0097808D01*
X0078122Y0097817D01*
X0078059Y0097831D01*
X0077997Y0097848D01*
X0077936Y0097869D01*
X0077876Y0097894D01*
X0077818Y0097922D01*
X0077762Y0097954D01*
X0077708Y0097989D01*
X0077656Y0098027D01*
X0077606Y0098068D01*
X0077560Y0098113D01*
X0077515Y0098159D01*
X0077474Y0098209D01*
X0077436Y0098261D01*
X0077401Y0098315D01*
X0077369Y0098371D01*
X0077341Y0098429D01*
X0077316Y0098489D01*
X0077295Y0098550D01*
X0077278Y0098612D01*
X0077264Y0098675D01*
X0077255Y0098738D01*
X0077249Y0098803D01*
X0077247Y0098867D01*
X0076114Y0108300D02*
X0076114Y0112567D01*
X0072914Y0112567D01*
X0073981Y0112567D02*
X0073981Y0108300D01*
X0071847Y0108300D02*
X0071847Y0111500D01*
X0071849Y0111564D01*
X0071855Y0111629D01*
X0071864Y0111692D01*
X0071878Y0111755D01*
X0071895Y0111817D01*
X0071916Y0111878D01*
X0071941Y0111938D01*
X0071969Y0111996D01*
X0072001Y0112052D01*
X0072036Y0112106D01*
X0072074Y0112158D01*
X0072115Y0112208D01*
X0072160Y0112254D01*
X0072206Y0112299D01*
X0072256Y0112340D01*
X0072308Y0112378D01*
X0072362Y0112413D01*
X0072418Y0112445D01*
X0072476Y0112473D01*
X0072536Y0112498D01*
X0072597Y0112519D01*
X0072659Y0112536D01*
X0072722Y0112550D01*
X0072785Y0112559D01*
X0072850Y0112565D01*
X0072914Y0112567D01*
X0068717Y0112567D02*
X0067295Y0112567D01*
X0067231Y0112565D01*
X0067166Y0112559D01*
X0067103Y0112550D01*
X0067040Y0112536D01*
X0066978Y0112519D01*
X0066917Y0112498D01*
X0066857Y0112473D01*
X0066799Y0112445D01*
X0066743Y0112413D01*
X0066689Y0112378D01*
X0066637Y0112340D01*
X0066587Y0112299D01*
X0066541Y0112254D01*
X0066496Y0112208D01*
X0066455Y0112158D01*
X0066417Y0112106D01*
X0066382Y0112052D01*
X0066350Y0111996D01*
X0066322Y0111938D01*
X0066297Y0111878D01*
X0066276Y0111817D01*
X0066259Y0111755D01*
X0066245Y0111692D01*
X0066236Y0111629D01*
X0066230Y0111564D01*
X0066228Y0111500D01*
X0066228Y0108300D01*
X0067828Y0108300D01*
X0067898Y0108302D01*
X0067967Y0108308D01*
X0068036Y0108318D01*
X0068105Y0108331D01*
X0068172Y0108349D01*
X0068239Y0108370D01*
X0068304Y0108395D01*
X0068368Y0108423D01*
X0068430Y0108455D01*
X0068490Y0108491D01*
X0068548Y0108529D01*
X0068604Y0108571D01*
X0068657Y0108616D01*
X0068708Y0108664D01*
X0068756Y0108715D01*
X0068801Y0108768D01*
X0068843Y0108824D01*
X0068881Y0108882D01*
X0068917Y0108942D01*
X0068949Y0109004D01*
X0068977Y0109068D01*
X0069002Y0109133D01*
X0069023Y0109200D01*
X0069041Y0109267D01*
X0069054Y0109336D01*
X0069064Y0109405D01*
X0069070Y0109474D01*
X0069072Y0109544D01*
X0069070Y0109614D01*
X0069064Y0109683D01*
X0069054Y0109752D01*
X0069041Y0109821D01*
X0069023Y0109888D01*
X0069002Y0109955D01*
X0068977Y0110020D01*
X0068949Y0110084D01*
X0068917Y0110146D01*
X0068881Y0110206D01*
X0068843Y0110264D01*
X0068801Y0110320D01*
X0068756Y0110373D01*
X0068708Y0110424D01*
X0068657Y0110472D01*
X0068604Y0110517D01*
X0068548Y0110559D01*
X0068490Y0110597D01*
X0068430Y0110633D01*
X0068368Y0110665D01*
X0068304Y0110693D01*
X0068239Y0110718D01*
X0068172Y0110739D01*
X0068105Y0110757D01*
X0068036Y0110770D01*
X0067967Y0110780D01*
X0067898Y0110786D01*
X0067828Y0110788D01*
X0067828Y0110789D02*
X0066228Y0110789D01*
X0064016Y0112567D02*
X0061882Y0112567D01*
X0059621Y0112567D02*
X0059621Y0108300D01*
X0061882Y0108300D02*
X0062238Y0108300D01*
X0062302Y0108302D01*
X0062367Y0108308D01*
X0062430Y0108317D01*
X0062493Y0108331D01*
X0062555Y0108348D01*
X0062616Y0108369D01*
X0062676Y0108394D01*
X0062734Y0108422D01*
X0062790Y0108454D01*
X0062844Y0108489D01*
X0062896Y0108527D01*
X0062946Y0108568D01*
X0062992Y0108613D01*
X0063037Y0108659D01*
X0063078Y0108709D01*
X0063116Y0108761D01*
X0063151Y0108815D01*
X0063183Y0108871D01*
X0063211Y0108929D01*
X0063236Y0108989D01*
X0063257Y0109050D01*
X0063274Y0109112D01*
X0063288Y0109175D01*
X0063297Y0109238D01*
X0063303Y0109303D01*
X0063305Y0109367D01*
X0063305Y0114700D01*
X0059799Y0114700D02*
X0059443Y0114700D01*
X0059443Y0114344D01*
X0059799Y0114344D01*
X0059799Y0114700D01*
X0057146Y0111144D02*
X0057146Y0109722D01*
X0057144Y0109648D01*
X0057138Y0109573D01*
X0057128Y0109500D01*
X0057115Y0109426D01*
X0057098Y0109354D01*
X0057076Y0109283D01*
X0057052Y0109212D01*
X0057023Y0109144D01*
X0056991Y0109076D01*
X0056955Y0109011D01*
X0056917Y0108948D01*
X0056874Y0108886D01*
X0056829Y0108827D01*
X0056781Y0108770D01*
X0056730Y0108716D01*
X0056676Y0108665D01*
X0056619Y0108617D01*
X0056560Y0108572D01*
X0056498Y0108529D01*
X0056435Y0108491D01*
X0056370Y0108455D01*
X0056302Y0108423D01*
X0056234Y0108394D01*
X0056163Y0108370D01*
X0056092Y0108348D01*
X0056020Y0108331D01*
X0055946Y0108318D01*
X0055873Y0108308D01*
X0055798Y0108302D01*
X0055724Y0108300D01*
X0055650Y0108302D01*
X0055575Y0108308D01*
X0055502Y0108318D01*
X0055428Y0108331D01*
X0055356Y0108348D01*
X0055285Y0108370D01*
X0055214Y0108394D01*
X0055146Y0108423D01*
X0055078Y0108455D01*
X0055013Y0108491D01*
X0054950Y0108529D01*
X0054888Y0108572D01*
X0054829Y0108617D01*
X0054772Y0108665D01*
X0054718Y0108716D01*
X0054667Y0108770D01*
X0054619Y0108827D01*
X0054574Y0108886D01*
X0054531Y0108948D01*
X0054493Y0109011D01*
X0054457Y0109076D01*
X0054425Y0109144D01*
X0054396Y0109212D01*
X0054372Y0109283D01*
X0054350Y0109354D01*
X0054333Y0109426D01*
X0054320Y0109500D01*
X0054310Y0109573D01*
X0054304Y0109648D01*
X0054302Y0109722D01*
X0054301Y0109722D02*
X0054301Y0111144D01*
X0054302Y0111144D02*
X0054304Y0111218D01*
X0054310Y0111293D01*
X0054320Y0111366D01*
X0054333Y0111440D01*
X0054350Y0111512D01*
X0054372Y0111583D01*
X0054396Y0111654D01*
X0054425Y0111722D01*
X0054457Y0111790D01*
X0054493Y0111855D01*
X0054531Y0111918D01*
X0054574Y0111980D01*
X0054619Y0112039D01*
X0054667Y0112096D01*
X0054718Y0112150D01*
X0054772Y0112201D01*
X0054829Y0112249D01*
X0054888Y0112294D01*
X0054950Y0112337D01*
X0055013Y0112375D01*
X0055078Y0112411D01*
X0055146Y0112443D01*
X0055214Y0112472D01*
X0055285Y0112496D01*
X0055356Y0112518D01*
X0055428Y0112535D01*
X0055502Y0112548D01*
X0055575Y0112558D01*
X0055650Y0112564D01*
X0055724Y0112566D01*
X0055798Y0112564D01*
X0055873Y0112558D01*
X0055946Y0112548D01*
X0056020Y0112535D01*
X0056092Y0112518D01*
X0056163Y0112496D01*
X0056234Y0112472D01*
X0056302Y0112443D01*
X0056370Y0112411D01*
X0056435Y0112375D01*
X0056498Y0112337D01*
X0056560Y0112294D01*
X0056619Y0112249D01*
X0056676Y0112201D01*
X0056730Y0112150D01*
X0056781Y0112096D01*
X0056829Y0112039D01*
X0056874Y0111980D01*
X0056917Y0111918D01*
X0056955Y0111855D01*
X0056991Y0111790D01*
X0057023Y0111722D01*
X0057052Y0111654D01*
X0057076Y0111583D01*
X0057098Y0111512D01*
X0057115Y0111440D01*
X0057128Y0111366D01*
X0057138Y0111293D01*
X0057144Y0111218D01*
X0057146Y0111144D01*
X0051607Y0112567D02*
X0051607Y0108300D01*
X0048763Y0108300D02*
X0048763Y0111500D01*
X0048762Y0111500D02*
X0048764Y0111564D01*
X0048770Y0111629D01*
X0048779Y0111692D01*
X0048793Y0111755D01*
X0048810Y0111817D01*
X0048831Y0111878D01*
X0048856Y0111938D01*
X0048884Y0111996D01*
X0048916Y0112052D01*
X0048951Y0112106D01*
X0048989Y0112158D01*
X0049030Y0112208D01*
X0049075Y0112254D01*
X0049121Y0112299D01*
X0049171Y0112340D01*
X0049223Y0112378D01*
X0049277Y0112413D01*
X0049333Y0112445D01*
X0049391Y0112473D01*
X0049451Y0112498D01*
X0049512Y0112519D01*
X0049574Y0112536D01*
X0049637Y0112550D01*
X0049700Y0112559D01*
X0049765Y0112565D01*
X0049829Y0112567D01*
X0051607Y0112567D01*
X0051869Y0104200D02*
X0051869Y0097800D01*
X0053646Y0097800D01*
X0053710Y0097802D01*
X0053775Y0097808D01*
X0053838Y0097817D01*
X0053901Y0097831D01*
X0053963Y0097848D01*
X0054024Y0097869D01*
X0054084Y0097894D01*
X0054142Y0097922D01*
X0054198Y0097954D01*
X0054252Y0097989D01*
X0054304Y0098027D01*
X0054354Y0098068D01*
X0054400Y0098113D01*
X0054445Y0098159D01*
X0054486Y0098209D01*
X0054524Y0098261D01*
X0054559Y0098315D01*
X0054591Y0098371D01*
X0054619Y0098429D01*
X0054644Y0098489D01*
X0054665Y0098550D01*
X0054682Y0098612D01*
X0054696Y0098675D01*
X0054705Y0098738D01*
X0054711Y0098803D01*
X0054713Y0098867D01*
X0054713Y0101000D01*
X0054711Y0101064D01*
X0054705Y0101129D01*
X0054696Y0101192D01*
X0054682Y0101255D01*
X0054665Y0101317D01*
X0054644Y0101378D01*
X0054619Y0101438D01*
X0054591Y0101496D01*
X0054559Y0101552D01*
X0054524Y0101606D01*
X0054486Y0101658D01*
X0054445Y0101708D01*
X0054400Y0101754D01*
X0054354Y0101799D01*
X0054304Y0101840D01*
X0054252Y0101878D01*
X0054198Y0101913D01*
X0054142Y0101945D01*
X0054084Y0101973D01*
X0054024Y0101998D01*
X0053963Y0102019D01*
X0053901Y0102036D01*
X0053838Y0102050D01*
X0053775Y0102059D01*
X0053710Y0102065D01*
X0053646Y0102067D01*
X0051869Y0102067D01*
X0048907Y0102067D02*
X0048907Y0097800D01*
X0046774Y0101356D02*
X0046774Y0102067D01*
X0048907Y0102067D01*
X0044838Y0100644D02*
X0044838Y0098867D01*
X0044838Y0099933D02*
X0041993Y0099933D01*
X0041993Y0100644D01*
X0041994Y0100644D02*
X0041996Y0100718D01*
X0042002Y0100793D01*
X0042012Y0100866D01*
X0042025Y0100940D01*
X0042042Y0101012D01*
X0042064Y0101083D01*
X0042088Y0101154D01*
X0042117Y0101222D01*
X0042149Y0101290D01*
X0042185Y0101355D01*
X0042223Y0101418D01*
X0042266Y0101480D01*
X0042311Y0101539D01*
X0042359Y0101596D01*
X0042410Y0101650D01*
X0042464Y0101701D01*
X0042521Y0101749D01*
X0042580Y0101794D01*
X0042642Y0101837D01*
X0042705Y0101875D01*
X0042770Y0101911D01*
X0042838Y0101943D01*
X0042906Y0101972D01*
X0042977Y0101996D01*
X0043048Y0102018D01*
X0043120Y0102035D01*
X0043194Y0102048D01*
X0043267Y0102058D01*
X0043342Y0102064D01*
X0043416Y0102066D01*
X0043490Y0102064D01*
X0043565Y0102058D01*
X0043638Y0102048D01*
X0043712Y0102035D01*
X0043784Y0102018D01*
X0043855Y0101996D01*
X0043926Y0101972D01*
X0043994Y0101943D01*
X0044062Y0101911D01*
X0044127Y0101875D01*
X0044190Y0101837D01*
X0044252Y0101794D01*
X0044311Y0101749D01*
X0044368Y0101701D01*
X0044422Y0101650D01*
X0044473Y0101596D01*
X0044521Y0101539D01*
X0044566Y0101480D01*
X0044609Y0101418D01*
X0044647Y0101355D01*
X0044683Y0101290D01*
X0044715Y0101222D01*
X0044744Y0101154D01*
X0044768Y0101083D01*
X0044790Y0101012D01*
X0044807Y0100940D01*
X0044820Y0100866D01*
X0044830Y0100793D01*
X0044836Y0100718D01*
X0044838Y0100644D01*
X0044838Y0098867D02*
X0044836Y0098803D01*
X0044830Y0098738D01*
X0044821Y0098675D01*
X0044807Y0098612D01*
X0044790Y0098550D01*
X0044769Y0098489D01*
X0044744Y0098429D01*
X0044716Y0098371D01*
X0044684Y0098315D01*
X0044649Y0098261D01*
X0044611Y0098209D01*
X0044570Y0098159D01*
X0044525Y0098113D01*
X0044479Y0098068D01*
X0044429Y0098027D01*
X0044377Y0097989D01*
X0044323Y0097954D01*
X0044267Y0097922D01*
X0044209Y0097894D01*
X0044149Y0097869D01*
X0044088Y0097848D01*
X0044026Y0097831D01*
X0043963Y0097817D01*
X0043900Y0097808D01*
X0043835Y0097802D01*
X0043771Y0097800D01*
X0041993Y0097800D01*
X0035879Y0097800D02*
X0035879Y0104200D01*
X0034102Y0104200D01*
X0034028Y0104198D01*
X0033953Y0104192D01*
X0033880Y0104182D01*
X0033806Y0104169D01*
X0033734Y0104152D01*
X0033663Y0104130D01*
X0033592Y0104106D01*
X0033524Y0104077D01*
X0033456Y0104045D01*
X0033391Y0104009D01*
X0033328Y0103971D01*
X0033266Y0103928D01*
X0033207Y0103883D01*
X0033150Y0103835D01*
X0033096Y0103784D01*
X0033045Y0103730D01*
X0032997Y0103673D01*
X0032952Y0103614D01*
X0032909Y0103552D01*
X0032871Y0103489D01*
X0032835Y0103424D01*
X0032803Y0103356D01*
X0032774Y0103288D01*
X0032750Y0103217D01*
X0032728Y0103146D01*
X0032711Y0103074D01*
X0032698Y0103000D01*
X0032688Y0102927D01*
X0032682Y0102852D01*
X0032680Y0102778D01*
X0032682Y0102704D01*
X0032688Y0102629D01*
X0032698Y0102556D01*
X0032711Y0102482D01*
X0032728Y0102410D01*
X0032750Y0102339D01*
X0032774Y0102268D01*
X0032803Y0102200D01*
X0032835Y0102132D01*
X0032871Y0102067D01*
X0032909Y0102004D01*
X0032952Y0101942D01*
X0032997Y0101883D01*
X0033045Y0101826D01*
X0033096Y0101772D01*
X0033150Y0101721D01*
X0033207Y0101673D01*
X0033266Y0101628D01*
X0033328Y0101585D01*
X0033391Y0101547D01*
X0033456Y0101511D01*
X0033524Y0101479D01*
X0033592Y0101450D01*
X0033663Y0101426D01*
X0033734Y0101404D01*
X0033806Y0101387D01*
X0033880Y0101374D01*
X0033953Y0101364D01*
X0034028Y0101358D01*
X0034102Y0101356D01*
X0035879Y0101356D01*
X0034102Y0101356D02*
X0034019Y0101354D01*
X0033936Y0101348D01*
X0033853Y0101338D01*
X0033770Y0101325D01*
X0033689Y0101307D01*
X0033608Y0101286D01*
X0033529Y0101261D01*
X0033451Y0101232D01*
X0033374Y0101200D01*
X0033299Y0101164D01*
X0033225Y0101125D01*
X0033154Y0101082D01*
X0033084Y0101036D01*
X0033017Y0100986D01*
X0032952Y0100934D01*
X0032890Y0100879D01*
X0032830Y0100820D01*
X0032773Y0100759D01*
X0032719Y0100696D01*
X0032668Y0100630D01*
X0032621Y0100561D01*
X0032576Y0100491D01*
X0032535Y0100418D01*
X0032498Y0100344D01*
X0032463Y0100268D01*
X0032433Y0100190D01*
X0032406Y0100112D01*
X0032383Y0100031D01*
X0032363Y0099950D01*
X0032348Y0099868D01*
X0032336Y0099786D01*
X0032328Y0099703D01*
X0032324Y0099620D01*
X0032324Y0099536D01*
X0032328Y0099453D01*
X0032336Y0099370D01*
X0032348Y0099288D01*
X0032363Y0099206D01*
X0032383Y0099125D01*
X0032406Y0099044D01*
X0032433Y0098966D01*
X0032463Y0098888D01*
X0032498Y0098812D01*
X0032535Y0098738D01*
X0032576Y0098665D01*
X0032621Y0098595D01*
X0032668Y0098526D01*
X0032719Y0098460D01*
X0032773Y0098397D01*
X0032830Y0098336D01*
X0032890Y0098277D01*
X0032952Y0098222D01*
X0033017Y0098170D01*
X0033084Y0098120D01*
X0033154Y0098074D01*
X0033225Y0098031D01*
X0033299Y0097992D01*
X0033374Y0097956D01*
X0033451Y0097924D01*
X0033529Y0097895D01*
X0033608Y0097870D01*
X0033689Y0097849D01*
X0033770Y0097831D01*
X0033853Y0097818D01*
X0033936Y0097808D01*
X0034019Y0097802D01*
X0034102Y0097800D01*
X0035879Y0097800D01*
X0030068Y0099222D02*
X0030068Y0100644D01*
X0030066Y0100718D01*
X0030060Y0100793D01*
X0030050Y0100866D01*
X0030037Y0100940D01*
X0030020Y0101012D01*
X0029998Y0101083D01*
X0029974Y0101154D01*
X0029945Y0101222D01*
X0029913Y0101290D01*
X0029877Y0101355D01*
X0029839Y0101418D01*
X0029796Y0101480D01*
X0029751Y0101539D01*
X0029703Y0101596D01*
X0029652Y0101650D01*
X0029598Y0101701D01*
X0029541Y0101749D01*
X0029482Y0101794D01*
X0029420Y0101837D01*
X0029357Y0101875D01*
X0029292Y0101911D01*
X0029224Y0101943D01*
X0029156Y0101972D01*
X0029085Y0101996D01*
X0029014Y0102018D01*
X0028942Y0102035D01*
X0028868Y0102048D01*
X0028795Y0102058D01*
X0028720Y0102064D01*
X0028646Y0102066D01*
X0028572Y0102064D01*
X0028497Y0102058D01*
X0028424Y0102048D01*
X0028350Y0102035D01*
X0028278Y0102018D01*
X0028207Y0101996D01*
X0028136Y0101972D01*
X0028068Y0101943D01*
X0028000Y0101911D01*
X0027935Y0101875D01*
X0027872Y0101837D01*
X0027810Y0101794D01*
X0027751Y0101749D01*
X0027694Y0101701D01*
X0027640Y0101650D01*
X0027589Y0101596D01*
X0027541Y0101539D01*
X0027496Y0101480D01*
X0027453Y0101418D01*
X0027415Y0101355D01*
X0027379Y0101290D01*
X0027347Y0101222D01*
X0027318Y0101154D01*
X0027294Y0101083D01*
X0027272Y0101012D01*
X0027255Y0100940D01*
X0027242Y0100866D01*
X0027232Y0100793D01*
X0027226Y0100718D01*
X0027224Y0100644D01*
X0027224Y0099222D01*
X0027226Y0099148D01*
X0027232Y0099073D01*
X0027242Y0099000D01*
X0027255Y0098926D01*
X0027272Y0098854D01*
X0027294Y0098783D01*
X0027318Y0098712D01*
X0027347Y0098644D01*
X0027379Y0098576D01*
X0027415Y0098511D01*
X0027453Y0098448D01*
X0027496Y0098386D01*
X0027541Y0098327D01*
X0027589Y0098270D01*
X0027640Y0098216D01*
X0027694Y0098165D01*
X0027751Y0098117D01*
X0027810Y0098072D01*
X0027872Y0098029D01*
X0027935Y0097991D01*
X0028000Y0097955D01*
X0028068Y0097923D01*
X0028136Y0097894D01*
X0028207Y0097870D01*
X0028278Y0097848D01*
X0028350Y0097831D01*
X0028424Y0097818D01*
X0028497Y0097808D01*
X0028572Y0097802D01*
X0028646Y0097800D01*
X0028720Y0097802D01*
X0028795Y0097808D01*
X0028868Y0097818D01*
X0028942Y0097831D01*
X0029014Y0097848D01*
X0029085Y0097870D01*
X0029156Y0097894D01*
X0029224Y0097923D01*
X0029292Y0097955D01*
X0029357Y0097991D01*
X0029420Y0098029D01*
X0029482Y0098072D01*
X0029541Y0098117D01*
X0029598Y0098165D01*
X0029652Y0098216D01*
X0029703Y0098270D01*
X0029751Y0098327D01*
X0029796Y0098386D01*
X0029839Y0098448D01*
X0029877Y0098511D01*
X0029913Y0098576D01*
X0029945Y0098644D01*
X0029974Y0098712D01*
X0029998Y0098783D01*
X0030020Y0098854D01*
X0030037Y0098926D01*
X0030050Y0099000D01*
X0030060Y0099073D01*
X0030066Y0099148D01*
X0030068Y0099222D01*
X0025245Y0102067D02*
X0023112Y0102067D01*
X0024534Y0104200D02*
X0024534Y0098867D01*
X0024535Y0098867D02*
X0024533Y0098803D01*
X0024527Y0098738D01*
X0024518Y0098675D01*
X0024504Y0098612D01*
X0024487Y0098550D01*
X0024466Y0098489D01*
X0024441Y0098429D01*
X0024413Y0098371D01*
X0024381Y0098315D01*
X0024346Y0098261D01*
X0024308Y0098209D01*
X0024267Y0098159D01*
X0024222Y0098113D01*
X0024176Y0098068D01*
X0024126Y0098027D01*
X0024074Y0097989D01*
X0024020Y0097954D01*
X0023964Y0097922D01*
X0023906Y0097894D01*
X0023846Y0097869D01*
X0023785Y0097848D01*
X0023723Y0097831D01*
X0023660Y0097817D01*
X0023597Y0097808D01*
X0023532Y0097802D01*
X0023468Y0097800D01*
X0023112Y0097800D01*
X0020837Y0098867D02*
X0020837Y0100644D01*
X0020837Y0099933D02*
X0017993Y0099933D01*
X0017993Y0100644D01*
X0017995Y0100718D01*
X0018001Y0100793D01*
X0018011Y0100866D01*
X0018024Y0100940D01*
X0018041Y0101012D01*
X0018063Y0101083D01*
X0018087Y0101154D01*
X0018116Y0101222D01*
X0018148Y0101290D01*
X0018184Y0101355D01*
X0018222Y0101418D01*
X0018265Y0101480D01*
X0018310Y0101539D01*
X0018358Y0101596D01*
X0018409Y0101650D01*
X0018463Y0101701D01*
X0018520Y0101749D01*
X0018579Y0101794D01*
X0018641Y0101837D01*
X0018704Y0101875D01*
X0018769Y0101911D01*
X0018837Y0101943D01*
X0018905Y0101972D01*
X0018976Y0101996D01*
X0019047Y0102018D01*
X0019119Y0102035D01*
X0019193Y0102048D01*
X0019266Y0102058D01*
X0019341Y0102064D01*
X0019415Y0102066D01*
X0019489Y0102064D01*
X0019564Y0102058D01*
X0019637Y0102048D01*
X0019711Y0102035D01*
X0019783Y0102018D01*
X0019854Y0101996D01*
X0019925Y0101972D01*
X0019993Y0101943D01*
X0020061Y0101911D01*
X0020126Y0101875D01*
X0020189Y0101837D01*
X0020251Y0101794D01*
X0020310Y0101749D01*
X0020367Y0101701D01*
X0020421Y0101650D01*
X0020472Y0101596D01*
X0020520Y0101539D01*
X0020565Y0101480D01*
X0020608Y0101418D01*
X0020646Y0101355D01*
X0020682Y0101290D01*
X0020714Y0101222D01*
X0020743Y0101154D01*
X0020767Y0101083D01*
X0020789Y0101012D01*
X0020806Y0100940D01*
X0020819Y0100866D01*
X0020829Y0100793D01*
X0020835Y0100718D01*
X0020837Y0100644D01*
X0020837Y0098867D02*
X0020835Y0098803D01*
X0020829Y0098738D01*
X0020820Y0098675D01*
X0020806Y0098612D01*
X0020789Y0098550D01*
X0020768Y0098489D01*
X0020743Y0098429D01*
X0020715Y0098371D01*
X0020683Y0098315D01*
X0020648Y0098261D01*
X0020610Y0098209D01*
X0020569Y0098159D01*
X0020524Y0098113D01*
X0020478Y0098068D01*
X0020428Y0098027D01*
X0020376Y0097989D01*
X0020322Y0097954D01*
X0020266Y0097922D01*
X0020208Y0097894D01*
X0020148Y0097869D01*
X0020087Y0097848D01*
X0020025Y0097831D01*
X0019962Y0097817D01*
X0019899Y0097808D01*
X0019834Y0097802D01*
X0019770Y0097800D01*
X0017993Y0097800D01*
X0015410Y0098867D02*
X0015410Y0104200D01*
X0016700Y0108300D02*
X0018122Y0108300D01*
X0018186Y0108302D01*
X0018251Y0108308D01*
X0018314Y0108317D01*
X0018377Y0108331D01*
X0018439Y0108348D01*
X0018500Y0108369D01*
X0018560Y0108394D01*
X0018618Y0108422D01*
X0018674Y0108454D01*
X0018728Y0108489D01*
X0018780Y0108527D01*
X0018830Y0108568D01*
X0018876Y0108613D01*
X0018921Y0108659D01*
X0018962Y0108709D01*
X0019000Y0108761D01*
X0019035Y0108815D01*
X0019067Y0108871D01*
X0019095Y0108929D01*
X0019120Y0108989D01*
X0019141Y0109050D01*
X0019158Y0109112D01*
X0019172Y0109175D01*
X0019181Y0109238D01*
X0019187Y0109303D01*
X0019189Y0109367D01*
X0019189Y0111500D01*
X0019187Y0111564D01*
X0019181Y0111629D01*
X0019172Y0111692D01*
X0019158Y0111755D01*
X0019141Y0111817D01*
X0019120Y0111878D01*
X0019095Y0111938D01*
X0019067Y0111996D01*
X0019035Y0112052D01*
X0019000Y0112106D01*
X0018962Y0112158D01*
X0018921Y0112208D01*
X0018876Y0112254D01*
X0018830Y0112299D01*
X0018780Y0112340D01*
X0018728Y0112378D01*
X0018674Y0112413D01*
X0018618Y0112445D01*
X0018560Y0112473D01*
X0018500Y0112498D01*
X0018439Y0112519D01*
X0018377Y0112536D01*
X0018314Y0112550D01*
X0018251Y0112559D01*
X0018186Y0112565D01*
X0018122Y0112567D01*
X0016700Y0112567D01*
X0014989Y0112567D02*
X0012855Y0112567D01*
X0014278Y0114700D02*
X0014278Y0109367D01*
X0014276Y0109303D01*
X0014270Y0109238D01*
X0014261Y0109175D01*
X0014247Y0109112D01*
X0014230Y0109050D01*
X0014209Y0108989D01*
X0014184Y0108929D01*
X0014156Y0108871D01*
X0014124Y0108815D01*
X0014089Y0108761D01*
X0014051Y0108709D01*
X0014010Y0108659D01*
X0013965Y0108613D01*
X0013919Y0108568D01*
X0013869Y0108527D01*
X0013817Y0108489D01*
X0013763Y0108454D01*
X0013707Y0108422D01*
X0013649Y0108394D01*
X0013589Y0108369D01*
X0013528Y0108348D01*
X0013466Y0108331D01*
X0013403Y0108317D01*
X0013340Y0108308D01*
X0013275Y0108302D01*
X0013211Y0108300D01*
X0012855Y0108300D01*
X0012016Y0104200D02*
X0012016Y0097800D01*
X0014344Y0097800D02*
X0014408Y0097802D01*
X0014473Y0097808D01*
X0014536Y0097817D01*
X0014599Y0097831D01*
X0014661Y0097848D01*
X0014722Y0097869D01*
X0014782Y0097894D01*
X0014840Y0097922D01*
X0014896Y0097954D01*
X0014950Y0097989D01*
X0015002Y0098027D01*
X0015052Y0098068D01*
X0015098Y0098113D01*
X0015143Y0098159D01*
X0015184Y0098209D01*
X0015222Y0098261D01*
X0015257Y0098315D01*
X0015289Y0098371D01*
X0015317Y0098429D01*
X0015342Y0098489D01*
X0015363Y0098550D01*
X0015380Y0098612D01*
X0015394Y0098675D01*
X0015403Y0098738D01*
X0015409Y0098803D01*
X0015411Y0098867D01*
X0012016Y0102067D02*
X0010239Y0102067D01*
X0010175Y0102065D01*
X0010110Y0102059D01*
X0010047Y0102050D01*
X0009984Y0102036D01*
X0009922Y0102019D01*
X0009861Y0101998D01*
X0009801Y0101973D01*
X0009743Y0101945D01*
X0009687Y0101913D01*
X0009633Y0101878D01*
X0009581Y0101840D01*
X0009531Y0101799D01*
X0009485Y0101754D01*
X0009440Y0101708D01*
X0009399Y0101658D01*
X0009361Y0101606D01*
X0009326Y0101552D01*
X0009294Y0101496D01*
X0009266Y0101438D01*
X0009241Y0101378D01*
X0009220Y0101317D01*
X0009203Y0101255D01*
X0009189Y0101192D01*
X0009180Y0101129D01*
X0009174Y0101064D01*
X0009172Y0101000D01*
X0009172Y0097800D01*
X0006478Y0099222D02*
X0006478Y0100644D01*
X0006476Y0100718D01*
X0006470Y0100793D01*
X0006460Y0100866D01*
X0006447Y0100940D01*
X0006430Y0101012D01*
X0006408Y0101083D01*
X0006384Y0101154D01*
X0006355Y0101222D01*
X0006323Y0101290D01*
X0006287Y0101355D01*
X0006249Y0101418D01*
X0006206Y0101480D01*
X0006161Y0101539D01*
X0006113Y0101596D01*
X0006062Y0101650D01*
X0006008Y0101701D01*
X0005951Y0101749D01*
X0005892Y0101794D01*
X0005830Y0101837D01*
X0005767Y0101875D01*
X0005702Y0101911D01*
X0005634Y0101943D01*
X0005566Y0101972D01*
X0005495Y0101996D01*
X0005424Y0102018D01*
X0005352Y0102035D01*
X0005278Y0102048D01*
X0005205Y0102058D01*
X0005130Y0102064D01*
X0005056Y0102066D01*
X0004982Y0102064D01*
X0004907Y0102058D01*
X0004834Y0102048D01*
X0004760Y0102035D01*
X0004688Y0102018D01*
X0004617Y0101996D01*
X0004546Y0101972D01*
X0004478Y0101943D01*
X0004410Y0101911D01*
X0004345Y0101875D01*
X0004282Y0101837D01*
X0004220Y0101794D01*
X0004161Y0101749D01*
X0004104Y0101701D01*
X0004050Y0101650D01*
X0003999Y0101596D01*
X0003951Y0101539D01*
X0003906Y0101480D01*
X0003863Y0101418D01*
X0003825Y0101355D01*
X0003789Y0101290D01*
X0003757Y0101222D01*
X0003728Y0101154D01*
X0003704Y0101083D01*
X0003682Y0101012D01*
X0003665Y0100940D01*
X0003652Y0100866D01*
X0003642Y0100793D01*
X0003636Y0100718D01*
X0003634Y0100644D01*
X0003633Y0100644D02*
X0003633Y0099222D01*
X0003634Y0099222D02*
X0003636Y0099148D01*
X0003642Y0099073D01*
X0003652Y0099000D01*
X0003665Y0098926D01*
X0003682Y0098854D01*
X0003704Y0098783D01*
X0003728Y0098712D01*
X0003757Y0098644D01*
X0003789Y0098576D01*
X0003825Y0098511D01*
X0003863Y0098448D01*
X0003906Y0098386D01*
X0003951Y0098327D01*
X0003999Y0098270D01*
X0004050Y0098216D01*
X0004104Y0098165D01*
X0004161Y0098117D01*
X0004220Y0098072D01*
X0004282Y0098029D01*
X0004345Y0097991D01*
X0004410Y0097955D01*
X0004478Y0097923D01*
X0004546Y0097894D01*
X0004617Y0097870D01*
X0004688Y0097848D01*
X0004760Y0097831D01*
X0004834Y0097818D01*
X0004907Y0097808D01*
X0004982Y0097802D01*
X0005056Y0097800D01*
X0005130Y0097802D01*
X0005205Y0097808D01*
X0005278Y0097818D01*
X0005352Y0097831D01*
X0005424Y0097848D01*
X0005495Y0097870D01*
X0005566Y0097894D01*
X0005634Y0097923D01*
X0005702Y0097955D01*
X0005767Y0097991D01*
X0005830Y0098029D01*
X0005892Y0098072D01*
X0005951Y0098117D01*
X0006008Y0098165D01*
X0006062Y0098216D01*
X0006113Y0098270D01*
X0006161Y0098327D01*
X0006206Y0098386D01*
X0006249Y0098448D01*
X0006287Y0098511D01*
X0006323Y0098576D01*
X0006355Y0098644D01*
X0006384Y0098712D01*
X0006408Y0098783D01*
X0006430Y0098854D01*
X0006447Y0098926D01*
X0006460Y0099000D01*
X0006470Y0099073D01*
X0006476Y0099148D01*
X0006478Y0099222D01*
X0021685Y0108300D02*
X0023463Y0108300D01*
X0023527Y0108302D01*
X0023592Y0108308D01*
X0023655Y0108317D01*
X0023718Y0108331D01*
X0023780Y0108348D01*
X0023841Y0108369D01*
X0023901Y0108394D01*
X0023959Y0108422D01*
X0024015Y0108454D01*
X0024069Y0108489D01*
X0024121Y0108527D01*
X0024171Y0108568D01*
X0024217Y0108613D01*
X0024262Y0108659D01*
X0024303Y0108709D01*
X0024341Y0108761D01*
X0024376Y0108815D01*
X0024408Y0108871D01*
X0024436Y0108929D01*
X0024461Y0108989D01*
X0024482Y0109050D01*
X0024499Y0109112D01*
X0024513Y0109175D01*
X0024522Y0109238D01*
X0024528Y0109303D01*
X0024530Y0109367D01*
X0024530Y0111144D01*
X0024530Y0110433D02*
X0021685Y0110433D01*
X0021685Y0111144D01*
X0021687Y0111218D01*
X0021693Y0111293D01*
X0021703Y0111366D01*
X0021716Y0111440D01*
X0021733Y0111512D01*
X0021755Y0111583D01*
X0021779Y0111654D01*
X0021808Y0111722D01*
X0021840Y0111790D01*
X0021876Y0111855D01*
X0021914Y0111918D01*
X0021957Y0111980D01*
X0022002Y0112039D01*
X0022050Y0112096D01*
X0022101Y0112150D01*
X0022155Y0112201D01*
X0022212Y0112249D01*
X0022271Y0112294D01*
X0022333Y0112337D01*
X0022396Y0112375D01*
X0022461Y0112411D01*
X0022529Y0112443D01*
X0022597Y0112472D01*
X0022668Y0112496D01*
X0022739Y0112518D01*
X0022811Y0112535D01*
X0022885Y0112548D01*
X0022958Y0112558D01*
X0023033Y0112564D01*
X0023107Y0112566D01*
X0023181Y0112564D01*
X0023256Y0112558D01*
X0023329Y0112548D01*
X0023403Y0112535D01*
X0023475Y0112518D01*
X0023546Y0112496D01*
X0023617Y0112472D01*
X0023685Y0112443D01*
X0023753Y0112411D01*
X0023818Y0112375D01*
X0023881Y0112337D01*
X0023943Y0112294D01*
X0024002Y0112249D01*
X0024059Y0112201D01*
X0024113Y0112150D01*
X0024164Y0112096D01*
X0024212Y0112039D01*
X0024257Y0111980D01*
X0024300Y0111918D01*
X0024338Y0111855D01*
X0024374Y0111790D01*
X0024406Y0111722D01*
X0024435Y0111654D01*
X0024459Y0111583D01*
X0024481Y0111512D01*
X0024498Y0111440D01*
X0024511Y0111366D01*
X0024521Y0111293D01*
X0024527Y0111218D01*
X0024529Y0111144D01*
X0027101Y0112567D02*
X0027101Y0107233D01*
X0027100Y0107233D02*
X0027102Y0107169D01*
X0027108Y0107104D01*
X0027117Y0107041D01*
X0027131Y0106978D01*
X0027148Y0106916D01*
X0027169Y0106855D01*
X0027194Y0106795D01*
X0027222Y0106737D01*
X0027254Y0106681D01*
X0027289Y0106627D01*
X0027327Y0106575D01*
X0027368Y0106525D01*
X0027413Y0106479D01*
X0027459Y0106434D01*
X0027509Y0106393D01*
X0027561Y0106355D01*
X0027615Y0106320D01*
X0027671Y0106288D01*
X0027729Y0106260D01*
X0027789Y0106235D01*
X0027850Y0106214D01*
X0027912Y0106197D01*
X0027975Y0106183D01*
X0028038Y0106174D01*
X0028103Y0106168D01*
X0028167Y0106166D01*
X0028167Y0106167D02*
X0028523Y0106167D01*
X0029480Y0109722D02*
X0029480Y0111144D01*
X0029482Y0111218D01*
X0029488Y0111293D01*
X0029498Y0111366D01*
X0029511Y0111440D01*
X0029528Y0111512D01*
X0029550Y0111583D01*
X0029574Y0111654D01*
X0029603Y0111722D01*
X0029635Y0111790D01*
X0029671Y0111855D01*
X0029709Y0111918D01*
X0029752Y0111980D01*
X0029797Y0112039D01*
X0029845Y0112096D01*
X0029896Y0112150D01*
X0029950Y0112201D01*
X0030007Y0112249D01*
X0030066Y0112294D01*
X0030128Y0112337D01*
X0030191Y0112375D01*
X0030256Y0112411D01*
X0030324Y0112443D01*
X0030392Y0112472D01*
X0030463Y0112496D01*
X0030534Y0112518D01*
X0030606Y0112535D01*
X0030680Y0112548D01*
X0030753Y0112558D01*
X0030828Y0112564D01*
X0030902Y0112566D01*
X0030976Y0112564D01*
X0031051Y0112558D01*
X0031124Y0112548D01*
X0031198Y0112535D01*
X0031270Y0112518D01*
X0031341Y0112496D01*
X0031412Y0112472D01*
X0031480Y0112443D01*
X0031548Y0112411D01*
X0031613Y0112375D01*
X0031676Y0112337D01*
X0031738Y0112294D01*
X0031797Y0112249D01*
X0031854Y0112201D01*
X0031908Y0112150D01*
X0031959Y0112096D01*
X0032007Y0112039D01*
X0032052Y0111980D01*
X0032095Y0111918D01*
X0032133Y0111855D01*
X0032169Y0111790D01*
X0032201Y0111722D01*
X0032230Y0111654D01*
X0032254Y0111583D01*
X0032276Y0111512D01*
X0032293Y0111440D01*
X0032306Y0111366D01*
X0032316Y0111293D01*
X0032322Y0111218D01*
X0032324Y0111144D01*
X0032325Y0111144D02*
X0032325Y0109722D01*
X0032324Y0109722D02*
X0032322Y0109648D01*
X0032316Y0109573D01*
X0032306Y0109500D01*
X0032293Y0109426D01*
X0032276Y0109354D01*
X0032254Y0109283D01*
X0032230Y0109212D01*
X0032201Y0109144D01*
X0032169Y0109076D01*
X0032133Y0109011D01*
X0032095Y0108948D01*
X0032052Y0108886D01*
X0032007Y0108827D01*
X0031959Y0108770D01*
X0031908Y0108716D01*
X0031854Y0108665D01*
X0031797Y0108617D01*
X0031738Y0108572D01*
X0031676Y0108529D01*
X0031613Y0108491D01*
X0031548Y0108455D01*
X0031480Y0108423D01*
X0031412Y0108394D01*
X0031341Y0108370D01*
X0031270Y0108348D01*
X0031198Y0108331D01*
X0031124Y0108318D01*
X0031051Y0108308D01*
X0030976Y0108302D01*
X0030902Y0108300D01*
X0030828Y0108302D01*
X0030753Y0108308D01*
X0030680Y0108318D01*
X0030606Y0108331D01*
X0030534Y0108348D01*
X0030463Y0108370D01*
X0030392Y0108394D01*
X0030324Y0108423D01*
X0030256Y0108455D01*
X0030191Y0108491D01*
X0030128Y0108529D01*
X0030066Y0108572D01*
X0030007Y0108617D01*
X0029950Y0108665D01*
X0029896Y0108716D01*
X0029845Y0108770D01*
X0029797Y0108827D01*
X0029752Y0108886D01*
X0029709Y0108948D01*
X0029671Y0109011D01*
X0029635Y0109076D01*
X0029603Y0109144D01*
X0029574Y0109212D01*
X0029550Y0109283D01*
X0029528Y0109354D01*
X0029511Y0109426D01*
X0029498Y0109500D01*
X0029488Y0109573D01*
X0029482Y0109648D01*
X0029480Y0109722D01*
X0027278Y0114344D02*
X0026923Y0114344D01*
X0026923Y0114700D01*
X0027278Y0114700D01*
X0027278Y0114344D01*
X0034261Y0112567D02*
X0034261Y0111856D01*
X0034261Y0112567D02*
X0036394Y0112567D01*
X0036394Y0108300D01*
X0040666Y0111144D02*
X0042444Y0111144D01*
X0040666Y0111144D02*
X0040583Y0111146D01*
X0040500Y0111152D01*
X0040417Y0111162D01*
X0040334Y0111175D01*
X0040253Y0111193D01*
X0040172Y0111214D01*
X0040093Y0111239D01*
X0040015Y0111268D01*
X0039938Y0111300D01*
X0039863Y0111336D01*
X0039789Y0111375D01*
X0039718Y0111418D01*
X0039648Y0111464D01*
X0039581Y0111514D01*
X0039516Y0111566D01*
X0039454Y0111621D01*
X0039394Y0111680D01*
X0039337Y0111741D01*
X0039283Y0111804D01*
X0039232Y0111870D01*
X0039185Y0111939D01*
X0039140Y0112009D01*
X0039099Y0112082D01*
X0039062Y0112156D01*
X0039027Y0112232D01*
X0038997Y0112310D01*
X0038970Y0112388D01*
X0038947Y0112469D01*
X0038927Y0112550D01*
X0038912Y0112632D01*
X0038900Y0112714D01*
X0038892Y0112797D01*
X0038888Y0112880D01*
X0038888Y0112964D01*
X0038892Y0113047D01*
X0038900Y0113130D01*
X0038912Y0113212D01*
X0038927Y0113294D01*
X0038947Y0113375D01*
X0038970Y0113456D01*
X0038997Y0113534D01*
X0039027Y0113612D01*
X0039062Y0113688D01*
X0039099Y0113762D01*
X0039140Y0113835D01*
X0039185Y0113905D01*
X0039232Y0113974D01*
X0039283Y0114040D01*
X0039337Y0114103D01*
X0039394Y0114164D01*
X0039454Y0114223D01*
X0039516Y0114278D01*
X0039581Y0114330D01*
X0039648Y0114380D01*
X0039718Y0114426D01*
X0039789Y0114469D01*
X0039863Y0114508D01*
X0039938Y0114544D01*
X0040015Y0114576D01*
X0040093Y0114605D01*
X0040172Y0114630D01*
X0040253Y0114651D01*
X0040334Y0114669D01*
X0040417Y0114682D01*
X0040500Y0114692D01*
X0040583Y0114698D01*
X0040666Y0114700D01*
X0042444Y0114700D01*
X0042444Y0108300D01*
X0057378Y0101000D02*
X0057378Y0097800D01*
X0060223Y0097800D02*
X0060223Y0102067D01*
X0058445Y0102067D01*
X0058381Y0102065D01*
X0058316Y0102059D01*
X0058253Y0102050D01*
X0058190Y0102036D01*
X0058128Y0102019D01*
X0058067Y0101998D01*
X0058007Y0101973D01*
X0057949Y0101945D01*
X0057893Y0101913D01*
X0057839Y0101878D01*
X0057787Y0101840D01*
X0057737Y0101799D01*
X0057691Y0101754D01*
X0057646Y0101708D01*
X0057605Y0101658D01*
X0057567Y0101606D01*
X0057532Y0101552D01*
X0057500Y0101496D01*
X0057472Y0101438D01*
X0057447Y0101378D01*
X0057426Y0101317D01*
X0057409Y0101255D01*
X0057395Y0101192D01*
X0057386Y0101129D01*
X0057380Y0101064D01*
X0057378Y0101000D01*
X0063150Y0099400D02*
X0066350Y0099400D01*
X0066883Y0097800D02*
X0064750Y0104200D01*
X0062616Y0097800D01*
X0078917Y0109722D02*
X0078917Y0111144D01*
X0078918Y0111144D02*
X0078920Y0111218D01*
X0078926Y0111293D01*
X0078936Y0111366D01*
X0078949Y0111440D01*
X0078966Y0111512D01*
X0078988Y0111583D01*
X0079012Y0111654D01*
X0079041Y0111722D01*
X0079073Y0111790D01*
X0079109Y0111855D01*
X0079147Y0111918D01*
X0079190Y0111980D01*
X0079235Y0112039D01*
X0079283Y0112096D01*
X0079334Y0112150D01*
X0079388Y0112201D01*
X0079445Y0112249D01*
X0079504Y0112294D01*
X0079566Y0112337D01*
X0079629Y0112375D01*
X0079694Y0112411D01*
X0079762Y0112443D01*
X0079830Y0112472D01*
X0079901Y0112496D01*
X0079972Y0112518D01*
X0080044Y0112535D01*
X0080118Y0112548D01*
X0080191Y0112558D01*
X0080266Y0112564D01*
X0080340Y0112566D01*
X0080414Y0112564D01*
X0080489Y0112558D01*
X0080562Y0112548D01*
X0080636Y0112535D01*
X0080708Y0112518D01*
X0080779Y0112496D01*
X0080850Y0112472D01*
X0080918Y0112443D01*
X0080986Y0112411D01*
X0081051Y0112375D01*
X0081114Y0112337D01*
X0081176Y0112294D01*
X0081235Y0112249D01*
X0081292Y0112201D01*
X0081346Y0112150D01*
X0081397Y0112096D01*
X0081445Y0112039D01*
X0081490Y0111980D01*
X0081533Y0111918D01*
X0081571Y0111855D01*
X0081607Y0111790D01*
X0081639Y0111722D01*
X0081668Y0111654D01*
X0081692Y0111583D01*
X0081714Y0111512D01*
X0081731Y0111440D01*
X0081744Y0111366D01*
X0081754Y0111293D01*
X0081760Y0111218D01*
X0081762Y0111144D01*
X0081762Y0109722D01*
X0081760Y0109648D01*
X0081754Y0109573D01*
X0081744Y0109500D01*
X0081731Y0109426D01*
X0081714Y0109354D01*
X0081692Y0109283D01*
X0081668Y0109212D01*
X0081639Y0109144D01*
X0081607Y0109076D01*
X0081571Y0109011D01*
X0081533Y0108948D01*
X0081490Y0108886D01*
X0081445Y0108827D01*
X0081397Y0108770D01*
X0081346Y0108716D01*
X0081292Y0108665D01*
X0081235Y0108617D01*
X0081176Y0108572D01*
X0081114Y0108529D01*
X0081051Y0108491D01*
X0080986Y0108455D01*
X0080918Y0108423D01*
X0080850Y0108394D01*
X0080779Y0108370D01*
X0080708Y0108348D01*
X0080636Y0108331D01*
X0080562Y0108318D01*
X0080489Y0108308D01*
X0080414Y0108302D01*
X0080340Y0108300D01*
X0080266Y0108302D01*
X0080191Y0108308D01*
X0080118Y0108318D01*
X0080044Y0108331D01*
X0079972Y0108348D01*
X0079901Y0108370D01*
X0079830Y0108394D01*
X0079762Y0108423D01*
X0079694Y0108455D01*
X0079629Y0108491D01*
X0079566Y0108529D01*
X0079504Y0108572D01*
X0079445Y0108617D01*
X0079388Y0108665D01*
X0079334Y0108716D01*
X0079283Y0108770D01*
X0079235Y0108827D01*
X0079190Y0108886D01*
X0079147Y0108948D01*
X0079109Y0109011D01*
X0079073Y0109076D01*
X0079041Y0109144D01*
X0079012Y0109212D01*
X0078988Y0109283D01*
X0078966Y0109354D01*
X0078949Y0109426D01*
X0078936Y0109500D01*
X0078926Y0109573D01*
X0078920Y0109648D01*
X0078918Y0109722D01*
X0084037Y0108300D02*
X0084392Y0108300D01*
X0084456Y0108302D01*
X0084521Y0108308D01*
X0084584Y0108317D01*
X0084647Y0108331D01*
X0084709Y0108348D01*
X0084770Y0108369D01*
X0084830Y0108394D01*
X0084888Y0108422D01*
X0084944Y0108454D01*
X0084998Y0108489D01*
X0085050Y0108527D01*
X0085100Y0108568D01*
X0085146Y0108613D01*
X0085191Y0108659D01*
X0085232Y0108709D01*
X0085270Y0108761D01*
X0085305Y0108815D01*
X0085337Y0108871D01*
X0085365Y0108929D01*
X0085390Y0108989D01*
X0085411Y0109050D01*
X0085428Y0109112D01*
X0085442Y0109175D01*
X0085451Y0109238D01*
X0085457Y0109303D01*
X0085459Y0109367D01*
X0085459Y0114700D01*
X0086170Y0112567D02*
X0084037Y0112567D01*
X0088354Y0112567D02*
X0088354Y0108300D01*
X0090131Y0108300D01*
X0090195Y0108302D01*
X0090260Y0108308D01*
X0090323Y0108317D01*
X0090386Y0108331D01*
X0090448Y0108348D01*
X0090509Y0108369D01*
X0090569Y0108394D01*
X0090627Y0108422D01*
X0090683Y0108454D01*
X0090737Y0108489D01*
X0090789Y0108527D01*
X0090839Y0108568D01*
X0090885Y0108613D01*
X0090930Y0108659D01*
X0090971Y0108709D01*
X0091009Y0108761D01*
X0091044Y0108815D01*
X0091076Y0108871D01*
X0091104Y0108929D01*
X0091129Y0108989D01*
X0091150Y0109050D01*
X0091167Y0109112D01*
X0091181Y0109175D01*
X0091190Y0109238D01*
X0091196Y0109303D01*
X0091198Y0109367D01*
X0091198Y0112567D01*
X0093591Y0108300D02*
X0095725Y0114700D01*
X0097858Y0108300D01*
X0097325Y0109900D02*
X0094125Y0109900D01*
X0098241Y0102067D02*
X0100019Y0102067D01*
X0100019Y0097800D01*
X0097174Y0097800D02*
X0097174Y0101000D01*
X0097176Y0101064D01*
X0097182Y0101129D01*
X0097191Y0101192D01*
X0097205Y0101255D01*
X0097222Y0101317D01*
X0097243Y0101378D01*
X0097268Y0101438D01*
X0097296Y0101496D01*
X0097328Y0101552D01*
X0097363Y0101606D01*
X0097401Y0101658D01*
X0097442Y0101708D01*
X0097487Y0101754D01*
X0097533Y0101799D01*
X0097583Y0101840D01*
X0097635Y0101878D01*
X0097689Y0101913D01*
X0097745Y0101945D01*
X0097803Y0101973D01*
X0097863Y0101998D01*
X0097924Y0102019D01*
X0097986Y0102036D01*
X0098049Y0102050D01*
X0098112Y0102059D01*
X0098177Y0102065D01*
X0098241Y0102067D01*
X0094480Y0100644D02*
X0094480Y0098867D01*
X0094480Y0099933D02*
X0091636Y0099933D01*
X0091636Y0100644D01*
X0091638Y0100718D01*
X0091644Y0100793D01*
X0091654Y0100866D01*
X0091667Y0100940D01*
X0091684Y0101012D01*
X0091706Y0101083D01*
X0091730Y0101154D01*
X0091759Y0101222D01*
X0091791Y0101290D01*
X0091827Y0101355D01*
X0091865Y0101418D01*
X0091908Y0101480D01*
X0091953Y0101539D01*
X0092001Y0101596D01*
X0092052Y0101650D01*
X0092106Y0101701D01*
X0092163Y0101749D01*
X0092222Y0101794D01*
X0092284Y0101837D01*
X0092347Y0101875D01*
X0092412Y0101911D01*
X0092480Y0101943D01*
X0092548Y0101972D01*
X0092619Y0101996D01*
X0092690Y0102018D01*
X0092762Y0102035D01*
X0092836Y0102048D01*
X0092909Y0102058D01*
X0092984Y0102064D01*
X0093058Y0102066D01*
X0093132Y0102064D01*
X0093207Y0102058D01*
X0093280Y0102048D01*
X0093354Y0102035D01*
X0093426Y0102018D01*
X0093497Y0101996D01*
X0093568Y0101972D01*
X0093636Y0101943D01*
X0093704Y0101911D01*
X0093769Y0101875D01*
X0093832Y0101837D01*
X0093894Y0101794D01*
X0093953Y0101749D01*
X0094010Y0101701D01*
X0094064Y0101650D01*
X0094115Y0101596D01*
X0094163Y0101539D01*
X0094208Y0101480D01*
X0094251Y0101418D01*
X0094289Y0101355D01*
X0094325Y0101290D01*
X0094357Y0101222D01*
X0094386Y0101154D01*
X0094410Y0101083D01*
X0094432Y0101012D01*
X0094449Y0100940D01*
X0094462Y0100866D01*
X0094472Y0100793D01*
X0094478Y0100718D01*
X0094480Y0100644D01*
X0094481Y0098867D02*
X0094479Y0098803D01*
X0094473Y0098738D01*
X0094464Y0098675D01*
X0094450Y0098612D01*
X0094433Y0098550D01*
X0094412Y0098489D01*
X0094387Y0098429D01*
X0094359Y0098371D01*
X0094327Y0098315D01*
X0094292Y0098261D01*
X0094254Y0098209D01*
X0094213Y0098159D01*
X0094168Y0098113D01*
X0094122Y0098068D01*
X0094072Y0098027D01*
X0094020Y0097989D01*
X0093966Y0097954D01*
X0093910Y0097922D01*
X0093852Y0097894D01*
X0093792Y0097869D01*
X0093731Y0097848D01*
X0093669Y0097831D01*
X0093606Y0097817D01*
X0093543Y0097808D01*
X0093478Y0097802D01*
X0093414Y0097800D01*
X0091636Y0097800D01*
X0089176Y0098867D02*
X0089176Y0101000D01*
X0089174Y0101064D01*
X0089168Y0101129D01*
X0089159Y0101192D01*
X0089145Y0101255D01*
X0089128Y0101317D01*
X0089107Y0101378D01*
X0089082Y0101438D01*
X0089054Y0101496D01*
X0089022Y0101552D01*
X0088987Y0101606D01*
X0088949Y0101658D01*
X0088908Y0101708D01*
X0088863Y0101754D01*
X0088817Y0101799D01*
X0088767Y0101840D01*
X0088715Y0101878D01*
X0088661Y0101913D01*
X0088605Y0101945D01*
X0088547Y0101973D01*
X0088487Y0101998D01*
X0088426Y0102019D01*
X0088364Y0102036D01*
X0088301Y0102050D01*
X0088238Y0102059D01*
X0088173Y0102065D01*
X0088109Y0102067D01*
X0086331Y0102067D01*
X0086331Y0104200D02*
X0086331Y0097800D01*
X0088109Y0097800D01*
X0088173Y0097802D01*
X0088238Y0097808D01*
X0088301Y0097817D01*
X0088364Y0097831D01*
X0088426Y0097848D01*
X0088487Y0097869D01*
X0088547Y0097894D01*
X0088605Y0097922D01*
X0088661Y0097954D01*
X0088715Y0097989D01*
X0088767Y0098027D01*
X0088817Y0098068D01*
X0088863Y0098113D01*
X0088908Y0098159D01*
X0088949Y0098209D01*
X0088987Y0098261D01*
X0089022Y0098315D01*
X0089054Y0098371D01*
X0089082Y0098429D01*
X0089107Y0098489D01*
X0089128Y0098550D01*
X0089145Y0098612D01*
X0089159Y0098675D01*
X0089168Y0098738D01*
X0089174Y0098803D01*
X0089176Y0098867D01*
X0102947Y0097800D02*
X0104725Y0097800D01*
X0104789Y0097802D01*
X0104854Y0097808D01*
X0104917Y0097817D01*
X0104980Y0097831D01*
X0105042Y0097848D01*
X0105103Y0097869D01*
X0105163Y0097894D01*
X0105221Y0097922D01*
X0105277Y0097954D01*
X0105331Y0097989D01*
X0105383Y0098027D01*
X0105433Y0098068D01*
X0105479Y0098113D01*
X0105524Y0098159D01*
X0105565Y0098209D01*
X0105603Y0098261D01*
X0105638Y0098315D01*
X0105670Y0098371D01*
X0105698Y0098429D01*
X0105723Y0098489D01*
X0105744Y0098550D01*
X0105761Y0098612D01*
X0105775Y0098675D01*
X0105784Y0098738D01*
X0105790Y0098803D01*
X0105792Y0098867D01*
X0105791Y0098867D02*
X0105791Y0101000D01*
X0105792Y0101000D02*
X0105790Y0101064D01*
X0105784Y0101129D01*
X0105775Y0101192D01*
X0105761Y0101255D01*
X0105744Y0101317D01*
X0105723Y0101378D01*
X0105698Y0101438D01*
X0105670Y0101496D01*
X0105638Y0101552D01*
X0105603Y0101606D01*
X0105565Y0101658D01*
X0105524Y0101708D01*
X0105479Y0101754D01*
X0105433Y0101799D01*
X0105383Y0101840D01*
X0105331Y0101878D01*
X0105277Y0101913D01*
X0105221Y0101945D01*
X0105163Y0101973D01*
X0105103Y0101998D01*
X0105042Y0102019D01*
X0104980Y0102036D01*
X0104917Y0102050D01*
X0104854Y0102059D01*
X0104789Y0102065D01*
X0104725Y0102067D01*
X0102947Y0102067D01*
X0102947Y0096733D01*
X0102949Y0096669D01*
X0102955Y0096604D01*
X0102964Y0096541D01*
X0102978Y0096478D01*
X0102995Y0096416D01*
X0103016Y0096355D01*
X0103041Y0096295D01*
X0103069Y0096237D01*
X0103101Y0096181D01*
X0103136Y0096127D01*
X0103174Y0096075D01*
X0103215Y0096025D01*
X0103260Y0095979D01*
X0103306Y0095934D01*
X0103356Y0095893D01*
X0103408Y0095855D01*
X0103462Y0095820D01*
X0103518Y0095788D01*
X0103576Y0095760D01*
X0103636Y0095735D01*
X0103697Y0095714D01*
X0103759Y0095697D01*
X0103822Y0095683D01*
X0103885Y0095674D01*
X0103950Y0095668D01*
X0104014Y0095666D01*
X0104014Y0095667D02*
X0105436Y0095667D01*
X0108238Y0097800D02*
X0108238Y0102067D01*
X0108060Y0103844D02*
X0108416Y0103844D01*
X0108416Y0104200D01*
X0108060Y0104200D01*
X0108060Y0103844D01*
X0108977Y0108300D02*
X0108977Y0111500D01*
X0108976Y0111500D02*
X0108978Y0111564D01*
X0108984Y0111629D01*
X0108993Y0111692D01*
X0109007Y0111755D01*
X0109024Y0111817D01*
X0109045Y0111878D01*
X0109070Y0111938D01*
X0109098Y0111996D01*
X0109130Y0112052D01*
X0109165Y0112106D01*
X0109203Y0112158D01*
X0109244Y0112208D01*
X0109289Y0112254D01*
X0109335Y0112299D01*
X0109385Y0112340D01*
X0109437Y0112378D01*
X0109491Y0112413D01*
X0109547Y0112445D01*
X0109605Y0112473D01*
X0109665Y0112498D01*
X0109726Y0112519D01*
X0109788Y0112536D01*
X0109851Y0112550D01*
X0109914Y0112559D01*
X0109979Y0112565D01*
X0110043Y0112567D01*
X0113243Y0112567D01*
X0113243Y0108300D01*
X0111110Y0108300D02*
X0111110Y0112567D01*
X0116047Y0111144D02*
X0116047Y0109722D01*
X0116049Y0109648D01*
X0116055Y0109573D01*
X0116065Y0109500D01*
X0116078Y0109426D01*
X0116095Y0109354D01*
X0116117Y0109283D01*
X0116141Y0109212D01*
X0116170Y0109144D01*
X0116202Y0109076D01*
X0116238Y0109011D01*
X0116276Y0108948D01*
X0116319Y0108886D01*
X0116364Y0108827D01*
X0116412Y0108770D01*
X0116463Y0108716D01*
X0116517Y0108665D01*
X0116574Y0108617D01*
X0116633Y0108572D01*
X0116695Y0108529D01*
X0116758Y0108491D01*
X0116823Y0108455D01*
X0116891Y0108423D01*
X0116959Y0108394D01*
X0117030Y0108370D01*
X0117101Y0108348D01*
X0117173Y0108331D01*
X0117247Y0108318D01*
X0117320Y0108308D01*
X0117395Y0108302D01*
X0117469Y0108300D01*
X0117543Y0108302D01*
X0117618Y0108308D01*
X0117691Y0108318D01*
X0117765Y0108331D01*
X0117837Y0108348D01*
X0117908Y0108370D01*
X0117979Y0108394D01*
X0118047Y0108423D01*
X0118115Y0108455D01*
X0118180Y0108491D01*
X0118243Y0108529D01*
X0118305Y0108572D01*
X0118364Y0108617D01*
X0118421Y0108665D01*
X0118475Y0108716D01*
X0118526Y0108770D01*
X0118574Y0108827D01*
X0118619Y0108886D01*
X0118662Y0108948D01*
X0118700Y0109011D01*
X0118736Y0109076D01*
X0118768Y0109144D01*
X0118797Y0109212D01*
X0118821Y0109283D01*
X0118843Y0109354D01*
X0118860Y0109426D01*
X0118873Y0109500D01*
X0118883Y0109573D01*
X0118889Y0109648D01*
X0118891Y0109722D01*
X0118891Y0111144D01*
X0118889Y0111218D01*
X0118883Y0111293D01*
X0118873Y0111366D01*
X0118860Y0111440D01*
X0118843Y0111512D01*
X0118821Y0111583D01*
X0118797Y0111654D01*
X0118768Y0111722D01*
X0118736Y0111790D01*
X0118700Y0111855D01*
X0118662Y0111918D01*
X0118619Y0111980D01*
X0118574Y0112039D01*
X0118526Y0112096D01*
X0118475Y0112150D01*
X0118421Y0112201D01*
X0118364Y0112249D01*
X0118305Y0112294D01*
X0118243Y0112337D01*
X0118180Y0112375D01*
X0118115Y0112411D01*
X0118047Y0112443D01*
X0117979Y0112472D01*
X0117908Y0112496D01*
X0117837Y0112518D01*
X0117765Y0112535D01*
X0117691Y0112548D01*
X0117618Y0112558D01*
X0117543Y0112564D01*
X0117469Y0112566D01*
X0117395Y0112564D01*
X0117320Y0112558D01*
X0117247Y0112548D01*
X0117173Y0112535D01*
X0117101Y0112518D01*
X0117030Y0112496D01*
X0116959Y0112472D01*
X0116891Y0112443D01*
X0116823Y0112411D01*
X0116758Y0112375D01*
X0116695Y0112337D01*
X0116633Y0112294D01*
X0116574Y0112249D01*
X0116517Y0112201D01*
X0116463Y0112150D01*
X0116412Y0112096D01*
X0116364Y0112039D01*
X0116319Y0111980D01*
X0116276Y0111918D01*
X0116238Y0111855D01*
X0116202Y0111790D01*
X0116170Y0111722D01*
X0116141Y0111654D01*
X0116117Y0111583D01*
X0116095Y0111512D01*
X0116078Y0111440D01*
X0116065Y0111366D01*
X0116055Y0111293D01*
X0116049Y0111218D01*
X0116047Y0111144D01*
X0113558Y0098155D02*
X0113413Y0098105D01*
X0113266Y0098059D01*
X0113119Y0098016D01*
X0112970Y0097977D01*
X0112820Y0097942D01*
X0112670Y0097910D01*
X0112519Y0097883D01*
X0112367Y0097859D01*
X0112215Y0097840D01*
X0112062Y0097824D01*
X0111909Y0097812D01*
X0111756Y0097804D01*
X0111602Y0097800D01*
X0111543Y0097801D01*
X0111483Y0097806D01*
X0111425Y0097815D01*
X0111366Y0097827D01*
X0111309Y0097844D01*
X0111253Y0097863D01*
X0111198Y0097887D01*
X0111145Y0097914D01*
X0111094Y0097944D01*
X0111045Y0097978D01*
X0110998Y0098014D01*
X0110954Y0098054D01*
X0110912Y0098096D01*
X0110873Y0098141D01*
X0110837Y0098189D01*
X0110804Y0098238D01*
X0110775Y0098290D01*
X0110748Y0098343D01*
X0110726Y0098398D01*
X0110707Y0098455D01*
X0110691Y0098512D01*
X0110680Y0098570D01*
X0110672Y0098629D01*
X0110668Y0098689D01*
X0110667Y0098748D01*
X0110671Y0098808D01*
X0110678Y0098867D01*
X0110690Y0098925D01*
X0110705Y0098983D01*
X0110723Y0099039D01*
X0110746Y0099094D01*
X0110771Y0099148D01*
X0110801Y0099200D01*
X0110833Y0099250D01*
X0110869Y0099297D01*
X0110907Y0099343D01*
X0110949Y0099385D01*
X0110993Y0099425D01*
X0111039Y0099462D01*
X0111088Y0099496D01*
X0111139Y0099527D01*
X0111192Y0099554D01*
X0111247Y0099578D01*
X0113024Y0100289D01*
X0113079Y0100313D01*
X0113132Y0100340D01*
X0113183Y0100371D01*
X0113232Y0100405D01*
X0113278Y0100442D01*
X0113322Y0100482D01*
X0113364Y0100524D01*
X0113402Y0100570D01*
X0113438Y0100617D01*
X0113470Y0100667D01*
X0113500Y0100719D01*
X0113525Y0100773D01*
X0113548Y0100828D01*
X0113566Y0100884D01*
X0113581Y0100942D01*
X0113593Y0101000D01*
X0113600Y0101059D01*
X0113604Y0101119D01*
X0113603Y0101178D01*
X0113599Y0101238D01*
X0113591Y0101297D01*
X0113580Y0101355D01*
X0113564Y0101412D01*
X0113545Y0101469D01*
X0113523Y0101524D01*
X0113496Y0101577D01*
X0113467Y0101629D01*
X0113434Y0101678D01*
X0113398Y0101726D01*
X0113359Y0101771D01*
X0113317Y0101813D01*
X0113273Y0101853D01*
X0113226Y0101889D01*
X0113177Y0101923D01*
X0113126Y0101953D01*
X0113073Y0101980D01*
X0113018Y0102004D01*
X0112962Y0102023D01*
X0112905Y0102040D01*
X0112846Y0102052D01*
X0112788Y0102061D01*
X0112728Y0102066D01*
X0112669Y0102067D01*
X0116047Y0100644D02*
X0116047Y0099933D01*
X0118891Y0099933D01*
X0118891Y0100644D02*
X0118891Y0098867D01*
X0118892Y0098867D02*
X0118890Y0098803D01*
X0118884Y0098738D01*
X0118875Y0098675D01*
X0118861Y0098612D01*
X0118844Y0098550D01*
X0118823Y0098489D01*
X0118798Y0098429D01*
X0118770Y0098371D01*
X0118738Y0098315D01*
X0118703Y0098261D01*
X0118665Y0098209D01*
X0118624Y0098159D01*
X0118579Y0098113D01*
X0118533Y0098068D01*
X0118483Y0098027D01*
X0118431Y0097989D01*
X0118377Y0097954D01*
X0118321Y0097922D01*
X0118263Y0097894D01*
X0118203Y0097869D01*
X0118142Y0097848D01*
X0118080Y0097831D01*
X0118017Y0097817D01*
X0117954Y0097808D01*
X0117889Y0097802D01*
X0117825Y0097800D01*
X0116047Y0097800D01*
X0116047Y0100644D02*
X0116049Y0100718D01*
X0116055Y0100793D01*
X0116065Y0100866D01*
X0116078Y0100940D01*
X0116095Y0101012D01*
X0116117Y0101083D01*
X0116141Y0101154D01*
X0116170Y0101222D01*
X0116202Y0101290D01*
X0116238Y0101355D01*
X0116276Y0101418D01*
X0116319Y0101480D01*
X0116364Y0101539D01*
X0116412Y0101596D01*
X0116463Y0101650D01*
X0116517Y0101701D01*
X0116574Y0101749D01*
X0116633Y0101794D01*
X0116695Y0101837D01*
X0116758Y0101875D01*
X0116823Y0101911D01*
X0116891Y0101943D01*
X0116959Y0101972D01*
X0117030Y0101996D01*
X0117101Y0102018D01*
X0117173Y0102035D01*
X0117247Y0102048D01*
X0117320Y0102058D01*
X0117395Y0102064D01*
X0117469Y0102066D01*
X0117543Y0102064D01*
X0117618Y0102058D01*
X0117691Y0102048D01*
X0117765Y0102035D01*
X0117837Y0102018D01*
X0117908Y0101996D01*
X0117979Y0101972D01*
X0118047Y0101943D01*
X0118115Y0101911D01*
X0118180Y0101875D01*
X0118243Y0101837D01*
X0118305Y0101794D01*
X0118364Y0101749D01*
X0118421Y0101701D01*
X0118475Y0101650D01*
X0118526Y0101596D01*
X0118574Y0101539D01*
X0118619Y0101480D01*
X0118662Y0101418D01*
X0118700Y0101355D01*
X0118736Y0101290D01*
X0118768Y0101222D01*
X0118797Y0101154D01*
X0118821Y0101083D01*
X0118843Y0101012D01*
X0118860Y0100940D01*
X0118873Y0100866D01*
X0118883Y0100793D01*
X0118889Y0100718D01*
X0118891Y0100644D01*
X0121640Y0099578D02*
X0121640Y0102422D01*
X0121642Y0102504D01*
X0121648Y0102586D01*
X0121657Y0102668D01*
X0121670Y0102749D01*
X0121687Y0102829D01*
X0121708Y0102909D01*
X0121732Y0102987D01*
X0121760Y0103064D01*
X0121791Y0103140D01*
X0121826Y0103215D01*
X0121865Y0103287D01*
X0121906Y0103358D01*
X0121951Y0103427D01*
X0121999Y0103493D01*
X0122050Y0103558D01*
X0122104Y0103620D01*
X0122161Y0103679D01*
X0122220Y0103736D01*
X0122282Y0103790D01*
X0122347Y0103841D01*
X0122413Y0103889D01*
X0122482Y0103934D01*
X0122553Y0103975D01*
X0122625Y0104014D01*
X0122700Y0104049D01*
X0122776Y0104080D01*
X0122853Y0104108D01*
X0122931Y0104132D01*
X0123011Y0104153D01*
X0123091Y0104170D01*
X0123172Y0104183D01*
X0123254Y0104192D01*
X0123336Y0104198D01*
X0123418Y0104200D01*
X0125196Y0104200D01*
X0125196Y0097800D01*
X0123418Y0097800D01*
X0123336Y0097802D01*
X0123254Y0097808D01*
X0123172Y0097817D01*
X0123091Y0097830D01*
X0123011Y0097847D01*
X0122931Y0097868D01*
X0122853Y0097892D01*
X0122776Y0097920D01*
X0122700Y0097951D01*
X0122625Y0097986D01*
X0122553Y0098025D01*
X0122482Y0098066D01*
X0122413Y0098111D01*
X0122347Y0098159D01*
X0122282Y0098210D01*
X0122220Y0098264D01*
X0122161Y0098321D01*
X0122104Y0098380D01*
X0122050Y0098442D01*
X0121999Y0098507D01*
X0121951Y0098573D01*
X0121906Y0098642D01*
X0121865Y0098713D01*
X0121826Y0098785D01*
X0121791Y0098860D01*
X0121760Y0098936D01*
X0121732Y0099013D01*
X0121708Y0099091D01*
X0121687Y0099171D01*
X0121670Y0099251D01*
X0121657Y0099332D01*
X0121648Y0099414D01*
X0121642Y0099496D01*
X0121640Y0099578D01*
X0121640Y0108300D02*
X0121640Y0114700D01*
X0121640Y0111856D02*
X0125196Y0111856D01*
X0125196Y0114700D02*
X0125196Y0108300D01*
X0112669Y0102067D02*
X0112551Y0102063D01*
X0112434Y0102056D01*
X0112316Y0102046D01*
X0112199Y0102032D01*
X0112083Y0102015D01*
X0111967Y0101995D01*
X0111851Y0101971D01*
X0111736Y0101944D01*
X0111622Y0101913D01*
X0111510Y0101879D01*
X0111398Y0101842D01*
X0111287Y0101801D01*
X0111177Y0101758D01*
X0111069Y0101711D01*
X0105106Y0108300D02*
X0103328Y0108300D01*
X0105106Y0108300D02*
X0105170Y0108302D01*
X0105235Y0108308D01*
X0105298Y0108317D01*
X0105361Y0108331D01*
X0105423Y0108348D01*
X0105484Y0108369D01*
X0105544Y0108394D01*
X0105602Y0108422D01*
X0105658Y0108454D01*
X0105712Y0108489D01*
X0105764Y0108527D01*
X0105814Y0108568D01*
X0105860Y0108613D01*
X0105905Y0108659D01*
X0105946Y0108709D01*
X0105984Y0108761D01*
X0106019Y0108815D01*
X0106051Y0108871D01*
X0106079Y0108929D01*
X0106104Y0108989D01*
X0106125Y0109050D01*
X0106142Y0109112D01*
X0106156Y0109175D01*
X0106165Y0109238D01*
X0106171Y0109303D01*
X0106173Y0109367D01*
X0106173Y0111144D01*
X0106173Y0110433D02*
X0103328Y0110433D01*
X0103328Y0111144D01*
X0103329Y0111144D02*
X0103331Y0111218D01*
X0103337Y0111293D01*
X0103347Y0111366D01*
X0103360Y0111440D01*
X0103377Y0111512D01*
X0103399Y0111583D01*
X0103423Y0111654D01*
X0103452Y0111722D01*
X0103484Y0111790D01*
X0103520Y0111855D01*
X0103558Y0111918D01*
X0103601Y0111980D01*
X0103646Y0112039D01*
X0103694Y0112096D01*
X0103745Y0112150D01*
X0103799Y0112201D01*
X0103856Y0112249D01*
X0103915Y0112294D01*
X0103977Y0112337D01*
X0104040Y0112375D01*
X0104105Y0112411D01*
X0104173Y0112443D01*
X0104241Y0112472D01*
X0104312Y0112496D01*
X0104383Y0112518D01*
X0104455Y0112535D01*
X0104529Y0112548D01*
X0104602Y0112558D01*
X0104677Y0112564D01*
X0104751Y0112566D01*
X0104825Y0112564D01*
X0104900Y0112558D01*
X0104973Y0112548D01*
X0105047Y0112535D01*
X0105119Y0112518D01*
X0105190Y0112496D01*
X0105261Y0112472D01*
X0105329Y0112443D01*
X0105397Y0112411D01*
X0105462Y0112375D01*
X0105525Y0112337D01*
X0105587Y0112294D01*
X0105646Y0112249D01*
X0105703Y0112201D01*
X0105757Y0112150D01*
X0105808Y0112096D01*
X0105856Y0112039D01*
X0105901Y0111980D01*
X0105944Y0111918D01*
X0105982Y0111855D01*
X0106018Y0111790D01*
X0106050Y0111722D01*
X0106079Y0111654D01*
X0106103Y0111583D01*
X0106125Y0111512D01*
X0106142Y0111440D01*
X0106155Y0111366D01*
X0106165Y0111293D01*
X0106171Y0111218D01*
X0106173Y0111144D01*
X0079165Y0268300D02*
X0075610Y0268300D01*
X0069989Y0269189D02*
X0069929Y0269316D01*
X0069873Y0269445D01*
X0069820Y0269575D01*
X0069770Y0269707D01*
X0069724Y0269840D01*
X0069682Y0269974D01*
X0069643Y0270109D01*
X0069607Y0270246D01*
X0069576Y0270383D01*
X0069548Y0270521D01*
X0069523Y0270659D01*
X0069503Y0270798D01*
X0069486Y0270938D01*
X0069473Y0271078D01*
X0069464Y0271219D01*
X0069458Y0271359D01*
X0069456Y0271500D01*
X0073011Y0271500D02*
X0073009Y0271641D01*
X0073003Y0271781D01*
X0072994Y0271922D01*
X0072981Y0272062D01*
X0072964Y0272202D01*
X0072944Y0272341D01*
X0072919Y0272479D01*
X0072891Y0272617D01*
X0072860Y0272754D01*
X0072824Y0272891D01*
X0072785Y0273026D01*
X0072743Y0273160D01*
X0072697Y0273293D01*
X0072647Y0273425D01*
X0072594Y0273555D01*
X0072538Y0273684D01*
X0072478Y0273811D01*
X0072479Y0273811D02*
X0072454Y0273877D01*
X0072426Y0273942D01*
X0072394Y0274006D01*
X0072359Y0274067D01*
X0072320Y0274127D01*
X0072279Y0274185D01*
X0072234Y0274240D01*
X0072186Y0274292D01*
X0072136Y0274342D01*
X0072083Y0274390D01*
X0072028Y0274434D01*
X0071970Y0274475D01*
X0071910Y0274513D01*
X0071848Y0274548D01*
X0071784Y0274579D01*
X0071719Y0274607D01*
X0071652Y0274632D01*
X0071585Y0274652D01*
X0071516Y0274669D01*
X0071446Y0274683D01*
X0071376Y0274692D01*
X0071305Y0274698D01*
X0071234Y0274700D01*
X0071163Y0274698D01*
X0071092Y0274692D01*
X0071022Y0274683D01*
X0070952Y0274669D01*
X0070883Y0274652D01*
X0070816Y0274632D01*
X0070749Y0274607D01*
X0070684Y0274579D01*
X0070620Y0274548D01*
X0070558Y0274513D01*
X0070498Y0274475D01*
X0070441Y0274434D01*
X0070385Y0274390D01*
X0070332Y0274342D01*
X0070282Y0274292D01*
X0070234Y0274240D01*
X0070189Y0274185D01*
X0070148Y0274127D01*
X0070109Y0274067D01*
X0070074Y0274006D01*
X0070042Y0273942D01*
X0070014Y0273877D01*
X0069989Y0273811D01*
X0069811Y0273278D02*
X0072656Y0269722D01*
X0071234Y0268300D02*
X0071163Y0268302D01*
X0071092Y0268308D01*
X0071022Y0268317D01*
X0070952Y0268331D01*
X0070883Y0268348D01*
X0070816Y0268368D01*
X0070749Y0268393D01*
X0070684Y0268421D01*
X0070620Y0268452D01*
X0070558Y0268487D01*
X0070498Y0268525D01*
X0070441Y0268566D01*
X0070385Y0268610D01*
X0070332Y0268658D01*
X0070282Y0268708D01*
X0070234Y0268760D01*
X0070189Y0268815D01*
X0070148Y0268873D01*
X0070109Y0268933D01*
X0070074Y0268994D01*
X0070042Y0269058D01*
X0070014Y0269123D01*
X0069989Y0269189D01*
X0071234Y0268300D02*
X0071305Y0268302D01*
X0071376Y0268308D01*
X0071446Y0268317D01*
X0071516Y0268331D01*
X0071585Y0268348D01*
X0071652Y0268368D01*
X0071719Y0268393D01*
X0071784Y0268421D01*
X0071848Y0268452D01*
X0071910Y0268487D01*
X0071970Y0268525D01*
X0072028Y0268566D01*
X0072083Y0268610D01*
X0072136Y0268658D01*
X0072186Y0268708D01*
X0072234Y0268760D01*
X0072279Y0268815D01*
X0072320Y0268873D01*
X0072359Y0268933D01*
X0072394Y0268994D01*
X0072426Y0269058D01*
X0072454Y0269123D01*
X0072479Y0269189D01*
X0069456Y0271500D02*
X0069458Y0271641D01*
X0069464Y0271781D01*
X0069473Y0271922D01*
X0069486Y0272062D01*
X0069503Y0272202D01*
X0069523Y0272341D01*
X0069548Y0272479D01*
X0069576Y0272617D01*
X0069607Y0272754D01*
X0069643Y0272891D01*
X0069682Y0273026D01*
X0069724Y0273160D01*
X0069770Y0273293D01*
X0069820Y0273425D01*
X0069873Y0273555D01*
X0069929Y0273684D01*
X0069989Y0273811D01*
X0066857Y0273278D02*
X0065080Y0274700D01*
X0065080Y0268300D01*
X0066857Y0268300D02*
X0063302Y0268300D01*
X0058926Y0268300D02*
X0057148Y0274700D01*
X0060703Y0274700D01*
X0060703Y0273989D01*
X0061223Y0278800D02*
X0061223Y0283067D01*
X0059445Y0283067D01*
X0059381Y0283065D01*
X0059316Y0283059D01*
X0059253Y0283050D01*
X0059190Y0283036D01*
X0059128Y0283019D01*
X0059067Y0282998D01*
X0059007Y0282973D01*
X0058949Y0282945D01*
X0058893Y0282913D01*
X0058839Y0282878D01*
X0058787Y0282840D01*
X0058737Y0282799D01*
X0058691Y0282754D01*
X0058646Y0282708D01*
X0058605Y0282658D01*
X0058567Y0282606D01*
X0058532Y0282552D01*
X0058500Y0282496D01*
X0058472Y0282438D01*
X0058447Y0282378D01*
X0058426Y0282317D01*
X0058409Y0282255D01*
X0058395Y0282192D01*
X0058386Y0282129D01*
X0058380Y0282064D01*
X0058378Y0282000D01*
X0058378Y0278800D01*
X0055713Y0279867D02*
X0055713Y0282000D01*
X0055711Y0282064D01*
X0055705Y0282129D01*
X0055696Y0282192D01*
X0055682Y0282255D01*
X0055665Y0282317D01*
X0055644Y0282378D01*
X0055619Y0282438D01*
X0055591Y0282496D01*
X0055559Y0282552D01*
X0055524Y0282606D01*
X0055486Y0282658D01*
X0055445Y0282708D01*
X0055400Y0282754D01*
X0055354Y0282799D01*
X0055304Y0282840D01*
X0055252Y0282878D01*
X0055198Y0282913D01*
X0055142Y0282945D01*
X0055084Y0282973D01*
X0055024Y0282998D01*
X0054963Y0283019D01*
X0054901Y0283036D01*
X0054838Y0283050D01*
X0054775Y0283059D01*
X0054710Y0283065D01*
X0054646Y0283067D01*
X0052869Y0283067D01*
X0052869Y0285200D02*
X0052869Y0278800D01*
X0054646Y0278800D01*
X0054710Y0278802D01*
X0054775Y0278808D01*
X0054838Y0278817D01*
X0054901Y0278831D01*
X0054963Y0278848D01*
X0055024Y0278869D01*
X0055084Y0278894D01*
X0055142Y0278922D01*
X0055198Y0278954D01*
X0055252Y0278989D01*
X0055304Y0279027D01*
X0055354Y0279068D01*
X0055400Y0279113D01*
X0055445Y0279159D01*
X0055486Y0279209D01*
X0055524Y0279261D01*
X0055559Y0279315D01*
X0055591Y0279371D01*
X0055619Y0279429D01*
X0055644Y0279489D01*
X0055665Y0279550D01*
X0055682Y0279612D01*
X0055696Y0279675D01*
X0055705Y0279738D01*
X0055711Y0279803D01*
X0055713Y0279867D01*
X0049907Y0278800D02*
X0049907Y0283067D01*
X0047774Y0283067D01*
X0047774Y0282356D01*
X0045838Y0281644D02*
X0045838Y0279867D01*
X0045838Y0280933D02*
X0042993Y0280933D01*
X0042993Y0281644D01*
X0042994Y0281644D02*
X0042996Y0281718D01*
X0043002Y0281793D01*
X0043012Y0281866D01*
X0043025Y0281940D01*
X0043042Y0282012D01*
X0043064Y0282083D01*
X0043088Y0282154D01*
X0043117Y0282222D01*
X0043149Y0282290D01*
X0043185Y0282355D01*
X0043223Y0282418D01*
X0043266Y0282480D01*
X0043311Y0282539D01*
X0043359Y0282596D01*
X0043410Y0282650D01*
X0043464Y0282701D01*
X0043521Y0282749D01*
X0043580Y0282794D01*
X0043642Y0282837D01*
X0043705Y0282875D01*
X0043770Y0282911D01*
X0043838Y0282943D01*
X0043906Y0282972D01*
X0043977Y0282996D01*
X0044048Y0283018D01*
X0044120Y0283035D01*
X0044194Y0283048D01*
X0044267Y0283058D01*
X0044342Y0283064D01*
X0044416Y0283066D01*
X0044490Y0283064D01*
X0044565Y0283058D01*
X0044638Y0283048D01*
X0044712Y0283035D01*
X0044784Y0283018D01*
X0044855Y0282996D01*
X0044926Y0282972D01*
X0044994Y0282943D01*
X0045062Y0282911D01*
X0045127Y0282875D01*
X0045190Y0282837D01*
X0045252Y0282794D01*
X0045311Y0282749D01*
X0045368Y0282701D01*
X0045422Y0282650D01*
X0045473Y0282596D01*
X0045521Y0282539D01*
X0045566Y0282480D01*
X0045609Y0282418D01*
X0045647Y0282355D01*
X0045683Y0282290D01*
X0045715Y0282222D01*
X0045744Y0282154D01*
X0045768Y0282083D01*
X0045790Y0282012D01*
X0045807Y0281940D01*
X0045820Y0281866D01*
X0045830Y0281793D01*
X0045836Y0281718D01*
X0045838Y0281644D01*
X0045838Y0279867D02*
X0045836Y0279803D01*
X0045830Y0279738D01*
X0045821Y0279675D01*
X0045807Y0279612D01*
X0045790Y0279550D01*
X0045769Y0279489D01*
X0045744Y0279429D01*
X0045716Y0279371D01*
X0045684Y0279315D01*
X0045649Y0279261D01*
X0045611Y0279209D01*
X0045570Y0279159D01*
X0045525Y0279113D01*
X0045479Y0279068D01*
X0045429Y0279027D01*
X0045377Y0278989D01*
X0045323Y0278954D01*
X0045267Y0278922D01*
X0045209Y0278894D01*
X0045149Y0278869D01*
X0045088Y0278848D01*
X0045026Y0278831D01*
X0044963Y0278817D01*
X0044900Y0278808D01*
X0044835Y0278802D01*
X0044771Y0278800D01*
X0042993Y0278800D01*
X0036879Y0278800D02*
X0036879Y0285200D01*
X0035102Y0285200D01*
X0035028Y0285198D01*
X0034953Y0285192D01*
X0034880Y0285182D01*
X0034806Y0285169D01*
X0034734Y0285152D01*
X0034663Y0285130D01*
X0034592Y0285106D01*
X0034524Y0285077D01*
X0034456Y0285045D01*
X0034391Y0285009D01*
X0034328Y0284971D01*
X0034266Y0284928D01*
X0034207Y0284883D01*
X0034150Y0284835D01*
X0034096Y0284784D01*
X0034045Y0284730D01*
X0033997Y0284673D01*
X0033952Y0284614D01*
X0033909Y0284552D01*
X0033871Y0284489D01*
X0033835Y0284424D01*
X0033803Y0284356D01*
X0033774Y0284288D01*
X0033750Y0284217D01*
X0033728Y0284146D01*
X0033711Y0284074D01*
X0033698Y0284000D01*
X0033688Y0283927D01*
X0033682Y0283852D01*
X0033680Y0283778D01*
X0033682Y0283704D01*
X0033688Y0283629D01*
X0033698Y0283556D01*
X0033711Y0283482D01*
X0033728Y0283410D01*
X0033750Y0283339D01*
X0033774Y0283268D01*
X0033803Y0283200D01*
X0033835Y0283132D01*
X0033871Y0283067D01*
X0033909Y0283004D01*
X0033952Y0282942D01*
X0033997Y0282883D01*
X0034045Y0282826D01*
X0034096Y0282772D01*
X0034150Y0282721D01*
X0034207Y0282673D01*
X0034266Y0282628D01*
X0034328Y0282585D01*
X0034391Y0282547D01*
X0034456Y0282511D01*
X0034524Y0282479D01*
X0034592Y0282450D01*
X0034663Y0282426D01*
X0034734Y0282404D01*
X0034806Y0282387D01*
X0034880Y0282374D01*
X0034953Y0282364D01*
X0035028Y0282358D01*
X0035102Y0282356D01*
X0036879Y0282356D01*
X0035102Y0282356D02*
X0035019Y0282354D01*
X0034936Y0282348D01*
X0034853Y0282338D01*
X0034770Y0282325D01*
X0034689Y0282307D01*
X0034608Y0282286D01*
X0034529Y0282261D01*
X0034451Y0282232D01*
X0034374Y0282200D01*
X0034299Y0282164D01*
X0034225Y0282125D01*
X0034154Y0282082D01*
X0034084Y0282036D01*
X0034017Y0281986D01*
X0033952Y0281934D01*
X0033890Y0281879D01*
X0033830Y0281820D01*
X0033773Y0281759D01*
X0033719Y0281696D01*
X0033668Y0281630D01*
X0033621Y0281561D01*
X0033576Y0281491D01*
X0033535Y0281418D01*
X0033498Y0281344D01*
X0033463Y0281268D01*
X0033433Y0281190D01*
X0033406Y0281112D01*
X0033383Y0281031D01*
X0033363Y0280950D01*
X0033348Y0280868D01*
X0033336Y0280786D01*
X0033328Y0280703D01*
X0033324Y0280620D01*
X0033324Y0280536D01*
X0033328Y0280453D01*
X0033336Y0280370D01*
X0033348Y0280288D01*
X0033363Y0280206D01*
X0033383Y0280125D01*
X0033406Y0280044D01*
X0033433Y0279966D01*
X0033463Y0279888D01*
X0033498Y0279812D01*
X0033535Y0279738D01*
X0033576Y0279665D01*
X0033621Y0279595D01*
X0033668Y0279526D01*
X0033719Y0279460D01*
X0033773Y0279397D01*
X0033830Y0279336D01*
X0033890Y0279277D01*
X0033952Y0279222D01*
X0034017Y0279170D01*
X0034084Y0279120D01*
X0034154Y0279074D01*
X0034225Y0279031D01*
X0034299Y0278992D01*
X0034374Y0278956D01*
X0034451Y0278924D01*
X0034529Y0278895D01*
X0034608Y0278870D01*
X0034689Y0278849D01*
X0034770Y0278831D01*
X0034853Y0278818D01*
X0034936Y0278808D01*
X0035019Y0278802D01*
X0035102Y0278800D01*
X0036879Y0278800D01*
X0031068Y0280222D02*
X0031068Y0281644D01*
X0031066Y0281718D01*
X0031060Y0281793D01*
X0031050Y0281866D01*
X0031037Y0281940D01*
X0031020Y0282012D01*
X0030998Y0282083D01*
X0030974Y0282154D01*
X0030945Y0282222D01*
X0030913Y0282290D01*
X0030877Y0282355D01*
X0030839Y0282418D01*
X0030796Y0282480D01*
X0030751Y0282539D01*
X0030703Y0282596D01*
X0030652Y0282650D01*
X0030598Y0282701D01*
X0030541Y0282749D01*
X0030482Y0282794D01*
X0030420Y0282837D01*
X0030357Y0282875D01*
X0030292Y0282911D01*
X0030224Y0282943D01*
X0030156Y0282972D01*
X0030085Y0282996D01*
X0030014Y0283018D01*
X0029942Y0283035D01*
X0029868Y0283048D01*
X0029795Y0283058D01*
X0029720Y0283064D01*
X0029646Y0283066D01*
X0029572Y0283064D01*
X0029497Y0283058D01*
X0029424Y0283048D01*
X0029350Y0283035D01*
X0029278Y0283018D01*
X0029207Y0282996D01*
X0029136Y0282972D01*
X0029068Y0282943D01*
X0029000Y0282911D01*
X0028935Y0282875D01*
X0028872Y0282837D01*
X0028810Y0282794D01*
X0028751Y0282749D01*
X0028694Y0282701D01*
X0028640Y0282650D01*
X0028589Y0282596D01*
X0028541Y0282539D01*
X0028496Y0282480D01*
X0028453Y0282418D01*
X0028415Y0282355D01*
X0028379Y0282290D01*
X0028347Y0282222D01*
X0028318Y0282154D01*
X0028294Y0282083D01*
X0028272Y0282012D01*
X0028255Y0281940D01*
X0028242Y0281866D01*
X0028232Y0281793D01*
X0028226Y0281718D01*
X0028224Y0281644D01*
X0028224Y0280222D01*
X0028226Y0280148D01*
X0028232Y0280073D01*
X0028242Y0280000D01*
X0028255Y0279926D01*
X0028272Y0279854D01*
X0028294Y0279783D01*
X0028318Y0279712D01*
X0028347Y0279644D01*
X0028379Y0279576D01*
X0028415Y0279511D01*
X0028453Y0279448D01*
X0028496Y0279386D01*
X0028541Y0279327D01*
X0028589Y0279270D01*
X0028640Y0279216D01*
X0028694Y0279165D01*
X0028751Y0279117D01*
X0028810Y0279072D01*
X0028872Y0279029D01*
X0028935Y0278991D01*
X0029000Y0278955D01*
X0029068Y0278923D01*
X0029136Y0278894D01*
X0029207Y0278870D01*
X0029278Y0278848D01*
X0029350Y0278831D01*
X0029424Y0278818D01*
X0029497Y0278808D01*
X0029572Y0278802D01*
X0029646Y0278800D01*
X0029720Y0278802D01*
X0029795Y0278808D01*
X0029868Y0278818D01*
X0029942Y0278831D01*
X0030014Y0278848D01*
X0030085Y0278870D01*
X0030156Y0278894D01*
X0030224Y0278923D01*
X0030292Y0278955D01*
X0030357Y0278991D01*
X0030420Y0279029D01*
X0030482Y0279072D01*
X0030541Y0279117D01*
X0030598Y0279165D01*
X0030652Y0279216D01*
X0030703Y0279270D01*
X0030751Y0279327D01*
X0030796Y0279386D01*
X0030839Y0279448D01*
X0030877Y0279511D01*
X0030913Y0279576D01*
X0030945Y0279644D01*
X0030974Y0279712D01*
X0030998Y0279783D01*
X0031020Y0279854D01*
X0031037Y0279926D01*
X0031050Y0280000D01*
X0031060Y0280073D01*
X0031066Y0280148D01*
X0031068Y0280222D01*
X0025534Y0279867D02*
X0025534Y0285200D01*
X0026245Y0283067D02*
X0024112Y0283067D01*
X0021837Y0281644D02*
X0021837Y0279867D01*
X0021837Y0280933D02*
X0018993Y0280933D01*
X0018993Y0281644D01*
X0018995Y0281718D01*
X0019001Y0281793D01*
X0019011Y0281866D01*
X0019024Y0281940D01*
X0019041Y0282012D01*
X0019063Y0282083D01*
X0019087Y0282154D01*
X0019116Y0282222D01*
X0019148Y0282290D01*
X0019184Y0282355D01*
X0019222Y0282418D01*
X0019265Y0282480D01*
X0019310Y0282539D01*
X0019358Y0282596D01*
X0019409Y0282650D01*
X0019463Y0282701D01*
X0019520Y0282749D01*
X0019579Y0282794D01*
X0019641Y0282837D01*
X0019704Y0282875D01*
X0019769Y0282911D01*
X0019837Y0282943D01*
X0019905Y0282972D01*
X0019976Y0282996D01*
X0020047Y0283018D01*
X0020119Y0283035D01*
X0020193Y0283048D01*
X0020266Y0283058D01*
X0020341Y0283064D01*
X0020415Y0283066D01*
X0020489Y0283064D01*
X0020564Y0283058D01*
X0020637Y0283048D01*
X0020711Y0283035D01*
X0020783Y0283018D01*
X0020854Y0282996D01*
X0020925Y0282972D01*
X0020993Y0282943D01*
X0021061Y0282911D01*
X0021126Y0282875D01*
X0021189Y0282837D01*
X0021251Y0282794D01*
X0021310Y0282749D01*
X0021367Y0282701D01*
X0021421Y0282650D01*
X0021472Y0282596D01*
X0021520Y0282539D01*
X0021565Y0282480D01*
X0021608Y0282418D01*
X0021646Y0282355D01*
X0021682Y0282290D01*
X0021714Y0282222D01*
X0021743Y0282154D01*
X0021767Y0282083D01*
X0021789Y0282012D01*
X0021806Y0281940D01*
X0021819Y0281866D01*
X0021829Y0281793D01*
X0021835Y0281718D01*
X0021837Y0281644D01*
X0021837Y0279867D02*
X0021835Y0279803D01*
X0021829Y0279738D01*
X0021820Y0279675D01*
X0021806Y0279612D01*
X0021789Y0279550D01*
X0021768Y0279489D01*
X0021743Y0279429D01*
X0021715Y0279371D01*
X0021683Y0279315D01*
X0021648Y0279261D01*
X0021610Y0279209D01*
X0021569Y0279159D01*
X0021524Y0279113D01*
X0021478Y0279068D01*
X0021428Y0279027D01*
X0021376Y0278989D01*
X0021322Y0278954D01*
X0021266Y0278922D01*
X0021208Y0278894D01*
X0021148Y0278869D01*
X0021087Y0278848D01*
X0021025Y0278831D01*
X0020962Y0278817D01*
X0020899Y0278808D01*
X0020834Y0278802D01*
X0020770Y0278800D01*
X0018993Y0278800D01*
X0016410Y0279867D02*
X0016410Y0285200D01*
X0013016Y0285200D02*
X0013016Y0278800D01*
X0015344Y0278800D02*
X0015408Y0278802D01*
X0015473Y0278808D01*
X0015536Y0278817D01*
X0015599Y0278831D01*
X0015661Y0278848D01*
X0015722Y0278869D01*
X0015782Y0278894D01*
X0015840Y0278922D01*
X0015896Y0278954D01*
X0015950Y0278989D01*
X0016002Y0279027D01*
X0016052Y0279068D01*
X0016098Y0279113D01*
X0016143Y0279159D01*
X0016184Y0279209D01*
X0016222Y0279261D01*
X0016257Y0279315D01*
X0016289Y0279371D01*
X0016317Y0279429D01*
X0016342Y0279489D01*
X0016363Y0279550D01*
X0016380Y0279612D01*
X0016394Y0279675D01*
X0016403Y0279738D01*
X0016409Y0279803D01*
X0016411Y0279867D01*
X0013016Y0283067D02*
X0011239Y0283067D01*
X0011175Y0283065D01*
X0011110Y0283059D01*
X0011047Y0283050D01*
X0010984Y0283036D01*
X0010922Y0283019D01*
X0010861Y0282998D01*
X0010801Y0282973D01*
X0010743Y0282945D01*
X0010687Y0282913D01*
X0010633Y0282878D01*
X0010581Y0282840D01*
X0010531Y0282799D01*
X0010485Y0282754D01*
X0010440Y0282708D01*
X0010399Y0282658D01*
X0010361Y0282606D01*
X0010326Y0282552D01*
X0010294Y0282496D01*
X0010266Y0282438D01*
X0010241Y0282378D01*
X0010220Y0282317D01*
X0010203Y0282255D01*
X0010189Y0282192D01*
X0010180Y0282129D01*
X0010174Y0282064D01*
X0010172Y0282000D01*
X0010172Y0278800D01*
X0007478Y0280222D02*
X0007478Y0281644D01*
X0007476Y0281718D01*
X0007470Y0281793D01*
X0007460Y0281866D01*
X0007447Y0281940D01*
X0007430Y0282012D01*
X0007408Y0282083D01*
X0007384Y0282154D01*
X0007355Y0282222D01*
X0007323Y0282290D01*
X0007287Y0282355D01*
X0007249Y0282418D01*
X0007206Y0282480D01*
X0007161Y0282539D01*
X0007113Y0282596D01*
X0007062Y0282650D01*
X0007008Y0282701D01*
X0006951Y0282749D01*
X0006892Y0282794D01*
X0006830Y0282837D01*
X0006767Y0282875D01*
X0006702Y0282911D01*
X0006634Y0282943D01*
X0006566Y0282972D01*
X0006495Y0282996D01*
X0006424Y0283018D01*
X0006352Y0283035D01*
X0006278Y0283048D01*
X0006205Y0283058D01*
X0006130Y0283064D01*
X0006056Y0283066D01*
X0005982Y0283064D01*
X0005907Y0283058D01*
X0005834Y0283048D01*
X0005760Y0283035D01*
X0005688Y0283018D01*
X0005617Y0282996D01*
X0005546Y0282972D01*
X0005478Y0282943D01*
X0005410Y0282911D01*
X0005345Y0282875D01*
X0005282Y0282837D01*
X0005220Y0282794D01*
X0005161Y0282749D01*
X0005104Y0282701D01*
X0005050Y0282650D01*
X0004999Y0282596D01*
X0004951Y0282539D01*
X0004906Y0282480D01*
X0004863Y0282418D01*
X0004825Y0282355D01*
X0004789Y0282290D01*
X0004757Y0282222D01*
X0004728Y0282154D01*
X0004704Y0282083D01*
X0004682Y0282012D01*
X0004665Y0281940D01*
X0004652Y0281866D01*
X0004642Y0281793D01*
X0004636Y0281718D01*
X0004634Y0281644D01*
X0004633Y0281644D02*
X0004633Y0280222D01*
X0004634Y0280222D02*
X0004636Y0280148D01*
X0004642Y0280073D01*
X0004652Y0280000D01*
X0004665Y0279926D01*
X0004682Y0279854D01*
X0004704Y0279783D01*
X0004728Y0279712D01*
X0004757Y0279644D01*
X0004789Y0279576D01*
X0004825Y0279511D01*
X0004863Y0279448D01*
X0004906Y0279386D01*
X0004951Y0279327D01*
X0004999Y0279270D01*
X0005050Y0279216D01*
X0005104Y0279165D01*
X0005161Y0279117D01*
X0005220Y0279072D01*
X0005282Y0279029D01*
X0005345Y0278991D01*
X0005410Y0278955D01*
X0005478Y0278923D01*
X0005546Y0278894D01*
X0005617Y0278870D01*
X0005688Y0278848D01*
X0005760Y0278831D01*
X0005834Y0278818D01*
X0005907Y0278808D01*
X0005982Y0278802D01*
X0006056Y0278800D01*
X0006130Y0278802D01*
X0006205Y0278808D01*
X0006278Y0278818D01*
X0006352Y0278831D01*
X0006424Y0278848D01*
X0006495Y0278870D01*
X0006566Y0278894D01*
X0006634Y0278923D01*
X0006702Y0278955D01*
X0006767Y0278991D01*
X0006830Y0279029D01*
X0006892Y0279072D01*
X0006951Y0279117D01*
X0007008Y0279165D01*
X0007062Y0279216D01*
X0007113Y0279270D01*
X0007161Y0279327D01*
X0007206Y0279386D01*
X0007249Y0279448D01*
X0007287Y0279511D01*
X0007323Y0279576D01*
X0007355Y0279644D01*
X0007384Y0279712D01*
X0007408Y0279783D01*
X0007430Y0279854D01*
X0007447Y0279926D01*
X0007460Y0280000D01*
X0007470Y0280073D01*
X0007476Y0280148D01*
X0007478Y0280222D01*
X0013855Y0289300D02*
X0014211Y0289300D01*
X0014275Y0289302D01*
X0014340Y0289308D01*
X0014403Y0289317D01*
X0014466Y0289331D01*
X0014528Y0289348D01*
X0014589Y0289369D01*
X0014649Y0289394D01*
X0014707Y0289422D01*
X0014763Y0289454D01*
X0014817Y0289489D01*
X0014869Y0289527D01*
X0014919Y0289568D01*
X0014965Y0289613D01*
X0015010Y0289659D01*
X0015051Y0289709D01*
X0015089Y0289761D01*
X0015124Y0289815D01*
X0015156Y0289871D01*
X0015184Y0289929D01*
X0015209Y0289989D01*
X0015230Y0290050D01*
X0015247Y0290112D01*
X0015261Y0290175D01*
X0015270Y0290238D01*
X0015276Y0290303D01*
X0015278Y0290367D01*
X0015278Y0295700D01*
X0015989Y0293567D02*
X0013855Y0293567D01*
X0017700Y0293567D02*
X0019122Y0293567D01*
X0019186Y0293565D01*
X0019251Y0293559D01*
X0019314Y0293550D01*
X0019377Y0293536D01*
X0019439Y0293519D01*
X0019500Y0293498D01*
X0019560Y0293473D01*
X0019618Y0293445D01*
X0019674Y0293413D01*
X0019728Y0293378D01*
X0019780Y0293340D01*
X0019830Y0293299D01*
X0019876Y0293254D01*
X0019921Y0293208D01*
X0019962Y0293158D01*
X0020000Y0293106D01*
X0020035Y0293052D01*
X0020067Y0292996D01*
X0020095Y0292938D01*
X0020120Y0292878D01*
X0020141Y0292817D01*
X0020158Y0292755D01*
X0020172Y0292692D01*
X0020181Y0292629D01*
X0020187Y0292564D01*
X0020189Y0292500D01*
X0020189Y0290367D01*
X0020187Y0290303D01*
X0020181Y0290238D01*
X0020172Y0290175D01*
X0020158Y0290112D01*
X0020141Y0290050D01*
X0020120Y0289989D01*
X0020095Y0289929D01*
X0020067Y0289871D01*
X0020035Y0289815D01*
X0020000Y0289761D01*
X0019962Y0289709D01*
X0019921Y0289659D01*
X0019876Y0289613D01*
X0019830Y0289568D01*
X0019780Y0289527D01*
X0019728Y0289489D01*
X0019674Y0289454D01*
X0019618Y0289422D01*
X0019560Y0289394D01*
X0019500Y0289369D01*
X0019439Y0289348D01*
X0019377Y0289331D01*
X0019314Y0289317D01*
X0019251Y0289308D01*
X0019186Y0289302D01*
X0019122Y0289300D01*
X0017700Y0289300D01*
X0022685Y0289300D02*
X0024463Y0289300D01*
X0024527Y0289302D01*
X0024592Y0289308D01*
X0024655Y0289317D01*
X0024718Y0289331D01*
X0024780Y0289348D01*
X0024841Y0289369D01*
X0024901Y0289394D01*
X0024959Y0289422D01*
X0025015Y0289454D01*
X0025069Y0289489D01*
X0025121Y0289527D01*
X0025171Y0289568D01*
X0025217Y0289613D01*
X0025262Y0289659D01*
X0025303Y0289709D01*
X0025341Y0289761D01*
X0025376Y0289815D01*
X0025408Y0289871D01*
X0025436Y0289929D01*
X0025461Y0289989D01*
X0025482Y0290050D01*
X0025499Y0290112D01*
X0025513Y0290175D01*
X0025522Y0290238D01*
X0025528Y0290303D01*
X0025530Y0290367D01*
X0025530Y0292144D01*
X0025530Y0291433D02*
X0022685Y0291433D01*
X0022685Y0292144D01*
X0022687Y0292218D01*
X0022693Y0292293D01*
X0022703Y0292366D01*
X0022716Y0292440D01*
X0022733Y0292512D01*
X0022755Y0292583D01*
X0022779Y0292654D01*
X0022808Y0292722D01*
X0022840Y0292790D01*
X0022876Y0292855D01*
X0022914Y0292918D01*
X0022957Y0292980D01*
X0023002Y0293039D01*
X0023050Y0293096D01*
X0023101Y0293150D01*
X0023155Y0293201D01*
X0023212Y0293249D01*
X0023271Y0293294D01*
X0023333Y0293337D01*
X0023396Y0293375D01*
X0023461Y0293411D01*
X0023529Y0293443D01*
X0023597Y0293472D01*
X0023668Y0293496D01*
X0023739Y0293518D01*
X0023811Y0293535D01*
X0023885Y0293548D01*
X0023958Y0293558D01*
X0024033Y0293564D01*
X0024107Y0293566D01*
X0024181Y0293564D01*
X0024256Y0293558D01*
X0024329Y0293548D01*
X0024403Y0293535D01*
X0024475Y0293518D01*
X0024546Y0293496D01*
X0024617Y0293472D01*
X0024685Y0293443D01*
X0024753Y0293411D01*
X0024818Y0293375D01*
X0024881Y0293337D01*
X0024943Y0293294D01*
X0025002Y0293249D01*
X0025059Y0293201D01*
X0025113Y0293150D01*
X0025164Y0293096D01*
X0025212Y0293039D01*
X0025257Y0292980D01*
X0025300Y0292918D01*
X0025338Y0292855D01*
X0025374Y0292790D01*
X0025406Y0292722D01*
X0025435Y0292654D01*
X0025459Y0292583D01*
X0025481Y0292512D01*
X0025498Y0292440D01*
X0025511Y0292366D01*
X0025521Y0292293D01*
X0025527Y0292218D01*
X0025529Y0292144D01*
X0028101Y0293567D02*
X0028101Y0288233D01*
X0028100Y0288233D02*
X0028102Y0288169D01*
X0028108Y0288104D01*
X0028117Y0288041D01*
X0028131Y0287978D01*
X0028148Y0287916D01*
X0028169Y0287855D01*
X0028194Y0287795D01*
X0028222Y0287737D01*
X0028254Y0287681D01*
X0028289Y0287627D01*
X0028327Y0287575D01*
X0028368Y0287525D01*
X0028413Y0287479D01*
X0028459Y0287434D01*
X0028509Y0287393D01*
X0028561Y0287355D01*
X0028615Y0287320D01*
X0028671Y0287288D01*
X0028729Y0287260D01*
X0028789Y0287235D01*
X0028850Y0287214D01*
X0028912Y0287197D01*
X0028975Y0287183D01*
X0029038Y0287174D01*
X0029103Y0287168D01*
X0029167Y0287166D01*
X0029167Y0287167D02*
X0029523Y0287167D01*
X0030480Y0290722D02*
X0030480Y0292144D01*
X0030482Y0292218D01*
X0030488Y0292293D01*
X0030498Y0292366D01*
X0030511Y0292440D01*
X0030528Y0292512D01*
X0030550Y0292583D01*
X0030574Y0292654D01*
X0030603Y0292722D01*
X0030635Y0292790D01*
X0030671Y0292855D01*
X0030709Y0292918D01*
X0030752Y0292980D01*
X0030797Y0293039D01*
X0030845Y0293096D01*
X0030896Y0293150D01*
X0030950Y0293201D01*
X0031007Y0293249D01*
X0031066Y0293294D01*
X0031128Y0293337D01*
X0031191Y0293375D01*
X0031256Y0293411D01*
X0031324Y0293443D01*
X0031392Y0293472D01*
X0031463Y0293496D01*
X0031534Y0293518D01*
X0031606Y0293535D01*
X0031680Y0293548D01*
X0031753Y0293558D01*
X0031828Y0293564D01*
X0031902Y0293566D01*
X0031976Y0293564D01*
X0032051Y0293558D01*
X0032124Y0293548D01*
X0032198Y0293535D01*
X0032270Y0293518D01*
X0032341Y0293496D01*
X0032412Y0293472D01*
X0032480Y0293443D01*
X0032548Y0293411D01*
X0032613Y0293375D01*
X0032676Y0293337D01*
X0032738Y0293294D01*
X0032797Y0293249D01*
X0032854Y0293201D01*
X0032908Y0293150D01*
X0032959Y0293096D01*
X0033007Y0293039D01*
X0033052Y0292980D01*
X0033095Y0292918D01*
X0033133Y0292855D01*
X0033169Y0292790D01*
X0033201Y0292722D01*
X0033230Y0292654D01*
X0033254Y0292583D01*
X0033276Y0292512D01*
X0033293Y0292440D01*
X0033306Y0292366D01*
X0033316Y0292293D01*
X0033322Y0292218D01*
X0033324Y0292144D01*
X0033325Y0292144D02*
X0033325Y0290722D01*
X0033324Y0290722D02*
X0033322Y0290648D01*
X0033316Y0290573D01*
X0033306Y0290500D01*
X0033293Y0290426D01*
X0033276Y0290354D01*
X0033254Y0290283D01*
X0033230Y0290212D01*
X0033201Y0290144D01*
X0033169Y0290076D01*
X0033133Y0290011D01*
X0033095Y0289948D01*
X0033052Y0289886D01*
X0033007Y0289827D01*
X0032959Y0289770D01*
X0032908Y0289716D01*
X0032854Y0289665D01*
X0032797Y0289617D01*
X0032738Y0289572D01*
X0032676Y0289529D01*
X0032613Y0289491D01*
X0032548Y0289455D01*
X0032480Y0289423D01*
X0032412Y0289394D01*
X0032341Y0289370D01*
X0032270Y0289348D01*
X0032198Y0289331D01*
X0032124Y0289318D01*
X0032051Y0289308D01*
X0031976Y0289302D01*
X0031902Y0289300D01*
X0031828Y0289302D01*
X0031753Y0289308D01*
X0031680Y0289318D01*
X0031606Y0289331D01*
X0031534Y0289348D01*
X0031463Y0289370D01*
X0031392Y0289394D01*
X0031324Y0289423D01*
X0031256Y0289455D01*
X0031191Y0289491D01*
X0031128Y0289529D01*
X0031066Y0289572D01*
X0031007Y0289617D01*
X0030950Y0289665D01*
X0030896Y0289716D01*
X0030845Y0289770D01*
X0030797Y0289827D01*
X0030752Y0289886D01*
X0030709Y0289948D01*
X0030671Y0290011D01*
X0030635Y0290076D01*
X0030603Y0290144D01*
X0030574Y0290212D01*
X0030550Y0290283D01*
X0030528Y0290354D01*
X0030511Y0290426D01*
X0030498Y0290500D01*
X0030488Y0290573D01*
X0030482Y0290648D01*
X0030480Y0290722D01*
X0028278Y0295344D02*
X0027923Y0295344D01*
X0027923Y0295700D01*
X0028278Y0295700D01*
X0028278Y0295344D01*
X0035261Y0293567D02*
X0035261Y0292856D01*
X0035261Y0293567D02*
X0037394Y0293567D01*
X0037394Y0289300D01*
X0041666Y0292144D02*
X0043444Y0292144D01*
X0041666Y0292144D02*
X0041583Y0292146D01*
X0041500Y0292152D01*
X0041417Y0292162D01*
X0041334Y0292175D01*
X0041253Y0292193D01*
X0041172Y0292214D01*
X0041093Y0292239D01*
X0041015Y0292268D01*
X0040938Y0292300D01*
X0040863Y0292336D01*
X0040789Y0292375D01*
X0040718Y0292418D01*
X0040648Y0292464D01*
X0040581Y0292514D01*
X0040516Y0292566D01*
X0040454Y0292621D01*
X0040394Y0292680D01*
X0040337Y0292741D01*
X0040283Y0292804D01*
X0040232Y0292870D01*
X0040185Y0292939D01*
X0040140Y0293009D01*
X0040099Y0293082D01*
X0040062Y0293156D01*
X0040027Y0293232D01*
X0039997Y0293310D01*
X0039970Y0293388D01*
X0039947Y0293469D01*
X0039927Y0293550D01*
X0039912Y0293632D01*
X0039900Y0293714D01*
X0039892Y0293797D01*
X0039888Y0293880D01*
X0039888Y0293964D01*
X0039892Y0294047D01*
X0039900Y0294130D01*
X0039912Y0294212D01*
X0039927Y0294294D01*
X0039947Y0294375D01*
X0039970Y0294456D01*
X0039997Y0294534D01*
X0040027Y0294612D01*
X0040062Y0294688D01*
X0040099Y0294762D01*
X0040140Y0294835D01*
X0040185Y0294905D01*
X0040232Y0294974D01*
X0040283Y0295040D01*
X0040337Y0295103D01*
X0040394Y0295164D01*
X0040454Y0295223D01*
X0040516Y0295278D01*
X0040581Y0295330D01*
X0040648Y0295380D01*
X0040718Y0295426D01*
X0040789Y0295469D01*
X0040863Y0295508D01*
X0040938Y0295544D01*
X0041015Y0295576D01*
X0041093Y0295605D01*
X0041172Y0295630D01*
X0041253Y0295651D01*
X0041334Y0295669D01*
X0041417Y0295682D01*
X0041500Y0295692D01*
X0041583Y0295698D01*
X0041666Y0295700D01*
X0043444Y0295700D01*
X0043444Y0289300D01*
X0049763Y0289300D02*
X0049763Y0292500D01*
X0049762Y0292500D02*
X0049764Y0292564D01*
X0049770Y0292629D01*
X0049779Y0292692D01*
X0049793Y0292755D01*
X0049810Y0292817D01*
X0049831Y0292878D01*
X0049856Y0292938D01*
X0049884Y0292996D01*
X0049916Y0293052D01*
X0049951Y0293106D01*
X0049989Y0293158D01*
X0050030Y0293208D01*
X0050075Y0293254D01*
X0050121Y0293299D01*
X0050171Y0293340D01*
X0050223Y0293378D01*
X0050277Y0293413D01*
X0050333Y0293445D01*
X0050391Y0293473D01*
X0050451Y0293498D01*
X0050512Y0293519D01*
X0050574Y0293536D01*
X0050637Y0293550D01*
X0050700Y0293559D01*
X0050765Y0293565D01*
X0050829Y0293567D01*
X0052607Y0293567D01*
X0052607Y0289300D01*
X0055301Y0290722D02*
X0055301Y0292144D01*
X0055302Y0292144D02*
X0055304Y0292218D01*
X0055310Y0292293D01*
X0055320Y0292366D01*
X0055333Y0292440D01*
X0055350Y0292512D01*
X0055372Y0292583D01*
X0055396Y0292654D01*
X0055425Y0292722D01*
X0055457Y0292790D01*
X0055493Y0292855D01*
X0055531Y0292918D01*
X0055574Y0292980D01*
X0055619Y0293039D01*
X0055667Y0293096D01*
X0055718Y0293150D01*
X0055772Y0293201D01*
X0055829Y0293249D01*
X0055888Y0293294D01*
X0055950Y0293337D01*
X0056013Y0293375D01*
X0056078Y0293411D01*
X0056146Y0293443D01*
X0056214Y0293472D01*
X0056285Y0293496D01*
X0056356Y0293518D01*
X0056428Y0293535D01*
X0056502Y0293548D01*
X0056575Y0293558D01*
X0056650Y0293564D01*
X0056724Y0293566D01*
X0056798Y0293564D01*
X0056873Y0293558D01*
X0056946Y0293548D01*
X0057020Y0293535D01*
X0057092Y0293518D01*
X0057163Y0293496D01*
X0057234Y0293472D01*
X0057302Y0293443D01*
X0057370Y0293411D01*
X0057435Y0293375D01*
X0057498Y0293337D01*
X0057560Y0293294D01*
X0057619Y0293249D01*
X0057676Y0293201D01*
X0057730Y0293150D01*
X0057781Y0293096D01*
X0057829Y0293039D01*
X0057874Y0292980D01*
X0057917Y0292918D01*
X0057955Y0292855D01*
X0057991Y0292790D01*
X0058023Y0292722D01*
X0058052Y0292654D01*
X0058076Y0292583D01*
X0058098Y0292512D01*
X0058115Y0292440D01*
X0058128Y0292366D01*
X0058138Y0292293D01*
X0058144Y0292218D01*
X0058146Y0292144D01*
X0058146Y0290722D01*
X0058144Y0290648D01*
X0058138Y0290573D01*
X0058128Y0290500D01*
X0058115Y0290426D01*
X0058098Y0290354D01*
X0058076Y0290283D01*
X0058052Y0290212D01*
X0058023Y0290144D01*
X0057991Y0290076D01*
X0057955Y0290011D01*
X0057917Y0289948D01*
X0057874Y0289886D01*
X0057829Y0289827D01*
X0057781Y0289770D01*
X0057730Y0289716D01*
X0057676Y0289665D01*
X0057619Y0289617D01*
X0057560Y0289572D01*
X0057498Y0289529D01*
X0057435Y0289491D01*
X0057370Y0289455D01*
X0057302Y0289423D01*
X0057234Y0289394D01*
X0057163Y0289370D01*
X0057092Y0289348D01*
X0057020Y0289331D01*
X0056946Y0289318D01*
X0056873Y0289308D01*
X0056798Y0289302D01*
X0056724Y0289300D01*
X0056650Y0289302D01*
X0056575Y0289308D01*
X0056502Y0289318D01*
X0056428Y0289331D01*
X0056356Y0289348D01*
X0056285Y0289370D01*
X0056214Y0289394D01*
X0056146Y0289423D01*
X0056078Y0289455D01*
X0056013Y0289491D01*
X0055950Y0289529D01*
X0055888Y0289572D01*
X0055829Y0289617D01*
X0055772Y0289665D01*
X0055718Y0289716D01*
X0055667Y0289770D01*
X0055619Y0289827D01*
X0055574Y0289886D01*
X0055531Y0289948D01*
X0055493Y0290011D01*
X0055457Y0290076D01*
X0055425Y0290144D01*
X0055396Y0290212D01*
X0055372Y0290283D01*
X0055350Y0290354D01*
X0055333Y0290426D01*
X0055320Y0290500D01*
X0055310Y0290573D01*
X0055304Y0290648D01*
X0055302Y0290722D01*
X0060443Y0295344D02*
X0060799Y0295344D01*
X0060799Y0295700D01*
X0060443Y0295700D01*
X0060443Y0295344D01*
X0060621Y0293567D02*
X0060621Y0289300D01*
X0062882Y0289300D02*
X0063238Y0289300D01*
X0063302Y0289302D01*
X0063367Y0289308D01*
X0063430Y0289317D01*
X0063493Y0289331D01*
X0063555Y0289348D01*
X0063616Y0289369D01*
X0063676Y0289394D01*
X0063734Y0289422D01*
X0063790Y0289454D01*
X0063844Y0289489D01*
X0063896Y0289527D01*
X0063946Y0289568D01*
X0063992Y0289613D01*
X0064037Y0289659D01*
X0064078Y0289709D01*
X0064116Y0289761D01*
X0064151Y0289815D01*
X0064183Y0289871D01*
X0064211Y0289929D01*
X0064236Y0289989D01*
X0064257Y0290050D01*
X0064274Y0290112D01*
X0064288Y0290175D01*
X0064297Y0290238D01*
X0064303Y0290303D01*
X0064305Y0290367D01*
X0064305Y0295700D01*
X0065016Y0293567D02*
X0062882Y0293567D01*
X0067228Y0292500D02*
X0067228Y0289300D01*
X0068828Y0289300D01*
X0068898Y0289302D01*
X0068967Y0289308D01*
X0069036Y0289318D01*
X0069105Y0289331D01*
X0069172Y0289349D01*
X0069239Y0289370D01*
X0069304Y0289395D01*
X0069368Y0289423D01*
X0069430Y0289455D01*
X0069490Y0289491D01*
X0069548Y0289529D01*
X0069604Y0289571D01*
X0069657Y0289616D01*
X0069708Y0289664D01*
X0069756Y0289715D01*
X0069801Y0289768D01*
X0069843Y0289824D01*
X0069881Y0289882D01*
X0069917Y0289942D01*
X0069949Y0290004D01*
X0069977Y0290068D01*
X0070002Y0290133D01*
X0070023Y0290200D01*
X0070041Y0290267D01*
X0070054Y0290336D01*
X0070064Y0290405D01*
X0070070Y0290474D01*
X0070072Y0290544D01*
X0070070Y0290614D01*
X0070064Y0290683D01*
X0070054Y0290752D01*
X0070041Y0290821D01*
X0070023Y0290888D01*
X0070002Y0290955D01*
X0069977Y0291020D01*
X0069949Y0291084D01*
X0069917Y0291146D01*
X0069881Y0291206D01*
X0069843Y0291264D01*
X0069801Y0291320D01*
X0069756Y0291373D01*
X0069708Y0291424D01*
X0069657Y0291472D01*
X0069604Y0291517D01*
X0069548Y0291559D01*
X0069490Y0291597D01*
X0069430Y0291633D01*
X0069368Y0291665D01*
X0069304Y0291693D01*
X0069239Y0291718D01*
X0069172Y0291739D01*
X0069105Y0291757D01*
X0069036Y0291770D01*
X0068967Y0291780D01*
X0068898Y0291786D01*
X0068828Y0291788D01*
X0068828Y0291789D02*
X0067228Y0291789D01*
X0067228Y0292500D02*
X0067230Y0292564D01*
X0067236Y0292629D01*
X0067245Y0292692D01*
X0067259Y0292755D01*
X0067276Y0292817D01*
X0067297Y0292878D01*
X0067322Y0292938D01*
X0067350Y0292996D01*
X0067382Y0293052D01*
X0067417Y0293106D01*
X0067455Y0293158D01*
X0067496Y0293208D01*
X0067541Y0293254D01*
X0067587Y0293299D01*
X0067637Y0293340D01*
X0067689Y0293378D01*
X0067743Y0293413D01*
X0067799Y0293445D01*
X0067857Y0293473D01*
X0067917Y0293498D01*
X0067978Y0293519D01*
X0068040Y0293536D01*
X0068103Y0293550D01*
X0068166Y0293559D01*
X0068231Y0293565D01*
X0068295Y0293567D01*
X0069717Y0293567D01*
X0072847Y0292500D02*
X0072847Y0289300D01*
X0074981Y0289300D02*
X0074981Y0293567D01*
X0073914Y0293567D02*
X0077114Y0293567D01*
X0077114Y0289300D01*
X0073914Y0293567D02*
X0073850Y0293565D01*
X0073785Y0293559D01*
X0073722Y0293550D01*
X0073659Y0293536D01*
X0073597Y0293519D01*
X0073536Y0293498D01*
X0073476Y0293473D01*
X0073418Y0293445D01*
X0073362Y0293413D01*
X0073308Y0293378D01*
X0073256Y0293340D01*
X0073206Y0293299D01*
X0073160Y0293254D01*
X0073115Y0293208D01*
X0073074Y0293158D01*
X0073036Y0293106D01*
X0073001Y0293052D01*
X0072969Y0292996D01*
X0072941Y0292938D01*
X0072916Y0292878D01*
X0072895Y0292817D01*
X0072878Y0292755D01*
X0072864Y0292692D01*
X0072855Y0292629D01*
X0072849Y0292564D01*
X0072847Y0292500D01*
X0073148Y0283067D02*
X0075281Y0276667D01*
X0075993Y0276667D01*
X0074570Y0278800D02*
X0075993Y0283067D01*
X0078248Y0282000D02*
X0078248Y0279867D01*
X0078247Y0279867D02*
X0078249Y0279803D01*
X0078255Y0279738D01*
X0078264Y0279675D01*
X0078278Y0279612D01*
X0078295Y0279550D01*
X0078316Y0279489D01*
X0078341Y0279429D01*
X0078369Y0279371D01*
X0078401Y0279315D01*
X0078436Y0279261D01*
X0078474Y0279209D01*
X0078515Y0279159D01*
X0078560Y0279113D01*
X0078606Y0279068D01*
X0078656Y0279027D01*
X0078708Y0278989D01*
X0078762Y0278954D01*
X0078818Y0278922D01*
X0078876Y0278894D01*
X0078936Y0278869D01*
X0078997Y0278848D01*
X0079059Y0278831D01*
X0079122Y0278817D01*
X0079185Y0278808D01*
X0079250Y0278802D01*
X0079314Y0278800D01*
X0081092Y0278800D01*
X0081092Y0285200D01*
X0081092Y0283067D02*
X0079314Y0283067D01*
X0079250Y0283065D01*
X0079185Y0283059D01*
X0079122Y0283050D01*
X0079059Y0283036D01*
X0078997Y0283019D01*
X0078936Y0282998D01*
X0078876Y0282973D01*
X0078818Y0282945D01*
X0078762Y0282913D01*
X0078708Y0282878D01*
X0078656Y0282840D01*
X0078606Y0282799D01*
X0078560Y0282754D01*
X0078515Y0282708D01*
X0078474Y0282658D01*
X0078436Y0282606D01*
X0078401Y0282552D01*
X0078369Y0282496D01*
X0078341Y0282438D01*
X0078316Y0282378D01*
X0078295Y0282317D01*
X0078278Y0282255D01*
X0078264Y0282192D01*
X0078255Y0282129D01*
X0078249Y0282064D01*
X0078247Y0282000D01*
X0079917Y0290722D02*
X0079917Y0292144D01*
X0079918Y0292144D02*
X0079920Y0292218D01*
X0079926Y0292293D01*
X0079936Y0292366D01*
X0079949Y0292440D01*
X0079966Y0292512D01*
X0079988Y0292583D01*
X0080012Y0292654D01*
X0080041Y0292722D01*
X0080073Y0292790D01*
X0080109Y0292855D01*
X0080147Y0292918D01*
X0080190Y0292980D01*
X0080235Y0293039D01*
X0080283Y0293096D01*
X0080334Y0293150D01*
X0080388Y0293201D01*
X0080445Y0293249D01*
X0080504Y0293294D01*
X0080566Y0293337D01*
X0080629Y0293375D01*
X0080694Y0293411D01*
X0080762Y0293443D01*
X0080830Y0293472D01*
X0080901Y0293496D01*
X0080972Y0293518D01*
X0081044Y0293535D01*
X0081118Y0293548D01*
X0081191Y0293558D01*
X0081266Y0293564D01*
X0081340Y0293566D01*
X0081414Y0293564D01*
X0081489Y0293558D01*
X0081562Y0293548D01*
X0081636Y0293535D01*
X0081708Y0293518D01*
X0081779Y0293496D01*
X0081850Y0293472D01*
X0081918Y0293443D01*
X0081986Y0293411D01*
X0082051Y0293375D01*
X0082114Y0293337D01*
X0082176Y0293294D01*
X0082235Y0293249D01*
X0082292Y0293201D01*
X0082346Y0293150D01*
X0082397Y0293096D01*
X0082445Y0293039D01*
X0082490Y0292980D01*
X0082533Y0292918D01*
X0082571Y0292855D01*
X0082607Y0292790D01*
X0082639Y0292722D01*
X0082668Y0292654D01*
X0082692Y0292583D01*
X0082714Y0292512D01*
X0082731Y0292440D01*
X0082744Y0292366D01*
X0082754Y0292293D01*
X0082760Y0292218D01*
X0082762Y0292144D01*
X0082762Y0290722D01*
X0082760Y0290648D01*
X0082754Y0290573D01*
X0082744Y0290500D01*
X0082731Y0290426D01*
X0082714Y0290354D01*
X0082692Y0290283D01*
X0082668Y0290212D01*
X0082639Y0290144D01*
X0082607Y0290076D01*
X0082571Y0290011D01*
X0082533Y0289948D01*
X0082490Y0289886D01*
X0082445Y0289827D01*
X0082397Y0289770D01*
X0082346Y0289716D01*
X0082292Y0289665D01*
X0082235Y0289617D01*
X0082176Y0289572D01*
X0082114Y0289529D01*
X0082051Y0289491D01*
X0081986Y0289455D01*
X0081918Y0289423D01*
X0081850Y0289394D01*
X0081779Y0289370D01*
X0081708Y0289348D01*
X0081636Y0289331D01*
X0081562Y0289318D01*
X0081489Y0289308D01*
X0081414Y0289302D01*
X0081340Y0289300D01*
X0081266Y0289302D01*
X0081191Y0289308D01*
X0081118Y0289318D01*
X0081044Y0289331D01*
X0080972Y0289348D01*
X0080901Y0289370D01*
X0080830Y0289394D01*
X0080762Y0289423D01*
X0080694Y0289455D01*
X0080629Y0289491D01*
X0080566Y0289529D01*
X0080504Y0289572D01*
X0080445Y0289617D01*
X0080388Y0289665D01*
X0080334Y0289716D01*
X0080283Y0289770D01*
X0080235Y0289827D01*
X0080190Y0289886D01*
X0080147Y0289948D01*
X0080109Y0290011D01*
X0080073Y0290076D01*
X0080041Y0290144D01*
X0080012Y0290212D01*
X0079988Y0290283D01*
X0079966Y0290354D01*
X0079949Y0290426D01*
X0079936Y0290500D01*
X0079926Y0290573D01*
X0079920Y0290648D01*
X0079918Y0290722D01*
X0085037Y0289300D02*
X0085392Y0289300D01*
X0085456Y0289302D01*
X0085521Y0289308D01*
X0085584Y0289317D01*
X0085647Y0289331D01*
X0085709Y0289348D01*
X0085770Y0289369D01*
X0085830Y0289394D01*
X0085888Y0289422D01*
X0085944Y0289454D01*
X0085998Y0289489D01*
X0086050Y0289527D01*
X0086100Y0289568D01*
X0086146Y0289613D01*
X0086191Y0289659D01*
X0086232Y0289709D01*
X0086270Y0289761D01*
X0086305Y0289815D01*
X0086337Y0289871D01*
X0086365Y0289929D01*
X0086390Y0289989D01*
X0086411Y0290050D01*
X0086428Y0290112D01*
X0086442Y0290175D01*
X0086451Y0290238D01*
X0086457Y0290303D01*
X0086459Y0290367D01*
X0086459Y0295700D01*
X0087170Y0293567D02*
X0085037Y0293567D01*
X0089354Y0293567D02*
X0089354Y0289300D01*
X0091131Y0289300D01*
X0091195Y0289302D01*
X0091260Y0289308D01*
X0091323Y0289317D01*
X0091386Y0289331D01*
X0091448Y0289348D01*
X0091509Y0289369D01*
X0091569Y0289394D01*
X0091627Y0289422D01*
X0091683Y0289454D01*
X0091737Y0289489D01*
X0091789Y0289527D01*
X0091839Y0289568D01*
X0091885Y0289613D01*
X0091930Y0289659D01*
X0091971Y0289709D01*
X0092009Y0289761D01*
X0092044Y0289815D01*
X0092076Y0289871D01*
X0092104Y0289929D01*
X0092129Y0289989D01*
X0092150Y0290050D01*
X0092167Y0290112D01*
X0092181Y0290175D01*
X0092190Y0290238D01*
X0092196Y0290303D01*
X0092198Y0290367D01*
X0092198Y0293567D01*
X0095125Y0290900D02*
X0098325Y0290900D01*
X0098858Y0289300D02*
X0096725Y0295700D01*
X0094591Y0289300D01*
X0095480Y0281644D02*
X0095478Y0281718D01*
X0095472Y0281793D01*
X0095462Y0281866D01*
X0095449Y0281940D01*
X0095432Y0282012D01*
X0095410Y0282083D01*
X0095386Y0282154D01*
X0095357Y0282222D01*
X0095325Y0282290D01*
X0095289Y0282355D01*
X0095251Y0282418D01*
X0095208Y0282480D01*
X0095163Y0282539D01*
X0095115Y0282596D01*
X0095064Y0282650D01*
X0095010Y0282701D01*
X0094953Y0282749D01*
X0094894Y0282794D01*
X0094832Y0282837D01*
X0094769Y0282875D01*
X0094704Y0282911D01*
X0094636Y0282943D01*
X0094568Y0282972D01*
X0094497Y0282996D01*
X0094426Y0283018D01*
X0094354Y0283035D01*
X0094280Y0283048D01*
X0094207Y0283058D01*
X0094132Y0283064D01*
X0094058Y0283066D01*
X0093984Y0283064D01*
X0093909Y0283058D01*
X0093836Y0283048D01*
X0093762Y0283035D01*
X0093690Y0283018D01*
X0093619Y0282996D01*
X0093548Y0282972D01*
X0093480Y0282943D01*
X0093412Y0282911D01*
X0093347Y0282875D01*
X0093284Y0282837D01*
X0093222Y0282794D01*
X0093163Y0282749D01*
X0093106Y0282701D01*
X0093052Y0282650D01*
X0093001Y0282596D01*
X0092953Y0282539D01*
X0092908Y0282480D01*
X0092865Y0282418D01*
X0092827Y0282355D01*
X0092791Y0282290D01*
X0092759Y0282222D01*
X0092730Y0282154D01*
X0092706Y0282083D01*
X0092684Y0282012D01*
X0092667Y0281940D01*
X0092654Y0281866D01*
X0092644Y0281793D01*
X0092638Y0281718D01*
X0092636Y0281644D01*
X0092636Y0280933D01*
X0095480Y0280933D01*
X0095480Y0281644D02*
X0095480Y0279867D01*
X0095481Y0279867D02*
X0095479Y0279803D01*
X0095473Y0279738D01*
X0095464Y0279675D01*
X0095450Y0279612D01*
X0095433Y0279550D01*
X0095412Y0279489D01*
X0095387Y0279429D01*
X0095359Y0279371D01*
X0095327Y0279315D01*
X0095292Y0279261D01*
X0095254Y0279209D01*
X0095213Y0279159D01*
X0095168Y0279113D01*
X0095122Y0279068D01*
X0095072Y0279027D01*
X0095020Y0278989D01*
X0094966Y0278954D01*
X0094910Y0278922D01*
X0094852Y0278894D01*
X0094792Y0278869D01*
X0094731Y0278848D01*
X0094669Y0278831D01*
X0094606Y0278817D01*
X0094543Y0278808D01*
X0094478Y0278802D01*
X0094414Y0278800D01*
X0092636Y0278800D01*
X0090176Y0279867D02*
X0090176Y0282000D01*
X0090174Y0282064D01*
X0090168Y0282129D01*
X0090159Y0282192D01*
X0090145Y0282255D01*
X0090128Y0282317D01*
X0090107Y0282378D01*
X0090082Y0282438D01*
X0090054Y0282496D01*
X0090022Y0282552D01*
X0089987Y0282606D01*
X0089949Y0282658D01*
X0089908Y0282708D01*
X0089863Y0282754D01*
X0089817Y0282799D01*
X0089767Y0282840D01*
X0089715Y0282878D01*
X0089661Y0282913D01*
X0089605Y0282945D01*
X0089547Y0282973D01*
X0089487Y0282998D01*
X0089426Y0283019D01*
X0089364Y0283036D01*
X0089301Y0283050D01*
X0089238Y0283059D01*
X0089173Y0283065D01*
X0089109Y0283067D01*
X0087331Y0283067D01*
X0087331Y0285200D02*
X0087331Y0278800D01*
X0089109Y0278800D01*
X0089173Y0278802D01*
X0089238Y0278808D01*
X0089301Y0278817D01*
X0089364Y0278831D01*
X0089426Y0278848D01*
X0089487Y0278869D01*
X0089547Y0278894D01*
X0089605Y0278922D01*
X0089661Y0278954D01*
X0089715Y0278989D01*
X0089767Y0279027D01*
X0089817Y0279068D01*
X0089863Y0279113D01*
X0089908Y0279159D01*
X0089949Y0279209D01*
X0089987Y0279261D01*
X0090022Y0279315D01*
X0090054Y0279371D01*
X0090082Y0279429D01*
X0090107Y0279489D01*
X0090128Y0279550D01*
X0090145Y0279612D01*
X0090159Y0279675D01*
X0090168Y0279738D01*
X0090174Y0279803D01*
X0090176Y0279867D01*
X0098174Y0278800D02*
X0098174Y0282000D01*
X0098176Y0282064D01*
X0098182Y0282129D01*
X0098191Y0282192D01*
X0098205Y0282255D01*
X0098222Y0282317D01*
X0098243Y0282378D01*
X0098268Y0282438D01*
X0098296Y0282496D01*
X0098328Y0282552D01*
X0098363Y0282606D01*
X0098401Y0282658D01*
X0098442Y0282708D01*
X0098487Y0282754D01*
X0098533Y0282799D01*
X0098583Y0282840D01*
X0098635Y0282878D01*
X0098689Y0282913D01*
X0098745Y0282945D01*
X0098803Y0282973D01*
X0098863Y0282998D01*
X0098924Y0283019D01*
X0098986Y0283036D01*
X0099049Y0283050D01*
X0099112Y0283059D01*
X0099177Y0283065D01*
X0099241Y0283067D01*
X0101019Y0283067D01*
X0101019Y0278800D01*
X0103947Y0278800D02*
X0105725Y0278800D01*
X0105789Y0278802D01*
X0105854Y0278808D01*
X0105917Y0278817D01*
X0105980Y0278831D01*
X0106042Y0278848D01*
X0106103Y0278869D01*
X0106163Y0278894D01*
X0106221Y0278922D01*
X0106277Y0278954D01*
X0106331Y0278989D01*
X0106383Y0279027D01*
X0106433Y0279068D01*
X0106479Y0279113D01*
X0106524Y0279159D01*
X0106565Y0279209D01*
X0106603Y0279261D01*
X0106638Y0279315D01*
X0106670Y0279371D01*
X0106698Y0279429D01*
X0106723Y0279489D01*
X0106744Y0279550D01*
X0106761Y0279612D01*
X0106775Y0279675D01*
X0106784Y0279738D01*
X0106790Y0279803D01*
X0106792Y0279867D01*
X0106791Y0279867D02*
X0106791Y0282000D01*
X0106792Y0282000D02*
X0106790Y0282064D01*
X0106784Y0282129D01*
X0106775Y0282192D01*
X0106761Y0282255D01*
X0106744Y0282317D01*
X0106723Y0282378D01*
X0106698Y0282438D01*
X0106670Y0282496D01*
X0106638Y0282552D01*
X0106603Y0282606D01*
X0106565Y0282658D01*
X0106524Y0282708D01*
X0106479Y0282754D01*
X0106433Y0282799D01*
X0106383Y0282840D01*
X0106331Y0282878D01*
X0106277Y0282913D01*
X0106221Y0282945D01*
X0106163Y0282973D01*
X0106103Y0282998D01*
X0106042Y0283019D01*
X0105980Y0283036D01*
X0105917Y0283050D01*
X0105854Y0283059D01*
X0105789Y0283065D01*
X0105725Y0283067D01*
X0103947Y0283067D01*
X0103947Y0277733D01*
X0103949Y0277669D01*
X0103955Y0277604D01*
X0103964Y0277541D01*
X0103978Y0277478D01*
X0103995Y0277416D01*
X0104016Y0277355D01*
X0104041Y0277295D01*
X0104069Y0277237D01*
X0104101Y0277181D01*
X0104136Y0277127D01*
X0104174Y0277075D01*
X0104215Y0277025D01*
X0104260Y0276979D01*
X0104306Y0276934D01*
X0104356Y0276893D01*
X0104408Y0276855D01*
X0104462Y0276820D01*
X0104518Y0276788D01*
X0104576Y0276760D01*
X0104636Y0276735D01*
X0104697Y0276714D01*
X0104759Y0276697D01*
X0104822Y0276683D01*
X0104885Y0276674D01*
X0104950Y0276668D01*
X0105014Y0276666D01*
X0105014Y0276667D02*
X0106436Y0276667D01*
X0109238Y0278800D02*
X0109238Y0283067D01*
X0109060Y0284844D02*
X0109416Y0284844D01*
X0109416Y0285200D01*
X0109060Y0285200D01*
X0109060Y0284844D01*
X0112602Y0278800D02*
X0112756Y0278804D01*
X0112909Y0278812D01*
X0113062Y0278824D01*
X0113215Y0278840D01*
X0113367Y0278859D01*
X0113519Y0278883D01*
X0113670Y0278910D01*
X0113820Y0278942D01*
X0113970Y0278977D01*
X0114119Y0279016D01*
X0114266Y0279059D01*
X0114413Y0279105D01*
X0114558Y0279155D01*
X0113669Y0283067D02*
X0113551Y0283063D01*
X0113434Y0283056D01*
X0113316Y0283046D01*
X0113199Y0283032D01*
X0113083Y0283015D01*
X0112967Y0282995D01*
X0112851Y0282971D01*
X0112736Y0282944D01*
X0112622Y0282913D01*
X0112510Y0282879D01*
X0112398Y0282842D01*
X0112287Y0282801D01*
X0112177Y0282758D01*
X0112069Y0282711D01*
X0113669Y0283067D02*
X0113728Y0283066D01*
X0113788Y0283061D01*
X0113846Y0283052D01*
X0113905Y0283040D01*
X0113962Y0283023D01*
X0114018Y0283004D01*
X0114073Y0282980D01*
X0114126Y0282953D01*
X0114177Y0282923D01*
X0114226Y0282889D01*
X0114273Y0282853D01*
X0114317Y0282813D01*
X0114359Y0282771D01*
X0114398Y0282726D01*
X0114434Y0282678D01*
X0114467Y0282629D01*
X0114496Y0282577D01*
X0114523Y0282524D01*
X0114545Y0282469D01*
X0114564Y0282412D01*
X0114580Y0282355D01*
X0114591Y0282297D01*
X0114599Y0282238D01*
X0114603Y0282178D01*
X0114604Y0282119D01*
X0114600Y0282059D01*
X0114593Y0282000D01*
X0114581Y0281942D01*
X0114566Y0281884D01*
X0114548Y0281828D01*
X0114525Y0281773D01*
X0114500Y0281719D01*
X0114470Y0281667D01*
X0114438Y0281617D01*
X0114402Y0281570D01*
X0114364Y0281524D01*
X0114322Y0281482D01*
X0114278Y0281442D01*
X0114232Y0281405D01*
X0114183Y0281371D01*
X0114132Y0281340D01*
X0114079Y0281313D01*
X0114024Y0281289D01*
X0112247Y0280578D01*
X0112192Y0280554D01*
X0112139Y0280527D01*
X0112088Y0280496D01*
X0112039Y0280462D01*
X0111993Y0280425D01*
X0111949Y0280385D01*
X0111907Y0280343D01*
X0111869Y0280297D01*
X0111833Y0280250D01*
X0111801Y0280200D01*
X0111771Y0280148D01*
X0111746Y0280094D01*
X0111723Y0280039D01*
X0111705Y0279983D01*
X0111690Y0279925D01*
X0111678Y0279867D01*
X0111671Y0279808D01*
X0111667Y0279748D01*
X0111668Y0279689D01*
X0111672Y0279629D01*
X0111680Y0279570D01*
X0111691Y0279512D01*
X0111707Y0279455D01*
X0111726Y0279398D01*
X0111748Y0279343D01*
X0111775Y0279290D01*
X0111804Y0279238D01*
X0111837Y0279189D01*
X0111873Y0279141D01*
X0111912Y0279096D01*
X0111954Y0279054D01*
X0111998Y0279014D01*
X0112045Y0278978D01*
X0112094Y0278944D01*
X0112145Y0278914D01*
X0112198Y0278887D01*
X0112253Y0278863D01*
X0112309Y0278844D01*
X0112366Y0278827D01*
X0112425Y0278815D01*
X0112483Y0278806D01*
X0112543Y0278801D01*
X0112602Y0278800D01*
X0117047Y0278800D02*
X0118825Y0278800D01*
X0118889Y0278802D01*
X0118954Y0278808D01*
X0119017Y0278817D01*
X0119080Y0278831D01*
X0119142Y0278848D01*
X0119203Y0278869D01*
X0119263Y0278894D01*
X0119321Y0278922D01*
X0119377Y0278954D01*
X0119431Y0278989D01*
X0119483Y0279027D01*
X0119533Y0279068D01*
X0119579Y0279113D01*
X0119624Y0279159D01*
X0119665Y0279209D01*
X0119703Y0279261D01*
X0119738Y0279315D01*
X0119770Y0279371D01*
X0119798Y0279429D01*
X0119823Y0279489D01*
X0119844Y0279550D01*
X0119861Y0279612D01*
X0119875Y0279675D01*
X0119884Y0279738D01*
X0119890Y0279803D01*
X0119892Y0279867D01*
X0119891Y0279867D02*
X0119891Y0281644D01*
X0119891Y0280933D02*
X0117047Y0280933D01*
X0117047Y0281644D01*
X0117049Y0281718D01*
X0117055Y0281793D01*
X0117065Y0281866D01*
X0117078Y0281940D01*
X0117095Y0282012D01*
X0117117Y0282083D01*
X0117141Y0282154D01*
X0117170Y0282222D01*
X0117202Y0282290D01*
X0117238Y0282355D01*
X0117276Y0282418D01*
X0117319Y0282480D01*
X0117364Y0282539D01*
X0117412Y0282596D01*
X0117463Y0282650D01*
X0117517Y0282701D01*
X0117574Y0282749D01*
X0117633Y0282794D01*
X0117695Y0282837D01*
X0117758Y0282875D01*
X0117823Y0282911D01*
X0117891Y0282943D01*
X0117959Y0282972D01*
X0118030Y0282996D01*
X0118101Y0283018D01*
X0118173Y0283035D01*
X0118247Y0283048D01*
X0118320Y0283058D01*
X0118395Y0283064D01*
X0118469Y0283066D01*
X0118543Y0283064D01*
X0118618Y0283058D01*
X0118691Y0283048D01*
X0118765Y0283035D01*
X0118837Y0283018D01*
X0118908Y0282996D01*
X0118979Y0282972D01*
X0119047Y0282943D01*
X0119115Y0282911D01*
X0119180Y0282875D01*
X0119243Y0282837D01*
X0119305Y0282794D01*
X0119364Y0282749D01*
X0119421Y0282701D01*
X0119475Y0282650D01*
X0119526Y0282596D01*
X0119574Y0282539D01*
X0119619Y0282480D01*
X0119662Y0282418D01*
X0119700Y0282355D01*
X0119736Y0282290D01*
X0119768Y0282222D01*
X0119797Y0282154D01*
X0119821Y0282083D01*
X0119843Y0282012D01*
X0119860Y0281940D01*
X0119873Y0281866D01*
X0119883Y0281793D01*
X0119889Y0281718D01*
X0119891Y0281644D01*
X0122640Y0280578D02*
X0122640Y0283422D01*
X0122642Y0283504D01*
X0122648Y0283586D01*
X0122657Y0283668D01*
X0122670Y0283749D01*
X0122687Y0283829D01*
X0122708Y0283909D01*
X0122732Y0283987D01*
X0122760Y0284064D01*
X0122791Y0284140D01*
X0122826Y0284215D01*
X0122865Y0284287D01*
X0122906Y0284358D01*
X0122951Y0284427D01*
X0122999Y0284493D01*
X0123050Y0284558D01*
X0123104Y0284620D01*
X0123161Y0284679D01*
X0123220Y0284736D01*
X0123282Y0284790D01*
X0123347Y0284841D01*
X0123413Y0284889D01*
X0123482Y0284934D01*
X0123553Y0284975D01*
X0123625Y0285014D01*
X0123700Y0285049D01*
X0123776Y0285080D01*
X0123853Y0285108D01*
X0123931Y0285132D01*
X0124011Y0285153D01*
X0124091Y0285170D01*
X0124172Y0285183D01*
X0124254Y0285192D01*
X0124336Y0285198D01*
X0124418Y0285200D01*
X0126196Y0285200D01*
X0126196Y0278800D01*
X0124418Y0278800D01*
X0124336Y0278802D01*
X0124254Y0278808D01*
X0124172Y0278817D01*
X0124091Y0278830D01*
X0124011Y0278847D01*
X0123931Y0278868D01*
X0123853Y0278892D01*
X0123776Y0278920D01*
X0123700Y0278951D01*
X0123625Y0278986D01*
X0123553Y0279025D01*
X0123482Y0279066D01*
X0123413Y0279111D01*
X0123347Y0279159D01*
X0123282Y0279210D01*
X0123220Y0279264D01*
X0123161Y0279321D01*
X0123104Y0279380D01*
X0123050Y0279442D01*
X0122999Y0279507D01*
X0122951Y0279573D01*
X0122906Y0279642D01*
X0122865Y0279713D01*
X0122826Y0279785D01*
X0122791Y0279860D01*
X0122760Y0279936D01*
X0122732Y0280013D01*
X0122708Y0280091D01*
X0122687Y0280171D01*
X0122670Y0280251D01*
X0122657Y0280332D01*
X0122648Y0280414D01*
X0122642Y0280496D01*
X0122640Y0280578D01*
X0122640Y0289300D02*
X0122640Y0295700D01*
X0122640Y0292856D02*
X0126196Y0292856D01*
X0126196Y0295700D02*
X0126196Y0289300D01*
X0119891Y0290722D02*
X0119891Y0292144D01*
X0119889Y0292218D01*
X0119883Y0292293D01*
X0119873Y0292366D01*
X0119860Y0292440D01*
X0119843Y0292512D01*
X0119821Y0292583D01*
X0119797Y0292654D01*
X0119768Y0292722D01*
X0119736Y0292790D01*
X0119700Y0292855D01*
X0119662Y0292918D01*
X0119619Y0292980D01*
X0119574Y0293039D01*
X0119526Y0293096D01*
X0119475Y0293150D01*
X0119421Y0293201D01*
X0119364Y0293249D01*
X0119305Y0293294D01*
X0119243Y0293337D01*
X0119180Y0293375D01*
X0119115Y0293411D01*
X0119047Y0293443D01*
X0118979Y0293472D01*
X0118908Y0293496D01*
X0118837Y0293518D01*
X0118765Y0293535D01*
X0118691Y0293548D01*
X0118618Y0293558D01*
X0118543Y0293564D01*
X0118469Y0293566D01*
X0118395Y0293564D01*
X0118320Y0293558D01*
X0118247Y0293548D01*
X0118173Y0293535D01*
X0118101Y0293518D01*
X0118030Y0293496D01*
X0117959Y0293472D01*
X0117891Y0293443D01*
X0117823Y0293411D01*
X0117758Y0293375D01*
X0117695Y0293337D01*
X0117633Y0293294D01*
X0117574Y0293249D01*
X0117517Y0293201D01*
X0117463Y0293150D01*
X0117412Y0293096D01*
X0117364Y0293039D01*
X0117319Y0292980D01*
X0117276Y0292918D01*
X0117238Y0292855D01*
X0117202Y0292790D01*
X0117170Y0292722D01*
X0117141Y0292654D01*
X0117117Y0292583D01*
X0117095Y0292512D01*
X0117078Y0292440D01*
X0117065Y0292366D01*
X0117055Y0292293D01*
X0117049Y0292218D01*
X0117047Y0292144D01*
X0117047Y0290722D01*
X0117049Y0290648D01*
X0117055Y0290573D01*
X0117065Y0290500D01*
X0117078Y0290426D01*
X0117095Y0290354D01*
X0117117Y0290283D01*
X0117141Y0290212D01*
X0117170Y0290144D01*
X0117202Y0290076D01*
X0117238Y0290011D01*
X0117276Y0289948D01*
X0117319Y0289886D01*
X0117364Y0289827D01*
X0117412Y0289770D01*
X0117463Y0289716D01*
X0117517Y0289665D01*
X0117574Y0289617D01*
X0117633Y0289572D01*
X0117695Y0289529D01*
X0117758Y0289491D01*
X0117823Y0289455D01*
X0117891Y0289423D01*
X0117959Y0289394D01*
X0118030Y0289370D01*
X0118101Y0289348D01*
X0118173Y0289331D01*
X0118247Y0289318D01*
X0118320Y0289308D01*
X0118395Y0289302D01*
X0118469Y0289300D01*
X0118543Y0289302D01*
X0118618Y0289308D01*
X0118691Y0289318D01*
X0118765Y0289331D01*
X0118837Y0289348D01*
X0118908Y0289370D01*
X0118979Y0289394D01*
X0119047Y0289423D01*
X0119115Y0289455D01*
X0119180Y0289491D01*
X0119243Y0289529D01*
X0119305Y0289572D01*
X0119364Y0289617D01*
X0119421Y0289665D01*
X0119475Y0289716D01*
X0119526Y0289770D01*
X0119574Y0289827D01*
X0119619Y0289886D01*
X0119662Y0289948D01*
X0119700Y0290011D01*
X0119736Y0290076D01*
X0119768Y0290144D01*
X0119797Y0290212D01*
X0119821Y0290283D01*
X0119843Y0290354D01*
X0119860Y0290426D01*
X0119873Y0290500D01*
X0119883Y0290573D01*
X0119889Y0290648D01*
X0119891Y0290722D01*
X0114243Y0289300D02*
X0114243Y0293567D01*
X0111043Y0293567D01*
X0112110Y0293567D02*
X0112110Y0289300D01*
X0109977Y0289300D02*
X0109977Y0292500D01*
X0109976Y0292500D02*
X0109978Y0292564D01*
X0109984Y0292629D01*
X0109993Y0292692D01*
X0110007Y0292755D01*
X0110024Y0292817D01*
X0110045Y0292878D01*
X0110070Y0292938D01*
X0110098Y0292996D01*
X0110130Y0293052D01*
X0110165Y0293106D01*
X0110203Y0293158D01*
X0110244Y0293208D01*
X0110289Y0293254D01*
X0110335Y0293299D01*
X0110385Y0293340D01*
X0110437Y0293378D01*
X0110491Y0293413D01*
X0110547Y0293445D01*
X0110605Y0293473D01*
X0110665Y0293498D01*
X0110726Y0293519D01*
X0110788Y0293536D01*
X0110851Y0293550D01*
X0110914Y0293559D01*
X0110979Y0293565D01*
X0111043Y0293567D01*
X0107173Y0292144D02*
X0107173Y0290367D01*
X0107173Y0291433D02*
X0104328Y0291433D01*
X0104328Y0292144D01*
X0104329Y0292144D02*
X0104331Y0292218D01*
X0104337Y0292293D01*
X0104347Y0292366D01*
X0104360Y0292440D01*
X0104377Y0292512D01*
X0104399Y0292583D01*
X0104423Y0292654D01*
X0104452Y0292722D01*
X0104484Y0292790D01*
X0104520Y0292855D01*
X0104558Y0292918D01*
X0104601Y0292980D01*
X0104646Y0293039D01*
X0104694Y0293096D01*
X0104745Y0293150D01*
X0104799Y0293201D01*
X0104856Y0293249D01*
X0104915Y0293294D01*
X0104977Y0293337D01*
X0105040Y0293375D01*
X0105105Y0293411D01*
X0105173Y0293443D01*
X0105241Y0293472D01*
X0105312Y0293496D01*
X0105383Y0293518D01*
X0105455Y0293535D01*
X0105529Y0293548D01*
X0105602Y0293558D01*
X0105677Y0293564D01*
X0105751Y0293566D01*
X0105825Y0293564D01*
X0105900Y0293558D01*
X0105973Y0293548D01*
X0106047Y0293535D01*
X0106119Y0293518D01*
X0106190Y0293496D01*
X0106261Y0293472D01*
X0106329Y0293443D01*
X0106397Y0293411D01*
X0106462Y0293375D01*
X0106525Y0293337D01*
X0106587Y0293294D01*
X0106646Y0293249D01*
X0106703Y0293201D01*
X0106757Y0293150D01*
X0106808Y0293096D01*
X0106856Y0293039D01*
X0106901Y0292980D01*
X0106944Y0292918D01*
X0106982Y0292855D01*
X0107018Y0292790D01*
X0107050Y0292722D01*
X0107079Y0292654D01*
X0107103Y0292583D01*
X0107125Y0292512D01*
X0107142Y0292440D01*
X0107155Y0292366D01*
X0107165Y0292293D01*
X0107171Y0292218D01*
X0107173Y0292144D01*
X0107173Y0290367D02*
X0107171Y0290303D01*
X0107165Y0290238D01*
X0107156Y0290175D01*
X0107142Y0290112D01*
X0107125Y0290050D01*
X0107104Y0289989D01*
X0107079Y0289929D01*
X0107051Y0289871D01*
X0107019Y0289815D01*
X0106984Y0289761D01*
X0106946Y0289709D01*
X0106905Y0289659D01*
X0106860Y0289613D01*
X0106814Y0289568D01*
X0106764Y0289527D01*
X0106712Y0289489D01*
X0106658Y0289454D01*
X0106602Y0289422D01*
X0106544Y0289394D01*
X0106484Y0289369D01*
X0106423Y0289348D01*
X0106361Y0289331D01*
X0106298Y0289317D01*
X0106235Y0289308D01*
X0106170Y0289302D01*
X0106106Y0289300D01*
X0104328Y0289300D01*
X0075609Y0273100D02*
X0075611Y0273018D01*
X0075617Y0272936D01*
X0075627Y0272855D01*
X0075640Y0272774D01*
X0075658Y0272694D01*
X0075679Y0272615D01*
X0075704Y0272537D01*
X0075732Y0272461D01*
X0075765Y0272385D01*
X0075800Y0272312D01*
X0075840Y0272240D01*
X0075882Y0272170D01*
X0075928Y0272102D01*
X0075977Y0272037D01*
X0076029Y0271974D01*
X0076085Y0271913D01*
X0076142Y0271855D01*
X0076143Y0271856D02*
X0079165Y0268300D01*
X0079166Y0273277D02*
X0079137Y0273362D01*
X0079104Y0273444D01*
X0079067Y0273526D01*
X0079027Y0273606D01*
X0078984Y0273683D01*
X0078937Y0273759D01*
X0078887Y0273833D01*
X0078834Y0273905D01*
X0078778Y0273974D01*
X0078719Y0274041D01*
X0078657Y0274105D01*
X0078592Y0274166D01*
X0078525Y0274225D01*
X0078455Y0274280D01*
X0078383Y0274333D01*
X0078309Y0274382D01*
X0078232Y0274428D01*
X0078154Y0274470D01*
X0078074Y0274510D01*
X0077992Y0274545D01*
X0077909Y0274578D01*
X0077825Y0274606D01*
X0077739Y0274631D01*
X0077652Y0274652D01*
X0077565Y0274669D01*
X0077477Y0274683D01*
X0077388Y0274692D01*
X0077299Y0274698D01*
X0077210Y0274700D01*
X0077131Y0274698D01*
X0077053Y0274692D01*
X0076975Y0274683D01*
X0076898Y0274669D01*
X0076821Y0274652D01*
X0076746Y0274631D01*
X0076671Y0274606D01*
X0076598Y0274578D01*
X0076526Y0274546D01*
X0076456Y0274511D01*
X0076387Y0274472D01*
X0076321Y0274430D01*
X0076257Y0274385D01*
X0076195Y0274337D01*
X0076136Y0274286D01*
X0076079Y0274231D01*
X0076024Y0274174D01*
X0075973Y0274115D01*
X0075925Y0274053D01*
X0075880Y0273989D01*
X0075838Y0273923D01*
X0075799Y0273854D01*
X0075764Y0273784D01*
X0075732Y0273712D01*
X0075704Y0273639D01*
X0075679Y0273564D01*
X0075658Y0273489D01*
X0075641Y0273412D01*
X0075627Y0273335D01*
X0075618Y0273257D01*
X0075612Y0273179D01*
X0075610Y0273100D01*
X0073011Y0271500D02*
X0073009Y0271359D01*
X0073003Y0271219D01*
X0072994Y0271078D01*
X0072981Y0270938D01*
X0072964Y0270798D01*
X0072944Y0270659D01*
X0072919Y0270521D01*
X0072891Y0270383D01*
X0072860Y0270246D01*
X0072824Y0270109D01*
X0072785Y0269974D01*
X0072743Y0269840D01*
X0072697Y0269707D01*
X0072647Y0269575D01*
X0072594Y0269445D01*
X0072538Y0269316D01*
X0072478Y0269189D01*
X0067883Y0278800D02*
X0065750Y0285200D01*
X0063616Y0278800D01*
X0064150Y0280400D02*
X0067350Y0280400D01*
X0025535Y0279867D02*
X0025533Y0279803D01*
X0025527Y0279738D01*
X0025518Y0279675D01*
X0025504Y0279612D01*
X0025487Y0279550D01*
X0025466Y0279489D01*
X0025441Y0279429D01*
X0025413Y0279371D01*
X0025381Y0279315D01*
X0025346Y0279261D01*
X0025308Y0279209D01*
X0025267Y0279159D01*
X0025222Y0279113D01*
X0025176Y0279068D01*
X0025126Y0279027D01*
X0025074Y0278989D01*
X0025020Y0278954D01*
X0024964Y0278922D01*
X0024906Y0278894D01*
X0024846Y0278869D01*
X0024785Y0278848D01*
X0024723Y0278831D01*
X0024660Y0278817D01*
X0024597Y0278808D01*
X0024532Y0278802D01*
X0024468Y0278800D01*
X0024112Y0278800D01*
M02*
