%
M48
M72
T01C0.01500
T02C0.03150
T03C0.03200
T04C0.03937
T05C0.04000
T06C0.05200
%
T01
X38496Y59000
X31496Y73000
X30496Y100000
X30496Y109000
X59496Y82000
X65496Y71800
X60496Y69000
X60496Y63000
X66496Y51000
X71496Y40000
X82496Y36000
X82496Y28000
X86496Y43000
X101496Y22000
X103496Y31000
X109496Y37000
X110496Y24000
X120496Y50000
X121496Y58000
X128496Y53260
X133496Y67000
X130496Y72000
X126496Y81000
X133296Y85000
X130496Y91000
X139496Y85000
X153496Y65000
X153496Y57000
X165496Y69000
X172496Y67000
X183496Y62000
X173496Y34000
X169089Y31800
X161496Y34000
X157496Y31800
X153496Y31000
X143496Y38260
X136496Y28000
X135496Y17000
X163496Y10307
X173496Y8000
X186496Y26000
X161496Y86000
X164496Y97000
X171889Y107000
X165696Y117000
X165696Y121000
X129496Y113000
X103496Y85000
X103496Y79000
X111496Y162000
X86496Y162000
X61803Y162000
X46496Y43000
X46496Y31000
T02
X20622Y256685
X20622Y317315
X136370Y296843
X136370Y277157
T03
X123496Y142000
X118496Y134500
X113496Y142000
X98496Y142000
X93496Y134500
X88496Y142000
X73496Y142000
X68496Y134500
X63496Y142000
X148496Y137000
X148496Y127000
X148496Y107000
X148496Y97000
X148496Y82000
X148496Y72000
X178496Y72000
X178496Y82000
X178496Y97000
X178496Y107000
X178496Y127000
X178496Y137000
T04
X143496Y177000
X143496Y202000
X143496Y227000
X113496Y227000
X113496Y202000
X113496Y177000
X73651Y177099
X63651Y177099
X63651Y202099
X73651Y202099
X73651Y227099
X63651Y227099
T05
X13496Y47000
X13496Y57000
X13496Y67000
X13496Y77000
X13496Y87000
X23496Y87000
X23496Y77000
X23496Y67000
X23496Y57000
X23496Y47000
X43496Y12000
X53496Y12000
X63496Y12000
X73496Y12000
X83496Y12000
X93496Y12000
X103496Y12000
X113496Y12000
X123496Y12000
X38496Y182000
X18496Y182000
X18496Y222000
X38496Y222000
T06
X183496Y226900
X183496Y207100
X183496Y181900
X183496Y162100
X183496Y252100
X183496Y271900
X183496Y297100
X183496Y316900
M30
