G75*
%MOIN*%
%OFA0B0*%
%FSLAX25Y25*%
%IPPOS*%
%LPD*%
%AMOC8*
5,1,8,0,0,1.08239X$1,22.5*
%
%ADD10C,0.00600*%
%ADD11R,0.02500X0.09000*%
%ADD12C,0.00800*%
%ADD13R,0.06200X0.02400*%
%ADD14R,0.02400X0.06200*%
%ADD15C,0.00500*%
%ADD16C,0.00400*%
%ADD17C,0.00200*%
%ADD18R,0.04500X0.09000*%
D10*
X0010996Y0042000D02*
X0025996Y0042000D01*
X0028496Y0044500D01*
X0028496Y0049500D01*
X0025996Y0052000D01*
X0010996Y0052000D01*
X0008496Y0049500D01*
X0008496Y0044500D01*
X0010996Y0042000D01*
X0010996Y0052000D02*
X0008496Y0054500D01*
X0008496Y0059500D01*
X0010996Y0062000D01*
X0025996Y0062000D01*
X0028496Y0059500D01*
X0028496Y0054500D01*
X0025996Y0052000D01*
X0025996Y0062000D02*
X0028496Y0064500D01*
X0028496Y0069500D01*
X0025996Y0072000D01*
X0010996Y0072000D01*
X0008496Y0069500D01*
X0008496Y0064500D01*
X0010996Y0062000D01*
X0010996Y0072000D02*
X0008496Y0074500D01*
X0008496Y0079500D01*
X0010996Y0082000D01*
X0025996Y0082000D01*
X0028496Y0079500D01*
X0028496Y0074500D01*
X0025996Y0072000D01*
X0025996Y0082000D02*
X0028496Y0084500D01*
X0028496Y0089500D01*
X0025996Y0092000D01*
X0010996Y0092000D01*
X0008496Y0089500D01*
X0008496Y0084500D01*
X0010996Y0082000D01*
X0040996Y0017000D02*
X0038496Y0014500D01*
X0038496Y0009500D01*
X0040996Y0007000D01*
X0045996Y0007000D01*
X0048496Y0009500D01*
X0050996Y0007000D01*
X0055996Y0007000D01*
X0058496Y0009500D01*
X0058496Y0014500D01*
X0055996Y0017000D01*
X0050996Y0017000D01*
X0048496Y0014500D01*
X0048496Y0009500D01*
X0048496Y0014500D02*
X0045996Y0017000D01*
X0040996Y0017000D01*
X0058496Y0014500D02*
X0060996Y0017000D01*
X0065996Y0017000D01*
X0068496Y0014500D01*
X0070996Y0017000D01*
X0075996Y0017000D01*
X0078496Y0014500D01*
X0080996Y0017000D01*
X0085996Y0017000D01*
X0088496Y0014500D01*
X0088496Y0009500D01*
X0085996Y0007000D01*
X0080996Y0007000D01*
X0078496Y0009500D01*
X0075996Y0007000D01*
X0070996Y0007000D01*
X0068496Y0009500D01*
X0065996Y0007000D01*
X0060996Y0007000D01*
X0058496Y0009500D01*
X0068496Y0009500D02*
X0068496Y0014500D01*
X0078496Y0014500D02*
X0078496Y0009500D01*
X0088496Y0009500D02*
X0090996Y0007000D01*
X0095996Y0007000D01*
X0098496Y0009500D01*
X0100996Y0007000D01*
X0105996Y0007000D01*
X0108496Y0009500D01*
X0110996Y0007000D01*
X0115996Y0007000D01*
X0118496Y0009500D01*
X0120996Y0007000D01*
X0125996Y0007000D01*
X0128496Y0009500D01*
X0128496Y0014500D01*
X0125996Y0017000D01*
X0120996Y0017000D01*
X0118496Y0014500D01*
X0118496Y0009500D01*
X0118496Y0014500D02*
X0115996Y0017000D01*
X0110996Y0017000D01*
X0108496Y0014500D01*
X0108496Y0009500D01*
X0108496Y0014500D02*
X0105996Y0017000D01*
X0100996Y0017000D01*
X0098496Y0014500D01*
X0098496Y0009500D01*
X0098496Y0014500D02*
X0095996Y0017000D01*
X0090996Y0017000D01*
X0088496Y0014500D01*
X0151996Y0067000D02*
X0174996Y0067000D01*
X0174996Y0087000D01*
X0167496Y0087000D01*
X0167494Y0086874D01*
X0167488Y0086749D01*
X0167478Y0086624D01*
X0167464Y0086499D01*
X0167447Y0086374D01*
X0167425Y0086250D01*
X0167400Y0086127D01*
X0167370Y0086005D01*
X0167337Y0085884D01*
X0167300Y0085764D01*
X0167260Y0085645D01*
X0167215Y0085528D01*
X0167167Y0085411D01*
X0167115Y0085297D01*
X0167060Y0085184D01*
X0167001Y0085073D01*
X0166939Y0084964D01*
X0166873Y0084857D01*
X0166804Y0084752D01*
X0166732Y0084649D01*
X0166657Y0084548D01*
X0166578Y0084450D01*
X0166496Y0084355D01*
X0166412Y0084262D01*
X0166324Y0084172D01*
X0166234Y0084084D01*
X0166141Y0084000D01*
X0166046Y0083918D01*
X0165948Y0083839D01*
X0165847Y0083764D01*
X0165744Y0083692D01*
X0165639Y0083623D01*
X0165532Y0083557D01*
X0165423Y0083495D01*
X0165312Y0083436D01*
X0165199Y0083381D01*
X0165085Y0083329D01*
X0164968Y0083281D01*
X0164851Y0083236D01*
X0164732Y0083196D01*
X0164612Y0083159D01*
X0164491Y0083126D01*
X0164369Y0083096D01*
X0164246Y0083071D01*
X0164122Y0083049D01*
X0163997Y0083032D01*
X0163872Y0083018D01*
X0163747Y0083008D01*
X0163622Y0083002D01*
X0163496Y0083000D01*
X0163370Y0083002D01*
X0163245Y0083008D01*
X0163120Y0083018D01*
X0162995Y0083032D01*
X0162870Y0083049D01*
X0162746Y0083071D01*
X0162623Y0083096D01*
X0162501Y0083126D01*
X0162380Y0083159D01*
X0162260Y0083196D01*
X0162141Y0083236D01*
X0162024Y0083281D01*
X0161907Y0083329D01*
X0161793Y0083381D01*
X0161680Y0083436D01*
X0161569Y0083495D01*
X0161460Y0083557D01*
X0161353Y0083623D01*
X0161248Y0083692D01*
X0161145Y0083764D01*
X0161044Y0083839D01*
X0160946Y0083918D01*
X0160851Y0084000D01*
X0160758Y0084084D01*
X0160668Y0084172D01*
X0160580Y0084262D01*
X0160496Y0084355D01*
X0160414Y0084450D01*
X0160335Y0084548D01*
X0160260Y0084649D01*
X0160188Y0084752D01*
X0160119Y0084857D01*
X0160053Y0084964D01*
X0159991Y0085073D01*
X0159932Y0085184D01*
X0159877Y0085297D01*
X0159825Y0085411D01*
X0159777Y0085528D01*
X0159732Y0085645D01*
X0159692Y0085764D01*
X0159655Y0085884D01*
X0159622Y0086005D01*
X0159592Y0086127D01*
X0159567Y0086250D01*
X0159545Y0086374D01*
X0159528Y0086499D01*
X0159514Y0086624D01*
X0159504Y0086749D01*
X0159498Y0086874D01*
X0159496Y0087000D01*
X0151996Y0087000D01*
X0151996Y0067000D01*
X0151996Y0092000D02*
X0174996Y0092000D01*
X0174996Y0112000D01*
X0167496Y0112000D01*
X0167494Y0111874D01*
X0167488Y0111749D01*
X0167478Y0111624D01*
X0167464Y0111499D01*
X0167447Y0111374D01*
X0167425Y0111250D01*
X0167400Y0111127D01*
X0167370Y0111005D01*
X0167337Y0110884D01*
X0167300Y0110764D01*
X0167260Y0110645D01*
X0167215Y0110528D01*
X0167167Y0110411D01*
X0167115Y0110297D01*
X0167060Y0110184D01*
X0167001Y0110073D01*
X0166939Y0109964D01*
X0166873Y0109857D01*
X0166804Y0109752D01*
X0166732Y0109649D01*
X0166657Y0109548D01*
X0166578Y0109450D01*
X0166496Y0109355D01*
X0166412Y0109262D01*
X0166324Y0109172D01*
X0166234Y0109084D01*
X0166141Y0109000D01*
X0166046Y0108918D01*
X0165948Y0108839D01*
X0165847Y0108764D01*
X0165744Y0108692D01*
X0165639Y0108623D01*
X0165532Y0108557D01*
X0165423Y0108495D01*
X0165312Y0108436D01*
X0165199Y0108381D01*
X0165085Y0108329D01*
X0164968Y0108281D01*
X0164851Y0108236D01*
X0164732Y0108196D01*
X0164612Y0108159D01*
X0164491Y0108126D01*
X0164369Y0108096D01*
X0164246Y0108071D01*
X0164122Y0108049D01*
X0163997Y0108032D01*
X0163872Y0108018D01*
X0163747Y0108008D01*
X0163622Y0108002D01*
X0163496Y0108000D01*
X0163370Y0108002D01*
X0163245Y0108008D01*
X0163120Y0108018D01*
X0162995Y0108032D01*
X0162870Y0108049D01*
X0162746Y0108071D01*
X0162623Y0108096D01*
X0162501Y0108126D01*
X0162380Y0108159D01*
X0162260Y0108196D01*
X0162141Y0108236D01*
X0162024Y0108281D01*
X0161907Y0108329D01*
X0161793Y0108381D01*
X0161680Y0108436D01*
X0161569Y0108495D01*
X0161460Y0108557D01*
X0161353Y0108623D01*
X0161248Y0108692D01*
X0161145Y0108764D01*
X0161044Y0108839D01*
X0160946Y0108918D01*
X0160851Y0109000D01*
X0160758Y0109084D01*
X0160668Y0109172D01*
X0160580Y0109262D01*
X0160496Y0109355D01*
X0160414Y0109450D01*
X0160335Y0109548D01*
X0160260Y0109649D01*
X0160188Y0109752D01*
X0160119Y0109857D01*
X0160053Y0109964D01*
X0159991Y0110073D01*
X0159932Y0110184D01*
X0159877Y0110297D01*
X0159825Y0110411D01*
X0159777Y0110528D01*
X0159732Y0110645D01*
X0159692Y0110764D01*
X0159655Y0110884D01*
X0159622Y0111005D01*
X0159592Y0111127D01*
X0159567Y0111250D01*
X0159545Y0111374D01*
X0159528Y0111499D01*
X0159514Y0111624D01*
X0159504Y0111749D01*
X0159498Y0111874D01*
X0159496Y0112000D01*
X0151996Y0112000D01*
X0151996Y0092000D01*
X0151996Y0122000D02*
X0174996Y0122000D01*
X0174996Y0142000D01*
X0167496Y0142000D01*
X0167494Y0141874D01*
X0167488Y0141749D01*
X0167478Y0141624D01*
X0167464Y0141499D01*
X0167447Y0141374D01*
X0167425Y0141250D01*
X0167400Y0141127D01*
X0167370Y0141005D01*
X0167337Y0140884D01*
X0167300Y0140764D01*
X0167260Y0140645D01*
X0167215Y0140528D01*
X0167167Y0140411D01*
X0167115Y0140297D01*
X0167060Y0140184D01*
X0167001Y0140073D01*
X0166939Y0139964D01*
X0166873Y0139857D01*
X0166804Y0139752D01*
X0166732Y0139649D01*
X0166657Y0139548D01*
X0166578Y0139450D01*
X0166496Y0139355D01*
X0166412Y0139262D01*
X0166324Y0139172D01*
X0166234Y0139084D01*
X0166141Y0139000D01*
X0166046Y0138918D01*
X0165948Y0138839D01*
X0165847Y0138764D01*
X0165744Y0138692D01*
X0165639Y0138623D01*
X0165532Y0138557D01*
X0165423Y0138495D01*
X0165312Y0138436D01*
X0165199Y0138381D01*
X0165085Y0138329D01*
X0164968Y0138281D01*
X0164851Y0138236D01*
X0164732Y0138196D01*
X0164612Y0138159D01*
X0164491Y0138126D01*
X0164369Y0138096D01*
X0164246Y0138071D01*
X0164122Y0138049D01*
X0163997Y0138032D01*
X0163872Y0138018D01*
X0163747Y0138008D01*
X0163622Y0138002D01*
X0163496Y0138000D01*
X0163370Y0138002D01*
X0163245Y0138008D01*
X0163120Y0138018D01*
X0162995Y0138032D01*
X0162870Y0138049D01*
X0162746Y0138071D01*
X0162623Y0138096D01*
X0162501Y0138126D01*
X0162380Y0138159D01*
X0162260Y0138196D01*
X0162141Y0138236D01*
X0162024Y0138281D01*
X0161907Y0138329D01*
X0161793Y0138381D01*
X0161680Y0138436D01*
X0161569Y0138495D01*
X0161460Y0138557D01*
X0161353Y0138623D01*
X0161248Y0138692D01*
X0161145Y0138764D01*
X0161044Y0138839D01*
X0160946Y0138918D01*
X0160851Y0139000D01*
X0160758Y0139084D01*
X0160668Y0139172D01*
X0160580Y0139262D01*
X0160496Y0139355D01*
X0160414Y0139450D01*
X0160335Y0139548D01*
X0160260Y0139649D01*
X0160188Y0139752D01*
X0160119Y0139857D01*
X0160053Y0139964D01*
X0159991Y0140073D01*
X0159932Y0140184D01*
X0159877Y0140297D01*
X0159825Y0140411D01*
X0159777Y0140528D01*
X0159732Y0140645D01*
X0159692Y0140764D01*
X0159655Y0140884D01*
X0159622Y0141005D01*
X0159592Y0141127D01*
X0159567Y0141250D01*
X0159545Y0141374D01*
X0159528Y0141499D01*
X0159514Y0141624D01*
X0159504Y0141749D01*
X0159498Y0141874D01*
X0159496Y0142000D01*
X0151996Y0142000D01*
X0151996Y0122000D01*
X0154996Y0152000D02*
X0154996Y0155000D01*
X0154496Y0155000D01*
X0154496Y0161000D01*
X0154996Y0161000D01*
X0154996Y0155000D01*
X0154996Y0152000D02*
X0168496Y0152000D01*
X0169996Y0152000D01*
X0169996Y0150500D01*
X0194496Y0150500D01*
X0194496Y0152000D01*
X0169996Y0152000D01*
X0169996Y0192000D01*
X0168496Y0192000D01*
X0154996Y0192000D01*
X0154996Y0189000D01*
X0154996Y0183000D01*
X0154996Y0181000D01*
X0154496Y0181000D01*
X0154496Y0175000D01*
X0154996Y0175000D01*
X0154996Y0181000D01*
X0154996Y0183000D02*
X0154496Y0183000D01*
X0154496Y0189000D01*
X0154996Y0189000D01*
X0154996Y0197000D02*
X0154996Y0200000D01*
X0154496Y0200000D01*
X0154496Y0206000D01*
X0154996Y0206000D01*
X0154996Y0200000D01*
X0154996Y0197000D02*
X0168496Y0197000D01*
X0169996Y0197000D01*
X0169996Y0195500D01*
X0194496Y0195500D01*
X0194496Y0197000D01*
X0169996Y0197000D01*
X0169996Y0237000D01*
X0168496Y0237000D01*
X0154996Y0237000D01*
X0154996Y0234000D01*
X0154996Y0228000D01*
X0154996Y0226000D01*
X0154496Y0226000D01*
X0154496Y0220000D01*
X0154996Y0220000D01*
X0154996Y0226000D01*
X0154996Y0228000D02*
X0154496Y0228000D01*
X0154496Y0234000D01*
X0154996Y0234000D01*
X0154996Y0242000D02*
X0154996Y0245000D01*
X0154496Y0245000D01*
X0154496Y0251000D01*
X0154996Y0251000D01*
X0154996Y0245000D01*
X0154996Y0242000D02*
X0168496Y0242000D01*
X0169996Y0242000D01*
X0169996Y0240500D01*
X0194496Y0240500D01*
X0194496Y0242000D01*
X0169996Y0242000D01*
X0169996Y0282000D01*
X0168496Y0282000D01*
X0154996Y0282000D01*
X0154996Y0279000D01*
X0154996Y0273000D01*
X0154996Y0271000D01*
X0154496Y0271000D01*
X0154496Y0265000D01*
X0154996Y0265000D01*
X0154996Y0271000D01*
X0154996Y0273000D02*
X0154496Y0273000D01*
X0154496Y0279000D01*
X0154996Y0279000D01*
X0154996Y0287000D02*
X0154996Y0290000D01*
X0154496Y0290000D01*
X0154496Y0296000D01*
X0154996Y0296000D01*
X0154996Y0290000D01*
X0154996Y0287000D02*
X0168496Y0287000D01*
X0169996Y0287000D01*
X0169996Y0285500D01*
X0194496Y0285500D01*
X0194496Y0287000D01*
X0169996Y0287000D01*
X0169996Y0327000D01*
X0168496Y0327000D01*
X0154996Y0327000D01*
X0154996Y0324000D01*
X0154996Y0318000D01*
X0154996Y0316000D01*
X0154496Y0316000D01*
X0154496Y0310000D01*
X0154996Y0310000D01*
X0154996Y0316000D01*
X0154996Y0318000D02*
X0154496Y0318000D01*
X0154496Y0324000D01*
X0154996Y0324000D01*
X0154996Y0310000D02*
X0154996Y0304000D01*
X0154996Y0298000D01*
X0154996Y0296000D01*
X0154996Y0298000D02*
X0154496Y0298000D01*
X0154496Y0304000D01*
X0154996Y0304000D01*
X0169996Y0282000D02*
X0194496Y0282000D01*
X0194496Y0242000D01*
X0191996Y0244100D02*
X0191996Y0260100D01*
X0172496Y0260100D01*
X0172496Y0244100D01*
X0191996Y0244100D01*
X0194496Y0237000D02*
X0169996Y0237000D01*
X0172496Y0234900D02*
X0191996Y0234900D01*
X0191996Y0218900D01*
X0172496Y0218900D01*
X0172496Y0234900D01*
X0172996Y0233900D02*
X0172996Y0219900D01*
X0172998Y0219840D01*
X0173003Y0219779D01*
X0173012Y0219720D01*
X0173025Y0219661D01*
X0173041Y0219602D01*
X0173061Y0219545D01*
X0173084Y0219490D01*
X0173111Y0219435D01*
X0173140Y0219383D01*
X0173173Y0219332D01*
X0173209Y0219283D01*
X0173247Y0219237D01*
X0173289Y0219193D01*
X0173333Y0219151D01*
X0173379Y0219113D01*
X0173428Y0219077D01*
X0173479Y0219044D01*
X0173531Y0219015D01*
X0173586Y0218988D01*
X0173641Y0218965D01*
X0173698Y0218945D01*
X0173757Y0218929D01*
X0173816Y0218916D01*
X0173875Y0218907D01*
X0173936Y0218902D01*
X0173996Y0218900D01*
X0172996Y0221400D02*
X0172998Y0221460D01*
X0173003Y0221521D01*
X0173012Y0221580D01*
X0173025Y0221639D01*
X0173041Y0221698D01*
X0173061Y0221755D01*
X0173084Y0221810D01*
X0173111Y0221865D01*
X0173140Y0221917D01*
X0173173Y0221968D01*
X0173209Y0222017D01*
X0173247Y0222063D01*
X0173289Y0222107D01*
X0173333Y0222149D01*
X0173379Y0222187D01*
X0173428Y0222223D01*
X0173479Y0222256D01*
X0173531Y0222285D01*
X0173586Y0222312D01*
X0173641Y0222335D01*
X0173698Y0222355D01*
X0173757Y0222371D01*
X0173816Y0222384D01*
X0173875Y0222393D01*
X0173936Y0222398D01*
X0173996Y0222400D01*
X0180496Y0222400D01*
X0183496Y0218900D02*
X0183691Y0218902D01*
X0183886Y0218909D01*
X0184080Y0218921D01*
X0184274Y0218938D01*
X0184468Y0218959D01*
X0184661Y0218985D01*
X0184853Y0219016D01*
X0185045Y0219051D01*
X0185235Y0219091D01*
X0185425Y0219136D01*
X0185614Y0219185D01*
X0185801Y0219239D01*
X0185987Y0219298D01*
X0186171Y0219360D01*
X0186354Y0219428D01*
X0186535Y0219500D01*
X0186714Y0219576D01*
X0186892Y0219656D01*
X0187067Y0219741D01*
X0187240Y0219830D01*
X0187411Y0219924D01*
X0187580Y0220021D01*
X0187746Y0220123D01*
X0187910Y0220228D01*
X0188071Y0220337D01*
X0188230Y0220451D01*
X0188385Y0220568D01*
X0188538Y0220689D01*
X0188688Y0220814D01*
X0188835Y0220942D01*
X0188978Y0221074D01*
X0189118Y0221209D01*
X0189255Y0221347D01*
X0189389Y0221489D01*
X0189519Y0221634D01*
X0189645Y0221783D01*
X0189768Y0221934D01*
X0189887Y0222088D01*
X0190002Y0222245D01*
X0190114Y0222405D01*
X0190221Y0222567D01*
X0190325Y0222732D01*
X0190424Y0222900D01*
X0190520Y0223070D01*
X0190611Y0223242D01*
X0190698Y0223416D01*
X0190780Y0223593D01*
X0190859Y0223771D01*
X0190933Y0223951D01*
X0191002Y0224133D01*
X0191068Y0224317D01*
X0191128Y0224502D01*
X0191184Y0224689D01*
X0191236Y0224877D01*
X0191283Y0225066D01*
X0191325Y0225256D01*
X0191363Y0225447D01*
X0191396Y0225639D01*
X0191424Y0225832D01*
X0191448Y0226025D01*
X0191467Y0226219D01*
X0191481Y0226413D01*
X0191491Y0226608D01*
X0191495Y0226803D01*
X0191495Y0226997D01*
X0191491Y0227192D01*
X0191481Y0227387D01*
X0191467Y0227581D01*
X0191448Y0227775D01*
X0191424Y0227968D01*
X0191396Y0228161D01*
X0191363Y0228353D01*
X0191325Y0228544D01*
X0191283Y0228734D01*
X0191236Y0228923D01*
X0191184Y0229111D01*
X0191128Y0229298D01*
X0191068Y0229483D01*
X0191002Y0229667D01*
X0190933Y0229849D01*
X0190859Y0230029D01*
X0190780Y0230207D01*
X0190698Y0230384D01*
X0190611Y0230558D01*
X0190520Y0230730D01*
X0190424Y0230900D01*
X0190325Y0231068D01*
X0190221Y0231233D01*
X0190114Y0231395D01*
X0190002Y0231555D01*
X0189887Y0231712D01*
X0189768Y0231866D01*
X0189645Y0232017D01*
X0189519Y0232166D01*
X0189389Y0232311D01*
X0189255Y0232453D01*
X0189118Y0232591D01*
X0188978Y0232726D01*
X0188835Y0232858D01*
X0188688Y0232986D01*
X0188538Y0233111D01*
X0188385Y0233232D01*
X0188230Y0233349D01*
X0188071Y0233463D01*
X0187910Y0233572D01*
X0187746Y0233677D01*
X0187580Y0233779D01*
X0187411Y0233876D01*
X0187240Y0233970D01*
X0187067Y0234059D01*
X0186892Y0234144D01*
X0186714Y0234224D01*
X0186535Y0234300D01*
X0186354Y0234372D01*
X0186171Y0234440D01*
X0185987Y0234502D01*
X0185801Y0234561D01*
X0185614Y0234615D01*
X0185425Y0234664D01*
X0185235Y0234709D01*
X0185045Y0234749D01*
X0184853Y0234784D01*
X0184661Y0234815D01*
X0184468Y0234841D01*
X0184274Y0234862D01*
X0184080Y0234879D01*
X0183886Y0234891D01*
X0183691Y0234898D01*
X0183496Y0234900D01*
X0180496Y0231400D02*
X0173996Y0231400D01*
X0173936Y0231402D01*
X0173875Y0231407D01*
X0173816Y0231416D01*
X0173757Y0231429D01*
X0173698Y0231445D01*
X0173641Y0231465D01*
X0173586Y0231488D01*
X0173531Y0231515D01*
X0173479Y0231544D01*
X0173428Y0231577D01*
X0173379Y0231613D01*
X0173333Y0231651D01*
X0173289Y0231693D01*
X0173247Y0231737D01*
X0173209Y0231783D01*
X0173173Y0231832D01*
X0173140Y0231883D01*
X0173111Y0231935D01*
X0173084Y0231990D01*
X0173061Y0232045D01*
X0173041Y0232102D01*
X0173025Y0232161D01*
X0173012Y0232220D01*
X0173003Y0232279D01*
X0172998Y0232340D01*
X0172996Y0232400D01*
X0172996Y0233900D02*
X0172998Y0233960D01*
X0173003Y0234021D01*
X0173012Y0234080D01*
X0173025Y0234139D01*
X0173041Y0234198D01*
X0173061Y0234255D01*
X0173084Y0234310D01*
X0173111Y0234365D01*
X0173140Y0234417D01*
X0173173Y0234468D01*
X0173209Y0234517D01*
X0173247Y0234563D01*
X0173289Y0234607D01*
X0173333Y0234649D01*
X0173379Y0234687D01*
X0173428Y0234723D01*
X0173479Y0234756D01*
X0173531Y0234785D01*
X0173586Y0234812D01*
X0173641Y0234835D01*
X0173698Y0234855D01*
X0173757Y0234871D01*
X0173816Y0234884D01*
X0173875Y0234893D01*
X0173936Y0234898D01*
X0173996Y0234900D01*
X0173996Y0244100D02*
X0173936Y0244102D01*
X0173875Y0244107D01*
X0173816Y0244116D01*
X0173757Y0244129D01*
X0173698Y0244145D01*
X0173641Y0244165D01*
X0173586Y0244188D01*
X0173531Y0244215D01*
X0173479Y0244244D01*
X0173428Y0244277D01*
X0173379Y0244313D01*
X0173333Y0244351D01*
X0173289Y0244393D01*
X0173247Y0244437D01*
X0173209Y0244483D01*
X0173173Y0244532D01*
X0173140Y0244583D01*
X0173111Y0244635D01*
X0173084Y0244690D01*
X0173061Y0244745D01*
X0173041Y0244802D01*
X0173025Y0244861D01*
X0173012Y0244920D01*
X0173003Y0244979D01*
X0172998Y0245040D01*
X0172996Y0245100D01*
X0172996Y0259100D01*
X0172998Y0259160D01*
X0173003Y0259221D01*
X0173012Y0259280D01*
X0173025Y0259339D01*
X0173041Y0259398D01*
X0173061Y0259455D01*
X0173084Y0259510D01*
X0173111Y0259565D01*
X0173140Y0259617D01*
X0173173Y0259668D01*
X0173209Y0259717D01*
X0173247Y0259763D01*
X0173289Y0259807D01*
X0173333Y0259849D01*
X0173379Y0259887D01*
X0173428Y0259923D01*
X0173479Y0259956D01*
X0173531Y0259985D01*
X0173586Y0260012D01*
X0173641Y0260035D01*
X0173698Y0260055D01*
X0173757Y0260071D01*
X0173816Y0260084D01*
X0173875Y0260093D01*
X0173936Y0260098D01*
X0173996Y0260100D01*
X0172996Y0257600D02*
X0172998Y0257540D01*
X0173003Y0257479D01*
X0173012Y0257420D01*
X0173025Y0257361D01*
X0173041Y0257302D01*
X0173061Y0257245D01*
X0173084Y0257190D01*
X0173111Y0257135D01*
X0173140Y0257083D01*
X0173173Y0257032D01*
X0173209Y0256983D01*
X0173247Y0256937D01*
X0173289Y0256893D01*
X0173333Y0256851D01*
X0173379Y0256813D01*
X0173428Y0256777D01*
X0173479Y0256744D01*
X0173531Y0256715D01*
X0173586Y0256688D01*
X0173641Y0256665D01*
X0173698Y0256645D01*
X0173757Y0256629D01*
X0173816Y0256616D01*
X0173875Y0256607D01*
X0173936Y0256602D01*
X0173996Y0256600D01*
X0180496Y0256600D01*
X0183496Y0260100D02*
X0183691Y0260098D01*
X0183886Y0260091D01*
X0184080Y0260079D01*
X0184274Y0260062D01*
X0184468Y0260041D01*
X0184661Y0260015D01*
X0184853Y0259984D01*
X0185045Y0259949D01*
X0185235Y0259909D01*
X0185425Y0259864D01*
X0185614Y0259815D01*
X0185801Y0259761D01*
X0185987Y0259702D01*
X0186171Y0259640D01*
X0186354Y0259572D01*
X0186535Y0259500D01*
X0186714Y0259424D01*
X0186892Y0259344D01*
X0187067Y0259259D01*
X0187240Y0259170D01*
X0187411Y0259076D01*
X0187580Y0258979D01*
X0187746Y0258877D01*
X0187910Y0258772D01*
X0188071Y0258663D01*
X0188230Y0258549D01*
X0188385Y0258432D01*
X0188538Y0258311D01*
X0188688Y0258186D01*
X0188835Y0258058D01*
X0188978Y0257926D01*
X0189118Y0257791D01*
X0189255Y0257653D01*
X0189389Y0257511D01*
X0189519Y0257366D01*
X0189645Y0257217D01*
X0189768Y0257066D01*
X0189887Y0256912D01*
X0190002Y0256755D01*
X0190114Y0256595D01*
X0190221Y0256433D01*
X0190325Y0256268D01*
X0190424Y0256100D01*
X0190520Y0255930D01*
X0190611Y0255758D01*
X0190698Y0255584D01*
X0190780Y0255407D01*
X0190859Y0255229D01*
X0190933Y0255049D01*
X0191002Y0254867D01*
X0191068Y0254683D01*
X0191128Y0254498D01*
X0191184Y0254311D01*
X0191236Y0254123D01*
X0191283Y0253934D01*
X0191325Y0253744D01*
X0191363Y0253553D01*
X0191396Y0253361D01*
X0191424Y0253168D01*
X0191448Y0252975D01*
X0191467Y0252781D01*
X0191481Y0252587D01*
X0191491Y0252392D01*
X0191495Y0252197D01*
X0191495Y0252003D01*
X0191491Y0251808D01*
X0191481Y0251613D01*
X0191467Y0251419D01*
X0191448Y0251225D01*
X0191424Y0251032D01*
X0191396Y0250839D01*
X0191363Y0250647D01*
X0191325Y0250456D01*
X0191283Y0250266D01*
X0191236Y0250077D01*
X0191184Y0249889D01*
X0191128Y0249702D01*
X0191068Y0249517D01*
X0191002Y0249333D01*
X0190933Y0249151D01*
X0190859Y0248971D01*
X0190780Y0248793D01*
X0190698Y0248616D01*
X0190611Y0248442D01*
X0190520Y0248270D01*
X0190424Y0248100D01*
X0190325Y0247932D01*
X0190221Y0247767D01*
X0190114Y0247605D01*
X0190002Y0247445D01*
X0189887Y0247288D01*
X0189768Y0247134D01*
X0189645Y0246983D01*
X0189519Y0246834D01*
X0189389Y0246689D01*
X0189255Y0246547D01*
X0189118Y0246409D01*
X0188978Y0246274D01*
X0188835Y0246142D01*
X0188688Y0246014D01*
X0188538Y0245889D01*
X0188385Y0245768D01*
X0188230Y0245651D01*
X0188071Y0245537D01*
X0187910Y0245428D01*
X0187746Y0245323D01*
X0187580Y0245221D01*
X0187411Y0245124D01*
X0187240Y0245030D01*
X0187067Y0244941D01*
X0186892Y0244856D01*
X0186714Y0244776D01*
X0186535Y0244700D01*
X0186354Y0244628D01*
X0186171Y0244560D01*
X0185987Y0244498D01*
X0185801Y0244439D01*
X0185614Y0244385D01*
X0185425Y0244336D01*
X0185235Y0244291D01*
X0185045Y0244251D01*
X0184853Y0244216D01*
X0184661Y0244185D01*
X0184468Y0244159D01*
X0184274Y0244138D01*
X0184080Y0244121D01*
X0183886Y0244109D01*
X0183691Y0244102D01*
X0183496Y0244100D01*
X0180496Y0247600D02*
X0173996Y0247600D01*
X0173936Y0247598D01*
X0173875Y0247593D01*
X0173816Y0247584D01*
X0173757Y0247571D01*
X0173698Y0247555D01*
X0173641Y0247535D01*
X0173586Y0247512D01*
X0173531Y0247485D01*
X0173479Y0247456D01*
X0173428Y0247423D01*
X0173379Y0247387D01*
X0173333Y0247349D01*
X0173289Y0247307D01*
X0173247Y0247263D01*
X0173209Y0247217D01*
X0173173Y0247168D01*
X0173140Y0247117D01*
X0173111Y0247065D01*
X0173084Y0247010D01*
X0173061Y0246955D01*
X0173041Y0246898D01*
X0173025Y0246839D01*
X0173012Y0246780D01*
X0173003Y0246721D01*
X0172998Y0246660D01*
X0172996Y0246600D01*
X0172496Y0263900D02*
X0172496Y0279900D01*
X0191996Y0279900D01*
X0191996Y0263900D01*
X0172496Y0263900D01*
X0172996Y0264900D02*
X0172996Y0278900D01*
X0172998Y0278960D01*
X0173003Y0279021D01*
X0173012Y0279080D01*
X0173025Y0279139D01*
X0173041Y0279198D01*
X0173061Y0279255D01*
X0173084Y0279310D01*
X0173111Y0279365D01*
X0173140Y0279417D01*
X0173173Y0279468D01*
X0173209Y0279517D01*
X0173247Y0279563D01*
X0173289Y0279607D01*
X0173333Y0279649D01*
X0173379Y0279687D01*
X0173428Y0279723D01*
X0173479Y0279756D01*
X0173531Y0279785D01*
X0173586Y0279812D01*
X0173641Y0279835D01*
X0173698Y0279855D01*
X0173757Y0279871D01*
X0173816Y0279884D01*
X0173875Y0279893D01*
X0173936Y0279898D01*
X0173996Y0279900D01*
X0172996Y0277400D02*
X0172998Y0277340D01*
X0173003Y0277279D01*
X0173012Y0277220D01*
X0173025Y0277161D01*
X0173041Y0277102D01*
X0173061Y0277045D01*
X0173084Y0276990D01*
X0173111Y0276935D01*
X0173140Y0276883D01*
X0173173Y0276832D01*
X0173209Y0276783D01*
X0173247Y0276737D01*
X0173289Y0276693D01*
X0173333Y0276651D01*
X0173379Y0276613D01*
X0173428Y0276577D01*
X0173479Y0276544D01*
X0173531Y0276515D01*
X0173586Y0276488D01*
X0173641Y0276465D01*
X0173698Y0276445D01*
X0173757Y0276429D01*
X0173816Y0276416D01*
X0173875Y0276407D01*
X0173936Y0276402D01*
X0173996Y0276400D01*
X0180496Y0276400D01*
X0183496Y0279900D02*
X0183691Y0279898D01*
X0183886Y0279891D01*
X0184080Y0279879D01*
X0184274Y0279862D01*
X0184468Y0279841D01*
X0184661Y0279815D01*
X0184853Y0279784D01*
X0185045Y0279749D01*
X0185235Y0279709D01*
X0185425Y0279664D01*
X0185614Y0279615D01*
X0185801Y0279561D01*
X0185987Y0279502D01*
X0186171Y0279440D01*
X0186354Y0279372D01*
X0186535Y0279300D01*
X0186714Y0279224D01*
X0186892Y0279144D01*
X0187067Y0279059D01*
X0187240Y0278970D01*
X0187411Y0278876D01*
X0187580Y0278779D01*
X0187746Y0278677D01*
X0187910Y0278572D01*
X0188071Y0278463D01*
X0188230Y0278349D01*
X0188385Y0278232D01*
X0188538Y0278111D01*
X0188688Y0277986D01*
X0188835Y0277858D01*
X0188978Y0277726D01*
X0189118Y0277591D01*
X0189255Y0277453D01*
X0189389Y0277311D01*
X0189519Y0277166D01*
X0189645Y0277017D01*
X0189768Y0276866D01*
X0189887Y0276712D01*
X0190002Y0276555D01*
X0190114Y0276395D01*
X0190221Y0276233D01*
X0190325Y0276068D01*
X0190424Y0275900D01*
X0190520Y0275730D01*
X0190611Y0275558D01*
X0190698Y0275384D01*
X0190780Y0275207D01*
X0190859Y0275029D01*
X0190933Y0274849D01*
X0191002Y0274667D01*
X0191068Y0274483D01*
X0191128Y0274298D01*
X0191184Y0274111D01*
X0191236Y0273923D01*
X0191283Y0273734D01*
X0191325Y0273544D01*
X0191363Y0273353D01*
X0191396Y0273161D01*
X0191424Y0272968D01*
X0191448Y0272775D01*
X0191467Y0272581D01*
X0191481Y0272387D01*
X0191491Y0272192D01*
X0191495Y0271997D01*
X0191495Y0271803D01*
X0191491Y0271608D01*
X0191481Y0271413D01*
X0191467Y0271219D01*
X0191448Y0271025D01*
X0191424Y0270832D01*
X0191396Y0270639D01*
X0191363Y0270447D01*
X0191325Y0270256D01*
X0191283Y0270066D01*
X0191236Y0269877D01*
X0191184Y0269689D01*
X0191128Y0269502D01*
X0191068Y0269317D01*
X0191002Y0269133D01*
X0190933Y0268951D01*
X0190859Y0268771D01*
X0190780Y0268593D01*
X0190698Y0268416D01*
X0190611Y0268242D01*
X0190520Y0268070D01*
X0190424Y0267900D01*
X0190325Y0267732D01*
X0190221Y0267567D01*
X0190114Y0267405D01*
X0190002Y0267245D01*
X0189887Y0267088D01*
X0189768Y0266934D01*
X0189645Y0266783D01*
X0189519Y0266634D01*
X0189389Y0266489D01*
X0189255Y0266347D01*
X0189118Y0266209D01*
X0188978Y0266074D01*
X0188835Y0265942D01*
X0188688Y0265814D01*
X0188538Y0265689D01*
X0188385Y0265568D01*
X0188230Y0265451D01*
X0188071Y0265337D01*
X0187910Y0265228D01*
X0187746Y0265123D01*
X0187580Y0265021D01*
X0187411Y0264924D01*
X0187240Y0264830D01*
X0187067Y0264741D01*
X0186892Y0264656D01*
X0186714Y0264576D01*
X0186535Y0264500D01*
X0186354Y0264428D01*
X0186171Y0264360D01*
X0185987Y0264298D01*
X0185801Y0264239D01*
X0185614Y0264185D01*
X0185425Y0264136D01*
X0185235Y0264091D01*
X0185045Y0264051D01*
X0184853Y0264016D01*
X0184661Y0263985D01*
X0184468Y0263959D01*
X0184274Y0263938D01*
X0184080Y0263921D01*
X0183886Y0263909D01*
X0183691Y0263902D01*
X0183496Y0263900D01*
X0180496Y0267400D02*
X0173996Y0267400D01*
X0173936Y0267398D01*
X0173875Y0267393D01*
X0173816Y0267384D01*
X0173757Y0267371D01*
X0173698Y0267355D01*
X0173641Y0267335D01*
X0173586Y0267312D01*
X0173531Y0267285D01*
X0173479Y0267256D01*
X0173428Y0267223D01*
X0173379Y0267187D01*
X0173333Y0267149D01*
X0173289Y0267107D01*
X0173247Y0267063D01*
X0173209Y0267017D01*
X0173173Y0266968D01*
X0173140Y0266917D01*
X0173111Y0266865D01*
X0173084Y0266810D01*
X0173061Y0266755D01*
X0173041Y0266698D01*
X0173025Y0266639D01*
X0173012Y0266580D01*
X0173003Y0266521D01*
X0172998Y0266460D01*
X0172996Y0266400D01*
X0172996Y0264900D02*
X0172998Y0264840D01*
X0173003Y0264779D01*
X0173012Y0264720D01*
X0173025Y0264661D01*
X0173041Y0264602D01*
X0173061Y0264545D01*
X0173084Y0264490D01*
X0173111Y0264435D01*
X0173140Y0264383D01*
X0173173Y0264332D01*
X0173209Y0264283D01*
X0173247Y0264237D01*
X0173289Y0264193D01*
X0173333Y0264151D01*
X0173379Y0264113D01*
X0173428Y0264077D01*
X0173479Y0264044D01*
X0173531Y0264015D01*
X0173586Y0263988D01*
X0173641Y0263965D01*
X0173698Y0263945D01*
X0173757Y0263929D01*
X0173816Y0263916D01*
X0173875Y0263907D01*
X0173936Y0263902D01*
X0173996Y0263900D01*
X0172496Y0289100D02*
X0191996Y0289100D01*
X0191996Y0305100D01*
X0172496Y0305100D01*
X0172496Y0289100D01*
X0172996Y0290100D02*
X0172996Y0304100D01*
X0172998Y0304160D01*
X0173003Y0304221D01*
X0173012Y0304280D01*
X0173025Y0304339D01*
X0173041Y0304398D01*
X0173061Y0304455D01*
X0173084Y0304510D01*
X0173111Y0304565D01*
X0173140Y0304617D01*
X0173173Y0304668D01*
X0173209Y0304717D01*
X0173247Y0304763D01*
X0173289Y0304807D01*
X0173333Y0304849D01*
X0173379Y0304887D01*
X0173428Y0304923D01*
X0173479Y0304956D01*
X0173531Y0304985D01*
X0173586Y0305012D01*
X0173641Y0305035D01*
X0173698Y0305055D01*
X0173757Y0305071D01*
X0173816Y0305084D01*
X0173875Y0305093D01*
X0173936Y0305098D01*
X0173996Y0305100D01*
X0172996Y0302600D02*
X0172998Y0302540D01*
X0173003Y0302479D01*
X0173012Y0302420D01*
X0173025Y0302361D01*
X0173041Y0302302D01*
X0173061Y0302245D01*
X0173084Y0302190D01*
X0173111Y0302135D01*
X0173140Y0302083D01*
X0173173Y0302032D01*
X0173209Y0301983D01*
X0173247Y0301937D01*
X0173289Y0301893D01*
X0173333Y0301851D01*
X0173379Y0301813D01*
X0173428Y0301777D01*
X0173479Y0301744D01*
X0173531Y0301715D01*
X0173586Y0301688D01*
X0173641Y0301665D01*
X0173698Y0301645D01*
X0173757Y0301629D01*
X0173816Y0301616D01*
X0173875Y0301607D01*
X0173936Y0301602D01*
X0173996Y0301600D01*
X0180496Y0301600D01*
X0183496Y0305100D02*
X0183691Y0305098D01*
X0183886Y0305091D01*
X0184080Y0305079D01*
X0184274Y0305062D01*
X0184468Y0305041D01*
X0184661Y0305015D01*
X0184853Y0304984D01*
X0185045Y0304949D01*
X0185235Y0304909D01*
X0185425Y0304864D01*
X0185614Y0304815D01*
X0185801Y0304761D01*
X0185987Y0304702D01*
X0186171Y0304640D01*
X0186354Y0304572D01*
X0186535Y0304500D01*
X0186714Y0304424D01*
X0186892Y0304344D01*
X0187067Y0304259D01*
X0187240Y0304170D01*
X0187411Y0304076D01*
X0187580Y0303979D01*
X0187746Y0303877D01*
X0187910Y0303772D01*
X0188071Y0303663D01*
X0188230Y0303549D01*
X0188385Y0303432D01*
X0188538Y0303311D01*
X0188688Y0303186D01*
X0188835Y0303058D01*
X0188978Y0302926D01*
X0189118Y0302791D01*
X0189255Y0302653D01*
X0189389Y0302511D01*
X0189519Y0302366D01*
X0189645Y0302217D01*
X0189768Y0302066D01*
X0189887Y0301912D01*
X0190002Y0301755D01*
X0190114Y0301595D01*
X0190221Y0301433D01*
X0190325Y0301268D01*
X0190424Y0301100D01*
X0190520Y0300930D01*
X0190611Y0300758D01*
X0190698Y0300584D01*
X0190780Y0300407D01*
X0190859Y0300229D01*
X0190933Y0300049D01*
X0191002Y0299867D01*
X0191068Y0299683D01*
X0191128Y0299498D01*
X0191184Y0299311D01*
X0191236Y0299123D01*
X0191283Y0298934D01*
X0191325Y0298744D01*
X0191363Y0298553D01*
X0191396Y0298361D01*
X0191424Y0298168D01*
X0191448Y0297975D01*
X0191467Y0297781D01*
X0191481Y0297587D01*
X0191491Y0297392D01*
X0191495Y0297197D01*
X0191495Y0297003D01*
X0191491Y0296808D01*
X0191481Y0296613D01*
X0191467Y0296419D01*
X0191448Y0296225D01*
X0191424Y0296032D01*
X0191396Y0295839D01*
X0191363Y0295647D01*
X0191325Y0295456D01*
X0191283Y0295266D01*
X0191236Y0295077D01*
X0191184Y0294889D01*
X0191128Y0294702D01*
X0191068Y0294517D01*
X0191002Y0294333D01*
X0190933Y0294151D01*
X0190859Y0293971D01*
X0190780Y0293793D01*
X0190698Y0293616D01*
X0190611Y0293442D01*
X0190520Y0293270D01*
X0190424Y0293100D01*
X0190325Y0292932D01*
X0190221Y0292767D01*
X0190114Y0292605D01*
X0190002Y0292445D01*
X0189887Y0292288D01*
X0189768Y0292134D01*
X0189645Y0291983D01*
X0189519Y0291834D01*
X0189389Y0291689D01*
X0189255Y0291547D01*
X0189118Y0291409D01*
X0188978Y0291274D01*
X0188835Y0291142D01*
X0188688Y0291014D01*
X0188538Y0290889D01*
X0188385Y0290768D01*
X0188230Y0290651D01*
X0188071Y0290537D01*
X0187910Y0290428D01*
X0187746Y0290323D01*
X0187580Y0290221D01*
X0187411Y0290124D01*
X0187240Y0290030D01*
X0187067Y0289941D01*
X0186892Y0289856D01*
X0186714Y0289776D01*
X0186535Y0289700D01*
X0186354Y0289628D01*
X0186171Y0289560D01*
X0185987Y0289498D01*
X0185801Y0289439D01*
X0185614Y0289385D01*
X0185425Y0289336D01*
X0185235Y0289291D01*
X0185045Y0289251D01*
X0184853Y0289216D01*
X0184661Y0289185D01*
X0184468Y0289159D01*
X0184274Y0289138D01*
X0184080Y0289121D01*
X0183886Y0289109D01*
X0183691Y0289102D01*
X0183496Y0289100D01*
X0180496Y0292600D02*
X0173996Y0292600D01*
X0173936Y0292598D01*
X0173875Y0292593D01*
X0173816Y0292584D01*
X0173757Y0292571D01*
X0173698Y0292555D01*
X0173641Y0292535D01*
X0173586Y0292512D01*
X0173531Y0292485D01*
X0173479Y0292456D01*
X0173428Y0292423D01*
X0173379Y0292387D01*
X0173333Y0292349D01*
X0173289Y0292307D01*
X0173247Y0292263D01*
X0173209Y0292217D01*
X0173173Y0292168D01*
X0173140Y0292117D01*
X0173111Y0292065D01*
X0173084Y0292010D01*
X0173061Y0291955D01*
X0173041Y0291898D01*
X0173025Y0291839D01*
X0173012Y0291780D01*
X0173003Y0291721D01*
X0172998Y0291660D01*
X0172996Y0291600D01*
X0172996Y0290100D02*
X0172998Y0290040D01*
X0173003Y0289979D01*
X0173012Y0289920D01*
X0173025Y0289861D01*
X0173041Y0289802D01*
X0173061Y0289745D01*
X0173084Y0289690D01*
X0173111Y0289635D01*
X0173140Y0289583D01*
X0173173Y0289532D01*
X0173209Y0289483D01*
X0173247Y0289437D01*
X0173289Y0289393D01*
X0173333Y0289351D01*
X0173379Y0289313D01*
X0173428Y0289277D01*
X0173479Y0289244D01*
X0173531Y0289215D01*
X0173586Y0289188D01*
X0173641Y0289165D01*
X0173698Y0289145D01*
X0173757Y0289129D01*
X0173816Y0289116D01*
X0173875Y0289107D01*
X0173936Y0289102D01*
X0173996Y0289100D01*
X0172496Y0308900D02*
X0172496Y0324900D01*
X0191996Y0324900D01*
X0191996Y0308900D01*
X0172496Y0308900D01*
X0172996Y0309900D02*
X0172996Y0323900D01*
X0172998Y0323960D01*
X0173003Y0324021D01*
X0173012Y0324080D01*
X0173025Y0324139D01*
X0173041Y0324198D01*
X0173061Y0324255D01*
X0173084Y0324310D01*
X0173111Y0324365D01*
X0173140Y0324417D01*
X0173173Y0324468D01*
X0173209Y0324517D01*
X0173247Y0324563D01*
X0173289Y0324607D01*
X0173333Y0324649D01*
X0173379Y0324687D01*
X0173428Y0324723D01*
X0173479Y0324756D01*
X0173531Y0324785D01*
X0173586Y0324812D01*
X0173641Y0324835D01*
X0173698Y0324855D01*
X0173757Y0324871D01*
X0173816Y0324884D01*
X0173875Y0324893D01*
X0173936Y0324898D01*
X0173996Y0324900D01*
X0172996Y0322400D02*
X0172998Y0322340D01*
X0173003Y0322279D01*
X0173012Y0322220D01*
X0173025Y0322161D01*
X0173041Y0322102D01*
X0173061Y0322045D01*
X0173084Y0321990D01*
X0173111Y0321935D01*
X0173140Y0321883D01*
X0173173Y0321832D01*
X0173209Y0321783D01*
X0173247Y0321737D01*
X0173289Y0321693D01*
X0173333Y0321651D01*
X0173379Y0321613D01*
X0173428Y0321577D01*
X0173479Y0321544D01*
X0173531Y0321515D01*
X0173586Y0321488D01*
X0173641Y0321465D01*
X0173698Y0321445D01*
X0173757Y0321429D01*
X0173816Y0321416D01*
X0173875Y0321407D01*
X0173936Y0321402D01*
X0173996Y0321400D01*
X0180496Y0321400D01*
X0183496Y0324900D02*
X0183691Y0324898D01*
X0183886Y0324891D01*
X0184080Y0324879D01*
X0184274Y0324862D01*
X0184468Y0324841D01*
X0184661Y0324815D01*
X0184853Y0324784D01*
X0185045Y0324749D01*
X0185235Y0324709D01*
X0185425Y0324664D01*
X0185614Y0324615D01*
X0185801Y0324561D01*
X0185987Y0324502D01*
X0186171Y0324440D01*
X0186354Y0324372D01*
X0186535Y0324300D01*
X0186714Y0324224D01*
X0186892Y0324144D01*
X0187067Y0324059D01*
X0187240Y0323970D01*
X0187411Y0323876D01*
X0187580Y0323779D01*
X0187746Y0323677D01*
X0187910Y0323572D01*
X0188071Y0323463D01*
X0188230Y0323349D01*
X0188385Y0323232D01*
X0188538Y0323111D01*
X0188688Y0322986D01*
X0188835Y0322858D01*
X0188978Y0322726D01*
X0189118Y0322591D01*
X0189255Y0322453D01*
X0189389Y0322311D01*
X0189519Y0322166D01*
X0189645Y0322017D01*
X0189768Y0321866D01*
X0189887Y0321712D01*
X0190002Y0321555D01*
X0190114Y0321395D01*
X0190221Y0321233D01*
X0190325Y0321068D01*
X0190424Y0320900D01*
X0190520Y0320730D01*
X0190611Y0320558D01*
X0190698Y0320384D01*
X0190780Y0320207D01*
X0190859Y0320029D01*
X0190933Y0319849D01*
X0191002Y0319667D01*
X0191068Y0319483D01*
X0191128Y0319298D01*
X0191184Y0319111D01*
X0191236Y0318923D01*
X0191283Y0318734D01*
X0191325Y0318544D01*
X0191363Y0318353D01*
X0191396Y0318161D01*
X0191424Y0317968D01*
X0191448Y0317775D01*
X0191467Y0317581D01*
X0191481Y0317387D01*
X0191491Y0317192D01*
X0191495Y0316997D01*
X0191495Y0316803D01*
X0191491Y0316608D01*
X0191481Y0316413D01*
X0191467Y0316219D01*
X0191448Y0316025D01*
X0191424Y0315832D01*
X0191396Y0315639D01*
X0191363Y0315447D01*
X0191325Y0315256D01*
X0191283Y0315066D01*
X0191236Y0314877D01*
X0191184Y0314689D01*
X0191128Y0314502D01*
X0191068Y0314317D01*
X0191002Y0314133D01*
X0190933Y0313951D01*
X0190859Y0313771D01*
X0190780Y0313593D01*
X0190698Y0313416D01*
X0190611Y0313242D01*
X0190520Y0313070D01*
X0190424Y0312900D01*
X0190325Y0312732D01*
X0190221Y0312567D01*
X0190114Y0312405D01*
X0190002Y0312245D01*
X0189887Y0312088D01*
X0189768Y0311934D01*
X0189645Y0311783D01*
X0189519Y0311634D01*
X0189389Y0311489D01*
X0189255Y0311347D01*
X0189118Y0311209D01*
X0188978Y0311074D01*
X0188835Y0310942D01*
X0188688Y0310814D01*
X0188538Y0310689D01*
X0188385Y0310568D01*
X0188230Y0310451D01*
X0188071Y0310337D01*
X0187910Y0310228D01*
X0187746Y0310123D01*
X0187580Y0310021D01*
X0187411Y0309924D01*
X0187240Y0309830D01*
X0187067Y0309741D01*
X0186892Y0309656D01*
X0186714Y0309576D01*
X0186535Y0309500D01*
X0186354Y0309428D01*
X0186171Y0309360D01*
X0185987Y0309298D01*
X0185801Y0309239D01*
X0185614Y0309185D01*
X0185425Y0309136D01*
X0185235Y0309091D01*
X0185045Y0309051D01*
X0184853Y0309016D01*
X0184661Y0308985D01*
X0184468Y0308959D01*
X0184274Y0308938D01*
X0184080Y0308921D01*
X0183886Y0308909D01*
X0183691Y0308902D01*
X0183496Y0308900D01*
X0180496Y0312400D02*
X0173996Y0312400D01*
X0173936Y0312398D01*
X0173875Y0312393D01*
X0173816Y0312384D01*
X0173757Y0312371D01*
X0173698Y0312355D01*
X0173641Y0312335D01*
X0173586Y0312312D01*
X0173531Y0312285D01*
X0173479Y0312256D01*
X0173428Y0312223D01*
X0173379Y0312187D01*
X0173333Y0312149D01*
X0173289Y0312107D01*
X0173247Y0312063D01*
X0173209Y0312017D01*
X0173173Y0311968D01*
X0173140Y0311917D01*
X0173111Y0311865D01*
X0173084Y0311810D01*
X0173061Y0311755D01*
X0173041Y0311698D01*
X0173025Y0311639D01*
X0173012Y0311580D01*
X0173003Y0311521D01*
X0172998Y0311460D01*
X0172996Y0311400D01*
X0172996Y0309900D02*
X0172998Y0309840D01*
X0173003Y0309779D01*
X0173012Y0309720D01*
X0173025Y0309661D01*
X0173041Y0309602D01*
X0173061Y0309545D01*
X0173084Y0309490D01*
X0173111Y0309435D01*
X0173140Y0309383D01*
X0173173Y0309332D01*
X0173209Y0309283D01*
X0173247Y0309237D01*
X0173289Y0309193D01*
X0173333Y0309151D01*
X0173379Y0309113D01*
X0173428Y0309077D01*
X0173479Y0309044D01*
X0173531Y0309015D01*
X0173586Y0308988D01*
X0173641Y0308965D01*
X0173698Y0308945D01*
X0173757Y0308929D01*
X0173816Y0308916D01*
X0173875Y0308907D01*
X0173936Y0308902D01*
X0173996Y0308900D01*
X0169996Y0327000D02*
X0194496Y0327000D01*
X0194496Y0287000D01*
X0194496Y0237000D02*
X0194496Y0197000D01*
X0191996Y0199100D02*
X0191996Y0215100D01*
X0172496Y0215100D01*
X0172496Y0199100D01*
X0191996Y0199100D01*
X0194496Y0192000D02*
X0169996Y0192000D01*
X0172496Y0189900D02*
X0191996Y0189900D01*
X0191996Y0173900D01*
X0172496Y0173900D01*
X0172496Y0189900D01*
X0172996Y0188900D02*
X0172996Y0174900D01*
X0172998Y0174840D01*
X0173003Y0174779D01*
X0173012Y0174720D01*
X0173025Y0174661D01*
X0173041Y0174602D01*
X0173061Y0174545D01*
X0173084Y0174490D01*
X0173111Y0174435D01*
X0173140Y0174383D01*
X0173173Y0174332D01*
X0173209Y0174283D01*
X0173247Y0174237D01*
X0173289Y0174193D01*
X0173333Y0174151D01*
X0173379Y0174113D01*
X0173428Y0174077D01*
X0173479Y0174044D01*
X0173531Y0174015D01*
X0173586Y0173988D01*
X0173641Y0173965D01*
X0173698Y0173945D01*
X0173757Y0173929D01*
X0173816Y0173916D01*
X0173875Y0173907D01*
X0173936Y0173902D01*
X0173996Y0173900D01*
X0172996Y0176400D02*
X0172998Y0176460D01*
X0173003Y0176521D01*
X0173012Y0176580D01*
X0173025Y0176639D01*
X0173041Y0176698D01*
X0173061Y0176755D01*
X0173084Y0176810D01*
X0173111Y0176865D01*
X0173140Y0176917D01*
X0173173Y0176968D01*
X0173209Y0177017D01*
X0173247Y0177063D01*
X0173289Y0177107D01*
X0173333Y0177149D01*
X0173379Y0177187D01*
X0173428Y0177223D01*
X0173479Y0177256D01*
X0173531Y0177285D01*
X0173586Y0177312D01*
X0173641Y0177335D01*
X0173698Y0177355D01*
X0173757Y0177371D01*
X0173816Y0177384D01*
X0173875Y0177393D01*
X0173936Y0177398D01*
X0173996Y0177400D01*
X0180496Y0177400D01*
X0183496Y0173900D02*
X0183691Y0173902D01*
X0183886Y0173909D01*
X0184080Y0173921D01*
X0184274Y0173938D01*
X0184468Y0173959D01*
X0184661Y0173985D01*
X0184853Y0174016D01*
X0185045Y0174051D01*
X0185235Y0174091D01*
X0185425Y0174136D01*
X0185614Y0174185D01*
X0185801Y0174239D01*
X0185987Y0174298D01*
X0186171Y0174360D01*
X0186354Y0174428D01*
X0186535Y0174500D01*
X0186714Y0174576D01*
X0186892Y0174656D01*
X0187067Y0174741D01*
X0187240Y0174830D01*
X0187411Y0174924D01*
X0187580Y0175021D01*
X0187746Y0175123D01*
X0187910Y0175228D01*
X0188071Y0175337D01*
X0188230Y0175451D01*
X0188385Y0175568D01*
X0188538Y0175689D01*
X0188688Y0175814D01*
X0188835Y0175942D01*
X0188978Y0176074D01*
X0189118Y0176209D01*
X0189255Y0176347D01*
X0189389Y0176489D01*
X0189519Y0176634D01*
X0189645Y0176783D01*
X0189768Y0176934D01*
X0189887Y0177088D01*
X0190002Y0177245D01*
X0190114Y0177405D01*
X0190221Y0177567D01*
X0190325Y0177732D01*
X0190424Y0177900D01*
X0190520Y0178070D01*
X0190611Y0178242D01*
X0190698Y0178416D01*
X0190780Y0178593D01*
X0190859Y0178771D01*
X0190933Y0178951D01*
X0191002Y0179133D01*
X0191068Y0179317D01*
X0191128Y0179502D01*
X0191184Y0179689D01*
X0191236Y0179877D01*
X0191283Y0180066D01*
X0191325Y0180256D01*
X0191363Y0180447D01*
X0191396Y0180639D01*
X0191424Y0180832D01*
X0191448Y0181025D01*
X0191467Y0181219D01*
X0191481Y0181413D01*
X0191491Y0181608D01*
X0191495Y0181803D01*
X0191495Y0181997D01*
X0191491Y0182192D01*
X0191481Y0182387D01*
X0191467Y0182581D01*
X0191448Y0182775D01*
X0191424Y0182968D01*
X0191396Y0183161D01*
X0191363Y0183353D01*
X0191325Y0183544D01*
X0191283Y0183734D01*
X0191236Y0183923D01*
X0191184Y0184111D01*
X0191128Y0184298D01*
X0191068Y0184483D01*
X0191002Y0184667D01*
X0190933Y0184849D01*
X0190859Y0185029D01*
X0190780Y0185207D01*
X0190698Y0185384D01*
X0190611Y0185558D01*
X0190520Y0185730D01*
X0190424Y0185900D01*
X0190325Y0186068D01*
X0190221Y0186233D01*
X0190114Y0186395D01*
X0190002Y0186555D01*
X0189887Y0186712D01*
X0189768Y0186866D01*
X0189645Y0187017D01*
X0189519Y0187166D01*
X0189389Y0187311D01*
X0189255Y0187453D01*
X0189118Y0187591D01*
X0188978Y0187726D01*
X0188835Y0187858D01*
X0188688Y0187986D01*
X0188538Y0188111D01*
X0188385Y0188232D01*
X0188230Y0188349D01*
X0188071Y0188463D01*
X0187910Y0188572D01*
X0187746Y0188677D01*
X0187580Y0188779D01*
X0187411Y0188876D01*
X0187240Y0188970D01*
X0187067Y0189059D01*
X0186892Y0189144D01*
X0186714Y0189224D01*
X0186535Y0189300D01*
X0186354Y0189372D01*
X0186171Y0189440D01*
X0185987Y0189502D01*
X0185801Y0189561D01*
X0185614Y0189615D01*
X0185425Y0189664D01*
X0185235Y0189709D01*
X0185045Y0189749D01*
X0184853Y0189784D01*
X0184661Y0189815D01*
X0184468Y0189841D01*
X0184274Y0189862D01*
X0184080Y0189879D01*
X0183886Y0189891D01*
X0183691Y0189898D01*
X0183496Y0189900D01*
X0180496Y0186400D02*
X0173996Y0186400D01*
X0173936Y0186402D01*
X0173875Y0186407D01*
X0173816Y0186416D01*
X0173757Y0186429D01*
X0173698Y0186445D01*
X0173641Y0186465D01*
X0173586Y0186488D01*
X0173531Y0186515D01*
X0173479Y0186544D01*
X0173428Y0186577D01*
X0173379Y0186613D01*
X0173333Y0186651D01*
X0173289Y0186693D01*
X0173247Y0186737D01*
X0173209Y0186783D01*
X0173173Y0186832D01*
X0173140Y0186883D01*
X0173111Y0186935D01*
X0173084Y0186990D01*
X0173061Y0187045D01*
X0173041Y0187102D01*
X0173025Y0187161D01*
X0173012Y0187220D01*
X0173003Y0187279D01*
X0172998Y0187340D01*
X0172996Y0187400D01*
X0172996Y0188900D02*
X0172998Y0188960D01*
X0173003Y0189021D01*
X0173012Y0189080D01*
X0173025Y0189139D01*
X0173041Y0189198D01*
X0173061Y0189255D01*
X0173084Y0189310D01*
X0173111Y0189365D01*
X0173140Y0189417D01*
X0173173Y0189468D01*
X0173209Y0189517D01*
X0173247Y0189563D01*
X0173289Y0189607D01*
X0173333Y0189649D01*
X0173379Y0189687D01*
X0173428Y0189723D01*
X0173479Y0189756D01*
X0173531Y0189785D01*
X0173586Y0189812D01*
X0173641Y0189835D01*
X0173698Y0189855D01*
X0173757Y0189871D01*
X0173816Y0189884D01*
X0173875Y0189893D01*
X0173936Y0189898D01*
X0173996Y0189900D01*
X0173996Y0199100D02*
X0173936Y0199102D01*
X0173875Y0199107D01*
X0173816Y0199116D01*
X0173757Y0199129D01*
X0173698Y0199145D01*
X0173641Y0199165D01*
X0173586Y0199188D01*
X0173531Y0199215D01*
X0173479Y0199244D01*
X0173428Y0199277D01*
X0173379Y0199313D01*
X0173333Y0199351D01*
X0173289Y0199393D01*
X0173247Y0199437D01*
X0173209Y0199483D01*
X0173173Y0199532D01*
X0173140Y0199583D01*
X0173111Y0199635D01*
X0173084Y0199690D01*
X0173061Y0199745D01*
X0173041Y0199802D01*
X0173025Y0199861D01*
X0173012Y0199920D01*
X0173003Y0199979D01*
X0172998Y0200040D01*
X0172996Y0200100D01*
X0172996Y0214100D01*
X0172998Y0214160D01*
X0173003Y0214221D01*
X0173012Y0214280D01*
X0173025Y0214339D01*
X0173041Y0214398D01*
X0173061Y0214455D01*
X0173084Y0214510D01*
X0173111Y0214565D01*
X0173140Y0214617D01*
X0173173Y0214668D01*
X0173209Y0214717D01*
X0173247Y0214763D01*
X0173289Y0214807D01*
X0173333Y0214849D01*
X0173379Y0214887D01*
X0173428Y0214923D01*
X0173479Y0214956D01*
X0173531Y0214985D01*
X0173586Y0215012D01*
X0173641Y0215035D01*
X0173698Y0215055D01*
X0173757Y0215071D01*
X0173816Y0215084D01*
X0173875Y0215093D01*
X0173936Y0215098D01*
X0173996Y0215100D01*
X0172996Y0212600D02*
X0172998Y0212540D01*
X0173003Y0212479D01*
X0173012Y0212420D01*
X0173025Y0212361D01*
X0173041Y0212302D01*
X0173061Y0212245D01*
X0173084Y0212190D01*
X0173111Y0212135D01*
X0173140Y0212083D01*
X0173173Y0212032D01*
X0173209Y0211983D01*
X0173247Y0211937D01*
X0173289Y0211893D01*
X0173333Y0211851D01*
X0173379Y0211813D01*
X0173428Y0211777D01*
X0173479Y0211744D01*
X0173531Y0211715D01*
X0173586Y0211688D01*
X0173641Y0211665D01*
X0173698Y0211645D01*
X0173757Y0211629D01*
X0173816Y0211616D01*
X0173875Y0211607D01*
X0173936Y0211602D01*
X0173996Y0211600D01*
X0180496Y0211600D01*
X0183496Y0215100D02*
X0183691Y0215098D01*
X0183886Y0215091D01*
X0184080Y0215079D01*
X0184274Y0215062D01*
X0184468Y0215041D01*
X0184661Y0215015D01*
X0184853Y0214984D01*
X0185045Y0214949D01*
X0185235Y0214909D01*
X0185425Y0214864D01*
X0185614Y0214815D01*
X0185801Y0214761D01*
X0185987Y0214702D01*
X0186171Y0214640D01*
X0186354Y0214572D01*
X0186535Y0214500D01*
X0186714Y0214424D01*
X0186892Y0214344D01*
X0187067Y0214259D01*
X0187240Y0214170D01*
X0187411Y0214076D01*
X0187580Y0213979D01*
X0187746Y0213877D01*
X0187910Y0213772D01*
X0188071Y0213663D01*
X0188230Y0213549D01*
X0188385Y0213432D01*
X0188538Y0213311D01*
X0188688Y0213186D01*
X0188835Y0213058D01*
X0188978Y0212926D01*
X0189118Y0212791D01*
X0189255Y0212653D01*
X0189389Y0212511D01*
X0189519Y0212366D01*
X0189645Y0212217D01*
X0189768Y0212066D01*
X0189887Y0211912D01*
X0190002Y0211755D01*
X0190114Y0211595D01*
X0190221Y0211433D01*
X0190325Y0211268D01*
X0190424Y0211100D01*
X0190520Y0210930D01*
X0190611Y0210758D01*
X0190698Y0210584D01*
X0190780Y0210407D01*
X0190859Y0210229D01*
X0190933Y0210049D01*
X0191002Y0209867D01*
X0191068Y0209683D01*
X0191128Y0209498D01*
X0191184Y0209311D01*
X0191236Y0209123D01*
X0191283Y0208934D01*
X0191325Y0208744D01*
X0191363Y0208553D01*
X0191396Y0208361D01*
X0191424Y0208168D01*
X0191448Y0207975D01*
X0191467Y0207781D01*
X0191481Y0207587D01*
X0191491Y0207392D01*
X0191495Y0207197D01*
X0191495Y0207003D01*
X0191491Y0206808D01*
X0191481Y0206613D01*
X0191467Y0206419D01*
X0191448Y0206225D01*
X0191424Y0206032D01*
X0191396Y0205839D01*
X0191363Y0205647D01*
X0191325Y0205456D01*
X0191283Y0205266D01*
X0191236Y0205077D01*
X0191184Y0204889D01*
X0191128Y0204702D01*
X0191068Y0204517D01*
X0191002Y0204333D01*
X0190933Y0204151D01*
X0190859Y0203971D01*
X0190780Y0203793D01*
X0190698Y0203616D01*
X0190611Y0203442D01*
X0190520Y0203270D01*
X0190424Y0203100D01*
X0190325Y0202932D01*
X0190221Y0202767D01*
X0190114Y0202605D01*
X0190002Y0202445D01*
X0189887Y0202288D01*
X0189768Y0202134D01*
X0189645Y0201983D01*
X0189519Y0201834D01*
X0189389Y0201689D01*
X0189255Y0201547D01*
X0189118Y0201409D01*
X0188978Y0201274D01*
X0188835Y0201142D01*
X0188688Y0201014D01*
X0188538Y0200889D01*
X0188385Y0200768D01*
X0188230Y0200651D01*
X0188071Y0200537D01*
X0187910Y0200428D01*
X0187746Y0200323D01*
X0187580Y0200221D01*
X0187411Y0200124D01*
X0187240Y0200030D01*
X0187067Y0199941D01*
X0186892Y0199856D01*
X0186714Y0199776D01*
X0186535Y0199700D01*
X0186354Y0199628D01*
X0186171Y0199560D01*
X0185987Y0199498D01*
X0185801Y0199439D01*
X0185614Y0199385D01*
X0185425Y0199336D01*
X0185235Y0199291D01*
X0185045Y0199251D01*
X0184853Y0199216D01*
X0184661Y0199185D01*
X0184468Y0199159D01*
X0184274Y0199138D01*
X0184080Y0199121D01*
X0183886Y0199109D01*
X0183691Y0199102D01*
X0183496Y0199100D01*
X0180496Y0202600D02*
X0173996Y0202600D01*
X0173936Y0202598D01*
X0173875Y0202593D01*
X0173816Y0202584D01*
X0173757Y0202571D01*
X0173698Y0202555D01*
X0173641Y0202535D01*
X0173586Y0202512D01*
X0173531Y0202485D01*
X0173479Y0202456D01*
X0173428Y0202423D01*
X0173379Y0202387D01*
X0173333Y0202349D01*
X0173289Y0202307D01*
X0173247Y0202263D01*
X0173209Y0202217D01*
X0173173Y0202168D01*
X0173140Y0202117D01*
X0173111Y0202065D01*
X0173084Y0202010D01*
X0173061Y0201955D01*
X0173041Y0201898D01*
X0173025Y0201839D01*
X0173012Y0201780D01*
X0173003Y0201721D01*
X0172998Y0201660D01*
X0172996Y0201600D01*
X0154996Y0206000D02*
X0154996Y0208000D01*
X0154996Y0214000D01*
X0154496Y0214000D01*
X0154496Y0208000D01*
X0154996Y0208000D01*
X0154996Y0214000D02*
X0154996Y0220000D01*
X0154996Y0251000D02*
X0154996Y0253000D01*
X0154996Y0259000D01*
X0154496Y0259000D01*
X0154496Y0253000D01*
X0154996Y0253000D01*
X0154996Y0259000D02*
X0154996Y0265000D01*
X0194496Y0192000D02*
X0194496Y0152000D01*
X0191996Y0154100D02*
X0191996Y0170100D01*
X0172496Y0170100D01*
X0172496Y0154100D01*
X0191996Y0154100D01*
X0183496Y0154100D02*
X0183691Y0154102D01*
X0183886Y0154109D01*
X0184080Y0154121D01*
X0184274Y0154138D01*
X0184468Y0154159D01*
X0184661Y0154185D01*
X0184853Y0154216D01*
X0185045Y0154251D01*
X0185235Y0154291D01*
X0185425Y0154336D01*
X0185614Y0154385D01*
X0185801Y0154439D01*
X0185987Y0154498D01*
X0186171Y0154560D01*
X0186354Y0154628D01*
X0186535Y0154700D01*
X0186714Y0154776D01*
X0186892Y0154856D01*
X0187067Y0154941D01*
X0187240Y0155030D01*
X0187411Y0155124D01*
X0187580Y0155221D01*
X0187746Y0155323D01*
X0187910Y0155428D01*
X0188071Y0155537D01*
X0188230Y0155651D01*
X0188385Y0155768D01*
X0188538Y0155889D01*
X0188688Y0156014D01*
X0188835Y0156142D01*
X0188978Y0156274D01*
X0189118Y0156409D01*
X0189255Y0156547D01*
X0189389Y0156689D01*
X0189519Y0156834D01*
X0189645Y0156983D01*
X0189768Y0157134D01*
X0189887Y0157288D01*
X0190002Y0157445D01*
X0190114Y0157605D01*
X0190221Y0157767D01*
X0190325Y0157932D01*
X0190424Y0158100D01*
X0190520Y0158270D01*
X0190611Y0158442D01*
X0190698Y0158616D01*
X0190780Y0158793D01*
X0190859Y0158971D01*
X0190933Y0159151D01*
X0191002Y0159333D01*
X0191068Y0159517D01*
X0191128Y0159702D01*
X0191184Y0159889D01*
X0191236Y0160077D01*
X0191283Y0160266D01*
X0191325Y0160456D01*
X0191363Y0160647D01*
X0191396Y0160839D01*
X0191424Y0161032D01*
X0191448Y0161225D01*
X0191467Y0161419D01*
X0191481Y0161613D01*
X0191491Y0161808D01*
X0191495Y0162003D01*
X0191495Y0162197D01*
X0191491Y0162392D01*
X0191481Y0162587D01*
X0191467Y0162781D01*
X0191448Y0162975D01*
X0191424Y0163168D01*
X0191396Y0163361D01*
X0191363Y0163553D01*
X0191325Y0163744D01*
X0191283Y0163934D01*
X0191236Y0164123D01*
X0191184Y0164311D01*
X0191128Y0164498D01*
X0191068Y0164683D01*
X0191002Y0164867D01*
X0190933Y0165049D01*
X0190859Y0165229D01*
X0190780Y0165407D01*
X0190698Y0165584D01*
X0190611Y0165758D01*
X0190520Y0165930D01*
X0190424Y0166100D01*
X0190325Y0166268D01*
X0190221Y0166433D01*
X0190114Y0166595D01*
X0190002Y0166755D01*
X0189887Y0166912D01*
X0189768Y0167066D01*
X0189645Y0167217D01*
X0189519Y0167366D01*
X0189389Y0167511D01*
X0189255Y0167653D01*
X0189118Y0167791D01*
X0188978Y0167926D01*
X0188835Y0168058D01*
X0188688Y0168186D01*
X0188538Y0168311D01*
X0188385Y0168432D01*
X0188230Y0168549D01*
X0188071Y0168663D01*
X0187910Y0168772D01*
X0187746Y0168877D01*
X0187580Y0168979D01*
X0187411Y0169076D01*
X0187240Y0169170D01*
X0187067Y0169259D01*
X0186892Y0169344D01*
X0186714Y0169424D01*
X0186535Y0169500D01*
X0186354Y0169572D01*
X0186171Y0169640D01*
X0185987Y0169702D01*
X0185801Y0169761D01*
X0185614Y0169815D01*
X0185425Y0169864D01*
X0185235Y0169909D01*
X0185045Y0169949D01*
X0184853Y0169984D01*
X0184661Y0170015D01*
X0184468Y0170041D01*
X0184274Y0170062D01*
X0184080Y0170079D01*
X0183886Y0170091D01*
X0183691Y0170098D01*
X0183496Y0170100D01*
X0180496Y0166600D02*
X0173996Y0166600D01*
X0173936Y0166602D01*
X0173875Y0166607D01*
X0173816Y0166616D01*
X0173757Y0166629D01*
X0173698Y0166645D01*
X0173641Y0166665D01*
X0173586Y0166688D01*
X0173531Y0166715D01*
X0173479Y0166744D01*
X0173428Y0166777D01*
X0173379Y0166813D01*
X0173333Y0166851D01*
X0173289Y0166893D01*
X0173247Y0166937D01*
X0173209Y0166983D01*
X0173173Y0167032D01*
X0173140Y0167083D01*
X0173111Y0167135D01*
X0173084Y0167190D01*
X0173061Y0167245D01*
X0173041Y0167302D01*
X0173025Y0167361D01*
X0173012Y0167420D01*
X0173003Y0167479D01*
X0172998Y0167540D01*
X0172996Y0167600D01*
X0172996Y0169100D02*
X0172996Y0155100D01*
X0172998Y0155040D01*
X0173003Y0154979D01*
X0173012Y0154920D01*
X0173025Y0154861D01*
X0173041Y0154802D01*
X0173061Y0154745D01*
X0173084Y0154690D01*
X0173111Y0154635D01*
X0173140Y0154583D01*
X0173173Y0154532D01*
X0173209Y0154483D01*
X0173247Y0154437D01*
X0173289Y0154393D01*
X0173333Y0154351D01*
X0173379Y0154313D01*
X0173428Y0154277D01*
X0173479Y0154244D01*
X0173531Y0154215D01*
X0173586Y0154188D01*
X0173641Y0154165D01*
X0173698Y0154145D01*
X0173757Y0154129D01*
X0173816Y0154116D01*
X0173875Y0154107D01*
X0173936Y0154102D01*
X0173996Y0154100D01*
X0172996Y0156600D02*
X0172998Y0156660D01*
X0173003Y0156721D01*
X0173012Y0156780D01*
X0173025Y0156839D01*
X0173041Y0156898D01*
X0173061Y0156955D01*
X0173084Y0157010D01*
X0173111Y0157065D01*
X0173140Y0157117D01*
X0173173Y0157168D01*
X0173209Y0157217D01*
X0173247Y0157263D01*
X0173289Y0157307D01*
X0173333Y0157349D01*
X0173379Y0157387D01*
X0173428Y0157423D01*
X0173479Y0157456D01*
X0173531Y0157485D01*
X0173586Y0157512D01*
X0173641Y0157535D01*
X0173698Y0157555D01*
X0173757Y0157571D01*
X0173816Y0157584D01*
X0173875Y0157593D01*
X0173936Y0157598D01*
X0173996Y0157600D01*
X0180496Y0157600D01*
X0172996Y0169100D02*
X0172998Y0169160D01*
X0173003Y0169221D01*
X0173012Y0169280D01*
X0173025Y0169339D01*
X0173041Y0169398D01*
X0173061Y0169455D01*
X0173084Y0169510D01*
X0173111Y0169565D01*
X0173140Y0169617D01*
X0173173Y0169668D01*
X0173209Y0169717D01*
X0173247Y0169763D01*
X0173289Y0169807D01*
X0173333Y0169849D01*
X0173379Y0169887D01*
X0173428Y0169923D01*
X0173479Y0169956D01*
X0173531Y0169985D01*
X0173586Y0170012D01*
X0173641Y0170035D01*
X0173698Y0170055D01*
X0173757Y0170071D01*
X0173816Y0170084D01*
X0173875Y0170093D01*
X0173936Y0170098D01*
X0173996Y0170100D01*
X0154996Y0169000D02*
X0154996Y0163000D01*
X0154996Y0161000D01*
X0154996Y0163000D02*
X0154496Y0163000D01*
X0154496Y0169000D01*
X0154996Y0169000D01*
X0154996Y0175000D01*
X0032996Y0182000D02*
X0030996Y0182000D01*
X0008496Y0182000D02*
X0008502Y0182491D01*
X0008520Y0182981D01*
X0008550Y0183471D01*
X0008592Y0183960D01*
X0008646Y0184448D01*
X0008712Y0184935D01*
X0008790Y0185419D01*
X0008880Y0185902D01*
X0008982Y0186382D01*
X0009095Y0186860D01*
X0009220Y0187334D01*
X0009357Y0187806D01*
X0009505Y0188274D01*
X0009665Y0188738D01*
X0009836Y0189198D01*
X0010018Y0189654D01*
X0010212Y0190105D01*
X0010416Y0190551D01*
X0010632Y0190992D01*
X0010858Y0191428D01*
X0011094Y0191858D01*
X0011341Y0192282D01*
X0011599Y0192700D01*
X0011867Y0193111D01*
X0012144Y0193516D01*
X0012432Y0193914D01*
X0012729Y0194305D01*
X0013036Y0194688D01*
X0013352Y0195063D01*
X0013677Y0195431D01*
X0014011Y0195791D01*
X0014354Y0196142D01*
X0014705Y0196485D01*
X0015065Y0196819D01*
X0015433Y0197144D01*
X0015808Y0197460D01*
X0016191Y0197767D01*
X0016582Y0198064D01*
X0016980Y0198352D01*
X0017385Y0198629D01*
X0017796Y0198897D01*
X0018214Y0199155D01*
X0018638Y0199402D01*
X0019068Y0199638D01*
X0019504Y0199864D01*
X0019945Y0200080D01*
X0020391Y0200284D01*
X0020842Y0200478D01*
X0021298Y0200660D01*
X0021758Y0200831D01*
X0022222Y0200991D01*
X0022690Y0201139D01*
X0023162Y0201276D01*
X0023636Y0201401D01*
X0024114Y0201514D01*
X0024594Y0201616D01*
X0025077Y0201706D01*
X0025561Y0201784D01*
X0026048Y0201850D01*
X0026536Y0201904D01*
X0027025Y0201946D01*
X0027515Y0201976D01*
X0028005Y0201994D01*
X0028496Y0202000D01*
X0028987Y0201994D01*
X0029477Y0201976D01*
X0029967Y0201946D01*
X0030456Y0201904D01*
X0030944Y0201850D01*
X0031431Y0201784D01*
X0031915Y0201706D01*
X0032398Y0201616D01*
X0032878Y0201514D01*
X0033356Y0201401D01*
X0033830Y0201276D01*
X0034302Y0201139D01*
X0034770Y0200991D01*
X0035234Y0200831D01*
X0035694Y0200660D01*
X0036150Y0200478D01*
X0036601Y0200284D01*
X0037047Y0200080D01*
X0037488Y0199864D01*
X0037924Y0199638D01*
X0038354Y0199402D01*
X0038778Y0199155D01*
X0039196Y0198897D01*
X0039607Y0198629D01*
X0040012Y0198352D01*
X0040410Y0198064D01*
X0040801Y0197767D01*
X0041184Y0197460D01*
X0041559Y0197144D01*
X0041927Y0196819D01*
X0042287Y0196485D01*
X0042638Y0196142D01*
X0042981Y0195791D01*
X0043315Y0195431D01*
X0043640Y0195063D01*
X0043956Y0194688D01*
X0044263Y0194305D01*
X0044560Y0193914D01*
X0044848Y0193516D01*
X0045125Y0193111D01*
X0045393Y0192700D01*
X0045651Y0192282D01*
X0045898Y0191858D01*
X0046134Y0191428D01*
X0046360Y0190992D01*
X0046576Y0190551D01*
X0046780Y0190105D01*
X0046974Y0189654D01*
X0047156Y0189198D01*
X0047327Y0188738D01*
X0047487Y0188274D01*
X0047635Y0187806D01*
X0047772Y0187334D01*
X0047897Y0186860D01*
X0048010Y0186382D01*
X0048112Y0185902D01*
X0048202Y0185419D01*
X0048280Y0184935D01*
X0048346Y0184448D01*
X0048400Y0183960D01*
X0048442Y0183471D01*
X0048472Y0182981D01*
X0048490Y0182491D01*
X0048496Y0182000D01*
X0048490Y0181509D01*
X0048472Y0181019D01*
X0048442Y0180529D01*
X0048400Y0180040D01*
X0048346Y0179552D01*
X0048280Y0179065D01*
X0048202Y0178581D01*
X0048112Y0178098D01*
X0048010Y0177618D01*
X0047897Y0177140D01*
X0047772Y0176666D01*
X0047635Y0176194D01*
X0047487Y0175726D01*
X0047327Y0175262D01*
X0047156Y0174802D01*
X0046974Y0174346D01*
X0046780Y0173895D01*
X0046576Y0173449D01*
X0046360Y0173008D01*
X0046134Y0172572D01*
X0045898Y0172142D01*
X0045651Y0171718D01*
X0045393Y0171300D01*
X0045125Y0170889D01*
X0044848Y0170484D01*
X0044560Y0170086D01*
X0044263Y0169695D01*
X0043956Y0169312D01*
X0043640Y0168937D01*
X0043315Y0168569D01*
X0042981Y0168209D01*
X0042638Y0167858D01*
X0042287Y0167515D01*
X0041927Y0167181D01*
X0041559Y0166856D01*
X0041184Y0166540D01*
X0040801Y0166233D01*
X0040410Y0165936D01*
X0040012Y0165648D01*
X0039607Y0165371D01*
X0039196Y0165103D01*
X0038778Y0164845D01*
X0038354Y0164598D01*
X0037924Y0164362D01*
X0037488Y0164136D01*
X0037047Y0163920D01*
X0036601Y0163716D01*
X0036150Y0163522D01*
X0035694Y0163340D01*
X0035234Y0163169D01*
X0034770Y0163009D01*
X0034302Y0162861D01*
X0033830Y0162724D01*
X0033356Y0162599D01*
X0032878Y0162486D01*
X0032398Y0162384D01*
X0031915Y0162294D01*
X0031431Y0162216D01*
X0030944Y0162150D01*
X0030456Y0162096D01*
X0029967Y0162054D01*
X0029477Y0162024D01*
X0028987Y0162006D01*
X0028496Y0162000D01*
X0028005Y0162006D01*
X0027515Y0162024D01*
X0027025Y0162054D01*
X0026536Y0162096D01*
X0026048Y0162150D01*
X0025561Y0162216D01*
X0025077Y0162294D01*
X0024594Y0162384D01*
X0024114Y0162486D01*
X0023636Y0162599D01*
X0023162Y0162724D01*
X0022690Y0162861D01*
X0022222Y0163009D01*
X0021758Y0163169D01*
X0021298Y0163340D01*
X0020842Y0163522D01*
X0020391Y0163716D01*
X0019945Y0163920D01*
X0019504Y0164136D01*
X0019068Y0164362D01*
X0018638Y0164598D01*
X0018214Y0164845D01*
X0017796Y0165103D01*
X0017385Y0165371D01*
X0016980Y0165648D01*
X0016582Y0165936D01*
X0016191Y0166233D01*
X0015808Y0166540D01*
X0015433Y0166856D01*
X0015065Y0167181D01*
X0014705Y0167515D01*
X0014354Y0167858D01*
X0014011Y0168209D01*
X0013677Y0168569D01*
X0013352Y0168937D01*
X0013036Y0169312D01*
X0012729Y0169695D01*
X0012432Y0170086D01*
X0012144Y0170484D01*
X0011867Y0170889D01*
X0011599Y0171300D01*
X0011341Y0171718D01*
X0011094Y0172142D01*
X0010858Y0172572D01*
X0010632Y0173008D01*
X0010416Y0173449D01*
X0010212Y0173895D01*
X0010018Y0174346D01*
X0009836Y0174802D01*
X0009665Y0175262D01*
X0009505Y0175726D01*
X0009357Y0176194D01*
X0009220Y0176666D01*
X0009095Y0177140D01*
X0008982Y0177618D01*
X0008880Y0178098D01*
X0008790Y0178581D01*
X0008712Y0179065D01*
X0008646Y0179552D01*
X0008592Y0180040D01*
X0008550Y0180529D01*
X0008520Y0181019D01*
X0008502Y0181509D01*
X0008496Y0182000D01*
X0011996Y0187000D02*
X0014996Y0187000D01*
X0013496Y0188500D02*
X0013496Y0185500D01*
X0023996Y0182000D02*
X0024996Y0182000D01*
X0024996Y0186500D01*
X0027496Y0186500D01*
X0027496Y0177500D01*
X0024996Y0177500D01*
X0024996Y0182000D01*
X0024996Y0217500D02*
X0027496Y0217500D01*
X0027496Y0226500D01*
X0024996Y0226500D01*
X0024996Y0222000D01*
X0024996Y0217500D01*
X0024996Y0222000D02*
X0023996Y0222000D01*
X0008496Y0222000D02*
X0008502Y0222491D01*
X0008520Y0222981D01*
X0008550Y0223471D01*
X0008592Y0223960D01*
X0008646Y0224448D01*
X0008712Y0224935D01*
X0008790Y0225419D01*
X0008880Y0225902D01*
X0008982Y0226382D01*
X0009095Y0226860D01*
X0009220Y0227334D01*
X0009357Y0227806D01*
X0009505Y0228274D01*
X0009665Y0228738D01*
X0009836Y0229198D01*
X0010018Y0229654D01*
X0010212Y0230105D01*
X0010416Y0230551D01*
X0010632Y0230992D01*
X0010858Y0231428D01*
X0011094Y0231858D01*
X0011341Y0232282D01*
X0011599Y0232700D01*
X0011867Y0233111D01*
X0012144Y0233516D01*
X0012432Y0233914D01*
X0012729Y0234305D01*
X0013036Y0234688D01*
X0013352Y0235063D01*
X0013677Y0235431D01*
X0014011Y0235791D01*
X0014354Y0236142D01*
X0014705Y0236485D01*
X0015065Y0236819D01*
X0015433Y0237144D01*
X0015808Y0237460D01*
X0016191Y0237767D01*
X0016582Y0238064D01*
X0016980Y0238352D01*
X0017385Y0238629D01*
X0017796Y0238897D01*
X0018214Y0239155D01*
X0018638Y0239402D01*
X0019068Y0239638D01*
X0019504Y0239864D01*
X0019945Y0240080D01*
X0020391Y0240284D01*
X0020842Y0240478D01*
X0021298Y0240660D01*
X0021758Y0240831D01*
X0022222Y0240991D01*
X0022690Y0241139D01*
X0023162Y0241276D01*
X0023636Y0241401D01*
X0024114Y0241514D01*
X0024594Y0241616D01*
X0025077Y0241706D01*
X0025561Y0241784D01*
X0026048Y0241850D01*
X0026536Y0241904D01*
X0027025Y0241946D01*
X0027515Y0241976D01*
X0028005Y0241994D01*
X0028496Y0242000D01*
X0028987Y0241994D01*
X0029477Y0241976D01*
X0029967Y0241946D01*
X0030456Y0241904D01*
X0030944Y0241850D01*
X0031431Y0241784D01*
X0031915Y0241706D01*
X0032398Y0241616D01*
X0032878Y0241514D01*
X0033356Y0241401D01*
X0033830Y0241276D01*
X0034302Y0241139D01*
X0034770Y0240991D01*
X0035234Y0240831D01*
X0035694Y0240660D01*
X0036150Y0240478D01*
X0036601Y0240284D01*
X0037047Y0240080D01*
X0037488Y0239864D01*
X0037924Y0239638D01*
X0038354Y0239402D01*
X0038778Y0239155D01*
X0039196Y0238897D01*
X0039607Y0238629D01*
X0040012Y0238352D01*
X0040410Y0238064D01*
X0040801Y0237767D01*
X0041184Y0237460D01*
X0041559Y0237144D01*
X0041927Y0236819D01*
X0042287Y0236485D01*
X0042638Y0236142D01*
X0042981Y0235791D01*
X0043315Y0235431D01*
X0043640Y0235063D01*
X0043956Y0234688D01*
X0044263Y0234305D01*
X0044560Y0233914D01*
X0044848Y0233516D01*
X0045125Y0233111D01*
X0045393Y0232700D01*
X0045651Y0232282D01*
X0045898Y0231858D01*
X0046134Y0231428D01*
X0046360Y0230992D01*
X0046576Y0230551D01*
X0046780Y0230105D01*
X0046974Y0229654D01*
X0047156Y0229198D01*
X0047327Y0228738D01*
X0047487Y0228274D01*
X0047635Y0227806D01*
X0047772Y0227334D01*
X0047897Y0226860D01*
X0048010Y0226382D01*
X0048112Y0225902D01*
X0048202Y0225419D01*
X0048280Y0224935D01*
X0048346Y0224448D01*
X0048400Y0223960D01*
X0048442Y0223471D01*
X0048472Y0222981D01*
X0048490Y0222491D01*
X0048496Y0222000D01*
X0048490Y0221509D01*
X0048472Y0221019D01*
X0048442Y0220529D01*
X0048400Y0220040D01*
X0048346Y0219552D01*
X0048280Y0219065D01*
X0048202Y0218581D01*
X0048112Y0218098D01*
X0048010Y0217618D01*
X0047897Y0217140D01*
X0047772Y0216666D01*
X0047635Y0216194D01*
X0047487Y0215726D01*
X0047327Y0215262D01*
X0047156Y0214802D01*
X0046974Y0214346D01*
X0046780Y0213895D01*
X0046576Y0213449D01*
X0046360Y0213008D01*
X0046134Y0212572D01*
X0045898Y0212142D01*
X0045651Y0211718D01*
X0045393Y0211300D01*
X0045125Y0210889D01*
X0044848Y0210484D01*
X0044560Y0210086D01*
X0044263Y0209695D01*
X0043956Y0209312D01*
X0043640Y0208937D01*
X0043315Y0208569D01*
X0042981Y0208209D01*
X0042638Y0207858D01*
X0042287Y0207515D01*
X0041927Y0207181D01*
X0041559Y0206856D01*
X0041184Y0206540D01*
X0040801Y0206233D01*
X0040410Y0205936D01*
X0040012Y0205648D01*
X0039607Y0205371D01*
X0039196Y0205103D01*
X0038778Y0204845D01*
X0038354Y0204598D01*
X0037924Y0204362D01*
X0037488Y0204136D01*
X0037047Y0203920D01*
X0036601Y0203716D01*
X0036150Y0203522D01*
X0035694Y0203340D01*
X0035234Y0203169D01*
X0034770Y0203009D01*
X0034302Y0202861D01*
X0033830Y0202724D01*
X0033356Y0202599D01*
X0032878Y0202486D01*
X0032398Y0202384D01*
X0031915Y0202294D01*
X0031431Y0202216D01*
X0030944Y0202150D01*
X0030456Y0202096D01*
X0029967Y0202054D01*
X0029477Y0202024D01*
X0028987Y0202006D01*
X0028496Y0202000D01*
X0028005Y0202006D01*
X0027515Y0202024D01*
X0027025Y0202054D01*
X0026536Y0202096D01*
X0026048Y0202150D01*
X0025561Y0202216D01*
X0025077Y0202294D01*
X0024594Y0202384D01*
X0024114Y0202486D01*
X0023636Y0202599D01*
X0023162Y0202724D01*
X0022690Y0202861D01*
X0022222Y0203009D01*
X0021758Y0203169D01*
X0021298Y0203340D01*
X0020842Y0203522D01*
X0020391Y0203716D01*
X0019945Y0203920D01*
X0019504Y0204136D01*
X0019068Y0204362D01*
X0018638Y0204598D01*
X0018214Y0204845D01*
X0017796Y0205103D01*
X0017385Y0205371D01*
X0016980Y0205648D01*
X0016582Y0205936D01*
X0016191Y0206233D01*
X0015808Y0206540D01*
X0015433Y0206856D01*
X0015065Y0207181D01*
X0014705Y0207515D01*
X0014354Y0207858D01*
X0014011Y0208209D01*
X0013677Y0208569D01*
X0013352Y0208937D01*
X0013036Y0209312D01*
X0012729Y0209695D01*
X0012432Y0210086D01*
X0012144Y0210484D01*
X0011867Y0210889D01*
X0011599Y0211300D01*
X0011341Y0211718D01*
X0011094Y0212142D01*
X0010858Y0212572D01*
X0010632Y0213008D01*
X0010416Y0213449D01*
X0010212Y0213895D01*
X0010018Y0214346D01*
X0009836Y0214802D01*
X0009665Y0215262D01*
X0009505Y0215726D01*
X0009357Y0216194D01*
X0009220Y0216666D01*
X0009095Y0217140D01*
X0008982Y0217618D01*
X0008880Y0218098D01*
X0008790Y0218581D01*
X0008712Y0219065D01*
X0008646Y0219552D01*
X0008592Y0220040D01*
X0008550Y0220529D01*
X0008520Y0221019D01*
X0008502Y0221509D01*
X0008496Y0222000D01*
X0011996Y0227000D02*
X0014996Y0227000D01*
X0013496Y0228500D02*
X0013496Y0225500D01*
X0030996Y0222000D02*
X0032996Y0222000D01*
D11*
X0030746Y0222000D03*
X0030746Y0182000D03*
D12*
X0041397Y0144000D02*
X0015594Y0144000D01*
X0015594Y0130000D01*
X0041397Y0130000D01*
X0041397Y0144000D01*
X0066027Y0159638D02*
X0066027Y0164362D01*
X0069964Y0162000D01*
X0066027Y0159638D01*
X0091027Y0159638D02*
X0091027Y0164362D01*
X0094964Y0162000D01*
X0091027Y0159638D01*
X0116027Y0159638D02*
X0116027Y0164362D01*
X0119964Y0162000D01*
X0116027Y0159638D01*
X0161133Y0044469D02*
X0165858Y0044469D01*
X0163496Y0040531D01*
X0161133Y0044469D01*
X0161133Y0019469D02*
X0165858Y0019469D01*
X0163496Y0015531D01*
X0161133Y0019469D01*
X0155858Y0019469D02*
X0151133Y0019469D01*
X0153496Y0015531D01*
X0155858Y0019469D01*
D13*
X0153496Y0014800D03*
X0163496Y0014800D03*
X0163496Y0039800D03*
D14*
X0120696Y0162000D03*
X0095696Y0162000D03*
X0070696Y0162000D03*
D15*
X0076742Y0148500D02*
X0060250Y0148500D01*
X0059623Y0143000D02*
X0058043Y0143000D01*
X0067369Y0143000D02*
X0069623Y0143000D01*
X0076742Y0148500D02*
X0076895Y0148301D01*
X0077043Y0148099D01*
X0077186Y0147894D01*
X0077324Y0147685D01*
X0077457Y0147473D01*
X0077585Y0147258D01*
X0077707Y0147040D01*
X0077825Y0146819D01*
X0077937Y0146595D01*
X0078044Y0146369D01*
X0078145Y0146140D01*
X0078241Y0145909D01*
X0078332Y0145675D01*
X0078417Y0145440D01*
X0078496Y0145202D01*
X0078569Y0144963D01*
X0078637Y0144722D01*
X0078699Y0144480D01*
X0078755Y0144236D01*
X0078806Y0143990D01*
X0078850Y0143744D01*
X0078889Y0143497D01*
X0078921Y0143249D01*
X0078948Y0143000D01*
X0077369Y0143000D01*
X0083043Y0143000D02*
X0084623Y0143000D01*
X0085250Y0148500D02*
X0101742Y0148500D01*
X0102369Y0143000D02*
X0103948Y0143000D01*
X0108043Y0143000D02*
X0109623Y0143000D01*
X0110250Y0148500D02*
X0126742Y0148500D01*
X0127369Y0143000D02*
X0128948Y0143000D01*
X0119623Y0143000D02*
X0117369Y0143000D01*
X0126742Y0148500D02*
X0126895Y0148301D01*
X0127043Y0148099D01*
X0127186Y0147894D01*
X0127324Y0147685D01*
X0127457Y0147473D01*
X0127585Y0147258D01*
X0127707Y0147040D01*
X0127825Y0146819D01*
X0127937Y0146595D01*
X0128044Y0146369D01*
X0128145Y0146140D01*
X0128241Y0145909D01*
X0128332Y0145675D01*
X0128417Y0145440D01*
X0128496Y0145202D01*
X0128569Y0144963D01*
X0128637Y0144722D01*
X0128699Y0144480D01*
X0128755Y0144236D01*
X0128806Y0143990D01*
X0128850Y0143744D01*
X0128889Y0143497D01*
X0128921Y0143249D01*
X0128948Y0143000D01*
X0128970Y0142745D01*
X0128985Y0142489D01*
X0128993Y0142233D01*
X0128996Y0141976D01*
X0128992Y0141720D01*
X0128982Y0141464D01*
X0128966Y0141208D01*
X0128944Y0140953D01*
X0128915Y0140698D01*
X0128880Y0140444D01*
X0128839Y0140191D01*
X0128792Y0139939D01*
X0128738Y0139689D01*
X0128679Y0139440D01*
X0128613Y0139192D01*
X0128542Y0138946D01*
X0128464Y0138701D01*
X0128381Y0138459D01*
X0128292Y0138219D01*
X0128196Y0137981D01*
X0128095Y0137745D01*
X0127989Y0137512D01*
X0127876Y0137282D01*
X0127758Y0137054D01*
X0127635Y0136830D01*
X0127506Y0136608D01*
X0127372Y0136390D01*
X0127232Y0136175D01*
X0127087Y0135964D01*
X0126937Y0135756D01*
X0126783Y0135552D01*
X0126623Y0135351D01*
X0126458Y0135155D01*
X0126289Y0134963D01*
X0126114Y0134774D01*
X0125936Y0134591D01*
X0125753Y0134411D01*
X0125565Y0134236D01*
X0125374Y0134066D01*
X0125178Y0133901D01*
X0124978Y0133740D01*
X0124775Y0133584D01*
X0124568Y0133434D01*
X0124357Y0133288D01*
X0124142Y0133147D01*
X0123925Y0133012D01*
X0123704Y0132882D01*
X0123480Y0132758D01*
X0123253Y0132639D01*
X0123023Y0132526D01*
X0122790Y0132418D01*
X0122555Y0132316D01*
X0122317Y0132220D01*
X0122078Y0132130D01*
X0121836Y0132045D01*
X0121592Y0131967D01*
X0115400Y0131967D02*
X0115158Y0132045D01*
X0114918Y0132129D01*
X0114680Y0132218D01*
X0114444Y0132313D01*
X0114210Y0132415D01*
X0113979Y0132521D01*
X0113751Y0132634D01*
X0113525Y0132751D01*
X0113302Y0132874D01*
X0113083Y0133003D01*
X0112866Y0133137D01*
X0112653Y0133276D01*
X0112443Y0133420D01*
X0112237Y0133569D01*
X0112035Y0133723D01*
X0111836Y0133882D01*
X0111641Y0134046D01*
X0111450Y0134215D01*
X0111264Y0134388D01*
X0111081Y0134565D01*
X0110903Y0134747D01*
X0110730Y0134933D01*
X0110561Y0135124D01*
X0110397Y0135318D01*
X0110237Y0135516D01*
X0110082Y0135718D01*
X0109933Y0135924D01*
X0109788Y0136133D01*
X0109648Y0136346D01*
X0109514Y0136562D01*
X0109385Y0136782D01*
X0109261Y0137004D01*
X0109142Y0137229D01*
X0109030Y0137457D01*
X0108922Y0137688D01*
X0108821Y0137921D01*
X0108725Y0138157D01*
X0108634Y0138395D01*
X0108550Y0138635D01*
X0108471Y0138877D01*
X0108398Y0139121D01*
X0108332Y0139367D01*
X0108271Y0139614D01*
X0108216Y0139862D01*
X0108167Y0140112D01*
X0108124Y0140363D01*
X0108088Y0140615D01*
X0108057Y0140867D01*
X0108033Y0141121D01*
X0108015Y0141374D01*
X0108003Y0141629D01*
X0107997Y0141883D01*
X0107997Y0142138D01*
X0108003Y0142392D01*
X0108016Y0142646D01*
X0108035Y0142900D01*
X0108060Y0143153D01*
X0108091Y0143406D01*
X0108128Y0143658D01*
X0108171Y0143908D01*
X0108220Y0144158D01*
X0108276Y0144407D01*
X0108337Y0144654D01*
X0108404Y0144899D01*
X0108477Y0145143D01*
X0108556Y0145385D01*
X0108641Y0145624D01*
X0108732Y0145862D01*
X0108829Y0146098D01*
X0108931Y0146331D01*
X0109039Y0146561D01*
X0109152Y0146789D01*
X0109271Y0147014D01*
X0109395Y0147236D01*
X0109525Y0147455D01*
X0109659Y0147671D01*
X0109799Y0147884D01*
X0109945Y0148093D01*
X0110095Y0148298D01*
X0110250Y0148500D01*
X0094623Y0143000D02*
X0092369Y0143000D01*
X0101742Y0148500D02*
X0101895Y0148301D01*
X0102043Y0148099D01*
X0102186Y0147894D01*
X0102324Y0147685D01*
X0102457Y0147473D01*
X0102585Y0147258D01*
X0102707Y0147040D01*
X0102825Y0146819D01*
X0102937Y0146595D01*
X0103044Y0146369D01*
X0103145Y0146140D01*
X0103241Y0145909D01*
X0103332Y0145675D01*
X0103417Y0145440D01*
X0103496Y0145202D01*
X0103569Y0144963D01*
X0103637Y0144722D01*
X0103699Y0144480D01*
X0103755Y0144236D01*
X0103806Y0143990D01*
X0103850Y0143744D01*
X0103889Y0143497D01*
X0103921Y0143249D01*
X0103948Y0143000D01*
X0103970Y0142745D01*
X0103985Y0142489D01*
X0103993Y0142233D01*
X0103996Y0141976D01*
X0103992Y0141720D01*
X0103982Y0141464D01*
X0103966Y0141208D01*
X0103944Y0140953D01*
X0103915Y0140698D01*
X0103880Y0140444D01*
X0103839Y0140191D01*
X0103792Y0139939D01*
X0103738Y0139689D01*
X0103679Y0139440D01*
X0103613Y0139192D01*
X0103542Y0138946D01*
X0103464Y0138701D01*
X0103381Y0138459D01*
X0103292Y0138219D01*
X0103196Y0137981D01*
X0103095Y0137745D01*
X0102989Y0137512D01*
X0102876Y0137282D01*
X0102758Y0137054D01*
X0102635Y0136830D01*
X0102506Y0136608D01*
X0102372Y0136390D01*
X0102232Y0136175D01*
X0102087Y0135964D01*
X0101937Y0135756D01*
X0101783Y0135552D01*
X0101623Y0135351D01*
X0101458Y0135155D01*
X0101289Y0134963D01*
X0101114Y0134774D01*
X0100936Y0134591D01*
X0100753Y0134411D01*
X0100565Y0134236D01*
X0100374Y0134066D01*
X0100178Y0133901D01*
X0099978Y0133740D01*
X0099775Y0133584D01*
X0099568Y0133434D01*
X0099357Y0133288D01*
X0099142Y0133147D01*
X0098925Y0133012D01*
X0098704Y0132882D01*
X0098480Y0132758D01*
X0098253Y0132639D01*
X0098023Y0132526D01*
X0097790Y0132418D01*
X0097555Y0132316D01*
X0097317Y0132220D01*
X0097078Y0132130D01*
X0096836Y0132045D01*
X0096592Y0131967D01*
X0090400Y0131967D02*
X0090158Y0132045D01*
X0089918Y0132129D01*
X0089680Y0132218D01*
X0089444Y0132313D01*
X0089210Y0132415D01*
X0088979Y0132521D01*
X0088751Y0132634D01*
X0088525Y0132751D01*
X0088302Y0132874D01*
X0088083Y0133003D01*
X0087866Y0133137D01*
X0087653Y0133276D01*
X0087443Y0133420D01*
X0087237Y0133569D01*
X0087035Y0133723D01*
X0086836Y0133882D01*
X0086641Y0134046D01*
X0086450Y0134215D01*
X0086264Y0134388D01*
X0086081Y0134565D01*
X0085903Y0134747D01*
X0085730Y0134933D01*
X0085561Y0135124D01*
X0085397Y0135318D01*
X0085237Y0135516D01*
X0085082Y0135718D01*
X0084933Y0135924D01*
X0084788Y0136133D01*
X0084648Y0136346D01*
X0084514Y0136562D01*
X0084385Y0136782D01*
X0084261Y0137004D01*
X0084142Y0137229D01*
X0084030Y0137457D01*
X0083922Y0137688D01*
X0083821Y0137921D01*
X0083725Y0138157D01*
X0083634Y0138395D01*
X0083550Y0138635D01*
X0083471Y0138877D01*
X0083398Y0139121D01*
X0083332Y0139367D01*
X0083271Y0139614D01*
X0083216Y0139862D01*
X0083167Y0140112D01*
X0083124Y0140363D01*
X0083088Y0140615D01*
X0083057Y0140867D01*
X0083033Y0141121D01*
X0083015Y0141374D01*
X0083003Y0141629D01*
X0082997Y0141883D01*
X0082997Y0142138D01*
X0083003Y0142392D01*
X0083016Y0142646D01*
X0083035Y0142900D01*
X0083060Y0143153D01*
X0083091Y0143406D01*
X0083128Y0143658D01*
X0083171Y0143908D01*
X0083220Y0144158D01*
X0083276Y0144407D01*
X0083337Y0144654D01*
X0083404Y0144899D01*
X0083477Y0145143D01*
X0083556Y0145385D01*
X0083641Y0145624D01*
X0083732Y0145862D01*
X0083829Y0146098D01*
X0083931Y0146331D01*
X0084039Y0146561D01*
X0084152Y0146789D01*
X0084271Y0147014D01*
X0084395Y0147236D01*
X0084525Y0147455D01*
X0084659Y0147671D01*
X0084799Y0147884D01*
X0084945Y0148093D01*
X0085095Y0148298D01*
X0085250Y0148500D01*
X0060250Y0148500D02*
X0060095Y0148298D01*
X0059945Y0148093D01*
X0059799Y0147884D01*
X0059659Y0147671D01*
X0059525Y0147455D01*
X0059395Y0147236D01*
X0059271Y0147014D01*
X0059152Y0146789D01*
X0059039Y0146561D01*
X0058931Y0146331D01*
X0058829Y0146098D01*
X0058732Y0145862D01*
X0058641Y0145624D01*
X0058556Y0145385D01*
X0058477Y0145143D01*
X0058404Y0144899D01*
X0058337Y0144654D01*
X0058276Y0144407D01*
X0058220Y0144158D01*
X0058171Y0143908D01*
X0058128Y0143658D01*
X0058091Y0143406D01*
X0058060Y0143153D01*
X0058035Y0142900D01*
X0058016Y0142646D01*
X0058003Y0142392D01*
X0057997Y0142138D01*
X0057997Y0141883D01*
X0058003Y0141629D01*
X0058015Y0141374D01*
X0058033Y0141121D01*
X0058057Y0140867D01*
X0058088Y0140615D01*
X0058124Y0140363D01*
X0058167Y0140112D01*
X0058216Y0139862D01*
X0058271Y0139614D01*
X0058332Y0139367D01*
X0058398Y0139121D01*
X0058471Y0138877D01*
X0058550Y0138635D01*
X0058634Y0138395D01*
X0058725Y0138157D01*
X0058821Y0137921D01*
X0058922Y0137688D01*
X0059030Y0137457D01*
X0059142Y0137229D01*
X0059261Y0137004D01*
X0059385Y0136782D01*
X0059514Y0136562D01*
X0059648Y0136346D01*
X0059788Y0136133D01*
X0059933Y0135924D01*
X0060082Y0135718D01*
X0060237Y0135516D01*
X0060397Y0135318D01*
X0060561Y0135124D01*
X0060730Y0134933D01*
X0060903Y0134747D01*
X0061081Y0134565D01*
X0061264Y0134388D01*
X0061450Y0134215D01*
X0061641Y0134046D01*
X0061836Y0133882D01*
X0062035Y0133723D01*
X0062237Y0133569D01*
X0062443Y0133420D01*
X0062653Y0133276D01*
X0062866Y0133137D01*
X0063083Y0133003D01*
X0063302Y0132874D01*
X0063525Y0132751D01*
X0063751Y0132634D01*
X0063979Y0132521D01*
X0064210Y0132415D01*
X0064444Y0132313D01*
X0064680Y0132218D01*
X0064918Y0132129D01*
X0065158Y0132045D01*
X0065400Y0131967D01*
X0071592Y0131967D02*
X0071836Y0132045D01*
X0072078Y0132130D01*
X0072317Y0132220D01*
X0072555Y0132316D01*
X0072790Y0132418D01*
X0073023Y0132526D01*
X0073253Y0132639D01*
X0073480Y0132758D01*
X0073704Y0132882D01*
X0073925Y0133012D01*
X0074142Y0133147D01*
X0074357Y0133288D01*
X0074568Y0133434D01*
X0074775Y0133584D01*
X0074978Y0133740D01*
X0075178Y0133901D01*
X0075374Y0134066D01*
X0075565Y0134236D01*
X0075753Y0134411D01*
X0075936Y0134591D01*
X0076114Y0134774D01*
X0076289Y0134963D01*
X0076458Y0135155D01*
X0076623Y0135351D01*
X0076783Y0135552D01*
X0076937Y0135756D01*
X0077087Y0135964D01*
X0077232Y0136175D01*
X0077372Y0136390D01*
X0077506Y0136608D01*
X0077635Y0136830D01*
X0077758Y0137054D01*
X0077876Y0137282D01*
X0077989Y0137512D01*
X0078095Y0137745D01*
X0078196Y0137981D01*
X0078292Y0138219D01*
X0078381Y0138459D01*
X0078464Y0138701D01*
X0078542Y0138946D01*
X0078613Y0139192D01*
X0078679Y0139440D01*
X0078738Y0139689D01*
X0078792Y0139939D01*
X0078839Y0140191D01*
X0078880Y0140444D01*
X0078915Y0140698D01*
X0078944Y0140953D01*
X0078966Y0141208D01*
X0078982Y0141464D01*
X0078992Y0141720D01*
X0078996Y0141976D01*
X0078993Y0142233D01*
X0078985Y0142489D01*
X0078970Y0142745D01*
X0078948Y0143000D01*
X0054596Y0170800D02*
X0054596Y0192454D01*
X0151052Y0192454D01*
X0151052Y0170800D01*
X0054596Y0170800D01*
X0054596Y0195800D02*
X0054596Y0217454D01*
X0151052Y0217454D01*
X0151052Y0195800D01*
X0054596Y0195800D01*
X0054596Y0220800D02*
X0054596Y0242454D01*
X0151052Y0242454D01*
X0151052Y0220800D01*
X0054596Y0220800D01*
X0011567Y0247236D02*
X0145425Y0247236D01*
X0145425Y0326764D01*
X0011567Y0326764D01*
X0011567Y0247236D01*
X0053496Y0121882D02*
X0053496Y0027000D01*
X0117275Y0027000D01*
X0117275Y0121882D01*
X0053496Y0121882D01*
X0162371Y0164250D02*
X0162436Y0164248D01*
X0162501Y0164243D01*
X0162566Y0164234D01*
X0162630Y0164222D01*
X0162693Y0164206D01*
X0162755Y0164187D01*
X0162817Y0164165D01*
X0162877Y0164139D01*
X0162935Y0164110D01*
X0162992Y0164078D01*
X0163047Y0164043D01*
X0163100Y0164005D01*
X0163151Y0163965D01*
X0163200Y0163921D01*
X0163246Y0163875D01*
X0165746Y0161750D01*
X0165746Y0164250D01*
X0162246Y0161750D02*
X0162177Y0161774D01*
X0162110Y0161802D01*
X0162044Y0161833D01*
X0161980Y0161867D01*
X0161918Y0161904D01*
X0161857Y0161945D01*
X0161799Y0161988D01*
X0161743Y0162034D01*
X0161689Y0162084D01*
X0161638Y0162135D01*
X0161590Y0162189D01*
X0161544Y0162246D01*
X0161501Y0162305D01*
X0161462Y0162366D01*
X0161425Y0162428D01*
X0161392Y0162493D01*
X0161361Y0162559D01*
X0161335Y0162627D01*
X0161311Y0162695D01*
X0161291Y0162765D01*
X0161275Y0162836D01*
X0161262Y0162908D01*
X0161253Y0162980D01*
X0161248Y0163052D01*
X0161246Y0163125D01*
X0161248Y0163190D01*
X0161254Y0163256D01*
X0161263Y0163320D01*
X0161276Y0163384D01*
X0161293Y0163448D01*
X0161314Y0163510D01*
X0161338Y0163571D01*
X0161366Y0163630D01*
X0161397Y0163688D01*
X0161431Y0163743D01*
X0161469Y0163797D01*
X0161509Y0163848D01*
X0161553Y0163897D01*
X0161599Y0163943D01*
X0161648Y0163987D01*
X0161699Y0164027D01*
X0161753Y0164065D01*
X0161809Y0164099D01*
X0161866Y0164130D01*
X0161925Y0164158D01*
X0161986Y0164182D01*
X0162048Y0164203D01*
X0162112Y0164220D01*
X0162176Y0164233D01*
X0162240Y0164242D01*
X0162306Y0164248D01*
X0162371Y0164250D01*
X0162246Y0181750D02*
X0161246Y0183000D01*
X0165746Y0183000D01*
X0165746Y0181750D02*
X0165746Y0184250D01*
X0165746Y0206750D02*
X0165746Y0209250D01*
X0165746Y0206750D02*
X0163246Y0208875D01*
X0161246Y0208125D02*
X0161248Y0208052D01*
X0161253Y0207980D01*
X0161262Y0207908D01*
X0161275Y0207836D01*
X0161291Y0207765D01*
X0161311Y0207695D01*
X0161335Y0207627D01*
X0161361Y0207559D01*
X0161392Y0207493D01*
X0161425Y0207428D01*
X0161462Y0207366D01*
X0161501Y0207305D01*
X0161544Y0207246D01*
X0161590Y0207189D01*
X0161638Y0207135D01*
X0161689Y0207084D01*
X0161743Y0207034D01*
X0161799Y0206988D01*
X0161857Y0206945D01*
X0161918Y0206904D01*
X0161980Y0206867D01*
X0162044Y0206833D01*
X0162110Y0206802D01*
X0162177Y0206774D01*
X0162246Y0206750D01*
X0163246Y0208875D02*
X0163200Y0208921D01*
X0163151Y0208965D01*
X0163100Y0209005D01*
X0163047Y0209043D01*
X0162992Y0209078D01*
X0162935Y0209110D01*
X0162877Y0209139D01*
X0162817Y0209165D01*
X0162755Y0209187D01*
X0162693Y0209206D01*
X0162630Y0209222D01*
X0162566Y0209234D01*
X0162501Y0209243D01*
X0162436Y0209248D01*
X0162371Y0209250D01*
X0162306Y0209248D01*
X0162240Y0209242D01*
X0162176Y0209233D01*
X0162112Y0209220D01*
X0162048Y0209203D01*
X0161986Y0209182D01*
X0161925Y0209158D01*
X0161866Y0209130D01*
X0161809Y0209099D01*
X0161753Y0209065D01*
X0161699Y0209027D01*
X0161648Y0208987D01*
X0161599Y0208943D01*
X0161553Y0208897D01*
X0161509Y0208848D01*
X0161469Y0208797D01*
X0161431Y0208743D01*
X0161397Y0208688D01*
X0161366Y0208630D01*
X0161338Y0208571D01*
X0161314Y0208510D01*
X0161293Y0208448D01*
X0161276Y0208384D01*
X0161263Y0208320D01*
X0161254Y0208256D01*
X0161248Y0208190D01*
X0161246Y0208125D01*
X0162246Y0226750D02*
X0161246Y0228000D01*
X0165746Y0228000D01*
X0165746Y0226750D02*
X0165746Y0229250D01*
X0165746Y0251750D02*
X0165746Y0254250D01*
X0165746Y0251750D02*
X0163246Y0253875D01*
X0161246Y0253125D02*
X0161248Y0253052D01*
X0161253Y0252980D01*
X0161262Y0252908D01*
X0161275Y0252836D01*
X0161291Y0252765D01*
X0161311Y0252695D01*
X0161335Y0252627D01*
X0161361Y0252559D01*
X0161392Y0252493D01*
X0161425Y0252428D01*
X0161462Y0252366D01*
X0161501Y0252305D01*
X0161544Y0252246D01*
X0161590Y0252189D01*
X0161638Y0252135D01*
X0161689Y0252084D01*
X0161743Y0252034D01*
X0161799Y0251988D01*
X0161857Y0251945D01*
X0161918Y0251904D01*
X0161980Y0251867D01*
X0162044Y0251833D01*
X0162110Y0251802D01*
X0162177Y0251774D01*
X0162246Y0251750D01*
X0163246Y0253875D02*
X0163200Y0253921D01*
X0163151Y0253965D01*
X0163100Y0254005D01*
X0163047Y0254043D01*
X0162992Y0254078D01*
X0162935Y0254110D01*
X0162877Y0254139D01*
X0162817Y0254165D01*
X0162755Y0254187D01*
X0162693Y0254206D01*
X0162630Y0254222D01*
X0162566Y0254234D01*
X0162501Y0254243D01*
X0162436Y0254248D01*
X0162371Y0254250D01*
X0162306Y0254248D01*
X0162240Y0254242D01*
X0162176Y0254233D01*
X0162112Y0254220D01*
X0162048Y0254203D01*
X0161986Y0254182D01*
X0161925Y0254158D01*
X0161866Y0254130D01*
X0161809Y0254099D01*
X0161753Y0254065D01*
X0161699Y0254027D01*
X0161648Y0253987D01*
X0161599Y0253943D01*
X0161553Y0253897D01*
X0161509Y0253848D01*
X0161469Y0253797D01*
X0161431Y0253743D01*
X0161397Y0253688D01*
X0161366Y0253630D01*
X0161338Y0253571D01*
X0161314Y0253510D01*
X0161293Y0253448D01*
X0161276Y0253384D01*
X0161263Y0253320D01*
X0161254Y0253256D01*
X0161248Y0253190D01*
X0161246Y0253125D01*
X0162246Y0271750D02*
X0161246Y0273000D01*
X0165746Y0273000D01*
X0165746Y0271750D02*
X0165746Y0274250D01*
X0165746Y0296750D02*
X0165746Y0299250D01*
X0165746Y0296750D02*
X0163246Y0298875D01*
X0161246Y0298125D02*
X0161248Y0298052D01*
X0161253Y0297980D01*
X0161262Y0297908D01*
X0161275Y0297836D01*
X0161291Y0297765D01*
X0161311Y0297695D01*
X0161335Y0297627D01*
X0161361Y0297559D01*
X0161392Y0297493D01*
X0161425Y0297428D01*
X0161462Y0297366D01*
X0161501Y0297305D01*
X0161544Y0297246D01*
X0161590Y0297189D01*
X0161638Y0297135D01*
X0161689Y0297084D01*
X0161743Y0297034D01*
X0161799Y0296988D01*
X0161857Y0296945D01*
X0161918Y0296904D01*
X0161980Y0296867D01*
X0162044Y0296833D01*
X0162110Y0296802D01*
X0162177Y0296774D01*
X0162246Y0296750D01*
X0163246Y0298875D02*
X0163200Y0298921D01*
X0163151Y0298965D01*
X0163100Y0299005D01*
X0163047Y0299043D01*
X0162992Y0299078D01*
X0162935Y0299110D01*
X0162877Y0299139D01*
X0162817Y0299165D01*
X0162755Y0299187D01*
X0162693Y0299206D01*
X0162630Y0299222D01*
X0162566Y0299234D01*
X0162501Y0299243D01*
X0162436Y0299248D01*
X0162371Y0299250D01*
X0162306Y0299248D01*
X0162240Y0299242D01*
X0162176Y0299233D01*
X0162112Y0299220D01*
X0162048Y0299203D01*
X0161986Y0299182D01*
X0161925Y0299158D01*
X0161866Y0299130D01*
X0161809Y0299099D01*
X0161753Y0299065D01*
X0161699Y0299027D01*
X0161648Y0298987D01*
X0161599Y0298943D01*
X0161553Y0298897D01*
X0161509Y0298848D01*
X0161469Y0298797D01*
X0161431Y0298743D01*
X0161397Y0298688D01*
X0161366Y0298630D01*
X0161338Y0298571D01*
X0161314Y0298510D01*
X0161293Y0298448D01*
X0161276Y0298384D01*
X0161263Y0298320D01*
X0161254Y0298256D01*
X0161248Y0298190D01*
X0161246Y0298125D01*
X0162246Y0316750D02*
X0161246Y0318000D01*
X0165746Y0318000D01*
X0165746Y0316750D02*
X0165746Y0319250D01*
D16*
X0107522Y0232200D02*
X0104967Y0232200D01*
X0106244Y0232200D02*
X0106244Y0236800D01*
X0104967Y0235778D01*
X0103278Y0236800D02*
X0101744Y0234628D01*
X0101744Y0232200D01*
X0101744Y0234628D02*
X0100211Y0236800D01*
X0097244Y0236800D02*
X0098778Y0232200D01*
X0098394Y0233350D02*
X0096094Y0233350D01*
X0095711Y0232200D02*
X0097244Y0236800D01*
X0094270Y0232200D02*
X0092226Y0232200D01*
X0092226Y0236800D01*
X0090370Y0236800D02*
X0088326Y0236800D01*
X0088326Y0232200D01*
X0090370Y0232200D01*
X0089859Y0234756D02*
X0088326Y0234756D01*
X0085229Y0234244D02*
X0086251Y0232200D01*
X0084973Y0234244D02*
X0083696Y0234244D01*
X0084973Y0234244D02*
X0085043Y0234246D01*
X0085114Y0234252D01*
X0085183Y0234261D01*
X0085252Y0234275D01*
X0085321Y0234292D01*
X0085388Y0234313D01*
X0085454Y0234338D01*
X0085518Y0234366D01*
X0085581Y0234398D01*
X0085642Y0234433D01*
X0085701Y0234472D01*
X0085758Y0234513D01*
X0085812Y0234558D01*
X0085864Y0234606D01*
X0085913Y0234656D01*
X0085960Y0234710D01*
X0086003Y0234765D01*
X0086043Y0234823D01*
X0086080Y0234883D01*
X0086113Y0234945D01*
X0086143Y0235009D01*
X0086170Y0235074D01*
X0086193Y0235140D01*
X0086212Y0235208D01*
X0086227Y0235277D01*
X0086239Y0235346D01*
X0086247Y0235416D01*
X0086251Y0235487D01*
X0086251Y0235557D01*
X0086247Y0235628D01*
X0086239Y0235698D01*
X0086227Y0235767D01*
X0086212Y0235836D01*
X0086193Y0235904D01*
X0086170Y0235970D01*
X0086143Y0236035D01*
X0086113Y0236099D01*
X0086080Y0236161D01*
X0086043Y0236221D01*
X0086003Y0236279D01*
X0085960Y0236334D01*
X0085913Y0236388D01*
X0085864Y0236438D01*
X0085812Y0236486D01*
X0085758Y0236531D01*
X0085701Y0236572D01*
X0085642Y0236611D01*
X0085581Y0236646D01*
X0085518Y0236678D01*
X0085454Y0236706D01*
X0085388Y0236731D01*
X0085321Y0236752D01*
X0085252Y0236769D01*
X0085183Y0236783D01*
X0085114Y0236792D01*
X0085043Y0236798D01*
X0084973Y0236800D01*
X0083696Y0236800D01*
X0083696Y0232200D01*
X0083696Y0211800D02*
X0084973Y0211800D01*
X0083696Y0211800D02*
X0083696Y0207200D01*
X0083696Y0209244D02*
X0084973Y0209244D01*
X0085229Y0209244D02*
X0086251Y0207200D01*
X0088326Y0207200D02*
X0088326Y0211800D01*
X0090370Y0211800D01*
X0092226Y0211800D02*
X0092226Y0207200D01*
X0094270Y0207200D01*
X0095711Y0207200D02*
X0097244Y0211800D01*
X0098778Y0207200D01*
X0098394Y0208350D02*
X0096094Y0208350D01*
X0100211Y0211800D02*
X0101744Y0209628D01*
X0101744Y0207200D01*
X0101744Y0209628D02*
X0103278Y0211800D01*
X0107139Y0209756D02*
X0107186Y0209803D01*
X0107230Y0209853D01*
X0107272Y0209905D01*
X0107311Y0209959D01*
X0107346Y0210015D01*
X0107379Y0210073D01*
X0107409Y0210133D01*
X0107435Y0210194D01*
X0107458Y0210257D01*
X0107477Y0210321D01*
X0107493Y0210385D01*
X0107506Y0210451D01*
X0107515Y0210517D01*
X0107520Y0210583D01*
X0107522Y0210650D01*
X0107139Y0209756D02*
X0104967Y0207200D01*
X0107522Y0207200D01*
X0104967Y0210778D02*
X0104992Y0210848D01*
X0105020Y0210917D01*
X0105051Y0210984D01*
X0105086Y0211050D01*
X0105124Y0211113D01*
X0105166Y0211175D01*
X0105210Y0211235D01*
X0105257Y0211292D01*
X0105307Y0211347D01*
X0105360Y0211399D01*
X0105416Y0211449D01*
X0105474Y0211495D01*
X0105534Y0211539D01*
X0105596Y0211580D01*
X0105660Y0211617D01*
X0105726Y0211651D01*
X0105794Y0211682D01*
X0105863Y0211709D01*
X0105933Y0211733D01*
X0106004Y0211754D01*
X0106077Y0211770D01*
X0106150Y0211783D01*
X0106224Y0211793D01*
X0106298Y0211798D01*
X0106372Y0211800D01*
X0106439Y0211798D01*
X0106506Y0211792D01*
X0106572Y0211783D01*
X0106637Y0211769D01*
X0106702Y0211752D01*
X0106765Y0211731D01*
X0106827Y0211706D01*
X0106888Y0211678D01*
X0106947Y0211646D01*
X0107004Y0211611D01*
X0107059Y0211572D01*
X0107111Y0211531D01*
X0107161Y0211486D01*
X0107208Y0211439D01*
X0107253Y0211389D01*
X0107294Y0211337D01*
X0107333Y0211282D01*
X0107368Y0211225D01*
X0107400Y0211166D01*
X0107428Y0211105D01*
X0107453Y0211043D01*
X0107474Y0210980D01*
X0107491Y0210915D01*
X0107505Y0210850D01*
X0107514Y0210784D01*
X0107520Y0210717D01*
X0107522Y0210650D01*
X0090370Y0207200D02*
X0088326Y0207200D01*
X0088326Y0209756D02*
X0089859Y0209756D01*
X0084973Y0209244D02*
X0085043Y0209246D01*
X0085114Y0209252D01*
X0085183Y0209261D01*
X0085252Y0209275D01*
X0085321Y0209292D01*
X0085388Y0209313D01*
X0085454Y0209338D01*
X0085518Y0209366D01*
X0085581Y0209398D01*
X0085642Y0209433D01*
X0085701Y0209472D01*
X0085758Y0209513D01*
X0085812Y0209558D01*
X0085864Y0209606D01*
X0085913Y0209656D01*
X0085960Y0209710D01*
X0086003Y0209765D01*
X0086043Y0209823D01*
X0086080Y0209883D01*
X0086113Y0209945D01*
X0086143Y0210009D01*
X0086170Y0210074D01*
X0086193Y0210140D01*
X0086212Y0210208D01*
X0086227Y0210277D01*
X0086239Y0210346D01*
X0086247Y0210416D01*
X0086251Y0210487D01*
X0086251Y0210557D01*
X0086247Y0210628D01*
X0086239Y0210698D01*
X0086227Y0210767D01*
X0086212Y0210836D01*
X0086193Y0210904D01*
X0086170Y0210970D01*
X0086143Y0211035D01*
X0086113Y0211099D01*
X0086080Y0211161D01*
X0086043Y0211221D01*
X0086003Y0211279D01*
X0085960Y0211334D01*
X0085913Y0211388D01*
X0085864Y0211438D01*
X0085812Y0211486D01*
X0085758Y0211531D01*
X0085701Y0211572D01*
X0085642Y0211611D01*
X0085581Y0211646D01*
X0085518Y0211678D01*
X0085454Y0211706D01*
X0085388Y0211731D01*
X0085321Y0211752D01*
X0085252Y0211769D01*
X0085183Y0211783D01*
X0085114Y0211792D01*
X0085043Y0211798D01*
X0084973Y0211800D01*
X0084973Y0186800D02*
X0083696Y0186800D01*
X0083696Y0182200D01*
X0083696Y0184244D02*
X0084973Y0184244D01*
X0085229Y0184244D02*
X0086251Y0182200D01*
X0088326Y0182200D02*
X0088326Y0186800D01*
X0090370Y0186800D01*
X0092226Y0186800D02*
X0092226Y0182200D01*
X0094270Y0182200D01*
X0095711Y0182200D02*
X0097244Y0186800D01*
X0098778Y0182200D01*
X0098394Y0183350D02*
X0096094Y0183350D01*
X0100211Y0186800D02*
X0101744Y0184628D01*
X0101744Y0182200D01*
X0101744Y0184628D02*
X0103278Y0186800D01*
X0104967Y0186800D02*
X0106500Y0186800D01*
X0106563Y0186798D01*
X0106626Y0186792D01*
X0106688Y0186783D01*
X0106749Y0186769D01*
X0106810Y0186752D01*
X0106869Y0186731D01*
X0106927Y0186706D01*
X0106984Y0186678D01*
X0107038Y0186647D01*
X0107090Y0186612D01*
X0107141Y0186574D01*
X0107189Y0186533D01*
X0107234Y0186489D01*
X0107276Y0186443D01*
X0107316Y0186394D01*
X0107352Y0186343D01*
X0107385Y0186289D01*
X0107415Y0186234D01*
X0107441Y0186176D01*
X0107464Y0186118D01*
X0107483Y0186058D01*
X0107498Y0185997D01*
X0107510Y0185935D01*
X0107518Y0185872D01*
X0107522Y0185809D01*
X0107522Y0185747D01*
X0107518Y0185684D01*
X0107510Y0185621D01*
X0107498Y0185559D01*
X0107483Y0185498D01*
X0107464Y0185438D01*
X0107441Y0185380D01*
X0107415Y0185322D01*
X0107385Y0185267D01*
X0107352Y0185213D01*
X0107316Y0185162D01*
X0107276Y0185113D01*
X0107234Y0185067D01*
X0107189Y0185023D01*
X0107141Y0184982D01*
X0107090Y0184944D01*
X0107038Y0184909D01*
X0106984Y0184878D01*
X0106927Y0184850D01*
X0106869Y0184825D01*
X0106810Y0184804D01*
X0106749Y0184787D01*
X0106688Y0184773D01*
X0106626Y0184764D01*
X0106563Y0184758D01*
X0106500Y0184756D01*
X0105478Y0184756D01*
X0106244Y0184756D02*
X0106314Y0184754D01*
X0106385Y0184748D01*
X0106454Y0184739D01*
X0106523Y0184725D01*
X0106592Y0184708D01*
X0106659Y0184687D01*
X0106725Y0184662D01*
X0106789Y0184634D01*
X0106852Y0184602D01*
X0106913Y0184567D01*
X0106972Y0184528D01*
X0107029Y0184487D01*
X0107083Y0184442D01*
X0107135Y0184394D01*
X0107184Y0184344D01*
X0107231Y0184290D01*
X0107274Y0184235D01*
X0107314Y0184177D01*
X0107351Y0184117D01*
X0107384Y0184055D01*
X0107414Y0183991D01*
X0107441Y0183926D01*
X0107464Y0183860D01*
X0107483Y0183792D01*
X0107498Y0183723D01*
X0107510Y0183654D01*
X0107518Y0183584D01*
X0107522Y0183513D01*
X0107522Y0183443D01*
X0107518Y0183372D01*
X0107510Y0183302D01*
X0107498Y0183233D01*
X0107483Y0183164D01*
X0107464Y0183096D01*
X0107441Y0183030D01*
X0107414Y0182965D01*
X0107384Y0182901D01*
X0107351Y0182839D01*
X0107314Y0182779D01*
X0107274Y0182721D01*
X0107231Y0182666D01*
X0107184Y0182612D01*
X0107135Y0182562D01*
X0107083Y0182514D01*
X0107029Y0182469D01*
X0106972Y0182428D01*
X0106913Y0182389D01*
X0106852Y0182354D01*
X0106789Y0182322D01*
X0106725Y0182294D01*
X0106659Y0182269D01*
X0106592Y0182248D01*
X0106523Y0182231D01*
X0106454Y0182217D01*
X0106385Y0182208D01*
X0106314Y0182202D01*
X0106244Y0182200D01*
X0104967Y0182200D01*
X0090370Y0182200D02*
X0088326Y0182200D01*
X0088326Y0184756D02*
X0089859Y0184756D01*
X0084973Y0184244D02*
X0085043Y0184246D01*
X0085114Y0184252D01*
X0085183Y0184261D01*
X0085252Y0184275D01*
X0085321Y0184292D01*
X0085388Y0184313D01*
X0085454Y0184338D01*
X0085518Y0184366D01*
X0085581Y0184398D01*
X0085642Y0184433D01*
X0085701Y0184472D01*
X0085758Y0184513D01*
X0085812Y0184558D01*
X0085864Y0184606D01*
X0085913Y0184656D01*
X0085960Y0184710D01*
X0086003Y0184765D01*
X0086043Y0184823D01*
X0086080Y0184883D01*
X0086113Y0184945D01*
X0086143Y0185009D01*
X0086170Y0185074D01*
X0086193Y0185140D01*
X0086212Y0185208D01*
X0086227Y0185277D01*
X0086239Y0185346D01*
X0086247Y0185416D01*
X0086251Y0185487D01*
X0086251Y0185557D01*
X0086247Y0185628D01*
X0086239Y0185698D01*
X0086227Y0185767D01*
X0086212Y0185836D01*
X0086193Y0185904D01*
X0086170Y0185970D01*
X0086143Y0186035D01*
X0086113Y0186099D01*
X0086080Y0186161D01*
X0086043Y0186221D01*
X0086003Y0186279D01*
X0085960Y0186334D01*
X0085913Y0186388D01*
X0085864Y0186438D01*
X0085812Y0186486D01*
X0085758Y0186531D01*
X0085701Y0186572D01*
X0085642Y0186611D01*
X0085581Y0186646D01*
X0085518Y0186678D01*
X0085454Y0186706D01*
X0085388Y0186731D01*
X0085321Y0186752D01*
X0085252Y0186769D01*
X0085183Y0186783D01*
X0085114Y0186792D01*
X0085043Y0186798D01*
X0084973Y0186800D01*
X0086035Y0257200D02*
X0086035Y0261800D01*
X0087568Y0259244D01*
X0089101Y0261800D01*
X0089101Y0257200D01*
X0093413Y0257839D02*
X0093461Y0257943D01*
X0093507Y0258048D01*
X0093549Y0258154D01*
X0093588Y0258262D01*
X0093624Y0258371D01*
X0093656Y0258481D01*
X0093686Y0258592D01*
X0093711Y0258704D01*
X0093734Y0258816D01*
X0093753Y0258929D01*
X0093768Y0259043D01*
X0093780Y0259157D01*
X0093789Y0259271D01*
X0093794Y0259385D01*
X0093796Y0259500D01*
X0091240Y0259500D02*
X0091242Y0259615D01*
X0091247Y0259729D01*
X0091256Y0259843D01*
X0091268Y0259957D01*
X0091283Y0260071D01*
X0091302Y0260184D01*
X0091325Y0260296D01*
X0091350Y0260408D01*
X0091380Y0260519D01*
X0091412Y0260629D01*
X0091448Y0260738D01*
X0091487Y0260846D01*
X0091529Y0260952D01*
X0091575Y0261057D01*
X0091623Y0261161D01*
X0092518Y0261800D02*
X0092577Y0261798D01*
X0092635Y0261793D01*
X0092693Y0261784D01*
X0092750Y0261771D01*
X0092807Y0261755D01*
X0092862Y0261735D01*
X0092916Y0261712D01*
X0092968Y0261686D01*
X0093019Y0261656D01*
X0093068Y0261624D01*
X0093115Y0261588D01*
X0093159Y0261550D01*
X0093201Y0261509D01*
X0093240Y0261465D01*
X0093277Y0261419D01*
X0093310Y0261371D01*
X0093341Y0261321D01*
X0093368Y0261269D01*
X0093392Y0261216D01*
X0093413Y0261161D01*
X0093540Y0260778D02*
X0091496Y0258222D01*
X0092518Y0257200D02*
X0092577Y0257202D01*
X0092635Y0257207D01*
X0092693Y0257216D01*
X0092750Y0257229D01*
X0092807Y0257245D01*
X0092862Y0257265D01*
X0092916Y0257288D01*
X0092968Y0257314D01*
X0093019Y0257344D01*
X0093068Y0257376D01*
X0093115Y0257412D01*
X0093159Y0257450D01*
X0093201Y0257491D01*
X0093240Y0257535D01*
X0093277Y0257581D01*
X0093310Y0257629D01*
X0093341Y0257679D01*
X0093368Y0257731D01*
X0093392Y0257784D01*
X0093413Y0257839D01*
X0092518Y0257200D02*
X0092459Y0257202D01*
X0092401Y0257207D01*
X0092343Y0257216D01*
X0092286Y0257229D01*
X0092229Y0257245D01*
X0092174Y0257265D01*
X0092120Y0257288D01*
X0092068Y0257314D01*
X0092017Y0257344D01*
X0091968Y0257376D01*
X0091921Y0257412D01*
X0091877Y0257450D01*
X0091835Y0257491D01*
X0091796Y0257535D01*
X0091759Y0257581D01*
X0091726Y0257629D01*
X0091695Y0257679D01*
X0091668Y0257731D01*
X0091644Y0257784D01*
X0091623Y0257839D01*
X0093796Y0259500D02*
X0093794Y0259615D01*
X0093789Y0259729D01*
X0093780Y0259843D01*
X0093768Y0259957D01*
X0093753Y0260071D01*
X0093734Y0260184D01*
X0093711Y0260296D01*
X0093686Y0260408D01*
X0093656Y0260519D01*
X0093624Y0260629D01*
X0093588Y0260738D01*
X0093549Y0260846D01*
X0093507Y0260952D01*
X0093461Y0261057D01*
X0093413Y0261161D01*
X0092518Y0261800D02*
X0092459Y0261798D01*
X0092401Y0261793D01*
X0092343Y0261784D01*
X0092286Y0261771D01*
X0092229Y0261755D01*
X0092174Y0261735D01*
X0092120Y0261712D01*
X0092068Y0261686D01*
X0092017Y0261656D01*
X0091968Y0261624D01*
X0091921Y0261588D01*
X0091877Y0261550D01*
X0091835Y0261509D01*
X0091796Y0261465D01*
X0091759Y0261419D01*
X0091726Y0261371D01*
X0091695Y0261321D01*
X0091668Y0261269D01*
X0091644Y0261216D01*
X0091623Y0261161D01*
X0091240Y0259500D02*
X0091242Y0259385D01*
X0091247Y0259271D01*
X0091256Y0259157D01*
X0091268Y0259043D01*
X0091283Y0258929D01*
X0091302Y0258816D01*
X0091325Y0258704D01*
X0091350Y0258592D01*
X0091380Y0258481D01*
X0091412Y0258371D01*
X0091448Y0258262D01*
X0091487Y0258154D01*
X0091529Y0258048D01*
X0091575Y0257943D01*
X0091623Y0257839D01*
X0095740Y0257200D02*
X0098296Y0257200D01*
X0097018Y0257200D02*
X0097018Y0261800D01*
X0095740Y0260778D01*
X0082835Y0261800D02*
X0082905Y0261798D01*
X0082976Y0261792D01*
X0083045Y0261783D01*
X0083114Y0261769D01*
X0083183Y0261752D01*
X0083250Y0261731D01*
X0083316Y0261706D01*
X0083380Y0261678D01*
X0083443Y0261646D01*
X0083504Y0261611D01*
X0083563Y0261572D01*
X0083620Y0261531D01*
X0083674Y0261486D01*
X0083726Y0261438D01*
X0083775Y0261388D01*
X0083822Y0261334D01*
X0083865Y0261279D01*
X0083905Y0261221D01*
X0083942Y0261161D01*
X0083975Y0261099D01*
X0084005Y0261035D01*
X0084032Y0260970D01*
X0084055Y0260904D01*
X0084074Y0260836D01*
X0084089Y0260767D01*
X0084101Y0260698D01*
X0084109Y0260628D01*
X0084113Y0260557D01*
X0084113Y0260487D01*
X0084109Y0260416D01*
X0084101Y0260346D01*
X0084089Y0260277D01*
X0084074Y0260208D01*
X0084055Y0260140D01*
X0084032Y0260074D01*
X0084005Y0260009D01*
X0083975Y0259945D01*
X0083942Y0259883D01*
X0083905Y0259823D01*
X0083865Y0259765D01*
X0083822Y0259710D01*
X0083775Y0259656D01*
X0083726Y0259606D01*
X0083674Y0259558D01*
X0083620Y0259513D01*
X0083563Y0259472D01*
X0083504Y0259433D01*
X0083443Y0259398D01*
X0083380Y0259366D01*
X0083316Y0259338D01*
X0083250Y0259313D01*
X0083183Y0259292D01*
X0083114Y0259275D01*
X0083045Y0259261D01*
X0082976Y0259252D01*
X0082905Y0259246D01*
X0082835Y0259244D01*
X0081557Y0259244D01*
X0081557Y0257200D02*
X0081557Y0261800D01*
X0082835Y0261800D01*
X0079351Y0258989D02*
X0076285Y0258989D01*
X0074512Y0257200D02*
X0072979Y0260011D01*
X0071957Y0258989D02*
X0074512Y0261800D01*
X0071957Y0261800D02*
X0071957Y0257200D01*
X0070043Y0257200D02*
X0067999Y0257200D01*
X0067999Y0261800D01*
X0065746Y0261800D02*
X0065746Y0257200D01*
X0065746Y0259756D02*
X0063190Y0259756D01*
X0063190Y0261800D02*
X0063190Y0257200D01*
X0073381Y0110540D02*
X0075425Y0110540D01*
X0073381Y0110540D02*
X0073381Y0105940D01*
X0075425Y0105940D01*
X0074914Y0108496D02*
X0073381Y0108496D01*
X0077611Y0108623D02*
X0079016Y0107857D01*
X0078505Y0105941D02*
X0078415Y0105943D01*
X0078326Y0105948D01*
X0078237Y0105958D01*
X0078148Y0105971D01*
X0078060Y0105987D01*
X0077972Y0106008D01*
X0077886Y0106032D01*
X0077800Y0106059D01*
X0077716Y0106090D01*
X0077633Y0106125D01*
X0077552Y0106163D01*
X0077472Y0106204D01*
X0077395Y0106248D01*
X0077319Y0106296D01*
X0077245Y0106347D01*
X0077173Y0106401D01*
X0077104Y0106458D01*
X0077036Y0106517D01*
X0076972Y0106580D01*
X0079016Y0107856D02*
X0079070Y0107822D01*
X0079121Y0107785D01*
X0079170Y0107745D01*
X0079217Y0107702D01*
X0079260Y0107656D01*
X0079301Y0107608D01*
X0079339Y0107557D01*
X0079374Y0107504D01*
X0079406Y0107449D01*
X0079434Y0107392D01*
X0079458Y0107334D01*
X0079479Y0107274D01*
X0079496Y0107213D01*
X0079510Y0107151D01*
X0079519Y0107088D01*
X0079525Y0107025D01*
X0079527Y0106962D01*
X0079525Y0106900D01*
X0079520Y0106839D01*
X0079510Y0106778D01*
X0079497Y0106717D01*
X0079481Y0106658D01*
X0079461Y0106600D01*
X0079437Y0106543D01*
X0079410Y0106487D01*
X0079380Y0106433D01*
X0079346Y0106381D01*
X0079310Y0106332D01*
X0079270Y0106284D01*
X0079228Y0106239D01*
X0079183Y0106197D01*
X0079135Y0106157D01*
X0079086Y0106121D01*
X0079034Y0106087D01*
X0078980Y0106057D01*
X0078924Y0106030D01*
X0078867Y0106006D01*
X0078809Y0105986D01*
X0078750Y0105970D01*
X0078689Y0105957D01*
X0078628Y0105947D01*
X0078567Y0105942D01*
X0078505Y0105940D01*
X0079272Y0110157D02*
X0079205Y0110205D01*
X0079137Y0110250D01*
X0079066Y0110292D01*
X0078993Y0110330D01*
X0078919Y0110366D01*
X0078844Y0110399D01*
X0078767Y0110428D01*
X0078689Y0110454D01*
X0078610Y0110477D01*
X0078530Y0110496D01*
X0078449Y0110512D01*
X0078368Y0110524D01*
X0078286Y0110533D01*
X0078204Y0110538D01*
X0078122Y0110540D01*
X0078060Y0110538D01*
X0077999Y0110533D01*
X0077938Y0110523D01*
X0077877Y0110510D01*
X0077818Y0110494D01*
X0077760Y0110474D01*
X0077703Y0110450D01*
X0077647Y0110423D01*
X0077593Y0110393D01*
X0077541Y0110359D01*
X0077492Y0110323D01*
X0077444Y0110283D01*
X0077399Y0110241D01*
X0077357Y0110196D01*
X0077318Y0110148D01*
X0077281Y0110099D01*
X0077247Y0110047D01*
X0077217Y0109993D01*
X0077190Y0109937D01*
X0077166Y0109880D01*
X0077146Y0109822D01*
X0077130Y0109763D01*
X0077117Y0109702D01*
X0077107Y0109641D01*
X0077102Y0109580D01*
X0077100Y0109518D01*
X0077102Y0109455D01*
X0077108Y0109392D01*
X0077117Y0109329D01*
X0077131Y0109267D01*
X0077148Y0109206D01*
X0077169Y0109146D01*
X0077193Y0109088D01*
X0077221Y0109031D01*
X0077253Y0108976D01*
X0077288Y0108923D01*
X0077326Y0108872D01*
X0077367Y0108824D01*
X0077410Y0108778D01*
X0077457Y0108735D01*
X0077506Y0108695D01*
X0077557Y0108658D01*
X0077611Y0108624D01*
X0081538Y0107985D02*
X0082816Y0107985D01*
X0082816Y0107984D02*
X0082886Y0107986D01*
X0082957Y0107992D01*
X0083026Y0108001D01*
X0083095Y0108015D01*
X0083164Y0108032D01*
X0083231Y0108053D01*
X0083297Y0108078D01*
X0083361Y0108106D01*
X0083424Y0108138D01*
X0083485Y0108173D01*
X0083544Y0108212D01*
X0083601Y0108253D01*
X0083655Y0108298D01*
X0083707Y0108346D01*
X0083756Y0108396D01*
X0083803Y0108450D01*
X0083846Y0108505D01*
X0083886Y0108563D01*
X0083923Y0108623D01*
X0083956Y0108685D01*
X0083986Y0108749D01*
X0084013Y0108814D01*
X0084036Y0108880D01*
X0084055Y0108948D01*
X0084070Y0109017D01*
X0084082Y0109086D01*
X0084090Y0109156D01*
X0084094Y0109227D01*
X0084094Y0109297D01*
X0084090Y0109368D01*
X0084082Y0109438D01*
X0084070Y0109507D01*
X0084055Y0109576D01*
X0084036Y0109644D01*
X0084013Y0109710D01*
X0083986Y0109775D01*
X0083956Y0109839D01*
X0083923Y0109901D01*
X0083886Y0109961D01*
X0083846Y0110019D01*
X0083803Y0110074D01*
X0083756Y0110128D01*
X0083707Y0110178D01*
X0083655Y0110226D01*
X0083601Y0110271D01*
X0083544Y0110312D01*
X0083485Y0110351D01*
X0083424Y0110386D01*
X0083361Y0110418D01*
X0083297Y0110446D01*
X0083231Y0110471D01*
X0083164Y0110492D01*
X0083095Y0110509D01*
X0083026Y0110523D01*
X0082957Y0110532D01*
X0082886Y0110538D01*
X0082816Y0110540D01*
X0081538Y0110540D01*
X0081538Y0105940D01*
X0085866Y0107729D02*
X0088933Y0107729D01*
X0090922Y0105940D02*
X0093477Y0105940D01*
X0092200Y0105940D02*
X0092200Y0110540D01*
X0090922Y0109518D01*
X0095422Y0105940D02*
X0097977Y0105940D01*
X0095422Y0105940D02*
X0097594Y0108496D01*
X0096827Y0110540D02*
X0096753Y0110538D01*
X0096679Y0110533D01*
X0096605Y0110523D01*
X0096532Y0110510D01*
X0096459Y0110494D01*
X0096388Y0110473D01*
X0096318Y0110449D01*
X0096249Y0110422D01*
X0096181Y0110391D01*
X0096115Y0110357D01*
X0096051Y0110320D01*
X0095989Y0110279D01*
X0095929Y0110235D01*
X0095871Y0110189D01*
X0095815Y0110139D01*
X0095762Y0110087D01*
X0095712Y0110032D01*
X0095665Y0109975D01*
X0095621Y0109915D01*
X0095579Y0109853D01*
X0095541Y0109790D01*
X0095506Y0109724D01*
X0095475Y0109657D01*
X0095447Y0109588D01*
X0095422Y0109518D01*
X0097594Y0108496D02*
X0097641Y0108543D01*
X0097685Y0108593D01*
X0097727Y0108645D01*
X0097766Y0108699D01*
X0097801Y0108755D01*
X0097834Y0108813D01*
X0097864Y0108873D01*
X0097890Y0108934D01*
X0097913Y0108997D01*
X0097932Y0109061D01*
X0097948Y0109125D01*
X0097961Y0109191D01*
X0097970Y0109257D01*
X0097975Y0109323D01*
X0097977Y0109390D01*
X0097975Y0109457D01*
X0097969Y0109524D01*
X0097960Y0109590D01*
X0097946Y0109655D01*
X0097929Y0109720D01*
X0097908Y0109783D01*
X0097883Y0109845D01*
X0097855Y0109906D01*
X0097823Y0109965D01*
X0097788Y0110022D01*
X0097749Y0110077D01*
X0097708Y0110129D01*
X0097663Y0110179D01*
X0097616Y0110226D01*
X0097566Y0110271D01*
X0097514Y0110312D01*
X0097459Y0110351D01*
X0097402Y0110386D01*
X0097343Y0110418D01*
X0097282Y0110446D01*
X0097220Y0110471D01*
X0097157Y0110492D01*
X0097092Y0110509D01*
X0097027Y0110523D01*
X0096961Y0110532D01*
X0096894Y0110538D01*
X0096827Y0110540D01*
X0072981Y0059671D02*
X0072981Y0057115D01*
X0070425Y0059287D01*
X0068381Y0058521D02*
X0068383Y0058447D01*
X0068388Y0058373D01*
X0068398Y0058299D01*
X0068411Y0058226D01*
X0068427Y0058153D01*
X0068448Y0058082D01*
X0068472Y0058012D01*
X0068499Y0057943D01*
X0068530Y0057875D01*
X0068564Y0057809D01*
X0068601Y0057745D01*
X0068642Y0057683D01*
X0068686Y0057622D01*
X0068732Y0057565D01*
X0068782Y0057509D01*
X0068834Y0057456D01*
X0068889Y0057406D01*
X0068946Y0057359D01*
X0069006Y0057315D01*
X0069068Y0057273D01*
X0069131Y0057235D01*
X0069197Y0057200D01*
X0069264Y0057169D01*
X0069333Y0057141D01*
X0069403Y0057116D01*
X0070425Y0059287D02*
X0070378Y0059334D01*
X0070328Y0059378D01*
X0070276Y0059420D01*
X0070222Y0059459D01*
X0070166Y0059494D01*
X0070108Y0059527D01*
X0070048Y0059557D01*
X0069987Y0059583D01*
X0069924Y0059606D01*
X0069860Y0059625D01*
X0069796Y0059641D01*
X0069730Y0059654D01*
X0069664Y0059663D01*
X0069598Y0059668D01*
X0069531Y0059670D01*
X0069531Y0059671D02*
X0069464Y0059669D01*
X0069397Y0059663D01*
X0069331Y0059654D01*
X0069266Y0059640D01*
X0069201Y0059623D01*
X0069138Y0059602D01*
X0069076Y0059577D01*
X0069015Y0059549D01*
X0068956Y0059517D01*
X0068899Y0059482D01*
X0068844Y0059443D01*
X0068792Y0059402D01*
X0068742Y0059357D01*
X0068695Y0059310D01*
X0068650Y0059260D01*
X0068609Y0059208D01*
X0068570Y0059153D01*
X0068535Y0059096D01*
X0068503Y0059037D01*
X0068475Y0058976D01*
X0068450Y0058914D01*
X0068429Y0058851D01*
X0068412Y0058786D01*
X0068398Y0058721D01*
X0068389Y0058655D01*
X0068383Y0058588D01*
X0068381Y0058521D01*
X0068381Y0053893D02*
X0072981Y0053893D01*
X0072981Y0052615D02*
X0072981Y0055171D01*
X0069403Y0052615D02*
X0068381Y0053893D01*
X0071192Y0050626D02*
X0071192Y0047560D01*
X0070936Y0044510D02*
X0070936Y0043232D01*
X0070936Y0044510D02*
X0070934Y0044580D01*
X0070928Y0044651D01*
X0070919Y0044720D01*
X0070905Y0044789D01*
X0070888Y0044858D01*
X0070867Y0044925D01*
X0070842Y0044991D01*
X0070814Y0045055D01*
X0070782Y0045118D01*
X0070747Y0045179D01*
X0070708Y0045238D01*
X0070667Y0045295D01*
X0070622Y0045349D01*
X0070574Y0045401D01*
X0070524Y0045450D01*
X0070470Y0045497D01*
X0070415Y0045540D01*
X0070357Y0045580D01*
X0070297Y0045617D01*
X0070235Y0045650D01*
X0070171Y0045680D01*
X0070106Y0045707D01*
X0070040Y0045730D01*
X0069972Y0045749D01*
X0069903Y0045764D01*
X0069834Y0045776D01*
X0069764Y0045784D01*
X0069693Y0045788D01*
X0069623Y0045788D01*
X0069552Y0045784D01*
X0069482Y0045776D01*
X0069413Y0045764D01*
X0069344Y0045749D01*
X0069276Y0045730D01*
X0069210Y0045707D01*
X0069145Y0045680D01*
X0069081Y0045650D01*
X0069019Y0045617D01*
X0068959Y0045580D01*
X0068901Y0045540D01*
X0068846Y0045497D01*
X0068792Y0045450D01*
X0068742Y0045401D01*
X0068694Y0045349D01*
X0068649Y0045295D01*
X0068608Y0045238D01*
X0068569Y0045179D01*
X0068534Y0045118D01*
X0068502Y0045055D01*
X0068474Y0044991D01*
X0068449Y0044925D01*
X0068428Y0044858D01*
X0068411Y0044789D01*
X0068397Y0044720D01*
X0068388Y0044651D01*
X0068382Y0044580D01*
X0068380Y0044510D01*
X0068381Y0044510D02*
X0068381Y0043232D01*
X0072981Y0043232D01*
X0071064Y0040710D02*
X0070297Y0039304D01*
X0068380Y0039815D02*
X0068382Y0039897D01*
X0068387Y0039979D01*
X0068396Y0040061D01*
X0068408Y0040142D01*
X0068424Y0040223D01*
X0068443Y0040303D01*
X0068466Y0040382D01*
X0068492Y0040460D01*
X0068521Y0040537D01*
X0068554Y0040612D01*
X0068590Y0040686D01*
X0068628Y0040759D01*
X0068670Y0040830D01*
X0068715Y0040898D01*
X0068763Y0040965D01*
X0070297Y0039304D02*
X0070263Y0039250D01*
X0070226Y0039199D01*
X0070186Y0039150D01*
X0070143Y0039103D01*
X0070097Y0039060D01*
X0070049Y0039019D01*
X0069998Y0038981D01*
X0069945Y0038946D01*
X0069890Y0038914D01*
X0069833Y0038886D01*
X0069775Y0038862D01*
X0069715Y0038841D01*
X0069654Y0038824D01*
X0069592Y0038810D01*
X0069529Y0038801D01*
X0069466Y0038795D01*
X0069403Y0038793D01*
X0069341Y0038795D01*
X0069280Y0038800D01*
X0069219Y0038810D01*
X0069158Y0038823D01*
X0069099Y0038839D01*
X0069041Y0038859D01*
X0068984Y0038883D01*
X0068928Y0038910D01*
X0068874Y0038940D01*
X0068822Y0038974D01*
X0068773Y0039010D01*
X0068725Y0039050D01*
X0068680Y0039092D01*
X0068638Y0039137D01*
X0068598Y0039185D01*
X0068562Y0039234D01*
X0068528Y0039286D01*
X0068498Y0039340D01*
X0068471Y0039396D01*
X0068447Y0039453D01*
X0068427Y0039511D01*
X0068411Y0039570D01*
X0068398Y0039631D01*
X0068388Y0039692D01*
X0068383Y0039753D01*
X0068381Y0039815D01*
X0072341Y0038665D02*
X0072404Y0038729D01*
X0072463Y0038797D01*
X0072520Y0038866D01*
X0072574Y0038938D01*
X0072625Y0039012D01*
X0072673Y0039088D01*
X0072717Y0039165D01*
X0072758Y0039245D01*
X0072796Y0039326D01*
X0072831Y0039409D01*
X0072862Y0039493D01*
X0072889Y0039579D01*
X0072913Y0039665D01*
X0072934Y0039753D01*
X0072950Y0039841D01*
X0072963Y0039930D01*
X0072973Y0040019D01*
X0072978Y0040108D01*
X0072980Y0040198D01*
X0072978Y0040260D01*
X0072973Y0040321D01*
X0072963Y0040382D01*
X0072950Y0040443D01*
X0072934Y0040502D01*
X0072914Y0040560D01*
X0072890Y0040617D01*
X0072863Y0040673D01*
X0072833Y0040727D01*
X0072799Y0040779D01*
X0072763Y0040828D01*
X0072723Y0040876D01*
X0072681Y0040921D01*
X0072636Y0040963D01*
X0072588Y0041003D01*
X0072539Y0041039D01*
X0072487Y0041073D01*
X0072433Y0041103D01*
X0072377Y0041130D01*
X0072320Y0041154D01*
X0072262Y0041174D01*
X0072203Y0041190D01*
X0072142Y0041203D01*
X0072081Y0041213D01*
X0072020Y0041218D01*
X0071958Y0041220D01*
X0071895Y0041218D01*
X0071832Y0041212D01*
X0071769Y0041203D01*
X0071707Y0041189D01*
X0071646Y0041172D01*
X0071586Y0041151D01*
X0071528Y0041127D01*
X0071471Y0041099D01*
X0071416Y0041067D01*
X0071363Y0041032D01*
X0071312Y0040994D01*
X0071264Y0040953D01*
X0071218Y0040910D01*
X0071175Y0040863D01*
X0071135Y0040814D01*
X0071098Y0040763D01*
X0071064Y0040709D01*
X0072981Y0037118D02*
X0072981Y0035074D01*
X0068381Y0035074D01*
X0068381Y0037118D01*
X0070425Y0036607D02*
X0070425Y0035074D01*
D17*
X0168496Y0152000D02*
X0168496Y0192000D01*
X0168496Y0197000D02*
X0168496Y0237000D01*
X0171496Y0235900D02*
X0171496Y0217900D01*
X0192996Y0217900D01*
X0192996Y0235900D01*
X0171496Y0235900D01*
X0168496Y0242000D02*
X0168496Y0282000D01*
X0168496Y0287000D02*
X0168496Y0327000D01*
X0171496Y0325900D02*
X0171496Y0307900D01*
X0192996Y0307900D01*
X0192996Y0325900D01*
X0171496Y0325900D01*
X0171496Y0306100D02*
X0192996Y0306100D01*
X0192996Y0288100D01*
X0171496Y0288100D01*
X0171496Y0306100D01*
X0171496Y0280900D02*
X0171496Y0262900D01*
X0192996Y0262900D01*
X0192996Y0280900D01*
X0171496Y0280900D01*
X0171496Y0261100D02*
X0192996Y0261100D01*
X0192996Y0243100D01*
X0171496Y0243100D01*
X0171496Y0261100D01*
X0171496Y0216100D02*
X0192996Y0216100D01*
X0192996Y0198100D01*
X0171496Y0198100D01*
X0171496Y0216100D01*
X0171496Y0190900D02*
X0171496Y0172900D01*
X0192996Y0172900D01*
X0192996Y0190900D01*
X0171496Y0190900D01*
X0171496Y0171100D02*
X0192996Y0171100D01*
X0192996Y0153100D01*
X0171496Y0153100D01*
X0171496Y0171100D01*
D18*
X0175246Y0162100D03*
X0175246Y0181900D03*
X0175246Y0207100D03*
X0175246Y0226900D03*
X0175246Y0252100D03*
X0175246Y0271900D03*
X0175246Y0297100D03*
X0175246Y0316900D03*
M02*
